<?xml version="1.0" standalone="no"?>
<!DOCTYPE svg PUBLIC "-//W3C//DTD SVG 1.1//EN" "http://www.w3.org/Graphics/SVG/1.1/DTD/svg11.dtd" >
<svg xmlns="http://www.w3.org/2000/svg" xmlns:xlink="http://www.w3.org/1999/xlink" version="1.1">
<metadata></metadata>
<defs>
<font id="larsseitthin_italic" horiz-adv-x="1353" >
<font-face units-per-em="2048" ascent="1638" descent="-410" />
<missing-glyph horiz-adv-x="440" />
<glyph unicode="&#xfb01;" horiz-adv-x="1056" d="M102 944l15 80h221l37 207q23 128 96 202t176 74q84 0 135 -28l-14 -84q-64 28 -135 28q-136 0 -170 -192l-37 -207h276l-14 -80h-276l-166 -944h-88l166 944h-222zM700 0l181 1024h88l-181 -1024h-88zM899 1346q0 36 31.5 65t68.5 29q29 0 48.5 -19.5t19.5 -48.5 q0 -38 -30 -67t-68 -29q-30 0 -50 20t-20 50z" />
<glyph horiz-adv-x="0" />
<glyph horiz-adv-x="682" />
<glyph unicode=" "  horiz-adv-x="440" />
<glyph unicode="&#x09;" horiz-adv-x="440" />
<glyph unicode="&#xa0;" horiz-adv-x="440" />
<glyph unicode="!" horiz-adv-x="448" d="M74 55q0 44 34.5 77.5t77.5 33.5q35 0 57.5 -21.5t22.5 -54.5q0 -44 -34 -78.5t-78 -34.5q-35 0 -57.5 21.5t-22.5 56.5zM180 383l187 1051h88l-187 -1051h-88z" />
<glyph unicode="&#x22;" horiz-adv-x="548" d="M203 1065l59 395h100l-96 -395h-63zM467 1065l59 395h101l-97 -395h-63z" />
<glyph unicode="#" horiz-adv-x="1302" d="M31 440l14 82h303l160 451h-291l14 82h306l133 379h92l-133 -379h366l133 379h93l-134 -379h291l-14 -82h-305l-160 -451h293l-14 -82h-308l-153 -440h-92l153 440h-366l-154 -440h-92l153 440h-288zM440 522h367l160 451h-367z" />
<glyph unicode="$" horiz-adv-x="1075" d="M90 406h94q-35 -158 31 -247t215 -100l113 641q-154 68 -221.5 145.5t-67.5 201.5q0 158 121 282q119 125 301 131l31 168h88l-31 -174q140 -20 205 -118t45 -259h-94q23 125 -22.5 199.5t-147.5 93.5l-111 -618q168 -80 237.5 -157t69.5 -192q0 -168 -127 -292 t-317 -136l-29 -168h-88l29 168q-185 13 -269 126.5t-55 304.5zM346 1047q0 -90 47.5 -146t163.5 -113l105 584q-139 -9 -226 -102q-90 -96 -90 -223zM518 61q143 18 238 113q96 96 96 229q0 86 -51.5 145t-175.5 116z" />
<glyph unicode="%" horiz-adv-x="1640" d="M190 1053q0 159 111 282q110 125 279 125q121 0 197.5 -79.5t76.5 -202.5q0 -159 -111 -285q-107 -125 -276 -125q-124 0 -200.5 78.5t-76.5 206.5zM221 0l1194 1434h121l-1196 -1434h-119zM272 1053q0 -91 54.5 -147t146.5 -56q124 0 209 98q88 98 88 230 q0 91 -53.5 145.5t-143.5 54.5q-123 0 -211 -98q-90 -96 -90 -227zM893 258q0 160 111 283q110 125 278 125q119 0 196.5 -80t77.5 -203q0 -160 -110 -285q-107 -125 -277 -125q-124 0 -200 78.5t-76 206.5zM975 258q0 -91 54.5 -147t146.5 -56q122 0 208 99q89 100 89 229 q0 90 -54.5 145.5t-142.5 55.5q-122 0 -211 -99q-90 -96 -90 -227z" />
<glyph unicode="&#x26;" horiz-adv-x="1214" d="M66 313q0 146 89 251.5t273 205.5l37 21l-25 36q-100 138 -100 275q0 156 100 256q102 102 265 102q119 0 191 -70.5t71 -187.5q7 -71 -28 -139t-87 -119q-23 -25 -78 -65l-82 -54l-92 -53l-8 -4l309 -440q76 140 76 309q0 36 -10 108l92 25q12 -58 12 -135 q0 -205 -115 -385l179 -250h-109l-125 174q-177 -201 -434 -201q-189 0 -295 90t-106 250zM156 311q0 -254 311 -254q233 0 383 191l-336 473l-37 -23l-112 -67q-43 -27 -97 -76q-112 -97 -112 -244zM432 1102q0 -107 82 -223l31 -43l18 10q67 36 88 49l78 53q59 43 78 70 q67 87 67 184q2 80 -44.5 127t-127.5 47q-115 0 -192.5 -76t-77.5 -198z" />
<glyph unicode="'" horiz-adv-x="284" d="M203 1065l59 395h100l-96 -395h-63z" />
<glyph unicode="(" horiz-adv-x="516" d="M109 436q0 306 117.5 562t355.5 497l61 -55q-446 -452 -446 -1004q0 -310 161 -567l-67 -47q-182 299 -182 614z" />
<glyph unicode=")" horiz-adv-x="516" d="M-94 -125q446 452 446 1004q0 308 -162 567l68 47q182 -299 182 -614q0 -306 -117.5 -562t-355.5 -497z" />
<glyph unicode="*" horiz-adv-x="710" d="M141 1231l37 78l250 -86l49 286h84l-49 -282l276 86l23 -82l-287 -88l131 -234l-71 -45l-127 230l-211 -234l-62 55l209 230z" />
<glyph unicode="+" horiz-adv-x="966" d="M86 674l14 86h377l68 379h90l-68 -379h377l-14 -86h-377l-68 -379h-90l68 379h-377z" />
<glyph unicode="," horiz-adv-x="360" d="M-27 -248q80 99 121 230q-33 2 -53.5 20.5t-20.5 48.5q0 43 32 75t73 32q32 0 53 -21t21 -53q0 -80 -58 -178q-59 -103 -131 -172z" />
<glyph unicode="-" horiz-adv-x="747" d="M51 489l15 84h645l-15 -84h-645z" />
<glyph unicode="." horiz-adv-x="372" d="M14 53q0 44 34.5 78.5t78.5 34.5q35 0 56.5 -21.5t21.5 -56.5q0 -44 -35 -77.5t-78 -33.5q-35 0 -56.5 20.5t-21.5 55.5z" />
<glyph unicode="/" horiz-adv-x="763" d="M-84 0l905 1434h97l-910 -1434h-92z" />
<glyph unicode="0" horiz-adv-x="1110" d="M106 463q0 357 150 665q74 152 193 242t262 90q164 0 257 -131t93 -358q0 -358 -150 -666q-74 -152 -193 -242t-261 -90q-164 0 -257.5 131.5t-93.5 358.5zM199 465q0 -406 264 -406q118 0 218.5 84t162.5 224q125 274 125 602q0 405 -264 405q-118 0 -218.5 -83.5 t-164.5 -223.5q-123 -277 -123 -602z" />
<glyph unicode="1" horiz-adv-x="614" d="M186 1202l15 80q169 0 233 27q63 26 105 125h79l-251 -1434h-93l211 1202h-299z" />
<glyph unicode="2" horiz-adv-x="976" d="M47 0l12 70l592 639q120 130 175 233.5t55 224.5q0 207 -230 207q-128 0 -223.5 -87.5t-124.5 -244.5h-92q34 192 154 306q121 112 292 112q152 0 233 -74.5t81 -214.5t-61.5 -261t-188.5 -259l-524 -563h634l-16 -88h-768z" />
<glyph unicode="3" horiz-adv-x="1060" d="M133 385h92q-28 -161 46.5 -243.5t228.5 -82.5t268 105q115 109 115 266q0 130 -97 199t-282 69h-10l14 86h10q207 0 323.5 90t116.5 275q0 225 -227 225q-132 0 -227 -83t-123 -238h-92q32 193 149 300t299 107q145 0 229.5 -86.5t84.5 -224.5q0 -145 -76.5 -258.5 t-210.5 -153.5q91 -24 151 -108t60 -199q0 -189 -141 -324q-139 -133 -340 -133q-195 0 -291 110t-70 302z" />
<glyph unicode="4" horiz-adv-x="1040" d="M59 330l15 78l790 1026h82l-178 -1016h219l-16 -88h-219l-58 -330h-92l57 330h-600zM190 418h486l145 823l-69 -94z" />
<glyph unicode="5" horiz-adv-x="1073" d="M158 365h92q-28 -151 41.5 -228.5t216.5 -77.5q172 0 287 136q116 137 116 315q0 126 -70 198t-202 72q-173 0 -301 -78h-80l129 732h711l-17 -88h-618l-96 -543q105 63 280 63q163 0 258.5 -98t95.5 -256q0 -215 -137 -377t-360 -162q-186 0 -278 100t-68 292z" />
<glyph unicode="6" horiz-adv-x="1089" d="M129 381q0 285 76 526q78 250 219 400q144 153 328 153q159 0 242.5 -92.5t76.5 -263.5h-92q18 270 -231 270q-185 0 -320 -200q-133 -201 -182 -515q61 89 166 143t221 54q163 0 260.5 -99t97.5 -255q0 -212 -141 -371q-140 -158 -361 -158q-192 0 -292 142 q-68 103 -68 266zM221 350q0 -126 74 -208.5t203 -82.5q163 0 282 134q117 132 117 305q0 124 -72 198t-194 74q-148 0 -281 -121q-129 -120 -129 -299z" />
<glyph unicode="7" horiz-adv-x="954" d="M76 0l854 1346h-701l17 88h819l-12 -72l-869 -1362h-108z" />
<glyph unicode="8" horiz-adv-x="1093" d="M96 317q0 169 97 283q91 110 219 152q-65 26 -104.5 99.5t-39.5 162.5q0 191 129 317q129 129 322 129q147 0 235 -90t88 -229q0 -168 -86 -271q-81 -96 -178 -133q79 -32 135 -111.5t56 -189.5q0 -204 -148 -334q-147 -129 -356 -129q-161 0 -266 97q-103 100 -103 247z M188 317q0 -116 84 -188q82 -70 205 -70q152 0 275 105q125 104 125 272q0 119 -84 191q-83 71 -203 71q-153 0 -277 -106q-125 -107 -125 -275zM360 1014q0 -105 66.5 -167.5t177.5 -62.5q142 0 244 99q102 102 102 256q0 110 -64 172.5t-173 62.5q-140 0 -248 -102 q-105 -102 -105 -258z" />
<glyph unicode="9" horiz-adv-x="1089" d="M125 330h92q-18 -271 232 -271q183 0 315 199q133 196 186 514q-60 -88 -164.5 -141t-222.5 -53q-163 0 -260.5 99t-97.5 255q0 211 139 368q142 160 363 160q193 0 292 -141q68 -103 68 -266q0 -285 -76 -529q-77 -244 -221 -397q-145 -154 -326 -154q-159 0 -242.5 93 t-76.5 264zM299 936q0 -124 72 -198t194 -74q146 0 273 112q128 113 137 287v20q0 126 -74 208.5t-203 82.5q-164 0 -282 -133q-117 -132 -117 -305z" />
<glyph unicode=":" horiz-adv-x="372" d="M14 53q0 44 34.5 78.5t78.5 34.5q35 0 56.5 -21.5t21.5 -56.5q0 -44 -34 -77.5t-77 -33.5q-35 0 -57.5 21.5t-22.5 54.5zM168 936q0 44 35 77.5t80 33.5q35 0 56 -21.5t21 -54.5q0 -44 -34 -78.5t-78 -34.5q-35 0 -57.5 21.5t-22.5 56.5z" />
<glyph unicode=";" horiz-adv-x="372" d="M-27 -248q80 99 121 230q-33 2 -53.5 20.5t-20.5 48.5q0 43 32 75t73 32q32 0 53 -21t21 -53q0 -80 -58 -178q-59 -103 -131 -172zM170 934q0 44 34.5 78.5t78.5 34.5q35 0 56 -21.5t21 -56.5q0 -44 -33.5 -77.5t-76.5 -33.5q-35 0 -57.5 21.5t-22.5 54.5z" />
<glyph unicode="&#x3c;" horiz-adv-x="477" d="M31 502l6 30l375 381h114l-399 -407l250 -393h-96z" />
<glyph unicode="=" horiz-adv-x="966" d="M70 463l14 86h844l-15 -86h-843zM143 883l15 86h843l-14 -86h-844z" />
<glyph unicode="&#x3e;" horiz-adv-x="477" d="M-41 113l399 407l-249 393h96l250 -389l-6 -30l-375 -381h-115z" />
<glyph unicode="?" horiz-adv-x="794" d="M104 1067q35 193 153.5 297t293.5 104q137 0 233 -84q95 -83 95 -227q0 -111 -41 -203t-111 -155q-32 -29 -94 -78t-99.5 -80.5t-72 -76.5t-41.5 -87l-17 -94h-88l21 106q23 131 184 252q42 31 64 48.5t59.5 50.5t58.5 62.5t43.5 69t32.5 86t10 99.5q-1 109 -66 168 t-175 59q-143 0 -235.5 -81.5t-118.5 -235.5h-89zM213 72q6 39 38 66.5t73 27.5q39 0 61 -26.5t16 -67.5q-8 -39 -40 -67t-72 -28q-39 0 -61 27t-15 68z" />
<glyph unicode="@" horiz-adv-x="1615" d="M68 340q0 344 251 604q254 260 617 260q278 0 442 -170q166 -169 166 -436q0 -216 -94 -385q-94 -166 -254 -166q-73 0 -118.5 36.5t-51.5 98.5q-47 -59 -134 -99t-187 -40q-147 0 -230.5 93t-81.5 247q0 200 129 350q134 152 336 152q102 0 173 -47.5t91 -116.5l25 145 h82l-111 -630q-18 -107 84 -107q113 0 184 145q72 147 72 326q0 233 -141 377q-142 145 -387 145q-315 0 -545 -233q-231 -231 -231 -551q-3 -239 137 -385q145 -148 397 -148q157 0 295 60l16 -78q-147 -63 -315 -63q-288 0 -453 174q-163 172 -163 442zM479 383 q-2 -123 59 -190.5t177 -67.5q124 0 227 80q103 84 127 223l10 57q26 146 -38.5 232t-188.5 86q-157 0 -266 -127q-107 -125 -107 -293z" />
<glyph unicode="A" d="M-33 0l846 1434h76l344 -1434h-100l-107 449h-688l-260 -449h-111zM387 537h623l-164 682l-15 75l-38 -75z" />
<glyph unicode="B" horiz-adv-x="1116" d="M82 0l252 1434h336q170 0 271 -87t101 -229q0 -242 -239 -364q105 -35 161 -113.5t56 -185.5q0 -203 -154 -330q-149 -125 -360 -125h-424zM188 86h314q169 0 297 98q131 98 131 271q-2 112 -86 176.5t-234 64.5h-313zM311 782h264q148 0 263 95q114 95 114 245 q-2 106 -78 166t-212 60h-250z" />
<glyph unicode="C" horiz-adv-x="1472" d="M104 590q0 223 109 424q112 202 303 323q194 123 418 123q231 0 372.5 -107t182.5 -309h-107q-27 157 -139 243.5t-311 86.5q-299 0 -516 -239q-219 -239 -219 -543q0 -239 133 -387q134 -146 364 -146q194 0 343 88.5t229 241.5h106q-206 -416 -678 -416 q-266 0 -430 170q-160 174 -160 447z" />
<glyph unicode="D" horiz-adv-x="1484" d="M82 0l252 1434h481q287 0 451 -156q164 -153 164 -426q0 -355 -234 -604q-233 -248 -606 -248h-508zM188 88h404q314 0 530 219q215 221 215 543q0 238 -136.5 367t-387.5 129h-403z" />
<glyph unicode="E" horiz-adv-x="1026" d="M82 0l252 1434h753l-16 -88h-661l-99 -562h590l-14 -88h-590l-109 -608h662l-14 -88h-754z" />
<glyph unicode="F" horiz-adv-x="960" d="M82 0l252 1434h731l-16 -88h-639l-103 -582h543l-14 -88h-543l-119 -676h-92z" />
<glyph unicode="G" horiz-adv-x="1521" d="M104 588q0 220 107 418q111 204 299 327q195 127 426 127q228 0 373 -109.5t180 -306.5h-107q-25 156 -138.5 243t-307.5 87h-16q-137 0 -268 -64q-139 -67 -239.5 -177t-160.5 -255q-55 -136 -55 -272v-18q0 -238 133 -383q137 -146 354 -146q257 0 429 139t226 410 h-512l17 88h612l-12 -67q-56 -310 -253.5 -483t-506.5 -173q-263 0 -422 170q-158 172 -158 445z" />
<glyph unicode="H" horiz-adv-x="1433" d="M82 0l252 1434h92l-115 -650h901l115 650h92l-252 -1434h-92l123 696h-901l-123 -696h-92z" />
<glyph unicode="I" horiz-adv-x="440" d="M82 0l252 1434h92l-252 -1434h-92z" />
<glyph unicode="J" horiz-adv-x="962" d="M57 395h93q-6 -46 -6 -85q0 -251 241 -251q130 0 215 84t111 242l186 1049h92l-186 -1057q-35 -196 -141 -300t-275 -104q-185 0 -268 111q-66 89 -66 234q0 37 4 77z" />
<glyph unicode="K" horiz-adv-x="1345" d="M82 0l252 1434h92l-158 -889l881 889h129l-625 -627l535 -807h-113l-489 739l-342 -346l-70 -393h-92z" />
<glyph unicode="L" horiz-adv-x="991" d="M82 0l252 1434h92l-238 -1346h682l-14 -88h-774z" />
<glyph unicode="M" horiz-adv-x="1763" d="M82 0l252 1434h82l366 -1180l29 -102l66 102l782 1180h90l-252 -1434h-92l215 1225l-51 -88l-748 -1137h-63l-346 1137l-23 88l-215 -1225h-92z" />
<glyph unicode="N" horiz-adv-x="1417" d="M82 0l252 1434h86l620 -1192l45 -88l226 1280h92l-252 -1434h-86l-625 1198l-41 82l-225 -1280h-92z" />
<glyph unicode="O" horiz-adv-x="1619" d="M104 590q0 369 252 618q252 252 596 252q282 0 447 -174q166 -175 166 -444q0 -367 -252 -619q-253 -250 -592 -250q-282 0 -451 172q-166 175 -166 445zM197 590q0 -231 141 -381q144 -150 383 -150q300 0 526 226t226 557q0 230 -142 381t-379 151q-308 0 -532 -227 q-223 -223 -223 -557z" />
<glyph unicode="P" horiz-adv-x="1046" d="M82 0l252 1434h383q171 0 270.5 -95t99.5 -252q0 -203 -145 -342q-143 -137 -358 -137h-303l-107 -608h-92zM297 696h287q170 0 293 111q120 111 120 272v8q-1 121 -77.5 190t-206.5 69h-303z" />
<glyph unicode="Q" horiz-adv-x="1619" d="M104 590q0 369 252 618q252 252 596 252q282 0 447 -174q166 -175 166 -444q0 -251 -125 -455q-126 -202 -328 -313l238 -287h-117l-205 248q-151 -62 -307 -62q-282 0 -451 172q-166 175 -166 445zM197 590q0 -231 141 -381q144 -150 383 -150q128 0 250 45l-219 267 h114l189 -228q186 94 301 283q117 188 117 416q0 230 -142 381t-379 151q-308 0 -532 -227q-223 -223 -223 -557z" />
<glyph unicode="R" horiz-adv-x="1058" d="M111 0l251 1434h328q178 0 282 -96q100 -92 99 -239v-14q0 -165 -106 -286q-104 -122 -269 -160l246 -639h-94l-240 625h-297l-108 -625h-92zM328 713h247q164 0 283 104q123 108 123 268v6q0 117 -77 185q-79 70 -218 70h-248z" />
<glyph unicode="S" horiz-adv-x="1038" d="M90 406h94q-11 -53 -11 -98q-1 -97 51 -159q76 -90 239 -90q158 0 272 99q117 102 117 245q0 95 -64 157.5t-225 131.5q-167 71 -238 149.5t-71 205.5q0 163 125 288t311 125q175 0 262 -101q68 -78 68 -205q0 -36 -6 -77h-94q7 40 7 76q-1 91 -45 145q-62 76 -192 76 q-142 0 -246 -96q-98 -94 -98 -231q0 -101 57 -158q56 -53 197 -119q184 -84 266 -166q80 -77 80 -201q0 -178 -139 -305q-137 -125 -344 -125q-209 1 -305 115q-74 88 -75 229q0 42 7 89z" />
<glyph unicode="T" horiz-adv-x="1226" d="M152 1346l16 88h1190l-17 -88h-548l-236 -1346h-92l235 1346h-548z" />
<glyph unicode="U" horiz-adv-x="1396" d="M215 563l154 871h92l-156 -877q-14 -79 -14 -146q0 -352 377 -352q450 0 538 498l156 877h92l-156 -877q-51 -290 -211 -437t-423 -147q-256 0 -378 153q-86 108 -86 283q0 71 15 154z" />
<glyph unicode="V" d="M176 1434h98l289 -1219l12 -86l41 86l721 1219h107l-848 -1434h-76z" />
<glyph unicode="W" horiz-adv-x="1994" d="M188 1434h93l186 -1170l10 -102l41 102l586 1170h61l172 -1170l9 -102l43 102l600 1170h100l-729 -1434h-72l-170 1165l-10 92l-43 -92l-580 -1165h-71z" />
<glyph unicode="X" horiz-adv-x="1357" d="M-35 0l688 743l-391 691h103l352 -621l575 621h121l-647 -703l416 -731h-105l-377 659l-610 -659h-125z" />
<glyph unicode="Y" d="M178 1434h105l344 -703l41 -96l77 96l592 703h117l-747 -881l-97 -553h-92l96 553z" />
<glyph unicode="Z" horiz-adv-x="1185" d="M-8 0l12 72l1120 1274h-884l16 88h1018l-12 -72l-1123 -1274h918l-15 -88h-1050z" />
<glyph unicode="[" horiz-adv-x="503" d="M33 -158l286 1624h310l-17 -84h-221l-256 -1456h221l-14 -84h-309z" />
<glyph unicode="\" horiz-adv-x="763" d="M186 1434h84l400 -1434h-82z" />
<glyph unicode="]" horiz-adv-x="503" d="M-57 -158l14 84h219l256 1456h-221l16 84h310l-287 -1624h-307z" />
<glyph unicode="^" horiz-adv-x="1103" d="M121 946l612 610l397 -610h-98l-313 481l-481 -481h-117z" />
<glyph unicode="_" horiz-adv-x="1300" d="M-23 -84l15 84h1198l-14 -84h-1199z" />
<glyph unicode="`" horiz-adv-x="419" d="M193 1499h98l213 -323h-98z" />
<glyph unicode="a" horiz-adv-x="1193" d="M66 412q0 160 65 305q70 147 206 238.5t304 91.5q129 0 222 -62.5t126 -155.5l37 195h88l-182 -1024h-88l35 199q-59 -98 -169 -160t-241 -62q-188 0 -297 121q-106 121 -106 314zM156 412q0 -161 82.5 -256t232.5 -95q158 0 291 115t168 309l12 72q10 53 10 99 q0 119 -65 198q-89 109 -248 109q-206 0 -344 -170q-139 -171 -139 -381z" />
<glyph unicode="b" horiz-adv-x="1193" d="M78 0l264 1495h88l-119 -670q59 98 169 160t241 62q189 0 297 -123q106 -118 106 -312q0 -162 -67 -305q-68 -147 -203.5 -238.5t-304.5 -91.5q-129 0 -222 62.5t-126 155.5l-35 -195h-88zM248 467q-10 -53 -10 -99q0 -119 65 -198q89 -109 248 -109q207 0 344 168 q139 171 139 383q0 161 -82.5 256t-232.5 95q-158 0 -291 -115t-168 -309z" />
<glyph unicode="c" horiz-adv-x="1087" d="M70 414q0 258 170 446q169 187 407 187q158 0 263 -81t128 -218h-94q-20 102 -100.5 158.5t-200.5 56.5q-201 0 -342 -170t-141 -379v-7q0 -155 84 -249q86 -96 235 -97q118 0 221 58t158 157h96q-68 -145 -193 -222t-282 -77q-193 0 -301 123q-108 126 -108 314z" />
<glyph unicode="d" horiz-adv-x="1193" d="M70 412q0 160 65 305q70 147 206 238.5t304 91.5q129 0 222 -62.5t126 -155.5l119 666h88l-264 -1495h-88l35 199q-59 -98 -169 -160t-241 -62q-188 0 -297 121q-106 121 -106 314zM160 412q0 -161 82.5 -256t232.5 -95q158 0 291 115t168 309l12 72q10 53 10 99 q0 119 -65 198q-89 109 -248 109q-206 0 -344 -170q-139 -171 -139 -381z" />
<glyph unicode="e" horiz-adv-x="1120" d="M70 406q0 156 65 301q69 146 201 241q132 99 303 99q217 -1 321 -135q75 -96 74 -244q0 -60 -12 -127l-10 -62h-846q-6 -41 -6 -77q0 -156 84 -248q84 -93 231 -93q129 0 230.5 56t158.5 159h97q-144 -299 -488 -299q-179 0 -293 117q-110 119 -110 312zM182 561h754 q11 60 11 112q0 115 -54 187q-78 104 -258 103q-168 0 -289.5 -110t-163.5 -292z" />
<glyph unicode="f" horiz-adv-x="628" d="M102 944l15 80h207l36 207q23 127 101 201.5t184 74.5q92 0 143 -28l-14 -84q-64 28 -129 28q-162 0 -196 -192l-37 -207h276l-14 -80h-277l-166 -944h-88l166 944h-207z" />
<glyph unicode="g" horiz-adv-x="1218" d="M10 -143h96q15 -236 302 -236q175 0 291.5 101t148.5 288l33 189q-59 -98 -169 -160t-241 -62q-188 0 -297 121q-106 121 -106 314q0 160 65 305q70 147 206 238.5t304 91.5q129 0 222 -62.5t126 -155.5l35 195h88l-180 -1026q-37 -215 -177 -338t-351 -123 q-173 0 -278 79.5t-118 240.5zM158 412q0 -161 82.5 -256t232.5 -95q158 0 291 115t168 309l12 72q10 53 10 99q0 120 -65 198q-89 109 -248 109q-206 0 -344 -170q-139 -171 -139 -381z" />
<glyph unicode="h" horiz-adv-x="1048" d="M92 0l264 1495h88l-112 -637q34 69 131 129t203 60q159 0 229 -106q49 -73 48 -181q0 -47 -9 -101l-117 -659h-88l117 662q9 53 9 98q0 78 -29 126q-46 76 -162 77q-132 0 -240 -105q-110 -103 -139 -270l-105 -588h-88z" />
<glyph unicode="i" horiz-adv-x="448" d="M92 0l180 1024h88l-180 -1024h-88zM291 1346q0 36 31.5 65t68.5 29q29 0 48.5 -19.5t19.5 -48.5q0 -38 -30 -67t-69 -29q-30 0 -49.5 20t-19.5 50z" />
<glyph unicode="j" horiz-adv-x="448" d="M-262 -451l14 86q43 -14 96 -14q96 0 144.5 49.5t66.5 151.5l213 1202h88l-213 -1202q-24 -144 -96 -213q-78 -72 -217 -72q-56 0 -96 12zM291 1346q0 36 30.5 65t67.5 29q29 0 49.5 -19.5t20.5 -48.5q0 -38 -30 -67t-69 -29q-30 0 -49.5 20t-19.5 50z" />
<glyph unicode="k" horiz-adv-x="942" d="M92 0l264 1495h88l-178 -1008l555 537h125l-440 -426l311 -598h-94l-281 539l-198 -183l-64 -356h-88z" />
<glyph unicode="l" horiz-adv-x="448" d="M92 0l264 1495h88l-264 -1495h-88z" />
<glyph unicode="m" horiz-adv-x="1673" d="M92 0l180 1024h88l-28 -166q38 70 129 129q97 60 201 60q115 0 183 -56.5t87 -161.5q56 88 147 150q100 68 213 68q158 0 228 -106q48 -73 48 -180q0 -48 -9 -102l-117 -659h-88l116 662q9 53 9 98q0 78 -29 126q-46 76 -162 77q-129 0 -237 -105q-109 -103 -136 -270v2 l-104 -590h-88l117 662q9 53 9 97q1 77 -29 127q-46 76 -163 77q-129 0 -237 -105q-108 -102 -135 -270l-105 -588h-88z" />
<glyph unicode="n" horiz-adv-x="1048" d="M92 0l180 1024h88l-28 -166q34 69 131 129t203 60q159 0 229 -106q49 -73 48 -181q0 -47 -9 -101l-117 -659h-88l117 662q9 53 9 98q0 78 -29 126q-46 76 -162 77q-131 0 -242 -105q-111 -104 -137 -270l-105 -588h-88z" />
<glyph unicode="o" horiz-adv-x="1157" d="M70 418q0 252 168 438q170 191 430 191q194 0 307 -125q112 -121 112 -318v-18q-1 -82 -25 -165q-28 -92 -82.5 -171.5t-127 -141.5t-166.5 -97q-91 -34 -188 -34h-6q-196 0 -310 123q-112 124 -112 318zM160 418q0 -158 90 -257.5t242 -99.5q216 0 360 164 q145 168 145 379q0 160 -89 259.5t-240 99.5q-221 0 -365 -164q-143 -162 -143 -381z" />
<glyph unicode="p" horiz-adv-x="1218" d="M25 -440l258 1464h88l-35 -199q59 98 168.5 160t240.5 62q189 0 297 -123q107 -119 107 -312q0 -160 -68 -305q-68 -147 -203.5 -238.5t-304.5 -91.5q-129 0 -222 62.5t-126 155.5l-112 -635h-88zM272 467q-9 -51 -9 -97q0 -120 65 -200q89 -109 247 -109q208 0 345 168 q139 171 139 383q0 161 -83 256t-233 95q-157 0 -290 -115t-168 -309z" />
<glyph unicode="q" horiz-adv-x="1218" d="M70 412q0 160 65 305q70 147 206 238.5t304 91.5q129 0 222 -62.5t126 -155.5l35 195h88l-258 -1464h-88l113 639q-59 -98 -169 -160t-241 -62q-188 0 -297 121q-106 121 -106 314zM160 412q0 -161 82.5 -256t232.5 -95q158 0 291 115t168 309l12 72q10 53 10 99 q0 120 -65 198q-89 109 -248 109q-206 0 -344 -170q-139 -171 -139 -381z" />
<glyph unicode="r" horiz-adv-x="636" d="M92 0l180 1024h88l-28 -178q43 83 133.5 135.5t210.5 52.5l-14 -84q-142 0 -240 -104q-113 -122 -148 -311l-94 -535h-88z" />
<glyph unicode="s" horiz-adv-x="890" d="M88 289h94q-5 -27 -5 -50q0 -73 45 -119q59 -60 184 -59q128 0 209 67t81 163q0 75 -53 121t-184 84q-136 40 -196 95.5t-60 156.5q0 134 102 217q101 82 250 82q145 0 215 -75q60 -63 59 -177q0 -21 -2 -43h-94q5 31 5 57q0 154 -185 154q-114 0 -187 -58.5t-73 -156.5 q0 -70 41 -105q47 -33 155 -68q163 -52 230 -114t67 -170q0 -135 -110 -223q-114 -91 -275 -91q-164 1 -247 85q-69 70 -69 180q0 23 3 47z" />
<glyph unicode="t" horiz-adv-x="659" d="M86 940l14 84h215l50 266h88l-50 -266h291l-14 -84h-291l-125 -686q-7 -43 -7 -76q0 -46 15 -69q26 -39 109 -39q82 0 149 20l-14 -82q-55 -22 -139 -22q-208 0 -208 191q0 40 9 87l123 676h-215z" />
<glyph unicode="u" horiz-adv-x="1038" d="M162 365l117 659h88l-117 -662q-10 -56 -10 -101q0 -200 188 -200q127 0 236 103q110 107 139 272l102 588h88l-180 -1024h-88l29 166q-38 -70 -129 -129q-94 -60 -199 -60q-158 -1 -226 105q-47 73 -48 180q0 48 10 103z" />
<glyph unicode="v" horiz-adv-x="999" d="M113 1024h90l188 -842l10 -67l35 67l488 842h98l-596 -1024h-82z" />
<glyph unicode="w" horiz-adv-x="1546" d="M113 1024h88l127 -813l8 -78l37 78l428 813h76l137 -813l8 -78l37 78l414 813h96l-522 -1024h-82l-154 862l-459 -862h-82z" />
<glyph unicode="x" horiz-adv-x="1001" d="M-29 0l482 543l-260 481h98l223 -412l365 412h118l-438 -498l287 -526h-101l-247 461l-408 -461h-119z" />
<glyph unicode="y" horiz-adv-x="999" d="M70 -440l270 467l-227 997h88l190 -842l10 -67l35 67l486 842h100l-850 -1464h-102z" />
<glyph unicode="z" horiz-adv-x="901" d="M-14 0l14 72l774 868h-616l16 84h739l-14 -72l-774 -868h663l-16 -84h-786z" />
<glyph unicode="{" horiz-adv-x="522" d="M35 612l14 84h39q133 0 160 148l71 403q41 219 261 219h67l-16 -84h-68q-130 0 -157 -147l-70 -397q-24 -142 -137 -191q96 -50 69 -188l-67 -385q-27 -148 106 -148h68l-15 -84h-67q-104 0 -150.5 67t-27.5 179l65 377q27 147 -106 147h-39z" />
<glyph unicode="|" horiz-adv-x="395" d="M55 -137l287 1624h88l-287 -1624h-88z" />
<glyph unicode="}" horiz-adv-x="522" d="M-59 -158l16 84h68q130 0 157 148l70 397q24 142 137 191q-97 51 -70 188l68 385q27 147 -106 147h-68l14 84h68q104 0 150.5 -66.5t27.5 -178.5l-65 -377q-27 -148 106 -148h39l-14 -84h-39q-133 0 -160 -147l-72 -404q-41 -219 -260 -219h-67z" />
<glyph unicode="~" horiz-adv-x="1171" d="M88 641q129 225 334 225q69 0 127 -28t92 -68q34 -39 85.5 -66.5t107.5 -27.5q166 0 260 178l65 -49q-125 -223 -334 -223q-68 0 -125.5 27.5t-91.5 66.5q-34 41 -84.5 68.5t-107.5 27.5q-169 0 -260 -178z" />
<glyph unicode="&#xa1;" horiz-adv-x="448" d="M35 -410l186 1051h88l-186 -1051h-88zM223 934q0 44 34.5 78.5t78.5 34.5q35 0 57.5 -21.5t22.5 -56.5q0 -44 -35 -77.5t-78 -33.5q-35 0 -57.5 21.5t-22.5 54.5z" />
<glyph unicode="&#xa2;" horiz-adv-x="1087" d="M70 414q0 251 157 434q159 181 387 196l31 173h88l-31 -175q135 -14 225.5 -92.5t110.5 -201.5h-94q-19 90 -87 146t-169 67l-158 -898q225 27 328 213h96q-65 -135 -180.5 -211.5t-259.5 -84.5l-29 -173h-88l31 173q-168 15 -264 137q-94 122 -94 297zM160 414 q-2 -149 74 -245t208 -108l158 900q-187 -21 -313 -185q-127 -165 -127 -362z" />
<glyph unicode="&#xa3;" horiz-adv-x="989" d="M6 0l12 70l97 114q172 208 172 439v18h-205l16 88h178q-2 12 -13.5 70t-18 103.5t-4.5 76.5q0 203 127 342t317 139q167 0 247 -93.5t54 -268.5h-92q44 274 -213 274q-151 0 -250 -117q-98 -113 -98 -274q0 -26 4 -80q4 -27 17 -90.5t16 -81.5h356l-16 -88h-332v-18 q0 -249 -184 -476l-50 -59h457q216 0 254 213h92q-49 -301 -350 -301h-590z" />
<glyph unicode="&#xa4;" horiz-adv-x="1236" d="M2 35l299 258q-43 76 -43 176q0 189 133 328l-201 252l60 49l199 -252q116 84 260 84q141 0 227 -86l299 256l51 -58l-303 -260q45 -77 45 -176q0 -184 -133 -323l205 -254l-58 -49l-202 253q-118 -86 -262 -86t-230 86l-295 -256zM340 469q0 -107 65.5 -176.5 t172.5 -69.5q157 0 262 117q106 115 106 266q0 110 -64 179t-173 69q-160 0 -265 -117q-104 -116 -104 -268z" />
<glyph unicode="&#xa5;" d="M178 1434h105l344 -703l41 -96l77 96l592 703h117l-733 -865h264l-16 -88h-275l-26 -151h274l-14 -88h-277l-41 -242h-92l41 242h-272l14 88h274l27 151h-274l16 88h262z" />
<glyph unicode="&#xa6;" horiz-adv-x="395" d="M55 -137l101 573h88l-101 -573h-88zM240 913l102 574h88l-102 -574h-88z" />
<glyph unicode="&#xa7;" horiz-adv-x="1011" d="M115 207h94q-20 -109 43.5 -168t198.5 -59t221 63q90 66 90 174q0 72 -61.5 116t-202.5 75q-181 38 -264.5 102.5t-83.5 177.5q0 182 237 293q-72 66 -72 160q0 148 113 239q115 95 272 95q165 0 251 -87.5t61 -224.5h-94q20 109 -37.5 168.5t-184.5 59.5 q-114 0 -202 -70q-88 -67 -88 -180q0 -66 58 -108t185 -68q171 -36 250.5 -99t79.5 -170q0 -173 -231 -293q104 -70 104 -186q0 -147 -121 -233q-119 -88 -285 -88q-175 0 -265.5 86.5t-65.5 224.5zM240 688q0 -78 66 -124.5t226 -78.5q68 -15 132 -39q225 88 225 250 q0 74 -62 117t-213 74q-95 18 -155 49q-98 -39 -158.5 -103t-60.5 -145z" />
<glyph unicode="&#xa8;" horiz-adv-x="544" d="M145 1272q0 36 29 64t66 28q26 0 45.5 -19t19.5 -45q0 -37 -28.5 -64.5t-65.5 -27.5q-29 0 -47.5 17.5t-18.5 46.5zM494 1272q0 37 28.5 64.5t65.5 27.5q26 0 45.5 -19t19.5 -45q0 -37 -28.5 -64.5t-65.5 -27.5q-29 0 -47 17.5t-18 46.5z" />
<glyph unicode="&#xa9;" horiz-adv-x="1167" d="M131 893q0 266 176 442q177 174 438 174q206 0 328 -125q123 -126 123 -319q0 -266 -178 -447q-175 -178 -434 -178q-206 0 -330 127q-123 129 -123 326zM221 893q0 -160 98 -264q99 -105 265 -105q219 0 370 154q152 158 152 387q0 157 -98 258q-99 102 -263 102 q-221 0 -372 -151q-152 -152 -152 -381zM381 926q0 142 94 243q95 103 244 103q93 0 155 -52.5t70 -132.5h-94q-12 105 -137 105q-102 0 -172 -82q-72 -81 -72 -182q0 -78 42.5 -124t117.5 -46q133 0 186 108h92q-80 -188 -284 -188q-105 0 -173.5 71t-68.5 177z" />
<glyph unicode="&#xaa;" horiz-adv-x="905" d="M207 1018q0 174 112 301q114 129 293 129q89 0 153.5 -43t82.5 -102l24 131h78l-123 -699h-77l18 117q-34 -52 -113.5 -91.5t-167.5 -39.5q-128 0 -204 83t-76 214zM289 1018q0 -101 55.5 -161t153.5 -60q106 0 194 73q93 80 113 197l8 43q23 121 -35 191.5t-166 70.5 q-134 0 -229 -108q-94 -107 -94 -246z" />
<glyph unicode="&#xab;" horiz-adv-x="874" d="M31 502l6 30l375 381h114l-399 -407l250 -393h-96zM426 502l6 30l375 381h115l-400 -407l250 -393h-96z" />
<glyph unicode="&#xac;" horiz-adv-x="1122" d="M139 768l15 80h966l-90 -508h-80l76 428h-887z" />
<glyph unicode="&#xad;" horiz-adv-x="747" d="M51 489l15 84h645l-15 -84h-645z" />
<glyph unicode="&#xae;" horiz-adv-x="1167" d="M131 893q0 266 176 442q177 174 438 174q206 0 328 -125q123 -126 123 -319q0 -266 -178 -447q-175 -178 -434 -178q-206 0 -330 127q-123 129 -123 326zM221 893q0 -160 98 -264q99 -105 265 -105q219 0 370 154q152 158 152 387q0 157 -98 258q-99 102 -263 102 q-221 0 -372 -151q-152 -152 -152 -381zM440 688l101 574h172q78 0 125 -43.5t47 -112.5q0 -65 -39 -113t-103 -67l93 -238h-91l-90 227h-90l-39 -227h-86zM580 991h94q54 0 88.5 31t34.5 82q0 78 -90 78h-95z" />
<glyph unicode="&#xaf;" horiz-adv-x="542" d="M145 1239l15 84h502l-15 -84h-502z" />
<glyph unicode="&#xb0;" horiz-adv-x="673" d="M160 1145q0 135 98 233q98 101 240 101q109 0 178.5 -68t71.5 -174q0 -137 -99 -236q-101 -96 -243 -96q-109 0 -177.5 67t-68.5 173zM250 1147q0 -72 45 -115t117 -43q97 0 170 70q75 69 75 174q0 73 -45.5 117.5t-119.5 44.5q-95 0 -170 -72q-72 -72 -72 -176z" />
<glyph unicode="&#xb1;" horiz-adv-x="966" d="M23 215l14 86h844l-15 -86h-843zM131 848l14 86h377l68 379h90l-68 -379h377l-14 -86h-377l-68 -379h-90l68 379h-377z" />
<glyph unicode="&#xb2;" horiz-adv-x="653" d="M152 836l10 63l354 346q118 115 115 225q-3 103 -121 103q-70 0 -120 -42.5t-62 -119.5h-86q19 109 94.5 175.5t179.5 66.5q95 0 149 -50t54 -133q0 -136 -139 -272l-285 -280h348l-14 -82h-477z" />
<glyph unicode="&#xb3;" horiz-adv-x="706" d="M211 1061h86q-13 -80 26 -120t121 -40q81 0 142 50.5t61 129.5q0 131 -203 131h-18l12 76h19q103 0 165 44t62 134q0 107 -119 107q-71 0 -122 -40.5t-64 -115.5h-86q17 110 92 173t186 63q94 0 147.5 -52.5t53.5 -136.5q0 -74 -44 -132t-118 -83q55 -12 90 -57.5 t35 -110.5q0 -112 -86 -186t-211 -74q-122 0 -181.5 63.5t-45.5 176.5z" />
<glyph unicode="&#xb4;" horiz-adv-x="419" d="M147 1176l328 323h117l-326 -323h-119z" />
<glyph unicode="&#xb5;" horiz-adv-x="1054" d="M4 -440l137 770l6 35l117 659h88l-116 -662q-52 -301 178 -301q126 0 235 103q110 107 139 272l103 588h88l-180 -1024h-88l28 166q-37 -70 -129 -129q-94 -60 -198 -60q-158 0 -228 105l-92 -522h-88z" />
<glyph unicode="&#xb6;" horiz-adv-x="1179" d="M158 979q0 195 141 324q140 131 346 131h666l-15 -76h-186l-268 -1522h-80l268 1522h-285l-268 -1522h-80l144 813h-35q-159 0 -254 92q-94 94 -94 238z" />
<glyph unicode="&#xb7;" horiz-adv-x="372" d="M106 516q0 44 35 77.5t80 33.5q35 0 56.5 -21.5t21.5 -54.5q0 -44 -34.5 -78.5t-78.5 -34.5q-35 0 -57.5 21.5t-22.5 56.5z" />
<glyph unicode="&#xb8;" horiz-adv-x="428" d="M-68 -389l62 57q40 -61 127 -61q57 0 97 28.5t40 77.5q0 76 -84 76q-38 0 -84 -12l-43 12l96 223h78l-63 -151q6 2 28 2q66 0 108 -40t42 -106q0 -83 -63 -135.5t-156 -52.5q-118 0 -185 82z" />
<glyph unicode="&#xb9;" horiz-adv-x="458" d="M244 1477l12 67q99 0 144.5 19.5t68.5 74.5h70l-142 -802h-86l113 641h-180z" />
<glyph unicode="&#xba;" horiz-adv-x="880" d="M170 1022q0 185 123 305q124 121 299 121q135 0 216 -85t81 -220q0 -182 -121 -303q-119 -119 -297 -119q-137 0 -219 84t-82 217zM252 1022q0 -101 60 -163t163 -62q147 0 240 100q94 101 94 252q0 101 -60 162t-163 61q-148 0 -242 -104q-92 -106 -92 -246z" />
<glyph unicode="&#xbb;" horiz-adv-x="874" d="M-41 113l399 407l-249 393h96l250 -389l-6 -30l-375 -381h-115zM354 113l400 407l-250 393h96l250 -389l-6 -30l-375 -381h-115z" />
<glyph unicode="&#xbc;" horiz-adv-x="1284" d="M53 0l1194 1434h121l-1196 -1434h-119zM227 1272l13 67q99 0 144.5 20t68.5 75h69l-141 -803h-86l113 641h-181zM616 172l13 70l452 561h93l-97 -553h125l-14 -78h-125l-31 -172h-86l31 172h-361zM733 250h258l74 405l-39 -51z" />
<glyph unicode="&#xbd;" horiz-adv-x="1372" d="M6 0l1194 1434h121l-1196 -1434h-119zM217 1272l12 67q99 0 144.5 20t68.5 75h70l-141 -803h-86l112 641h-180zM762 0l10 63l354 347q118 115 115 225q-3 102 -121 102q-70 0 -120 -42.5t-62 -119.5h-86q19 109 94.5 175.5t179.5 66.5q95 0 149 -49.5t54 -132.5 q0 -137 -139 -273l-285 -280h348l-14 -82h-477z" />
<glyph unicode="&#xbe;" horiz-adv-x="1470" d="M193 856h86q-13 -80 26 -120t121 -40q81 0 142 51t61 130q0 131 -203 131h-18l12 75h18q103 0 165.5 44.5t62.5 134.5q0 106 -119 106q-71 0 -122.5 -40.5t-64.5 -115.5h-86q17 110 92.5 173t186.5 63q95 0 148 -52t53 -136q0 -75 -44 -133t-118 -83q55 -12 90 -57 t35 -110q0 -113 -86 -187t-211 -74q-122 0 -181.5 63.5t-45.5 176.5zM244 0l1194 1434h121l-1197 -1434h-118zM819 172l12 70l453 561h92l-96 -553h125l-14 -78h-125l-31 -172h-86l31 172h-361zM936 250h258l74 405l-39 -51z" />
<glyph unicode="&#xbf;" horiz-adv-x="794" d="M-39 -133q0 110 41.5 202.5t108.5 153.5q34 31 95.5 80t99.5 80.5t72.5 76.5t41.5 87l16 94h88l-20 -106q-23 -130 -185 -252q-42 -31 -64 -48.5t-59.5 -50.5t-58.5 -62.5t-43.5 -69t-32.5 -86t-10 -99.5q1 -109 66 -168t176 -59q143 0 235.5 81.5t118.5 235.5h88 q-35 -194 -153 -297.5t-293 -103.5q-138 0 -234 84q-94 82 -94 227zM438 952q8 39 40 67t73 28q39 0 61 -27t15 -68q-6 -39 -38 -66.5t-73 -27.5q-39 0 -61.5 26.5t-16.5 67.5z" />
<glyph unicode="&#xc0;" d="M-33 0l846 1434h76l344 -1434h-100l-107 449h-688l-260 -449h-111zM387 537h623l-164 682l-15 75l-38 -75zM594 1696h129l207 -201h-123z" />
<glyph unicode="&#xc1;" d="M-33 0l846 1434h76l344 -1434h-100l-107 449h-688l-260 -449h-111zM387 537h623l-164 682l-15 75l-38 -75zM782 1495l273 201h151l-278 -201h-146z" />
<glyph unicode="&#xc2;" d="M-33 0l846 1434h76l344 -1434h-100l-107 449h-688l-260 -449h-111zM387 537h623l-164 682l-15 75l-38 -75zM553 1495l307 201h78l236 -201h-136l-147 119l-186 -119h-152z" />
<glyph unicode="&#xc3;" d="M-33 0l846 1434h76l344 -1434h-100l-107 449h-688l-260 -449h-111zM387 537h623l-164 682l-15 75l-38 -75zM555 1509q41 213 217 213q44 0 75 -15t48 -36t31.5 -42.5t34.5 -36.5t47 -15q108 0 129 127h82q-35 -213 -215 -213q-44 0 -75.5 15t-48.5 36.5t-32 42.5t-35 36 t-47 15q-105 0 -129 -127h-82z" />
<glyph unicode="&#xc4;" d="M-33 0l846 1434h76l344 -1434h-100l-107 449h-688l-260 -449h-111zM387 537h623l-164 682l-15 75l-38 -75zM627 1569q0 37 27.5 64.5t64.5 27.5q29 0 47 -19t18 -49q0 -35 -28 -61.5t-64 -26.5q-29 0 -47 17.5t-18 46.5zM975 1569q0 37 27.5 64.5t64.5 27.5 q29 0 47.5 -19.5t18.5 -48.5q0 -35 -28.5 -61.5t-64.5 -26.5q-29 0 -47 17.5t-18 46.5z" />
<glyph unicode="&#xc5;" d="M-33 0l846 1434h76l344 -1434h-100l-107 449h-688l-260 -449h-111zM387 537h623l-164 682l-15 75l-38 -75zM717 1642q0 84 60 138.5t147 54.5q67 0 109 -44.5t42 -111.5q0 -83 -60.5 -137.5t-148.5 -54.5q-67 0 -108 44t-41 111zM795 1642q0 -37 21 -59t58 -22 q50 0 86.5 35.5t36.5 84.5q0 35 -22.5 57.5t-59.5 22.5q-47 0 -83.5 -36t-36.5 -83z" />
<glyph unicode="&#xc6;" horiz-adv-x="1849" d="M-63 0l1222 1434h752l-17 -88h-661l-98 -562h589l-14 -88h-590l-108 -608h661l-14 -88h-754l78 449h-547l-383 -449h-116zM512 537h487l131 731l-53 -70z" />
<glyph unicode="&#xc7;" horiz-adv-x="1472" d="M104 590q0 223 109 424q112 202 303 323q194 123 418 123q231 0 372.5 -107t182.5 -309h-107q-27 157 -139 243.5t-311 86.5q-299 0 -516 -239q-219 -239 -219 -543q0 -239 133 -387q134 -146 364 -146q194 0 343 88.5t229 241.5h106q-206 -416 -678 -416h-26l-47 -112 q6 2 28 2q66 0 108 -40t42 -106q0 -83 -63 -135.5t-156 -52.5q-118 0 -185 82l62 57q40 -61 127 -61q57 0 97 28.5t40 77.5q0 76 -84 76q-37 0 -84 -12l-43 12l82 193q-223 30 -356 194q-132 166 -132 414z" />
<glyph unicode="&#xc8;" horiz-adv-x="1026" d="M82 0l252 1434h753l-16 -88h-661l-99 -562h590l-14 -88h-590l-109 -608h662l-14 -88h-754zM457 1696h129l207 -201h-123z" />
<glyph unicode="&#xc9;" horiz-adv-x="1026" d="M82 0l252 1434h753l-16 -88h-661l-99 -562h590l-14 -88h-590l-109 -608h662l-14 -88h-754zM645 1495l273 201h151l-278 -201h-146z" />
<glyph unicode="&#xca;" horiz-adv-x="1026" d="M82 0l252 1434h753l-16 -88h-661l-99 -562h590l-14 -88h-590l-109 -608h662l-14 -88h-754zM416 1495l307 201h78l235 -201h-135l-147 119l-187 -119h-151z" />
<glyph unicode="&#xcb;" horiz-adv-x="1026" d="M82 0l252 1434h753l-16 -88h-661l-99 -562h590l-14 -88h-590l-109 -608h662l-14 -88h-754zM489 1569q0 37 28 64.5t65 27.5q29 0 47 -19t18 -49q0 -35 -28 -61.5t-64 -26.5q-29 0 -47.5 17.5t-18.5 46.5zM838 1569q0 37 27.5 64.5t64.5 27.5q29 0 47 -19t18 -49 q0 -35 -28 -61.5t-64 -26.5q-29 0 -47 17.5t-18 46.5z" />
<glyph unicode="&#xcc;" horiz-adv-x="440" d="M82 0l252 1434h92l-252 -1434h-92zM123 1696h129l207 -201h-123z" />
<glyph unicode="&#xcd;" horiz-adv-x="440" d="M82 0l252 1434h92l-252 -1434h-92zM311 1495l273 201h151l-278 -201h-146z" />
<glyph unicode="&#xce;" horiz-adv-x="440" d="M82 0l252 1434h92l-252 -1434h-92zM82 1495l307 201h78l235 -201h-135l-147 119l-187 -119h-151z" />
<glyph unicode="&#xcf;" horiz-adv-x="440" d="M82 0l252 1434h92l-252 -1434h-92zM156 1569q0 37 27.5 64.5t64.5 27.5q29 0 47 -19t18 -49q0 -35 -28 -61.5t-64 -26.5q-29 0 -47 17.5t-18 46.5zM504 1569q0 37 27.5 64.5t64.5 27.5q29 0 47.5 -19.5t18.5 -48.5q0 -35 -28.5 -61.5t-64.5 -26.5q-29 0 -47 17.5 t-18 46.5z" />
<glyph unicode="&#xd0;" horiz-adv-x="1503" d="M78 662l16 88h137l121 684h482q286 0 450 -156q164 -153 164 -426q0 -355 -234 -604q-233 -248 -606 -248h-508l117 662h-139zM207 88h403q315 0 531 219q215 221 215 543q0 237 -137 366.5t-388 129.5h-403l-104 -596h397l-16 -88h-398z" />
<glyph unicode="&#xd1;" horiz-adv-x="1417" d="M82 0l252 1434h86l620 -1192l45 -88l226 1280h92l-252 -1434h-86l-625 1198l-41 82l-225 -1280h-92zM580 1509q41 213 217 213q44 0 75 -15t48 -36t31 -42.5t34 -36.5t47 -15q108 0 129 127h82q-35 -213 -215 -213q-44 0 -75 15t-48.5 36.5t-32 42.5t-34.5 36t-47 15 q-105 0 -129 -127h-82z" />
<glyph unicode="&#xd2;" horiz-adv-x="1619" d="M104 590q0 369 252 618q252 252 596 252q282 0 447 -174q166 -175 166 -444q0 -367 -252 -619q-253 -250 -592 -250q-282 0 -451 172q-166 175 -166 445zM197 590q0 -231 141 -381q144 -150 383 -150q300 0 526 226t226 557q0 230 -142 381t-379 151q-308 0 -532 -227 q-223 -223 -223 -557zM696 1716h129l207 -200h-123z" />
<glyph unicode="&#xd3;" horiz-adv-x="1619" d="M104 590q0 369 252 618q252 252 596 252q282 0 447 -174q166 -175 166 -444q0 -367 -252 -619q-253 -250 -592 -250q-282 0 -451 172q-166 175 -166 445zM197 590q0 -231 141 -381q144 -150 383 -150q300 0 526 226t226 557q0 230 -142 381t-379 151q-308 0 -532 -227 q-223 -223 -223 -557zM885 1516l272 200h152l-279 -200h-145z" />
<glyph unicode="&#xd4;" horiz-adv-x="1619" d="M104 590q0 369 252 618q252 252 596 252q282 0 447 -174q166 -175 166 -444q0 -367 -252 -619q-253 -250 -592 -250q-282 0 -451 172q-166 175 -166 445zM197 590q0 -231 141 -381q144 -150 383 -150q300 0 526 226t226 557q0 230 -142 381t-379 151q-308 0 -532 -227 q-223 -223 -223 -557zM655 1516l308 200h77l236 -200h-135l-148 118l-186 -118h-152z" />
<glyph unicode="&#xd5;" horiz-adv-x="1619" d="M104 590q0 369 252 618q252 252 596 252q282 0 447 -174q166 -175 166 -444q0 -367 -252 -619q-253 -250 -592 -250q-282 0 -451 172q-166 175 -166 445zM197 590q0 -231 141 -381q144 -150 383 -150q300 0 526 226t226 557q0 230 -142 381t-379 151q-308 0 -532 -227 q-223 -223 -223 -557zM657 1530q41 213 217 213q44 0 75 -15t48 -36.5t31.5 -43t34.5 -36.5t47 -15q108 0 129 127h82q-35 -213 -215 -213q-44 0 -75.5 15t-48.5 36.5t-32 43t-35 36.5t-47 15q-105 0 -129 -127h-82z" />
<glyph unicode="&#xd6;" horiz-adv-x="1619" d="M104 590q0 369 252 618q252 252 596 252q282 0 447 -174q166 -175 166 -444q0 -367 -252 -619q-253 -250 -592 -250q-282 0 -451 172q-166 175 -166 445zM197 590q0 -231 141 -381q144 -150 383 -150q300 0 526 226t226 557q0 230 -142 381t-379 151q-308 0 -532 -227 q-223 -223 -223 -557zM729 1589q0 37 27.5 64.5t64.5 27.5q29 0 47.5 -19t18.5 -48q0 -35 -28 -61.5t-64 -26.5q-30 0 -48 17t-18 46zM1077 1589q0 37 27.5 64.5t64.5 27.5q29 0 47.5 -19t18.5 -48q0 -35 -28 -61.5t-64 -26.5q-30 0 -48 17t-18 46z" />
<glyph unicode="&#xd7;" horiz-adv-x="823" d="M51 430l340 289l-231 285l63 57l234 -285l342 291l55 -66l-342 -292l236 -287l-66 -55l-238 286l-338 -288z" />
<glyph unicode="&#xd8;" horiz-adv-x="1619" d="M104 590q0 369 252 618q252 252 596 252q169 0 308 -71l116 165l74 -45l-119 -166q113 -85 173.5 -214t60.5 -287q0 -367 -252 -619q-253 -250 -592 -250q-172 0 -313 72l-119 -168l-70 51l115 162q-230 172 -230 500zM197 590q0 -276 190 -426l819 1153q-108 57 -254 57 q-308 0 -532 -227q-223 -223 -223 -557zM461 119q117 -60 260 -60q300 0 526 226t226 557q0 278 -193 428z" />
<glyph unicode="&#xd9;" horiz-adv-x="1396" d="M215 563l154 871h92l-156 -877q-85 -498 363 -498q450 0 538 498l156 877h92l-156 -877q-51 -290 -211 -437t-423 -147q-256 0 -377.5 153t-71.5 437zM641 1696h129l207 -201h-123z" />
<glyph unicode="&#xda;" horiz-adv-x="1396" d="M215 563l154 871h92l-156 -877q-85 -498 363 -498q450 0 538 498l156 877h92l-156 -877q-51 -290 -211 -437t-423 -147q-256 0 -377.5 153t-71.5 437zM829 1495l273 201h151l-278 -201h-146z" />
<glyph unicode="&#xdb;" horiz-adv-x="1396" d="M215 563l154 871h92l-156 -877q-85 -498 363 -498q450 0 538 498l156 877h92l-156 -877q-51 -290 -211 -437t-423 -147q-256 0 -377.5 153t-71.5 437zM600 1495l307 201h78l236 -201h-136l-147 119l-186 -119h-152z" />
<glyph unicode="&#xdc;" horiz-adv-x="1396" d="M215 563l154 871h92l-156 -877q-85 -498 363 -498q450 0 538 498l156 877h92l-156 -877q-51 -290 -211 -437t-423 -147q-256 0 -377.5 153t-71.5 437zM674 1569q0 37 27.5 64.5t64.5 27.5q29 0 47 -19t18 -49q0 -35 -28 -61.5t-64 -26.5q-29 0 -47 17.5t-18 46.5z M1022 1569q0 37 27.5 64.5t64.5 27.5q29 0 47.5 -19.5t18.5 -48.5q0 -35 -28.5 -61.5t-64.5 -26.5q-29 0 -47 17.5t-18 46.5z" />
<glyph unicode="&#xdd;" d="M178 1434h105l344 -703l41 -96l77 96l592 703h117l-747 -881l-97 -553h-92l96 553zM735 1495l273 201h151l-278 -201h-146z" />
<glyph unicode="&#xde;" horiz-adv-x="1099" d="M82 0l252 1434h92l-43 -244h305q173 0 275 -87.5t100 -234.5q0 -193 -141 -319q-141 -123 -347 -123h-327l-74 -426h-92zM264 514h316q157 0 276 96q117 99 117 258q-2 109 -78.5 171.5t-210.5 62.5h-315z" />
<glyph unicode="&#xdf;" horiz-adv-x="1081" d="M92 0l199 1126q65 369 418 369l-17 -88q-136 0 -211 -67.5t-104 -223.5l-17 -92h691l-13 -72l-460 -536q186 -7 286.5 -110t100.5 -263q0 -223 -156 -358q-154 -136 -395 -136q-85 0 -172 17l28 90q118 -23 144 -23q190 0 325 111q135 108 135 299q0 139 -92 214t-260 75 h-90l8 53l473 555h-567l-166 -940h-88z" />
<glyph unicode="&#xe0;" horiz-adv-x="1193" d="M66 412q0 160 65 305q70 147 206 238.5t304 91.5q129 0 222 -62.5t126 -155.5l37 195h88l-182 -1024h-88l35 199q-59 -98 -169 -160t-241 -62q-188 0 -297 121q-106 121 -106 314zM156 412q0 -161 82.5 -256t232.5 -95q158 0 291 115t168 309l12 72q35 188 -55 297 q-89 109 -248 109q-206 0 -344 -170q-139 -171 -139 -381zM416 1499h98l213 -323h-98z" />
<glyph unicode="&#xe1;" horiz-adv-x="1193" d="M66 412q0 160 65 305q70 147 206 238.5t304 91.5q129 0 222 -62.5t126 -155.5l37 195h88l-182 -1024h-88l35 199q-59 -98 -169 -160t-241 -62q-188 0 -297 121q-106 121 -106 314zM156 412q0 -161 82.5 -256t232.5 -95q158 0 291 115t168 309l12 72q35 188 -55 297 q-89 109 -248 109q-206 0 -344 -170q-139 -171 -139 -381zM602 1176l328 323h117l-326 -323h-119z" />
<glyph unicode="&#xe2;" horiz-adv-x="1193" d="M66 412q0 160 65 305q70 147 206 238.5t304 91.5q129 0 222 -62.5t126 -155.5l37 195h88l-182 -1024h-88l35 199q-59 -98 -169 -160t-241 -62q-188 0 -297 121q-106 121 -106 314zM156 412q0 -161 82.5 -256t232.5 -95q158 0 291 115t168 309l12 72q35 188 -55 297 q-89 109 -248 109q-206 0 -344 -170q-139 -171 -139 -381zM377 1176l330 323h32l215 -323h-100l-141 215l-219 -215h-117z" />
<glyph unicode="&#xe3;" horiz-adv-x="1193" d="M66 412q0 160 65 305q70 147 206 238.5t304 91.5q129 0 222 -62.5t126 -155.5l37 195h88l-182 -1024h-88l35 199q-59 -98 -169 -160t-241 -62q-188 0 -297 121q-106 121 -106 314zM156 412q0 -161 82.5 -256t232.5 -95q158 0 291 115t168 309l12 72q35 188 -55 297 q-89 109 -248 109q-206 0 -344 -170q-139 -171 -139 -381zM369 1184q43 233 219 233q43 0 74 -17t48 -41.5t31 -49t33.5 -41.5t46.5 -17q107 0 131 148h82q-41 -234 -219 -234q-43 0 -73.5 17t-47 41.5t-30.5 49t-33.5 41.5t-46.5 17q-109 0 -133 -147h-82z" />
<glyph unicode="&#xe4;" horiz-adv-x="1193" d="M66 412q0 160 65 305q70 147 206 238.5t304 91.5q129 0 222 -62.5t126 -155.5l37 195h88l-182 -1024h-88l35 199q-59 -98 -169 -160t-241 -62q-188 0 -297 121q-106 121 -106 314zM156 412q0 -161 82.5 -256t232.5 -95q158 0 291 115t168 309l12 72q35 188 -55 297 q-89 109 -248 109q-206 0 -344 -170q-139 -171 -139 -381zM434 1272q0 37 28.5 64.5t65.5 27.5q26 0 46 -19t20 -45q0 -37 -28.5 -64.5t-65.5 -27.5q-29 0 -47.5 17.5t-18.5 46.5zM782 1272q0 36 29 64t66 28q26 0 45.5 -19t19.5 -45q0 -37 -28.5 -64.5t-65.5 -27.5 q-29 0 -47.5 17.5t-18.5 46.5z" />
<glyph unicode="&#xe5;" horiz-adv-x="1193" d="M66 412q0 160 65 305q70 147 206 238.5t304 91.5q129 0 222 -62.5t126 -155.5l37 195h88l-182 -1024h-88l35 199q-59 -98 -169 -160t-241 -62q-188 0 -297 121q-106 121 -106 314zM156 412q0 -161 82.5 -256t232.5 -95q158 0 291 115t168 309l12 72q35 188 -55 297 q-89 109 -248 109q-206 0 -344 -170q-139 -171 -139 -381zM492 1317q0 97 69 160t166 63q78 0 127 -48t49 -122q0 -96 -72 -162q-69 -63 -165 -63q-77 0 -125.5 49t-48.5 123zM571 1319q0 -44 27.5 -72t73.5 -28q62 0 105.5 44t43.5 105q0 44 -26 71t-72 27 q-62 0 -107 -43.5t-45 -103.5z" />
<glyph unicode="&#xe6;" horiz-adv-x="1751" d="M63 203q0 251 306 319l358 80l16 90q47 271 -180 271q-112 0 -192.5 -65t-100.5 -183h-92q25 148 129.5 240t255.5 92q250 0 277 -226q167 226 432 226q216 0 320.5 -134.5t62.5 -371.5l-10 -62h-846q-6 -41 -6 -73q-1 -159 83.5 -252t231.5 -93q129 0 230.5 56 t158.5 159h96q-144 -299 -487 -299q-139 0 -238 71t-141 196q-65 -117 -174.5 -192t-239.5 -75q-119 0 -184.5 62t-65.5 164zM156 203q0 -65 40.5 -103.5t116.5 -38.5q152 0 265 119q92 98 112 213l17 92q4 28 4 29l-324 -74q-120 -27 -175.5 -81t-55.5 -156zM815 561h754 q35 195 -43 298.5t-258 103.5q-168 0 -289.5 -110t-163.5 -292z" />
<glyph unicode="&#xe7;" horiz-adv-x="1087" d="M70 414q0 258 170 446q169 187 407 187q158 0 263 -81t128 -218h-94q-20 102 -100.5 158.5t-200.5 56.5q-201 0 -342 -170t-141 -379q-2 -160 84.5 -256.5t234.5 -96.5q118 0 221 58t158 157h96q-68 -145 -193 -222t-282 -77h-8l-49 -116q6 2 29 2q66 0 107.5 -40 t41.5 -106q0 -83 -63 -135.5t-156 -52.5q-117 0 -184 82l61 57q40 -61 127 -61q57 0 97 28.5t40 77.5q0 76 -84 76q-38 0 -84 -12l-43 12l84 197q-151 24 -238 141.5t-87 286.5z" />
<glyph unicode="&#xe8;" horiz-adv-x="1120" d="M70 406q0 156 65 301q69 146 201 241q132 99 303 99q216 0 320.5 -134.5t62.5 -371.5l-10 -62h-846q-6 -41 -6 -73q-1 -159 83.5 -252t231.5 -93q129 0 230.5 56t158.5 159h97q-144 -299 -488 -299q-179 0 -293 117q-110 119 -110 312zM182 561h754q35 195 -43 298.5 t-258 103.5q-168 0 -289.5 -110t-163.5 -292zM422 1499h98l213 -323h-98z" />
<glyph unicode="&#xe9;" horiz-adv-x="1120" d="M70 406q0 156 65 301q69 146 201 241q132 99 303 99q216 0 320.5 -134.5t62.5 -371.5l-10 -62h-846q-6 -41 -6 -73q-1 -159 83.5 -252t231.5 -93q129 0 230.5 56t158.5 159h97q-144 -299 -488 -299q-179 0 -293 117q-110 119 -110 312zM182 561h754q35 195 -43 298.5 t-258 103.5q-168 0 -289.5 -110t-163.5 -292zM608 1176l328 323h117l-326 -323h-119z" />
<glyph unicode="&#xea;" horiz-adv-x="1120" d="M70 406q0 156 65 301q69 146 201 241q132 99 303 99q216 0 320.5 -134.5t62.5 -371.5l-10 -62h-846q-6 -41 -6 -73q-1 -159 83.5 -252t231.5 -93q129 0 230.5 56t158.5 159h97q-144 -299 -488 -299q-179 0 -293 117q-110 119 -110 312zM182 561h754q35 195 -43 298.5 t-258 103.5q-168 0 -289.5 -110t-163.5 -292zM383 1176l330 323h32l216 -323h-101l-141 215l-219 -215h-117z" />
<glyph unicode="&#xeb;" horiz-adv-x="1120" d="M70 406q0 156 65 301q69 146 201 241q132 99 303 99q216 0 320.5 -134.5t62.5 -371.5l-10 -62h-846q-6 -41 -6 -73q-1 -159 83.5 -252t231.5 -93q129 0 230.5 56t158.5 159h97q-144 -299 -488 -299q-179 0 -293 117q-110 119 -110 312zM182 561h754q35 195 -43 298.5 t-258 103.5q-168 0 -289.5 -110t-163.5 -292zM440 1272q0 36 29 64t66 28q26 0 45.5 -19t19.5 -45q0 -37 -28.5 -64.5t-65.5 -27.5q-29 0 -47.5 17.5t-18.5 46.5zM788 1272q0 36 29 64t66 28q26 0 45.5 -19t19.5 -45q0 -37 -28.5 -64.5t-65.5 -27.5q-29 0 -47.5 17.5 t-18.5 46.5z" />
<glyph unicode="&#xec;" horiz-adv-x="448" d="M90 1499h98l213 -323h-98zM92 0l180 1024h88l-180 -1024h-88z" />
<glyph unicode="&#xed;" horiz-adv-x="448" d="M92 0l180 1024h88l-180 -1024h-88zM276 1176l328 323h117l-326 -323h-119z" />
<glyph unicode="&#xee;" horiz-adv-x="448" d="M51 1176l330 323h33l215 -323h-101l-141 215l-219 -215h-117zM92 0l180 1024h88l-180 -1024h-88z" />
<glyph unicode="&#xef;" horiz-adv-x="448" d="M92 0l180 1024h88l-180 -1024h-88zM109 1272q0 37 28.5 64.5t65.5 27.5q26 0 45.5 -19t19.5 -45q0 -37 -28.5 -64.5t-65.5 -27.5q-29 0 -47 17.5t-18 46.5zM457 1272q0 37 28.5 64.5t65.5 27.5q26 0 45.5 -19t19.5 -45q0 -37 -28.5 -64.5t-65.5 -27.5q-29 0 -47 17.5 t-18 46.5z" />
<glyph unicode="&#xf0;" horiz-adv-x="1112" d="M76 381q0 247 162 412t399 165q73 0 135 -18l-162 240h-315l16 88h240l-154 227h109l153 -227h299l-16 -88h-223l231 -342q86 -127 86 -260q0 -237 -157 -420q-156 -181 -402 -181q-184 0 -292.5 111t-108.5 293zM166 381q0 -145 83.5 -232.5t229.5 -87.5q191 0 330 148 q137 149 137 350q0 150 -85.5 232.5t-225.5 82.5q-193 0 -330 -143q-139 -145 -139 -350zM946 571q0 1 1 6.5t1 6.5z" />
<glyph unicode="&#xf1;" horiz-adv-x="1048" d="M92 0l180 1024h88l-28 -166q34 69 131 129t203 60q159 0 229 -106t39 -282l-117 -659h-88l117 662q26 148 -20 224.5t-162 76.5q-131 0 -242 -105q-111 -104 -137 -270l-105 -588h-88zM383 1184q43 233 219 233q43 0 74 -17t48 -41.5t31.5 -49t34 -41.5t46.5 -17 q107 0 131 148h82q-41 -234 -220 -234q-43 0 -73.5 17t-47 41.5t-30.5 49t-33.5 41.5t-46.5 17q-109 0 -133 -147h-82z" />
<glyph unicode="&#xf2;" horiz-adv-x="1157" d="M70 418q0 252 168 438q170 191 430 191q194 0 307 -125q112 -121 112 -318q3 -91 -24.5 -183t-82.5 -171.5t-127.5 -141.5t-166.5 -97t-194 -34q-196 0 -310 123q-112 124 -112 318zM160 418q0 -158 90 -257.5t242 -99.5q216 0 360 164q145 168 145 379q0 160 -89 259.5 t-240 99.5q-221 0 -365 -164q-143 -162 -143 -381zM432 1499h98l213 -323h-98z" />
<glyph unicode="&#xf3;" horiz-adv-x="1157" d="M70 418q0 252 168 438q170 191 430 191q194 0 307 -125q112 -121 112 -318q3 -91 -24.5 -183t-82.5 -171.5t-127.5 -141.5t-166.5 -97t-194 -34q-196 0 -310 123q-112 124 -112 318zM160 418q0 -158 90 -257.5t242 -99.5q216 0 360 164q145 168 145 379q0 160 -89 259.5 t-240 99.5q-221 0 -365 -164q-143 -162 -143 -381zM618 1176l328 323h117l-326 -323h-119z" />
<glyph unicode="&#xf4;" horiz-adv-x="1157" d="M70 418q0 252 168 438q170 191 430 191q194 0 307 -125q112 -121 112 -318q3 -91 -24.5 -183t-82.5 -171.5t-127.5 -141.5t-166.5 -97t-194 -34q-196 0 -310 123q-112 124 -112 318zM160 418q0 -158 90 -257.5t242 -99.5q216 0 360 164q145 168 145 379q0 160 -89 259.5 t-240 99.5q-221 0 -365 -164q-143 -162 -143 -381zM393 1176l330 323h33l215 -323h-101l-141 215l-219 -215h-117z" />
<glyph unicode="&#xf5;" horiz-adv-x="1157" d="M70 418q0 252 168 438q170 191 430 191q194 0 307 -125q112 -121 112 -318q3 -91 -24.5 -183t-82.5 -171.5t-127.5 -141.5t-166.5 -97t-194 -34q-196 0 -310 123q-112 124 -112 318zM160 418q0 -158 90 -257.5t242 -99.5q216 0 360 164q145 168 145 379q0 160 -89 259.5 t-240 99.5q-221 0 -365 -164q-143 -162 -143 -381zM385 1184q43 233 219 233q43 0 74 -17t48 -41.5t31.5 -49t34 -41.5t46.5 -17q107 0 131 148h82q-41 -234 -220 -234q-43 0 -73.5 17t-47 41.5t-30.5 49t-33.5 41.5t-46.5 17q-109 0 -133 -147h-82z" />
<glyph unicode="&#xf6;" horiz-adv-x="1157" d="M70 418q0 252 168 438q170 191 430 191q194 0 307 -125q112 -121 112 -318q3 -91 -24.5 -183t-82.5 -171.5t-127.5 -141.5t-166.5 -97t-194 -34q-196 0 -310 123q-112 124 -112 318zM160 418q0 -158 90 -257.5t242 -99.5q216 0 360 164q145 168 145 379q0 160 -89 259.5 t-240 99.5q-221 0 -365 -164q-143 -162 -143 -381zM451 1272q0 37 28.5 64.5t65.5 27.5q26 0 45.5 -19t19.5 -45q0 -37 -28.5 -64.5t-65.5 -27.5q-29 0 -47 17.5t-18 46.5zM799 1272q0 37 28.5 64.5t65.5 27.5q26 0 45.5 -19t19.5 -45q0 -37 -28.5 -64.5t-65.5 -27.5 q-29 0 -47 17.5t-18 46.5z" />
<glyph unicode="&#xf7;" horiz-adv-x="966" d="M86 674l14 86h844l-14 -86h-844zM367 360q5 53 57 74q49 19 85 -5q34 -22 23 -69q-6 -54 -60 -73q-49 -18 -85 7q-31 22 -20 66zM492 1071q5 53 57 74q49 19 85 -5q34 -22 23 -69q-6 -54 -60 -73q-49 -18 -85 7q-31 22 -20 66z" />
<glyph unicode="&#xf8;" horiz-adv-x="1159" d="M70 418q0 252 168 438q170 191 430 191q114 0 209 -50l108 154l66 -45l-109 -154q145 -124 145 -348q3 -91 -24.5 -183t-82.5 -171.5t-127.5 -141.5t-166.5 -97t-194 -34q-111 0 -209 48l-107 -150l-65 45l106 150q-147 123 -147 348zM160 418q0 -178 108 -277l557 785 q-73 37 -157 37q-221 0 -365 -164q-143 -162 -143 -381zM334 96q72 -35 158 -35q216 0 360 164q145 168 145 379q0 175 -108 277z" />
<glyph unicode="&#xf9;" horiz-adv-x="1038" d="M162 365l117 659h88l-117 -662q-52 -301 178 -301q127 0 236 103q110 107 139 272l102 588h88l-180 -1024h-88l29 166q-38 -70 -129 -129q-94 -60 -199 -60q-158 0 -226.5 105.5t-37.5 282.5zM393 1499h99l213 -323h-99z" />
<glyph unicode="&#xfa;" horiz-adv-x="1038" d="M162 365l117 659h88l-117 -662q-52 -301 178 -301q127 0 236 103q110 107 139 272l102 588h88l-180 -1024h-88l29 166q-38 -70 -129 -129q-94 -60 -199 -60q-158 0 -226.5 105.5t-37.5 282.5zM580 1176l327 323h117l-326 -323h-118z" />
<glyph unicode="&#xfb;" horiz-adv-x="1038" d="M162 365l117 659h88l-117 -662q-52 -301 178 -301q127 0 236 103q110 107 139 272l102 588h88l-180 -1024h-88l29 166q-38 -70 -129 -129q-94 -60 -199 -60q-158 0 -226.5 105.5t-37.5 282.5zM354 1176l330 323h33l215 -323h-101l-141 215l-219 -215h-117z" />
<glyph unicode="&#xfc;" horiz-adv-x="1038" d="M162 365l117 659h88l-117 -662q-52 -301 178 -301q127 0 236 103q110 107 139 272l102 588h88l-180 -1024h-88l29 166q-38 -70 -129 -129q-94 -60 -199 -60q-158 0 -226.5 105.5t-37.5 282.5zM412 1272q0 37 28.5 64.5t65.5 27.5q26 0 45.5 -19t19.5 -45 q0 -37 -28.5 -64.5t-65.5 -27.5q-29 0 -47 17.5t-18 46.5zM760 1272q0 37 28.5 64.5t65.5 27.5q26 0 46 -19t20 -45q0 -36 -29 -64t-66 -28q-29 0 -47 17.5t-18 46.5z" />
<glyph unicode="&#xfd;" horiz-adv-x="999" d="M70 -440l270 467l-227 997h88l190 -842l10 -67l35 67l486 842h100l-850 -1464h-102zM506 1176l328 323h116l-325 -323h-119z" />
<glyph unicode="&#xfe;" horiz-adv-x="1218" d="M70 -440l342 1935h88l-119 -670q59 98 169 160t241 62q188 0 296 -123q107 -119 107 -312q0 -160 -68 -305q-68 -147 -203.5 -238.5t-304.5 -91.5q-129 0 -222 62.5t-126 155.5l-112 -635h-88zM317 467q-34 -187 56 -297q89 -109 248 -109q207 0 344 168q139 171 139 383 q0 161 -83 256t-233 95q-157 0 -290 -115t-168 -309z" />
<glyph unicode="&#xff;" horiz-adv-x="999" d="M70 -440l270 467l-227 997h88l190 -842l10 -67l35 67l486 842h100l-850 -1464h-102zM338 1272q0 37 28.5 64.5t65.5 27.5q26 0 46 -19t20 -45q0 -36 -29 -64t-66 -28q-29 0 -47 17.5t-18 46.5zM686 1272q0 37 28.5 64.5t65.5 27.5q26 0 46 -19t20 -45q0 -37 -28.5 -64.5 t-65.5 -27.5q-29 0 -47.5 17.5t-18.5 46.5z" />
<glyph unicode="&#x152;" horiz-adv-x="2289" d="M106 590q0 369 252 618q252 252 596 252q215 0 366 -105t212 -290l65 369h754l-16 -88h-662l-98 -562h590l-15 -88h-589l-109 -608h662l-15 -88h-753l57 330q-119 -167 -299.5 -262t-380.5 -95q-282 0 -451 172q-166 175 -166 445zM199 590q0 -231 141 -381 q144 -150 383 -150q300 0 526 226t226 557q0 230 -142 381t-379 151q-308 0 -532 -227q-223 -223 -223 -557z" />
<glyph unicode="&#x153;" horiz-adv-x="2033" d="M72 418q0 252 168 438q170 191 430 191q152 0 258 -80.5t143 -218.5q77 139 201 219t278 80q216 0 320.5 -134.5t62.5 -371.5l-10 -62h-846q-6 -41 -6 -73q-1 -159 83.5 -252t231.5 -93q129 0 231 56t159 159h96q-144 -299 -488 -299q-146 0 -249 79t-138 216 q-81 -136 -213.5 -215.5t-289.5 -79.5q-196 0 -310 123q-112 124 -112 318zM162 418q0 -158 90 -257.5t242 -99.5q182 0 315 121q135 120 176 297q3 36 12 74q2 10 2 51q0 160 -89 259.5t-240 99.5q-221 0 -365 -164q-143 -162 -143 -381zM1094 561h753q35 195 -43 298.5 t-258 103.5q-168 0 -289 -110t-163 -292z" />
<glyph unicode="&#x178;" d="M178 1434h105l344 -703l41 -96l77 96l592 703h117l-747 -881l-97 -553h-92l96 553zM580 1569q0 37 27.5 64.5t64.5 27.5q29 0 47 -19t18 -49q0 -35 -28 -61.5t-64 -26.5q-29 0 -47 17.5t-18 46.5zM928 1569q0 37 27.5 64.5t64.5 27.5q29 0 47 -19t18 -49q0 -35 -28 -61.5 t-64 -26.5q-29 0 -47 17.5t-18 46.5z" />
<glyph unicode="&#x2c6;" horiz-adv-x="618" d="M145 1176l330 323h33l215 -323h-100l-142 215l-219 -215h-117z" />
<glyph unicode="&#x2dc;" horiz-adv-x="669" d="M139 1184q43 233 219 233q43 0 74 -17t48 -41.5t31.5 -49t34 -41.5t46.5 -17q107 0 131 148h82q-41 -234 -219 -234q-43 0 -73.5 17t-47 41.5t-30.5 49t-34 41.5t-47 17q-109 0 -133 -147h-82z" />
<glyph unicode="&#x2000;" horiz-adv-x="917" />
<glyph unicode="&#x2001;" horiz-adv-x="1835" />
<glyph unicode="&#x2002;" horiz-adv-x="917" />
<glyph unicode="&#x2003;" horiz-adv-x="1835" />
<glyph unicode="&#x2004;" horiz-adv-x="611" />
<glyph unicode="&#x2005;" horiz-adv-x="458" />
<glyph unicode="&#x2006;" horiz-adv-x="305" />
<glyph unicode="&#x2007;" horiz-adv-x="305" />
<glyph unicode="&#x2008;" horiz-adv-x="229" />
<glyph unicode="&#x2009;" horiz-adv-x="367" />
<glyph unicode="&#x200a;" horiz-adv-x="101" />
<glyph unicode="&#x2010;" horiz-adv-x="747" d="M51 489l15 84h645l-15 -84h-645z" />
<glyph unicode="&#x2011;" horiz-adv-x="747" d="M51 489l15 84h645l-15 -84h-645z" />
<glyph unicode="&#x2012;" horiz-adv-x="747" d="M51 489l15 84h645l-15 -84h-645z" />
<glyph unicode="&#x2013;" horiz-adv-x="1054" d="M45 489l14 84h953l-15 -84h-952z" />
<glyph unicode="&#x2014;" horiz-adv-x="1443" d="M45 489l14 84h1342l-15 -84h-1341z" />
<glyph unicode="&#x2018;" horiz-adv-x="319" d="M170 1120q0 75 59 178q57 99 131 170l35 -18q-85 -112 -119 -229q31 -2 51.5 -22t20.5 -52q0 -41 -31.5 -72t-72.5 -31q-33 0 -53.5 20.5t-20.5 55.5z" />
<glyph unicode="&#x2019;" horiz-adv-x="319" d="M166 1051q80 99 121 229q-33 2 -53.5 21t-20.5 49q0 43 31.5 74.5t72.5 31.5q32 0 53 -21t21 -53q0 -81 -57 -180q-60 -102 -131 -170z" />
<glyph unicode="&#x201a;" horiz-adv-x="319" d="M-27 -248q80 99 121 230q-33 2 -53.5 20.5t-20.5 48.5q0 43 32 75t73 32q32 0 53 -21t21 -53q0 -80 -58 -178q-59 -103 -131 -172z" />
<glyph unicode="&#x201c;" horiz-adv-x="618" d="M170 1120q0 75 59 178q57 99 131 170l35 -18q-85 -112 -119 -229q31 -2 51.5 -22t20.5 -52q0 -41 -31.5 -72t-72.5 -31q-33 0 -53.5 20.5t-20.5 55.5zM469 1120q0 75 59 178q57 99 131 170l35 -18q-85 -112 -119 -229q31 -2 51.5 -22t20.5 -52q0 -41 -31.5 -72t-72.5 -31 q-33 0 -53.5 20.5t-20.5 55.5z" />
<glyph unicode="&#x201d;" horiz-adv-x="618" d="M166 1051q80 99 121 229q-33 2 -53.5 21t-20.5 49q0 43 31.5 74.5t72.5 31.5q32 0 53 -21t21 -53q0 -81 -57 -180q-60 -102 -131 -170zM465 1051q80 99 121 229q-33 2 -53.5 21t-20.5 49q0 43 31.5 74.5t72.5 31.5q32 0 53 -21t21 -53q0 -81 -57 -180q-60 -102 -131 -170 z" />
<glyph unicode="&#x201e;" horiz-adv-x="638" d="M-27 -248q80 99 121 230q-33 2 -53.5 20.5t-20.5 48.5q0 43 32 75t73 32q32 0 53 -21t21 -53q0 -80 -58 -178q-59 -103 -131 -172zM293 -248q80 99 121 230q-33 2 -53.5 20.5t-20.5 48.5q0 43 31.5 75t72.5 32q32 0 53 -21t21 -53q0 -82 -57 -178q-59 -103 -131 -172z " />
<glyph unicode="&#x2022;" horiz-adv-x="727" d="M78 477q0 140 102 242q105 102 242 102q108 0 176 -66t68 -171q0 -140 -105 -242q-103 -100 -242 -100q-108 0 -174.5 65t-66.5 170z" />
<glyph unicode="&#x2026;" horiz-adv-x="1138" d="M14 53q0 44 34.5 78.5t78.5 34.5q35 0 56.5 -21.5t21.5 -56.5q0 -44 -35 -77.5t-78 -33.5q-35 0 -56.5 20.5t-21.5 55.5zM397 53q0 44 34.5 78.5t78.5 34.5q35 0 56.5 -21.5t21.5 -56.5q0 -44 -35 -77.5t-78 -33.5q-35 0 -56.5 20.5t-21.5 55.5zM780 53q0 44 34.5 78.5 t78.5 34.5q35 0 56.5 -21.5t21.5 -56.5q0 -44 -35 -77.5t-78 -33.5q-35 0 -56.5 20.5t-21.5 55.5z" />
<glyph unicode="&#x202f;" horiz-adv-x="367" />
<glyph unicode="&#x2039;" horiz-adv-x="477" d="M31 502l6 30l375 381h114l-399 -407l250 -393h-96z" />
<glyph unicode="&#x203a;" horiz-adv-x="477" d="M-41 113l399 407l-249 393h96l250 -389l-6 -30l-375 -381h-115z" />
<glyph unicode="&#x205f;" horiz-adv-x="458" />
<glyph unicode="&#x20ac;" horiz-adv-x="1128" d="M25 487l14 88h164q6 139 47 291h-160l16 88h170q76 224 220 365q141 141 344 141q161 0 255.5 -87.5t104.5 -248.5h-98q0 250 -264 250q-159 0 -276 -111.5t-189 -308.5h360l-16 -88h-373q-42 -151 -51 -291h373l-15 -88h-360q0 -428 303 -428q127 0 221.5 66t145.5 188 h100q-86 -181 -194 -260.5t-277 -79.5q-184 0 -285.5 137t-103.5 377h-176z" />
<glyph unicode="&#x2122;" horiz-adv-x="1243" d="M195 1354l14 80h436l-14 -80h-174l-88 -494h-86l88 494h-176zM616 860l103 574h90l117 -406l8 -37l20 37l260 406h103l-103 -574h-86l72 408l-24 -45l-226 -363h-69l-99 363l-8 45l-72 -408h-86z" />
<glyph unicode="&#x25fc;" horiz-adv-x="1024" d="M0 0v1024h1024v-1024h-1024z" />
</font>
</defs>
</svg>
