<?xml version="1.0" standalone="no"?>
<!DOCTYPE svg PUBLIC "-//W3C//DTD SVG 1.1//EN" "http://www.w3.org/Graphics/SVG/1.1/DTD/svg11.dtd" >
<svg xmlns="http://www.w3.org/2000/svg" xmlns:xlink="http://www.w3.org/1999/xlink" version="1.1">
<metadata></metadata>
<defs>
<font id="larsseit_boldbold_italic" horiz-adv-x="1267" >
<font-face units-per-em="2048" ascent="1638" descent="-410" />
<missing-glyph horiz-adv-x="403" />
<glyph unicode="&#xfb01;" horiz-adv-x="1269" d="M737 1518q63 0 125 -19l-41 -237q-52 22 -100 22q-116 0 -143 -143l-19 -103h223l-41 -241h-223l-141 -797h-266l139 797h-168l43 241h168l20 109q29 183 137 277t287 94zM952 1038h267l-185 -1038h-266zM1165 1501q66 0 104.5 -43.5t30.5 -109.5q-10 -69 -65.5 -115.5 t-124.5 -46.5q-66 0 -104.5 43.5t-28.5 109.5q7 67 63.5 114.5t124.5 47.5z" />
<glyph horiz-adv-x="0" />
<glyph horiz-adv-x="682" />
<glyph unicode=" "  horiz-adv-x="403" />
<glyph unicode="&#x09;" horiz-adv-x="403" />
<glyph unicode="&#xa0;" horiz-adv-x="403" />
<glyph unicode="!" horiz-adv-x="552" d="M326 1434h266l-176 -998h-266zM258 299q61 0 100 -37t39 -94q0 -78 -59 -134.5t-137 -56.5q-62 0 -101 37t-39 97q0 76 60 133q61 55 137 55z" />
<glyph unicode="&#x22;" horiz-adv-x="729" d="M233 1501h244l-133 -450h-172zM608 1501h244l-133 -450h-172z" />
<glyph unicode="#" horiz-adv-x="1390" d="M1075 557h203l-43 -248h-246l-108 -309h-273l109 309h-252l-109 -309h-274l108 309h-190l43 248h233l123 348h-202l45 248h245l99 281h274l-98 -281h252l98 281h272l-98 -281h191l-43 -248h-236zM926 905h-252l-123 -348h252z" />
<glyph unicode="$" horiz-adv-x="1153" d="M688 1655h197l-37 -211q138 -36 210.5 -143.5t59.5 -268.5h-284q12 85 -27 131.5t-115 46.5q-82 0 -139 -50.5t-57 -125.5q0 -64 46.5 -104.5t166.5 -85.5q180 -68 261 -164.5t81 -235.5q0 -199 -129 -325q-130 -127 -334 -142l-33 -198h-197l35 207q-171 35 -257.5 158 t-63.5 294h284q-30 -217 181 -217q96 0 158.5 53.5t62.5 135.5q0 61 -49.5 105t-163.5 87q-174 63 -257 157.5t-83 241.5q0 181 125 306q125 128 323 149z" />
<glyph unicode="%" horiz-adv-x="1814" d="M545 1255q-72 0 -125 -59t-53 -133q0 -56 31.5 -90.5t86.5 -34.5q73 0 125 58t52 137q0 56 -31 89t-86 33zM571 1460q134 0 224 -90q88 -88 88 -223q0 -177 -123 -297q-122 -119 -297 -119q-139 0 -227 88q-89 89 -89 225q0 176 125 295q127 121 299 121zM1315 1434h282 l-1022 -1434h-280zM1403 496q-71 0 -123 -58q-53 -59 -53 -135q0 -56 32 -90.5t87 -34.5q73 0 123.5 58.5t50.5 138.5q0 54 -31.5 87.5t-85.5 33.5zM1430 702q133 0 223 -90q88 -88 88 -225q0 -176 -125 -295q-122 -119 -295 -119q-139 0 -227 88t-88 226q0 177 124 295 q126 120 300 120z" />
<glyph unicode="&#x26;" horiz-adv-x="1392" d="M748 1460q164 0 268 -88q106 -87 106 -231q0 -146 -84 -236q-80 -86 -256 -176l-10 -6l174 -231l6 12q51 104 66 239l268 7q-15 -167 -74 -304q-49 -101 -102 -172l207 -274h-332l-70 90q-175 -117 -393 -117q-222 0 -346.5 100t-124.5 265q0 149 78 245t254 187l16 8 l-22 31q-94 125 -94 252q0 183 129 291t336 108zM537 211q131 0 235 70l-240 321l-8 -4q-99 -51 -143.5 -102t-44.5 -131q0 -154 201 -154zM559 1067q0 -60 59 -137l21 -27l8 4q122 64 156 101q41 47 41 106q0 50 -31.5 79.5t-85.5 29.5q-73 0 -120.5 -42.5t-47.5 -113.5z " />
<glyph unicode="'" horiz-adv-x="354" d="M233 1501h244l-133 -450h-172z" />
<glyph unicode="(" horiz-adv-x="606" d="M565 1524l185 -138q-422 -411 -422 -935q0 -265 141 -535l-195 -115q-198 332 -198 656q0 622 489 1067z" />
<glyph unicode=")" horiz-adv-x="606" d="M168 1407l194 115q199 -328 199 -654q0 -617 -489 -1069l-185 138q422 414 422 935q0 265 -141 535z" />
<glyph unicode="*" horiz-adv-x="735" d="M434 1513h189l-50 -225l224 80l26 -182l-225 -60l104 -180l-157 -102l-96 180l-154 -182l-135 112l164 172l-197 68l82 168l194 -74z" />
<glyph unicode="+" horiz-adv-x="966" d="M471 1139h238l-54 -305h303l-40 -236h-304l-55 -303h-237l55 303h-303l41 236h303z" />
<glyph unicode="," horiz-adv-x="450" d="M184 295q60 0 96.5 -37t36.5 -98q0 -98 -71 -219q-69 -118 -172 -213l-72 28q66 97 104 234q-51 4 -81.5 36.5t-30.5 82.5q0 75 57 129q57 57 133 57z" />
<glyph unicode="-" horiz-adv-x="747" d="M84 649h645l-41 -235h-645z" />
<glyph unicode="." horiz-adv-x="454" d="M184 299q60 0 99 -38t39 -95q0 -74 -59.5 -131.5t-135.5 -57.5q-61 0 -100 36t-39 93q0 79 58 136t138 57z" />
<glyph unicode="/" horiz-adv-x="835" d="M713 1434h278l-792 -1434h-275z" />
<glyph unicode="0" horiz-adv-x="1171" d="M723 1460q196 0 305 -144.5t109 -397.5q0 -243 -70 -453q-71 -209 -221 -350q-151 -142 -352 -142q-195 0 -303.5 145t-108.5 398q0 244 70 451q71 213 219 352q150 141 352 141zM696 1198q-101 0 -180 -119q-75 -114 -114.5 -270.5t-39.5 -312.5q0 -260 162 -260 q100 0 176 116q76 112 116 267.5t40 310.5q0 268 -160 268z" />
<glyph unicode="1" horiz-adv-x="788" d="M604 1434h207l-252 -1434h-280l172 995h-301l43 236q175 0 269.5 46t141.5 157z" />
<glyph unicode="2" horiz-adv-x="1017" d="M657 1460q181 0 285 -95.5t102 -252.5q0 -130 -63 -243t-199 -248l-354 -359h477l-47 -262h-870l35 205l528 524q113 110 160 184.5t47 163.5q0 121 -123 121q-80 0 -133 -51.5t-66 -149.5h-282q35 215 169 339t334 124z" />
<glyph unicode="3" horiz-adv-x="1118" d="M727 1460q182 0 283 -104q104 -101 104 -260q0 -124 -62.5 -224t-174.5 -149q75 -25 125.5 -95t50.5 -173q0 -219 -156 -351q-152 -131 -379 -131q-220 0 -336 125q-117 126 -90 340h281q-17 -98 29.5 -150t142.5 -52q93 0 158 66t65 163q0 156 -217 156h-84l43 241h82 q107 0 171 53.5t64 155.5q0 60 -33 93.5t-94 33.5q-74 0 -128.5 -50.5t-71.5 -141.5h-281q30 219 164.5 336.5t343.5 117.5z" />
<glyph unicode="4" horiz-adv-x="1177" d="M758 1434h350l-164 -926h182l-45 -252h-182l-43 -256h-283l45 256h-606l41 227zM668 506l98 569l-51 -80l-357 -489h310z" />
<glyph unicode="5" horiz-adv-x="1112" d="M330 1434h831l-49 -263h-549l-49 -284q81 37 201 37q162 0 261 -97t99 -268q0 -247 -145 -418q-143 -168 -408 -168q-213 0 -329 119q-114 120 -84 326h280q-13 -89 29 -135.5t131 -46.5q106 0 170 79q67 82 67 197q0 166 -163 166q-104 0 -187 -51h-250z" />
<glyph unicode="6" horiz-adv-x="1146" d="M752 1460q194 0 301 -119q110 -119 86 -315h-287q18 172 -141 172q-106 0 -182 -101.5t-113 -293.5q118 100 286 100t266.5 -107.5t98.5 -281.5q0 -225 -158 -383t-393 -158q-223 0 -328 144q-96 128 -96 358q0 137 23 272.5t74.5 265t126 228t187.5 159t249 60.5z M614 664q-96 0 -172 -70q-74 -68 -77 -176v-12q0 -77 46 -126t124 -49q101 0 172 80t71 185q0 75 -44.5 121.5t-119.5 46.5z" />
<glyph unicode="7" horiz-adv-x="1040" d="M233 1434h889l-39 -226l-723 -1208h-321l702 1171h-553z" />
<glyph unicode="8" horiz-adv-x="1140" d="M731 1460q176 0 279 -106q106 -103 106 -258q0 -115 -59.5 -214.5t-153.5 -158.5q144 -83 144 -260q0 -215 -168 -352q-167 -138 -390 -138q-182 0 -303 109q-118 109 -118 276q0 136 68.5 238.5t187.5 161.5q-107 76 -107 237q0 194 154 330q153 135 360 135zM696 1200 q-83 0 -142.5 -60.5t-59.5 -150.5q0 -61 38 -97t101 -36q87 0 145 59.5t58 149.5q0 61 -38.5 98t-101.5 37zM594 614q-94 0 -168 -65q-72 -66 -72 -166q0 -68 47 -109t123 -41q99 0 168.5 63t69.5 163q0 71 -46.5 113t-121.5 42z" />
<glyph unicode="9" horiz-adv-x="1146" d="M498 -27q-193 0 -303 119q-108 120 -84 316h286q-18 -172 142 -172q104 0 179.5 101.5t112.5 293.5q-116 -101 -284 -101t-266.5 108t-98.5 282q0 227 156 383q157 157 395 157q224 0 328 -143q96 -128 96 -359q0 -114 -16.5 -227t-49.5 -224.5t-87.5 -207t-125 -169 t-168.5 -115.5t-212 -42zM635 770q96 0 170 68q77 68 80 178v12q0 77 -46 125.5t-124 48.5q-101 0 -172 -80q-72 -81 -72 -184q0 -75 44.5 -121.5t119.5 -46.5z" />
<glyph unicode=":" horiz-adv-x="454" d="M319 1061q60 0 99 -37t39 -94q0 -77 -59 -134t-138 -57q-62 0 -99.5 36.5t-37.5 96.5q0 77 58.5 133t137.5 56zM184 299q60 0 99 -38t39 -95q0 -76 -60 -133q-59 -56 -135 -56q-63 0 -101 37t-38 97q0 77 58.5 132.5t137.5 55.5z" />
<glyph unicode=";" horiz-adv-x="454" d="M319 1061q60 0 99 -38t39 -95q0 -77 -58 -133t-137 -56q-63 0 -101 36.5t-38 96.5q0 76 59 132q57 57 137 57zM182 295q62 0 98.5 -36.5t36.5 -98.5q0 -100 -73 -219q-72 -122 -170 -213l-72 28q66 97 104 234q-51 4 -81.5 36.5t-30.5 82.5q0 73 57 129.5t131 56.5z" />
<glyph unicode="&#x3c;" horiz-adv-x="581" d="M356 913h277l-371 -413l223 -387h-235l-232 399l7 33z" />
<glyph unicode="=" horiz-adv-x="966" d="M164 1044h844l-41 -229h-844zM88 618h844l-39 -229h-844z" />
<glyph unicode="&#x3e;" horiz-adv-x="581" d="M90 913h238l231 -399l-6 -33l-334 -368h-274l368 413z" />
<glyph unicode="?" horiz-adv-x="907" d="M594 1462q165 0 274 -92q111 -92 111 -244q0 -108 -38 -196.5t-101 -145.5q-29 -26 -87 -71t-92 -73t-65 -69.5t-37 -81.5l-8 -53h-266l10 66q16 82 64 152.5t112 117.5q12 9 45 33.5t47 35.5t41.5 34.5t40.5 38.5t32 40t27.5 47.5t15.5 51t7 59.5q-1 67 -40 102t-107 35 q-89 0 -150 -53t-78 -149h-252q30 196 162.5 305.5t331.5 109.5zM393 299q63 0 102 -38.5t37 -98.5q-1 -74 -60.5 -129.5t-135.5 -55.5q-62 0 -100 38t-37 98q1 77 59.5 131.5t134.5 54.5z" />
<glyph unicode="@" horiz-adv-x="1693" d="M872 719q-103 0 -174 -80q-69 -75 -69 -186q0 -78 42.5 -123t114.5 -45q81 0 149 56.5t85 147.5l4 25q18 91 -28 148t-124 57zM985 1272q307 0 481 -180q177 -180 174 -461q0 -138 -43 -260q-45 -128 -138 -209.5t-212 -81.5q-159 0 -229 123q-99 -123 -281 -123 q-156 0 -246 97.5t-90 258.5q0 194 134 340q136 148 317 148q178 0 233 -131l37 112h187l-99 -555q-11 -62 3.5 -90.5t62.5 -28.5q92 0 147 117q56 118 56 281q2 225 -132.5 358t-375.5 133q-314 0 -531 -217q-219 -219 -219 -530q0 -229 132 -360.5t374 -131.5 q162 0 301 62l35 -144q-143 -67 -342 -67q-309 0 -483 180q-175 178 -175 461q0 376 261 637q262 262 661 262z" />
<glyph unicode="A" horiz-adv-x="1480" d="M754 1434h309l303 -1434h-299l-66 317h-569l-174 -317h-311zM866 1012l-14 80l-39 -80l-248 -449h391z" />
<glyph unicode="B" horiz-adv-x="1222" d="M309 1434h432q192 0 312 -99q118 -93 118 -254q0 -224 -182 -356q154 -71 154 -252q0 -212 -156 -344q-156 -129 -375 -129h-555zM684 600h-242l-57 -338h240q100 0 163.5 56t63.5 153q0 129 -168 129zM719 1171h-174l-60 -325h181q94 0 153.5 54t59.5 144 q0 127 -160 127z" />
<glyph unicode="C" horiz-adv-x="1509" d="M940 1460q255 0 408 -135q154 -136 184 -354h-309q-43 227 -312 227q-222 0 -368 -180q-148 -183 -148 -418q0 -165 95 -264.5t255 -99.5q140 0 244 63t162 176h297q-209 -502 -721 -502q-284 0 -455 174q-170 176 -170 449q-3 135 36.5 265.5t116 238.5t179.5 190.5 t234 127t272 42.5z" />
<glyph unicode="D" horiz-adv-x="1501" d="M309 1434h518q295 0 469 -168q174 -165 174 -435q0 -368 -241 -600q-240 -231 -617 -231h-555zM801 1171h-256l-160 -909h254q241 0 389 160q150 159 150 407q0 166 -96.5 254t-280.5 88z" />
<glyph unicode="E" horiz-adv-x="1062" d="M309 1434h826l-45 -263h-545l-53 -303h469l-46 -264h-471l-59 -342h543l-45 -262h-826z" />
<glyph unicode="F" horiz-adv-x="1007" d="M309 1434h813l-45 -263h-532l-58 -321h451l-45 -264h-453l-102 -586h-281z" />
<glyph unicode="G" horiz-adv-x="1564" d="M940 1460q256 0 408 -137q157 -136 184 -352h-309q-43 227 -310 227q-224 0 -370 -180q-148 -183 -148 -420q0 -165 94 -263.5t252 -98.5q159 0 267 71.5t145 204.5h-334l45 262h643l-22 -125q-58 -324 -250 -500t-510 -176q-285 0 -453 174q-170 176 -170 449 q0 230 105 426q105 197 299 317q195 121 434 121z" />
<glyph unicode="H" horiz-adv-x="1468" d="M1204 1434h285l-252 -1434h-285l109 610h-617l-106 -610h-281l252 1434h281l-98 -560h614z" />
<glyph unicode="I" horiz-adv-x="571" d="M309 1434h281l-252 -1434h-281z" />
<glyph unicode="J" horiz-adv-x="1087" d="M862 1434h283l-176 -998q-76 -450 -488 -450q-217 0 -327 137q-109 139 -88 350h282q-30 -223 148 -223q78 0 127.5 53.5t66.5 153.5z" />
<glyph unicode="K" horiz-adv-x="1398" d="M1087 1434h359l-569 -654l395 -780h-307l-301 571l-275 -284l-51 -287h-281l252 1434h281l-123 -705z" />
<glyph unicode="L" horiz-adv-x="1069" d="M309 1434h281l-205 -1172h596l-47 -262h-877z" />
<glyph unicode="M" horiz-adv-x="1822" d="M1501 1434h342l-252 -1434h-282l159 907l-63 -125l-461 -782h-239l-189 782l-16 125l-162 -907h-281l252 1434h312l245 -924l19 -84l45 84z" />
<glyph unicode="N" horiz-adv-x="1482" d="M1221 1434h282l-252 -1434h-250l-452 864l-41 90l-170 -954h-281l252 1434h250l449 -867l43 -94z" />
<glyph unicode="O" horiz-adv-x="1636" d="M950 1460q295 0 477 -182q181 -181 181 -457q0 -244 -121 -442q-117 -194 -310 -300t-419 -106q-295 0 -477 179q-179 179 -179 452q0 371 250 615q247 241 598 241zM940 1198q-232 0 -387 -168q-158 -172 -158 -416q0 -171 101.5 -274.5t273.5 -103.5q228 0 385 167 q160 171 160 416q0 171 -101.5 275t-273.5 104z" />
<glyph unicode="P" horiz-adv-x="1159" d="M309 1434h447q202 0 325 -117q124 -115 121 -291q0 -230 -168 -373q-171 -145 -409 -145h-197l-90 -508h-281zM727 1171h-182l-70 -399h178q111 0 183.5 66.5t72.5 175.5q0 75 -48 116t-134 41z" />
<glyph unicode="Q" horiz-adv-x="1636" d="M950 1460q295 0 477 -182q181 -181 181 -457q0 -204 -83 -375t-233 -288l240 -371h-342l-154 231q-134 -45 -278 -45q-295 0 -477 179q-179 179 -179 452q0 371 250 615q247 241 598 241zM940 1198q-232 0 -387 -168q-158 -172 -158 -416q0 -171 101.5 -274.5 t273.5 -103.5q72 0 152 22v191h272q121 157 121 370q0 171 -101.5 275t-273.5 104z" />
<glyph unicode="R" horiz-adv-x="1187" d="M317 1434h424q207 0 326 -113q123 -114 123 -289q0 -153 -87 -271t-237 -179l205 -582h-297l-184 537h-150l-94 -537h-280zM713 1171h-160l-68 -385h160q106 0 179 65t73 167q1 75 -46 114t-138 39z" />
<glyph unicode="S" horiz-adv-x="1124" d="M721 1460q191 0 305 -114t96 -314h-284q12 85 -27 131.5t-115 46.5q-82 0 -139 -50.5t-57 -125.5q0 -64 46.5 -104.5t166.5 -85.5q180 -68 261 -164.5t81 -235.5q0 -215 -150 -344q-151 -127 -379 -127q-234 0 -356 131q-121 133 -94 334h284q-30 -217 181 -217 q96 0 158.5 53.5t62.5 135.5q0 61 -49.5 105t-163.5 87q-174 63 -257 157.5t-83 241.5q0 193 145 326t367 133z" />
<glyph unicode="T" horiz-adv-x="1259" d="M184 1434h1215l-47 -263h-465l-207 -1171h-283l207 1171h-465z" />
<glyph unicode="U" horiz-adv-x="1419" d="M1227 1434h282l-155 -881q-50 -278 -221 -429t-445 -151q-277 0 -409 172q-132 173 -80 461l145 828h283l-152 -856q-59 -342 240 -342q298 0 360 342z" />
<glyph unicode="V" horiz-adv-x="1433" d="M1260 1434h307l-811 -1434h-267l-309 1434h291l199 -947l12 -98l47 98z" />
<glyph unicode="W" horiz-adv-x="2052" d="M1876 1434h305l-688 -1434h-297l-98 823l-2 99l-39 -99l-385 -823h-299l-183 1434h287l113 -914l2 -104l37 104l420 914h256l100 -914l-2 -104l41 104z" />
<glyph unicode="X" horiz-adv-x="1437" d="M1190 1434h358l-604 -727l350 -707h-311l-254 518l-428 -518h-356l624 758l-336 676h306l247 -490z" />
<glyph unicode="Y" horiz-adv-x="1406" d="M1200 1434h346l-702 -902l-92 -532h-283l92 532l-383 902h307l217 -506l33 -97l68 97z" />
<glyph unicode="Z" horiz-adv-x="1230" d="M256 1434h1038l-41 -230l-825 -942h686l-45 -262h-1069l41 229l823 942h-653z" />
<glyph unicode="[" horiz-adv-x="673" d="M307 1466h479l-43 -241h-225l-203 -1141h228l-43 -242h-480z" />
<glyph unicode="\" horiz-adv-x="835" d="M180 1434h250l311 -1434h-249z" />
<glyph unicode="]" horiz-adv-x="673" d="M215 1466h479l-286 -1624h-478l41 242h226l200 1141h-225z" />
<glyph unicode="^" horiz-adv-x="1105" d="M102 946l631 615l414 -615h-270l-199 295l-299 -295h-277z" />
<glyph unicode="_" horiz-adv-x="1300" d="M-16 0h1198l-41 -236h-1198z" />
<glyph unicode="`" horiz-adv-x="583" d="M168 1499h309l178 -323h-221z" />
<glyph unicode="a" d="M641 1061q118 0 195 -47t110 -125l43 149h230l-185 -1038h-229l6 129q-122 -152 -356 -152q-178 0 -289 129q-109 133 -109 324q0 252 164 440q164 191 420 191zM655 811q-134 0 -227 -106q-92 -106 -92 -248q0 -102 59.5 -166t153.5 -64q108 0 199 76q95 77 116 205 l4 27q22 123 -41.5 199.5t-171.5 76.5z" />
<glyph unicode="b" d="M299 1495h266l-100 -559q113 125 334 125q178 0 286 -129q111 -129 111 -322q0 -251 -164 -442t-420 -191q-117 0 -194.5 48.5t-110.5 126.5l-43 -152h-229zM705 811q-107 0 -201 -76q-94 -79 -115 -203l-4 -28q-23 -123 41 -200t172 -77q134 0 225 105q95 109 95 250 q0 102 -59.5 165.5t-153.5 63.5z" />
<glyph unicode="c" horiz-adv-x="1140" d="M662 1061q187 0 307 -105q120 -102 123 -284h-258q-11 69 -61.5 108t-129.5 39q-132 0 -219 -112q-88 -113 -88 -254q0 -105 57.5 -168.5t155.5 -63.5q75 0 138.5 40t94.5 106h260q-144 -390 -528 -390q-203 0 -330 127q-125 128 -125 330q0 263 170 445q173 182 433 182 z" />
<glyph unicode="d" d="M1022 1495h266l-264 -1495h-229l4 129q-122 -152 -357 -152q-177 0 -288 129q-109 133 -109 324q0 252 164 440q164 191 420 191q209 0 291 -143zM643 811q-134 0 -227 -106q-92 -106 -92 -248q0 -102 59.5 -166t153.5 -64q107 0 198 76q96 78 117 205l4 27 q22 123 -41.5 199.5t-171.5 76.5z" />
<glyph unicode="e" horiz-adv-x="1144" d="M649 1061q219 0 338 -146q118 -146 72 -415l-10 -62h-723q-2 -4 -2 -32q0 -92 55.5 -146.5t152.5 -54.5q163 0 228 121h266q-165 -349 -524 -349q-203 0 -322 125q-121 127 -121 328q0 261 162 444q163 187 428 187zM629 840q-101 0 -173.5 -57.5t-97.5 -159.5h457 q11 100 -37 158.5t-149 58.5z" />
<glyph unicode="f" horiz-adv-x="733" d="M745 1518q75 0 134 -19l-41 -237q-49 22 -99 22q-139 0 -166 -143l-18 -103h240l-43 -241h-240l-139 -797h-267l142 797h-166l43 241h164l18 109q32 183 143.5 277t294.5 94z" />
<glyph unicode="g" horiz-adv-x="1259" d="M643 811q-114 0 -199 -88t-100 -217q-12 -112 44 -180t157 -68q105 0 194 68q95 73 115 192l4 31q20 123 -42.5 192.5t-172.5 69.5zM629 1061q224 0 303 -166l45 143h229l-182 -1040q-38 -216 -195 -338.5t-391 -122.5q-217 0 -337.5 101.5t-116.5 300.5h258 q6 -160 221 -160q118 0 198 65t99 174l24 123q-50 -61 -140.5 -98t-194.5 -37q-195 0 -304 139q-105 137 -77 361q30 239 188 397q161 158 373 158z" />
<glyph unicode="h" horiz-adv-x="1130" d="M315 1495h267l-99 -563q114 129 285 129q162 0 230.5 -102t37.5 -285l-118 -674h-267l109 616q30 187 -105 187q-84 0 -150 -64.5t-89 -179.5l-99 -559h-266z" />
<glyph unicode="i" horiz-adv-x="552" d="M236 1038h266l-185 -1038h-266zM449 1501q66 0 104.5 -43.5t30.5 -109.5q-10 -69 -66 -115.5t-125 -46.5q-66 0 -104.5 43.5t-28.5 109.5q7 67 64 114.5t125 47.5z" />
<glyph unicode="j" horiz-adv-x="552" d="M236 1038h266l-193 -1085q-74 -416 -422 -416q-105 0 -166 21l41 237q53 -16 117 -16q71 0 110 43.5t56 138.5zM449 1501q66 0 104.5 -43.5t30.5 -109.5q-10 -69 -66 -115.5t-125 -46.5q-66 0 -104.5 43.5t-28.5 109.5q7 67 64 114.5t125 47.5z" />
<glyph unicode="k" horiz-adv-x="1105" d="M315 1495h267l-154 -877l373 420h319l-379 -436l250 -602h-301l-170 397l-160 -164l-43 -233h-266z" />
<glyph unicode="l" horiz-adv-x="552" d="M315 1495h267l-265 -1495h-266z" />
<glyph unicode="m" horiz-adv-x="1718" d="M1360 1061q160 0 228.5 -102.5t35.5 -284.5l-119 -674h-266l109 616q30 187 -103 187q-80 0 -144.5 -60.5t-88.5 -167.5l-101 -575h-266l109 616q30 187 -105 187q-82 0 -146 -64.5t-87 -179.5l-99 -559h-266l185 1038h229l-4 -131q46 68 127 111t176 43q215 0 264 -178 q53 79 141.5 128.5t190.5 49.5z" />
<glyph unicode="n" horiz-adv-x="1130" d="M766 1061q162 0 231.5 -102.5t36.5 -284.5l-116 -674h-267l107 616q34 187 -103 187q-84 0 -150 -64.5t-89 -179.5l-99 -559h-266l185 1038h229l-4 -131q46 68 128.5 111t176.5 43z" />
<glyph unicode="o" horiz-adv-x="1224" d="M692 1061q210 0 342 -129q131 -128 131 -332q0 -272 -186 -446q-189 -177 -447 -177q-210 0 -342 129q-131 131 -131 332q0 272 187 447q188 176 446 176zM668 819q-140 0 -234 -108q-96 -110 -96 -256q0 -106 58.5 -170t160.5 -64q136 0 231 109q99 108 99 254 q0 105 -60 170t-159 65z" />
<glyph unicode="p" horiz-adv-x="1275" d="M821 1061q179 0 287 -129q109 -130 109 -322q0 -251 -164 -442t-420 -191q-205 0 -289 146l-100 -563h-267l261 1478h229l-4 -129q122 152 358 152zM725 811q-107 0 -201 -76q-93 -78 -114 -203l-4 -28q-23 -124 40.5 -200.5t171.5 -76.5q134 0 226 105q94 107 94 250 q0 102 -59.5 165.5t-153.5 63.5z" />
<glyph unicode="q" horiz-adv-x="1275" d="M641 1059q118 0 195 -47t110 -125l45 151h230l-263 -1478h-266l96 540q-119 -125 -333 -125q-179 0 -287 129q-109 133 -109 324q0 249 164 440t418 191zM655 809q-133 0 -227 -107q-92 -106 -92 -247q0 -103 59 -166.5t156 -63.5q108 0 199 76q93 78 114 205l6 26 q21 126 -45 201q-64 76 -170 76z" />
<glyph unicode="r" horiz-adv-x="755" d="M795 1049l-47 -267q-119 0 -222 -77q-96 -71 -120 -211l-89 -494h-266l185 1038h229l-6 -164q102 175 336 175z" />
<glyph unicode="s" horiz-adv-x="950" d="M578 1061q172 0 267 -90.5t75 -237.5h-271q18 119 -96 119q-57 0 -93 -31.5t-36 -87.5q0 -43 33 -65.5t127 -42.5q156 -32 223 -99t67 -184q0 -176 -126 -270q-127 -95 -320 -95q-198 0 -295 91t-78 247h271q-15 -127 125 -127q67 0 105 30t38 85q0 46 -35.5 72.5 t-132.5 44.5q-283 53 -283 285q0 165 127 260q131 96 308 96z" />
<glyph unicode="t" horiz-adv-x="776" d="M334 1290h266l-47 -252h238l-41 -241h-240l-80 -420q-13 -84 11.5 -117t97.5 -33q63 0 112 15l-41 -234q-68 -22 -172 -22q-173 0 -243.5 78.5t-40.5 252.5l90 480h-170l41 241h172z" />
<glyph unicode="u" horiz-adv-x="1124" d="M844 1038h266l-182 -1038h-230l4 131q-46 -68 -127.5 -111t-175.5 -43q-160 0 -228.5 103t-35.5 285l117 673h266l-106 -614q-35 -188 102 -188q81 0 146 65.5t85 179.5z" />
<glyph unicode="v" horiz-adv-x="1056" d="M834 1038h288l-559 -1038h-272l-191 1038h287l90 -637l2 -90l39 90z" />
<glyph unicode="w" horiz-adv-x="1599" d="M1374 1038h287l-498 -1038h-276l-82 610l-309 -610h-263l-129 1038h283l47 -624l2 -111l41 111l287 624h235l66 -624l2 -111l39 111z" />
<glyph unicode="x" horiz-adv-x="1091" d="M821 1038h312l-404 -512l232 -526h-308l-143 328l-256 -328h-311l417 530l-221 508h305l136 -303z" />
<glyph unicode="y" horiz-adv-x="1067" d="M842 1038h288l-792 -1478h-279l240 456l-190 1022h286l90 -637l7 -90l34 90z" />
<glyph unicode="z" horiz-adv-x="978" d="M168 1038h821l-35 -198l-573 -609h493l-43 -231h-849l34 199l574 608h-463z" />
<glyph unicode="{" horiz-adv-x="665" d="M725 1466h49l-43 -241h-39q-61 0 -104.5 -43t-55.5 -115l-36 -205q-34 -175 -172 -221q124 -46 94 -219l-37 -201q-24 -137 111 -137h36l-41 -242h-49q-168 0 -250 107q-80 105 -53 264l33 190q27 148 -107 148h-24l41 231h22q133 0 160 148l31 172q33 192 133 278 t301 86z" />
<glyph unicode="|" horiz-adv-x="495" d="M307 1487h250l-287 -1624h-250z" />
<glyph unicode="}" horiz-adv-x="665" d="M209 1466h49q169 0 250 -106q80 -105 53 -264l-33 -191q-27 -147 109 -147h22l-41 -232h-24q-133 0 -160 -147l-28 -172q-33 -192 -133.5 -278.5t-301.5 -86.5h-49l43 242h39q61 0 104.5 43t55.5 115l35 204q35 176 174 222q-124 46 -94 219l34 200q24 138 -108 138h-37z " />
<glyph unicode="~" horiz-adv-x="1163" d="M446 934q65 0 122 -28t91 -68q83 -95 170 -95q111 0 179 164l178 -80q-71 -158 -163 -235.5t-222 -77.5q-67 0 -126 27.5t-93 66.5q-33 41 -76.5 69t-89.5 28q-106 0 -183 -164l-176 80q138 313 389 313z" />
<glyph unicode="&#xa1;" horiz-adv-x="552" d="M256 -397h-266l176 997h266zM324 737q-61 0 -100.5 37t-39.5 94q0 77 59 134t138 57q62 0 100.5 -36.5t38.5 -96.5q0 -78 -61 -133q-59 -56 -135 -56z" />
<glyph unicode="&#xa2;" horiz-adv-x="1140" d="M616 1260h197l-37 -211q144 -30 229.5 -129t86.5 -248h-258q-11 69 -61.5 108t-129.5 39q-132 0 -219 -112q-88 -113 -88 -254q0 -105 57.5 -168.5t155.5 -63.5q75 0 138.5 40t94.5 106h260q-131 -350 -454 -385l-35 -203h-197l37 213q-154 35 -244 155t-90 287 q0 238 146 416t377 205z" />
<glyph unicode="&#xa3;" horiz-adv-x="1093" d="M526 782h275l-35 -196h-215q-6 -153 -96 -275l-33 -45h242q77 0 116.5 36.5t53.5 117.5h243q-25 -206 -142.5 -313t-313.5 -107h-656l12 70l113 118q175 187 184 398h-213l35 196h152q-25 125 -25 185q0 210 142 352q141 141 356 141q189 0 293 -119q103 -118 82 -309 h-256q13 86 -22.5 135.5t-110.5 49.5q-93 0 -151 -70.5t-58 -181.5q0 -59 28 -183z" />
<glyph unicode="&#xa4;" horiz-adv-x="1341" d="M944 911l291 242l156 -190l-293 -242q22 -61 22 -119q0 -173 -98 -295l192 -237l-190 -156l-195 244q-98 -48 -206.5 -47.5t-194.5 49.5l-295 -244l-156 190l291 242q-20 50 -20 125q0 168 94 293l-188 235l190 154l193 -240q105 48 208 48q108 0 199 -52zM727 760 q-104 0 -180 -82q-74 -83 -74 -193q0 -76 45.5 -124t122.5 -48q104 0 178 80q74 83 74 193q0 78 -45.5 126t-120.5 48z" />
<glyph unicode="&#xa5;" horiz-adv-x="1361" d="M1200 1434h346l-563 -721h164l-35 -195h-270l-25 -139h273l-35 -197h-273l-30 -182h-283l31 182h-264l36 197h263l24 139h-264l35 195h153l-305 721h307l217 -506l33 -97l68 97z" />
<glyph unicode="&#xa6;" horiz-adv-x="495" d="M307 1487h250l-102 -574h-250zM121 436h250l-101 -573h-250z" />
<glyph unicode="&#xa7;" horiz-adv-x="1069" d="M705 1475q190 0 290 -90t80 -242h-268q18 131 -121 131q-65 0 -111.5 -39t-46.5 -100q0 -88 179 -115q184 -30 270 -99t86 -180q0 -170 -207 -282q88 -73 88 -197q0 -178 -137 -272t-334 -94q-198 0 -304.5 90.5t-86.5 240.5h268q-7 -63 30.5 -97t111.5 -34q72 0 124 36 t52 95q0 48 -53 77t-191 52q-152 26 -233.5 97t-81.5 176q0 181 208 295q-63 63 -63 159q0 179 127 285q128 107 324 107zM551 825q-31 4 -53 11q-113 -58 -113 -158q0 -54 52 -82.5t186 -48.5l36 -8q125 58 125 155q0 50 -50 78t-183 53z" />
<glyph unicode="&#xa8;" horiz-adv-x="755" d="M328 1458q54 0 89.5 -34t35.5 -85q0 -68 -54 -118t-123 -50q-55 0 -88.5 32t-33.5 83q0 71 52 121.5t122 50.5zM748 1458q56 0 90 -32.5t34 -86.5q0 -68 -53.5 -118t-122.5 -50q-54 0 -88.5 32t-34.5 83q0 71 52.5 121.5t122.5 50.5z" />
<glyph unicode="&#xa9;" horiz-adv-x="1243" d="M758 1270q111 0 169.5 -60t63.5 -157h-186q-9 57 -76 57q-61 0 -103 -50.5t-42 -119.5q0 -48 25.5 -76t72.5 -28q79 0 109 67h178q-76 -227 -314 -227q-112 0 -180.5 69t-68.5 179q0 143 100 243q103 103 252 103zM778 1399q-207 0 -352 -148t-145 -362 q0 -153 91.5 -245.5t248.5 -92.5q205 0 348 149t143 361q0 153 -90 245.5t-244 92.5zM793 1544q217 0 342 -137q129 -138 129 -346q0 -275 -189 -467q-188 -188 -469 -188q-218 0 -350 135q-129 138 -129 346q0 275 190 465q192 192 476 192z" />
<glyph unicode="&#xaa;" horiz-adv-x="940" d="M571 1458q157 0 215 -110l31 96h174l-125 -709h-172v82q-90 -96 -229 -96q-132 0 -213.5 87.5t-81.5 225.5q0 170 115 297t286 127zM590 1270q-84 0 -150 -66q-61 -64 -61 -151q0 -65 40.5 -104.5t104.5 -39.5q72 0 132 47.5t73 126.5l4 21q13 81 -27 123.5t-116 42.5z " />
<glyph unicode="&#xab;" horiz-adv-x="997" d="M324 913h268l-328 -417l182 -383h-239l-184 397l6 33zM782 913h269l-328 -417l180 -383h-237l-183 397l6 33z" />
<glyph unicode="&#xac;" horiz-adv-x="1259" d="M154 922h1101l-110 -619h-184l73 426h-915z" />
<glyph unicode="&#xad;" horiz-adv-x="747" d="M84 649h645l-41 -235h-645z" />
<glyph unicode="&#xae;" horiz-adv-x="1243" d="M793 1544q217 0 342 -137q129 -138 129 -346q0 -275 -189 -467q-188 -188 -469 -188q-218 0 -350 135q-129 138 -129 346q0 275 190 465q192 192 476 192zM778 1399q-207 0 -352 -148t-145 -362q0 -153 91.5 -245.5t248.5 -92.5q205 0 348 149t143 361q0 153 -90 245.5 t-244 92.5zM526 1257h224q92 0 147 -48.5t55 -127.5q0 -120 -116 -178l69 -219h-176l-49 188h-51l-31 -188h-172zM721 1120h-47l-21 -125h47q32 0 56 20.5t24 51.5q0 53 -59 53z" />
<glyph unicode="&#xaf;" horiz-adv-x="612" d="M174 1401h574l-35 -195h-572z" />
<glyph unicode="&#xb0;" horiz-adv-x="731" d="M530 1479q122 0 200.5 -76.5t78.5 -194.5q0 -158 -111 -260q-109 -100 -264 -100q-118 0 -195 77t-77 195q0 159 108 258q107 101 260 101zM510 1309q-68 0 -120 -51.5t-52 -124.5q0 -51 32 -83t85 -32q73 0 125.5 50.5t52.5 123.5q0 54 -33.5 85.5t-89.5 31.5z" />
<glyph unicode="&#xb1;" horiz-adv-x="966" d="M504 1325h237l-53 -305h303l-41 -236h-303l-55 -303h-238l56 303h-304l41 236h304zM39 375h844l-41 -236h-844z" />
<glyph unicode="&#xb2;" horiz-adv-x="663" d="M526 1653q114 0 181 -57t67 -150q0 -151 -139 -266l-182 -156h243l-32 -188h-543l26 147l326 283q90 78 90 147q0 53 -59 53q-81 0 -96 -88h-203q19 124 107.5 199.5t213.5 75.5z" />
<glyph unicode="&#xb3;" horiz-adv-x="727" d="M573 1653q113 0 177.5 -58.5t64.5 -152.5q0 -140 -133 -199q45 -13 73.5 -51.5t28.5 -97.5q0 -121 -96 -199q-95 -74 -227 -74q-137 0 -210.5 73t-60.5 196h201q-6 -40 17.5 -62t68.5 -22q44 0 74.5 26t30.5 66q0 69 -101 69h-63l26 160h60q44 0 74 23t30 63q0 55 -59 55 q-34 0 -59.5 -20t-32.5 -57h-201q47 262 317 262z" />
<glyph unicode="&#xb4;" horiz-adv-x="583" d="M401 1499h355l-383 -323h-242z" />
<glyph unicode="&#xb5;" horiz-adv-x="1155" d="M842 1038h266l-182 -1038h-230l4 131q-46 -68 -127.5 -111t-175.5 -43q-32 0 -67 7l-86 -496h-267l273 1550h266l-106 -614q-35 -188 102 -188q81 0 146 65.5t85 179.5z" />
<glyph unicode="&#xb6;" horiz-adv-x="1265" d="M625 1434h774l-33 -174h-170l-252 -1424h-174l250 1424h-201l-252 -1424h-174l139 795h-28q-164 0 -262.5 93t-98.5 243q0 200 136 333q137 134 346 134z" />
<glyph unicode="&#xb7;" horiz-adv-x="454" d="M266 692q62 0 102 -37t40 -94q0 -76 -62 -135q-57 -57 -135 -57q-63 0 -102 37.5t-39 97.5q0 75 59 131q60 57 137 57z" />
<glyph unicode="&#xb8;" horiz-adv-x="456" d="M109 12h129l-48 -116q68 -4 108 -44.5t40 -103.5q0 -98 -72 -158.5t-182 -60.5q-119 0 -184 65l98 115q30 -47 94 -47q36 0 61 19.5t25 50.5q0 51 -65 51q-20 0 -58 -10l-37 12z" />
<glyph unicode="&#xb9;" horiz-adv-x="548" d="M506 1638h147l-141 -802h-203l90 520h-180l29 160q206 0 258 122z" />
<glyph unicode="&#xba;" horiz-adv-x="909" d="M606 1458q145 0 238 -90q94 -88 94 -229q0 -182 -125 -301q-126 -117 -317 -117q-148 0 -242 88q-92 89 -92 227q0 182 125 301q127 121 319 121zM586 1276q-90 0 -152.5 -65.5t-62.5 -159.5q0 -66 40 -107t107 -41q88 0 149.5 66.5t61.5 160.5q0 67 -38 106.5t-105 39.5 z" />
<glyph unicode="&#xbb;" horiz-adv-x="997" d="M559 913h238l184 -397l-6 -33l-295 -370h-268l329 417zM100 913h238l184 -397l-6 -33l-295 -370h-268l328 417z" />
<glyph unicode="&#xbc;" horiz-adv-x="1583" d="M1217 803h258l-89 -498h103l-31 -178h-102l-23 -127h-203l23 127h-365l29 168zM1188 303l47 258l-27 -43l-174 -215h154zM469 1434h147l-141 -803h-203l90 520h-180l29 160q205 0 258 123zM1163 1434h287l-1018 -1434h-289z" />
<glyph unicode="&#xbd;" horiz-adv-x="1552" d="M1266 817q114 0 180.5 -57t66.5 -150q0 -151 -139 -266l-182 -156h244l-33 -188h-543l27 147l325 283q91 79 91 148q0 53 -60 53q-81 0 -96 -88h-203q19 124 108 199t214 75zM440 1434h148l-142 -803h-202l90 520h-180l28 160q206 0 258 123zM1116 1434h287l-1018 -1434 h-289z" />
<glyph unicode="&#xbe;" horiz-adv-x="1728" d="M1378 803h258l-88 -498h103l-31 -178h-102l-23 -127h-203l23 127h-365l29 168zM1350 303l47 258l-27 -43l-174 -215h154zM537 1448q113 0 177 -58.5t64 -152.5q0 -140 -133 -199q45 -13 74 -51.5t29 -97.5q0 -120 -97 -199q-95 -74 -227 -74q-137 0 -210 73t-60 196h200 q-6 -40 17.5 -62t68.5 -22q44 0 74.5 26t30.5 66q0 70 -101 70h-63l27 159h59q44 0 74 23t30 63q0 56 -59 56q-34 0 -59.5 -20.5t-32.5 -57.5h-201q47 262 318 262zM1321 1434h287l-1018 -1434h-289z" />
<glyph unicode="&#xbf;" horiz-adv-x="907" d="M338 -426q-165 0 -277 92q-108 91 -108 244q0 108 38 196.5t101 145.5q29 26 87 71t92 73t65 69.5t37 81.5l8 53h266l-10 -65q-16 -82 -64 -152t-114 -121q-10 -7 -44 -32t-46 -35t-41 -34t-41 -38.5t-31.5 -40t-28 -47.5t-15.5 -51t-7 -60q1 -67 40 -102t107 -35 q89 0 150 53.5t78 149.5h251q-30 -196 -162.5 -306t-330.5 -110zM539 737q-63 0 -102.5 38.5t-37.5 98.5q1 74 61 129.5t136 55.5q62 0 100 -37.5t37 -97.5q-1 -77 -59.5 -132t-134.5 -55z" />
<glyph unicode="&#xc0;" horiz-adv-x="1480" d="M754 1434h309l303 -1434h-299l-66 317h-569l-174 -317h-311zM866 1012l-14 80l-39 -80l-248 -449h391zM547 1749h344l166 -246h-254z" />
<glyph unicode="&#xc1;" horiz-adv-x="1480" d="M754 1434h309l303 -1434h-299l-66 317h-569l-174 -317h-311zM866 1012l-14 80l-39 -80l-248 -449h391zM997 1749h400l-350 -246h-281z" />
<glyph unicode="&#xc2;" horiz-adv-x="1480" d="M754 1434h309l303 -1434h-299l-66 317h-569l-174 -317h-311zM866 1012l-14 80l-39 -80l-248 -449h391zM883 1761h149l268 -260h-270l-86 105l-125 -105h-301z" />
<glyph unicode="&#xc3;" horiz-adv-x="1480" d="M754 1434h309l303 -1434h-299l-66 317h-569l-174 -317h-311zM866 1012l-14 80l-39 -80l-248 -449h391zM825 1790q53 0 95 -19.5t61 -46.5q45 -65 96 -65q77 0 92 113h156q-49 -289 -264 -289q-47 0 -82 13.5t-55 32.5t-36 38.5t-36 33t-45 13.5q-81 0 -90 -113h-158 q52 289 266 289z" />
<glyph unicode="&#xc4;" horiz-adv-x="1480" d="M754 1434h309l303 -1434h-299l-66 317h-569l-174 -317h-311zM866 1012l-14 80l-39 -80l-248 -449h391zM756 1782q56 0 90.5 -32.5t34.5 -86.5q0 -68 -53 -118t-121 -50q-55 0 -89 33t-34 84q0 68 52 119t120 51zM1178 1782q54 0 88 -34t34 -85q0 -68 -53 -118t-121 -50 q-55 0 -87.5 32.5t-32.5 84.5q0 69 51.5 119.5t120.5 50.5z" />
<glyph unicode="&#xc5;" horiz-adv-x="1480" d="M754 1434h309l303 -1434h-299l-66 317h-569l-174 -317h-311zM866 1012l-14 80l-39 -80l-248 -449h391zM967 1769q-37 0 -62.5 -25.5t-25.5 -62.5q0 -26 18.5 -44.5t44.5 -18.5q38 0 62 25.5t24 66.5q0 25 -17.5 42t-43.5 17zM985 1903q83 0 134.5 -52t51.5 -131 q0 -102 -71 -169.5t-176 -67.5q-84 0 -135.5 51.5t-51.5 130.5q0 103 71.5 170.5t176.5 67.5z" />
<glyph unicode="&#xc6;" horiz-adv-x="1976" d="M1110 1434h938l-45 -263h-545l-53 -303h469l-45 -264h-469l-62 -342h545l-47 -262h-825l55 319h-485l-265 -319h-331zM1069 561l96 537l-61 -86l-371 -451h336z" />
<glyph unicode="&#xc7;" horiz-adv-x="1509" d="M940 1460q255 0 408 -135q154 -136 184 -354h-309q-43 227 -312 227q-222 0 -368 -180q-148 -183 -148 -418q0 -165 95 -264.5t255 -99.5q140 0 244 63t162 176h297q-206 -490 -700 -502l-31 -77q67 -4 107 -44.5t40 -103.5q0 -98 -72 -158.5t-182 -60.5q-119 0 -184 65 l98 115q30 -47 94 -47q36 0 61.5 19.5t25.5 50.5q0 51 -66 51q-15 0 -57 -10l-37 12l78 197q-241 30 -381 198q-140 172 -140 416q-3 135 36.5 265.5t116 238.5t179.5 190.5t234 127t272 42.5z" />
<glyph unicode="&#xc8;" horiz-adv-x="1062" d="M309 1434h826l-45 -263h-545l-53 -303h469l-46 -264h-471l-59 -342h543l-45 -262h-826zM360 1749h345l165 -246h-254z" />
<glyph unicode="&#xc9;" horiz-adv-x="1062" d="M309 1434h826l-45 -263h-545l-53 -303h469l-46 -264h-471l-59 -342h543l-45 -262h-826zM811 1749h399l-350 -246h-280z" />
<glyph unicode="&#xca;" horiz-adv-x="1062" d="M309 1434h826l-45 -263h-545l-53 -303h469l-46 -264h-471l-59 -342h543l-45 -262h-826zM696 1761h150l268 -260h-270l-86 105l-125 -105h-301z" />
<glyph unicode="&#xcb;" horiz-adv-x="1062" d="M309 1434h826l-45 -263h-545l-53 -303h469l-46 -264h-471l-59 -342h543l-45 -262h-826zM569 1782q56 0 90.5 -32.5t34.5 -86.5q0 -68 -53 -118t-121 -50q-55 0 -89 33t-34 84q0 68 52 119t120 51zM991 1782q54 0 88.5 -34t34.5 -85q0 -68 -53 -118t-121 -50 q-55 0 -88 32.5t-33 84.5q0 69 51.5 119.5t120.5 50.5z" />
<glyph unicode="&#xcc;" horiz-adv-x="571" d="M309 1434h281l-252 -1434h-281zM90 1749h344l166 -246h-254z" />
<glyph unicode="&#xcd;" horiz-adv-x="571" d="M309 1434h281l-252 -1434h-281zM539 1749h399l-350 -246h-281z" />
<glyph unicode="&#xce;" horiz-adv-x="571" d="M309 1434h281l-252 -1434h-281zM428 1761h150l268 -260h-271l-86 105l-124 -105h-302z" />
<glyph unicode="&#xcf;" horiz-adv-x="571" d="M301 1782q56 0 90.5 -32.5t34.5 -86.5q0 -68 -53 -118t-121 -50q-55 0 -89 33t-34 84q0 68 52 119t120 51zM723 1782q54 0 88.5 -34t34.5 -85q0 -68 -53 -118t-121 -50q-55 0 -88 32.5t-33 84.5q0 69 51.5 119.5t120.5 50.5zM309 1434h281l-252 -1434h-281z" />
<glyph unicode="&#xd0;" horiz-adv-x="1521" d="M328 1434h518q295 0 469 -168q174 -165 174 -435q0 -367 -242 -600q-240 -231 -616 -231h-555l112 641h-131l33 199h133zM819 1171h-256l-59 -331h223l-35 -199h-223l-66 -379h254q242 0 390 160q149 158 149 407q0 166 -96.5 254t-280.5 88z" />
<glyph unicode="&#xd1;" horiz-adv-x="1482" d="M1221 1434h282l-252 -1434h-250l-452 864l-41 90l-170 -954h-281l252 1434h250l449 -867l43 -94zM813 1790q53 0 95 -19.5t61 -46.5q45 -65 96 -65q77 0 92 113h156q-49 -289 -264 -289q-47 0 -82 13.5t-55 32.5t-36 38.5t-36 33t-45 13.5q-81 0 -90 -113h-158 q52 289 266 289z" />
<glyph unicode="&#xd2;" horiz-adv-x="1636" d="M950 1460q295 0 477 -182q181 -181 181 -457q0 -244 -121 -442q-117 -194 -310 -300t-419 -106q-295 0 -477 179q-179 179 -179 452q0 371 250 615q247 241 598 241zM940 1198q-232 0 -387 -168q-158 -172 -158 -416q0 -171 101.5 -274.5t273.5 -103.5q228 0 385 167 q160 171 160 416q0 171 -101.5 275t-273.5 104zM594 1769h344l166 -245h-254z" />
<glyph unicode="&#xd3;" horiz-adv-x="1636" d="M950 1460q295 0 477 -182q181 -181 181 -457q0 -244 -121 -442q-117 -194 -310 -300t-419 -106q-295 0 -477 179q-179 179 -179 452q0 371 250 615q247 241 598 241zM940 1198q-232 0 -387 -168q-158 -172 -158 -416q0 -171 101.5 -274.5t273.5 -103.5q228 0 385 167 q160 171 160 416q0 171 -101.5 275t-273.5 104zM1047 1769h399l-350 -245h-281z" />
<glyph unicode="&#xd4;" horiz-adv-x="1636" d="M950 1460q295 0 477 -182q181 -181 181 -457q0 -244 -121 -442q-117 -194 -310 -300t-419 -106q-295 0 -477 179q-179 179 -179 452q0 371 250 615q247 241 598 241zM940 1198q-232 0 -387 -168q-158 -172 -158 -416q0 -171 101.5 -274.5t273.5 -103.5q228 0 385 167 q160 171 160 416q0 171 -101.5 275t-273.5 104zM932 1782h149l269 -260h-271l-86 104l-125 -104h-301z" />
<glyph unicode="&#xd5;" horiz-adv-x="1636" d="M950 1460q295 0 477 -182q181 -181 181 -457q0 -244 -121 -442q-117 -194 -310 -300t-419 -106q-295 0 -477 179q-179 179 -179 452q0 371 250 615q247 241 598 241zM940 1198q-232 0 -387 -168q-158 -172 -158 -416q0 -171 101.5 -274.5t273.5 -103.5q228 0 385 167 q160 171 160 416q0 171 -101.5 275t-273.5 104zM874 1810q54 0 95.5 -19t60.5 -46q46 -66 96 -66q78 0 93 113h155q-49 -289 -264 -289q-47 0 -82 13.5t-55 32.5t-36 38.5t-36 33t-45 13.5q-81 0 -90 -112h-158q52 288 266 288z" />
<glyph unicode="&#xd6;" horiz-adv-x="1636" d="M950 1460q295 0 477 -182q181 -181 181 -457q0 -244 -121 -442q-117 -194 -310 -300t-419 -106q-295 0 -477 179q-179 179 -179 452q0 371 250 615q247 241 598 241zM940 1198q-232 0 -387 -168q-158 -172 -158 -416q0 -171 101.5 -274.5t273.5 -103.5q228 0 385 167 q160 171 160 416q0 171 -101.5 275t-273.5 104zM805 1802q56 0 90.5 -32.5t34.5 -86.5q0 -68 -52.5 -117.5t-121.5 -49.5q-55 0 -89 32.5t-34 83.5q0 68 52 119t120 51zM1227 1802q54 0 88.5 -34t34.5 -85q0 -68 -52.5 -117.5t-121.5 -49.5q-55 0 -88 32t-33 84 q0 69 51.5 119.5t120.5 50.5z" />
<glyph unicode="&#xd7;" horiz-adv-x="892" d="M502 883l282 233l148 -180l-281 -238l189 -233l-185 -148l-192 234l-281 -234l-151 183l284 233l-192 238l186 147z" />
<glyph unicode="&#xd8;" horiz-adv-x="1636" d="M950 1460q162 0 291 -57l154 199l188 -125l-153 -199q178 -178 178 -457q0 -244 -121 -442q-117 -194 -310 -300t-419 -106q-156 0 -289 56l-145 -189l-185 127l142 185q-179 176 -179 452q0 371 250 615q247 241 598 241zM940 1198q-232 0 -387 -168 q-158 -172 -158 -416q0 -133 64 -231l610 797q-59 18 -129 18zM1315 819q0 134 -64 228l-610 -795q66 -16 129 -16q228 0 385 167q160 171 160 416z" />
<glyph unicode="&#xd9;" horiz-adv-x="1419" d="M1227 1434h282l-155 -881q-50 -278 -221 -429t-445 -151q-277 0 -409 172q-132 173 -80 461l145 828h283l-152 -856q-59 -342 240 -342q298 0 360 342zM559 1749h344l166 -246h-254z" />
<glyph unicode="&#xda;" horiz-adv-x="1419" d="M1227 1434h282l-155 -881q-50 -278 -221 -429t-445 -151q-277 0 -409 172q-132 173 -80 461l145 828h283l-152 -856q-59 -342 240 -342q298 0 360 342zM1010 1749h399l-350 -246h-281z" />
<glyph unicode="&#xdb;" horiz-adv-x="1419" d="M1227 1434h282l-155 -881q-50 -278 -221 -429t-445 -151q-277 0 -409 172q-132 173 -80 461l145 828h283l-152 -856q-59 -342 240 -342q298 0 360 342zM895 1761h149l269 -260h-271l-86 105l-125 -105h-301z" />
<glyph unicode="&#xdc;" horiz-adv-x="1419" d="M1227 1434h282l-155 -881q-50 -278 -221 -429t-445 -151q-277 0 -409 172q-132 173 -80 461l145 828h283l-152 -856q-59 -342 240 -342q298 0 360 342zM768 1782q56 0 90.5 -32.5t34.5 -86.5q0 -68 -53 -118t-121 -50q-55 0 -89 33t-34 84q0 68 52 119t120 51zM1190 1782 q54 0 88.5 -34t34.5 -85q0 -68 -53 -118t-121 -50q-55 0 -88 32.5t-33 84.5q0 69 51.5 119.5t120.5 50.5z" />
<glyph unicode="&#xdd;" horiz-adv-x="1406" d="M1200 1434h346l-702 -902l-92 -532h-283l92 532l-383 902h307l217 -506l33 -97l68 97zM924 1749h399l-350 -246h-281z" />
<glyph unicode="&#xde;" horiz-adv-x="1208" d="M309 1434h281l-37 -211h209q196 0 317 -109t121 -274q0 -222 -162 -359q-158 -137 -393 -137h-246l-61 -344h-281zM731 958h-223l-64 -350h236q88 0 158 58q71 59 71 153q0 67 -46.5 103t-131.5 36z" />
<glyph unicode="&#xdf;" horiz-adv-x="1187" d="M786 1516l-43 -252q-88 0 -145 -50.5t-74 -148.5l-6 -27h668l-37 -209l-287 -389q119 -33 190.5 -129t71.5 -229q0 -238 -159 -385q-157 -148 -412 -148q-94 0 -178 19l51 268q76 -24 135 -24q118 0 195.5 67.5t77.5 175.5q0 176 -218 176h-94l33 193l272 373h-352 l-141 -797h-283l189 1063q41 231 175.5 342t370.5 111z" />
<glyph unicode="&#xe0;" d="M641 1061q118 0 195 -47t110 -125l43 149h230l-185 -1038h-229l6 129q-122 -152 -356 -152q-178 0 -289 129q-109 133 -109 324q0 252 164 440q164 191 420 191zM655 811q-134 0 -227 -106q-92 -106 -92 -248q0 -102 59.5 -166t153.5 -64q108 0 199 76q95 77 116 205 l4 27q22 123 -41.5 199.5t-171.5 76.5zM350 1499h309l179 -323h-222z" />
<glyph unicode="&#xe1;" d="M641 1061q118 0 195 -47t110 -125l43 149h230l-185 -1038h-229l6 129q-122 -152 -356 -152q-178 0 -289 129q-109 133 -109 324q0 252 164 440q164 191 420 191zM655 811q-134 0 -227 -106q-92 -106 -92 -248q0 -102 59.5 -166t153.5 -64q108 0 199 76q95 77 116 205 l4 27q22 123 -41.5 199.5t-171.5 76.5zM856 1499h354l-383 -323h-241z" />
<glyph unicode="&#xe2;" d="M641 1061q118 0 195 -47t110 -125l43 149h230l-185 -1038h-229l6 129q-122 -152 -356 -152q-178 0 -289 129q-109 133 -109 324q0 252 164 440q164 191 420 191zM655 811q-134 0 -227 -106q-92 -106 -92 -248q0 -102 59.5 -166t153.5 -64q108 0 199 76q95 77 116 205 l4 27q22 123 -41.5 199.5t-171.5 76.5zM670 1499h196l228 -323h-254l-88 159l-142 -159h-286z" />
<glyph unicode="&#xe3;" d="M641 1061q118 0 195 -47t110 -125l43 149h230l-185 -1038h-229l6 129q-122 -152 -356 -152q-178 0 -289 129q-109 133 -109 324q0 252 164 440q164 191 420 191zM655 811q-134 0 -227 -106q-92 -106 -92 -248q0 -102 59.5 -166t153.5 -64q108 0 199 76q95 77 116 205 l4 27q22 123 -41.5 199.5t-171.5 76.5zM631 1477q45 0 79.5 -14t54 -34t36 -40t37 -34t45.5 -14q69 0 90 117h157q-53 -293 -264 -293q-47 0 -82.5 14t-55.5 34.5t-36.5 41t-36.5 34.5t-45 14q-68 0 -92 -119h-156q53 293 269 293z" />
<glyph unicode="&#xe4;" d="M641 1061q118 0 195 -47t110 -125l43 149h230l-185 -1038h-229l6 129q-122 -152 -356 -152q-178 0 -289 129q-109 133 -109 324q0 252 164 440q164 191 420 191zM655 811q-134 0 -227 -106q-92 -106 -92 -248q0 -102 59.5 -166t153.5 -64q108 0 199 76q95 77 116 205 l4 27q22 123 -41.5 199.5t-171.5 76.5zM557 1458q54 0 89.5 -34t35.5 -85q0 -68 -53.5 -118t-122.5 -50q-55 0 -89 32t-34 83q0 71 52 121.5t122 50.5zM977 1458q56 0 90.5 -32.5t34.5 -86.5q0 -68 -53.5 -118t-122.5 -50q-54 0 -88.5 32t-34.5 83q0 71 52 121.5t122 50.5z " />
<glyph unicode="&#xe5;" d="M641 1061q118 0 195 -47t110 -125l43 149h230l-185 -1038h-229l6 129q-122 -152 -356 -152q-178 0 -289 129q-109 133 -109 324q0 252 164 440q164 191 420 191zM655 811q-134 0 -227 -106q-92 -106 -92 -248q0 -102 59.5 -166t153.5 -64q108 0 199 76q95 77 116 205 l4 27q22 123 -41.5 199.5t-171.5 76.5zM768 1452q-47 0 -80 -32t-33 -79q0 -33 21.5 -55t56.5 -22q47 0 79 33t32 81q0 33 -20.5 53.5t-55.5 20.5zM784 1581q87 0 143 -55t56 -137q0 -109 -76.5 -182.5t-187.5 -73.5q-90 0 -145.5 54.5t-55.5 137.5q0 112 78 184 q81 72 188 72z" />
<glyph unicode="&#xe6;" horiz-adv-x="1742" d="M1249 1061q219 0 338 -146q118 -146 72 -415l-10 -62h-723q-2 -4 -2 -32q0 -92 55.5 -146.5t153.5 -54.5q162 0 227 121h266q-165 -349 -524 -349q-257 0 -377 197q-170 -197 -383 -197q-146 0 -226.5 68.5t-80.5 185.5q0 291 379 353l272 51l8 41q27 160 -114 160 q-64 0 -115.5 -39t-61.5 -99h-258q42 168 161 265.5t294 97.5q204 0 299 -115q151 115 350 115zM1229 840q-101 0 -173.5 -57.5t-97.5 -159.5h457q11 100 -37 158.5t-149 58.5zM647 412l8 49l-200 -41q-146 -27 -146 -144q0 -39 26.5 -62.5t74.5 -23.5q108 0 180 97 q45 51 57 125z" />
<glyph unicode="&#xe7;" horiz-adv-x="1140" d="M662 1061q187 0 307 -105q120 -102 123 -284h-258q-11 69 -61.5 108t-129.5 39q-132 0 -219 -112q-88 -113 -88 -254q0 -105 57.5 -168.5t155.5 -63.5q75 0 138.5 40t94.5 106h260q-138 -372 -497 -387l-33 -84q67 -4 107 -44.5t40 -103.5q0 -98 -71.5 -158.5 t-181.5 -60.5q-120 0 -185 65l98 115q30 -47 95 -47q36 0 61 19.5t25 50.5q0 51 -66 51q-15 0 -57 -10l-37 12l80 201q-166 29 -263.5 150t-97.5 298q0 263 170 445q173 182 433 182z" />
<glyph unicode="&#xe8;" horiz-adv-x="1144" d="M649 1061q219 0 338 -146q118 -146 72 -415l-10 -62h-723q-2 -4 -2 -32q0 -92 55.5 -146.5t152.5 -54.5q163 0 228 121h266q-165 -349 -524 -349q-203 0 -322 125q-121 127 -121 328q0 261 162 444q163 187 428 187zM317 1499h310l178 -323h-221zM629 840 q-101 0 -173.5 -57.5t-97.5 -159.5h457q11 100 -37 158.5t-149 58.5z" />
<glyph unicode="&#xe9;" horiz-adv-x="1144" d="M649 1061q219 0 338 -146q118 -146 72 -415l-10 -62h-723q-2 -4 -2 -32q0 -92 55.5 -146.5t152.5 -54.5q163 0 228 121h266q-165 -349 -524 -349q-203 0 -322 125q-121 127 -121 328q0 261 162 444q163 187 428 187zM821 1499h355l-383 -323h-242zM629 840 q-101 0 -173.5 -57.5t-97.5 -159.5h457q11 100 -37 158.5t-149 58.5z" />
<glyph unicode="&#xea;" horiz-adv-x="1144" d="M649 1061q219 0 338 -146q118 -146 72 -415l-10 -62h-723q-2 -4 -2 -32q0 -92 55.5 -146.5t152.5 -54.5q163 0 228 121h266q-165 -349 -524 -349q-203 0 -322 125q-121 127 -121 328q0 261 162 444q163 187 428 187zM637 1499h197l227 -323h-254l-88 159l-141 -159h-287z M629 840q-101 0 -173.5 -57.5t-97.5 -159.5h457q11 100 -37 158.5t-149 58.5z" />
<glyph unicode="&#xeb;" horiz-adv-x="1144" d="M649 1061q219 0 338 -146q118 -146 72 -415l-10 -62h-723q-2 -4 -2 -32q0 -92 55.5 -146.5t152.5 -54.5q163 0 228 121h266q-165 -349 -524 -349q-203 0 -322 125q-121 127 -121 328q0 261 162 444q163 187 428 187zM629 840q-101 0 -173.5 -57.5t-97.5 -159.5h457 q11 100 -37 158.5t-149 58.5zM524 1458q54 0 89.5 -34t35.5 -85q0 -68 -53.5 -118t-122.5 -50q-55 0 -89 32t-34 83q0 71 52 121.5t122 50.5zM944 1458q56 0 90.5 -32.5t34.5 -86.5q0 -68 -53.5 -118t-122.5 -50q-54 0 -88.5 32t-34.5 83q0 71 52 121.5t122 50.5z" />
<glyph unicode="&#xec;" horiz-adv-x="552" d="M236 1038h266l-185 -1038h-266zM23 1499h309l178 -323h-221z" />
<glyph unicode="&#xed;" horiz-adv-x="552" d="M236 1038h266l-185 -1038h-266zM524 1499h355l-383 -323h-242z" />
<glyph unicode="&#xee;" horiz-adv-x="552" d="M236 1038h266l-185 -1038h-266zM342 1499h197l227 -323h-254l-88 159l-141 -159h-287z" />
<glyph unicode="&#xef;" horiz-adv-x="552" d="M229 1458q54 0 89.5 -34t35.5 -85q0 -68 -53.5 -118t-122.5 -50q-55 0 -89 32t-34 83q0 71 52 121.5t122 50.5zM649 1458q56 0 90.5 -32.5t34.5 -86.5q0 -68 -53.5 -118t-122.5 -50q-54 0 -88.5 32t-34.5 83q0 71 52 121.5t122 50.5zM236 1038h266l-185 -1038h-266z" />
<glyph unicode="&#xf0;" horiz-adv-x="1171" d="M760 1288h299l-31 -182h-164l172 -299q66 -123 66 -256q0 -237 -172 -406q-168 -168 -422 -168q-195 0 -318 117q-122 116 -122 303q0 245 163 408q164 164 412 170l-76 131h-321l30 182h185l-119 207h299zM537 213q118 0 208 96q89 100 89 228q0 96 -55 149t-148 53 q-122 0 -209 -96q-86 -95 -86 -225q0 -94 54 -149.5t147 -55.5z" />
<glyph unicode="&#xf1;" horiz-adv-x="1130" d="M766 1061q162 0 231.5 -102.5t36.5 -284.5l-116 -674h-267l107 616q34 187 -103 187q-84 0 -150 -64.5t-89 -179.5l-99 -559h-266l185 1038h229l-4 -131q46 68 128.5 111t176.5 43zM612 1477q45 0 79.5 -14t54 -34t36 -40t36.5 -34t46 -14q69 0 90 117h158 q-53 -293 -264 -293q-47 0 -82.5 14t-55.5 34.5t-36.5 41t-36.5 34.5t-45 14q-68 0 -92 -119h-156q53 293 268 293z" />
<glyph unicode="&#xf2;" horiz-adv-x="1224" d="M692 1061q210 0 342 -129q131 -128 131 -332q0 -272 -186 -446q-189 -177 -447 -177q-210 0 -342 129q-131 131 -131 332q0 272 187 447q188 176 446 176zM668 819q-140 0 -234 -108q-96 -110 -96 -256q0 -106 58.5 -170t160.5 -64q136 0 231 109q99 108 99 254 q0 105 -60 170t-159 65zM348 1499h309l179 -323h-222z" />
<glyph unicode="&#xf3;" horiz-adv-x="1224" d="M692 1061q210 0 342 -129q131 -128 131 -332q0 -272 -186 -446q-189 -177 -447 -177q-210 0 -342 129q-131 131 -131 332q0 272 187 447q188 176 446 176zM668 819q-140 0 -234 -108q-96 -110 -96 -256q0 -106 58.5 -170t160.5 -64q136 0 231 109q99 108 99 254 q0 105 -60 170t-159 65zM854 1499h354l-383 -323h-241z" />
<glyph unicode="&#xf4;" horiz-adv-x="1224" d="M692 1061q210 0 342 -129q131 -128 131 -332q0 -272 -186 -446q-189 -177 -447 -177q-210 0 -342 129q-131 131 -131 332q0 272 187 447q188 176 446 176zM668 819q-140 0 -234 -108q-96 -110 -96 -256q0 -106 58.5 -170t160.5 -64q136 0 231 109q99 108 99 254 q0 105 -60 170t-159 65zM668 1499h196l228 -323h-254l-88 159l-142 -159h-286z" />
<glyph unicode="&#xf5;" horiz-adv-x="1224" d="M629 1477q45 0 79.5 -14t54 -34t36 -40t36.5 -34t46 -14q69 0 90 117h157q-53 -293 -264 -293q-47 0 -82.5 14t-55.5 34.5t-36.5 41t-36.5 34.5t-45 14q-68 0 -92 -119h-156q53 293 269 293zM692 1061q210 0 342 -129q131 -128 131 -332q0 -272 -186 -446 q-189 -177 -447 -177q-210 0 -342 129q-131 131 -131 332q0 272 187 447q188 176 446 176zM668 819q-140 0 -234 -108q-96 -110 -96 -256q0 -106 58.5 -170t160.5 -64q136 0 231 109q99 108 99 254q0 105 -60 170t-159 65z" />
<glyph unicode="&#xf6;" horiz-adv-x="1224" d="M692 1061q210 0 342 -129q131 -128 131 -332q0 -272 -186 -446q-189 -177 -447 -177q-210 0 -342 129q-131 131 -131 332q0 272 187 447q188 176 446 176zM668 819q-140 0 -234 -108q-96 -110 -96 -256q0 -106 58.5 -170t160.5 -64q136 0 231 109q99 108 99 254 q0 105 -60 170t-159 65zM555 1458q54 0 89.5 -34t35.5 -85q0 -68 -53.5 -118t-122.5 -50q-55 0 -89 32t-34 83q0 71 52 121.5t122 50.5zM975 1458q56 0 90.5 -32.5t34.5 -86.5q0 -68 -53.5 -118t-122.5 -50q-54 0 -88.5 32t-34.5 83q0 71 52 121.5t122 50.5z" />
<glyph unicode="&#xf7;" horiz-adv-x="966" d="M612 1266q62 0 102 -38t38 -95q-1 -73 -60.5 -128t-134.5 -55q-62 0 -99 36.5t-36 96.5q1 74 58.5 128.5t131.5 54.5zM475 481q60 0 99 -38t38 -95q-1 -74 -58.5 -128t-133.5 -54q-63 0 -100.5 36.5t-36.5 96.5q1 73 59.5 127.5t132.5 54.5zM123 834h844l-41 -236h-844z " />
<glyph unicode="&#xf8;" horiz-adv-x="1224" d="M692 1061q113 0 197 -37l133 186l111 -71l-129 -181q161 -127 161 -358q0 -272 -186 -446q-189 -177 -447 -177q-105 0 -198 37l-125 -178l-111 72l121 172q-160 127 -160 358q0 272 187 447q188 176 446 176zM668 819q-140 0 -234 -108q-96 -110 -96 -256q0 -91 41 -150 l358 504q-42 10 -69 10zM887 584q0 88 -43 149l-357 -504q27 -8 70 -8q136 0 231 109q99 108 99 254z" />
<glyph unicode="&#xf9;" horiz-adv-x="1124" d="M844 1038h266l-182 -1038h-230l4 131q-46 -68 -127.5 -111t-175.5 -43q-160 0 -228.5 103t-35.5 285l117 673h266l-106 -614q-35 -188 102 -188q81 0 146 65.5t85 179.5zM330 1499h309l178 -323h-221z" />
<glyph unicode="&#xfa;" horiz-adv-x="1124" d="M844 1038h266l-182 -1038h-230l4 131q-46 -68 -127.5 -111t-175.5 -43q-160 0 -228.5 103t-35.5 285l117 673h266l-106 -614q-35 -188 102 -188q81 0 146 65.5t85 179.5zM836 1499h354l-383 -323h-242z" />
<glyph unicode="&#xfb;" horiz-adv-x="1124" d="M844 1038h266l-182 -1038h-230l4 131q-46 -68 -127.5 -111t-175.5 -43q-160 0 -228.5 103t-35.5 285l117 673h266l-106 -614q-35 -188 102 -188q81 0 146 65.5t85 179.5zM649 1499h197l227 -323h-254l-88 159l-141 -159h-287z" />
<glyph unicode="&#xfc;" horiz-adv-x="1124" d="M844 1038h266l-182 -1038h-230l4 131q-46 -68 -127.5 -111t-175.5 -43q-160 0 -228.5 103t-35.5 285l117 673h266l-106 -614q-35 -188 102 -188q81 0 146 65.5t85 179.5zM537 1458q54 0 89.5 -34t35.5 -85q0 -68 -54 -118t-123 -50q-55 0 -89 32t-34 83q0 71 52.5 121.5 t122.5 50.5zM956 1458q56 0 90.5 -32.5t34.5 -86.5q0 -68 -53.5 -118t-122.5 -50q-54 0 -88.5 32t-34.5 83q0 71 52 121.5t122 50.5z" />
<glyph unicode="&#xfd;" horiz-adv-x="1067" d="M842 1038h288l-792 -1478h-279l240 456l-190 1022h286l90 -637l7 -90l34 90zM768 1499h354l-383 -323h-241z" />
<glyph unicode="&#xfe;" horiz-adv-x="1277" d="M332 1495h266l-102 -571q122 137 335 137q179 0 287 -129q109 -130 109 -324q0 -249 -164 -440t-420 -191q-210 0 -287 154l-100 -571h-266zM735 811q-107 0 -198 -76q-93 -75 -117 -207l-2 -22q-24 -126 38.5 -202.5t172.5 -76.5q133 0 227 105q94 107 94 250 q0 103 -59 166t-156 63z" />
<glyph unicode="&#xff;" horiz-adv-x="1067" d="M842 1038h288l-792 -1478h-279l240 456l-190 1022h286l90 -637l7 -90l34 90zM471 1458q54 0 89.5 -34t35.5 -85q0 -68 -53.5 -118t-122.5 -50q-55 0 -89 32t-34 83q0 71 52 121.5t122 50.5zM891 1458q56 0 90.5 -32.5t34.5 -86.5q0 -68 -53.5 -118t-122.5 -50 q-54 0 -88.5 32t-34.5 83q0 71 52 121.5t122 50.5z" />
<glyph unicode="&#x152;" horiz-adv-x="2189" d="M1436 1434h825l-45 -263h-545l-53 -303h469l-45 -264h-471l-60 -342h543l-45 -262h-825l22 131q-217 -158 -475 -158q-279 0 -455 179q-174 180 -174 452q0 375 252 615q250 241 611 241q279 0 448 -153zM940 1198q-229 0 -387 -168q-158 -172 -158 -416 q0 -171 101.5 -274.5t273.5 -103.5q228 0 385 167q160 171 160 416q0 171 -101.5 275t-273.5 104z" />
<glyph unicode="&#x153;" horiz-adv-x="1957" d="M692 1061q236 0 369 -160q165 160 403 160q219 0 338 -146q118 -146 72 -415l-10 -62h-719l-6 -24v-8q0 -92 56 -146.5t153 -54.5q162 0 227 121h266q-165 -349 -524 -349q-232 0 -354 162q-180 -162 -431 -162q-210 0 -342 129q-131 131 -131 332q0 272 187 447 q188 176 446 176zM668 819q-140 0 -234 -108q-96 -110 -96 -256q0 -106 58.5 -170t160.5 -64q116 0 205 80q90 84 117 203l6 55q2 6 2 25q0 105 -60 170t-159 65zM1444 840q-101 0 -173 -57.5t-97 -159.5h456q11 100 -37 158.5t-149 58.5z" />
<glyph unicode="&#x178;" horiz-adv-x="1406" d="M1200 1434h346l-702 -902l-92 -532h-283l92 532l-383 902h307l217 -506l33 -97l68 97zM684 1782q56 0 90.5 -32.5t34.5 -86.5q0 -68 -53 -118t-121 -50q-55 0 -89 33t-34 84q0 68 52 119t120 51zM1106 1782q54 0 88.5 -34t34.5 -85q0 -68 -53 -118t-121 -50 q-55 0 -88 32.5t-33 84.5q0 69 51.5 119.5t120.5 50.5z" />
<glyph unicode="&#x2c6;" horiz-adv-x="808" d="M479 1499h197l227 -323h-254l-88 159l-141 -159h-287z" />
<glyph unicode="&#x2dc;" horiz-adv-x="759" d="M395 1477q45 0 79.5 -14t54 -34t36 -40t36.5 -34t46 -14q69 0 90 117h158q-53 -293 -264 -293q-47 0 -82.5 14t-55.5 34.5t-36.5 41t-36.5 34.5t-45 14q-68 0 -92 -119h-156q53 293 268 293z" />
<glyph unicode="&#x2000;" horiz-adv-x="951" />
<glyph unicode="&#x2001;" horiz-adv-x="1903" />
<glyph unicode="&#x2002;" horiz-adv-x="951" />
<glyph unicode="&#x2003;" horiz-adv-x="1903" />
<glyph unicode="&#x2004;" horiz-adv-x="634" />
<glyph unicode="&#x2005;" horiz-adv-x="475" />
<glyph unicode="&#x2006;" horiz-adv-x="317" />
<glyph unicode="&#x2007;" horiz-adv-x="317" />
<glyph unicode="&#x2008;" horiz-adv-x="237" />
<glyph unicode="&#x2009;" horiz-adv-x="380" />
<glyph unicode="&#x200a;" horiz-adv-x="105" />
<glyph unicode="&#x2010;" horiz-adv-x="747" d="M84 649h645l-41 -235h-645z" />
<glyph unicode="&#x2011;" horiz-adv-x="747" d="M84 649h645l-41 -235h-645z" />
<glyph unicode="&#x2012;" horiz-adv-x="747" d="M84 649h645l-41 -235h-645z" />
<glyph unicode="&#x2013;" horiz-adv-x="1054" d="M80 649h952l-41 -235h-952z" />
<glyph unicode="&#x2014;" horiz-adv-x="1443" d="M82 649h1341l-41 -235h-1341z" />
<glyph unicode="&#x2018;" horiz-adv-x="440" d="M406 1526l71 -27q-68 -100 -102 -233q55 -7 85.5 -48t22.5 -98q-10 -67 -65 -114.5t-123 -47.5q-69 0 -106 46.5t-25 123.5q13 99 82 205q73 112 160 193z" />
<glyph unicode="&#x2019;" horiz-adv-x="440" d="M518 1341q-12 -96 -82 -206q-70 -112 -157 -193l-72 27q65 100 102 233q-57 7 -86.5 47t-21.5 97q7 67 62.5 115t123.5 48t105.5 -47t25.5 -121z" />
<glyph unicode="&#x201a;" horiz-adv-x="440" d="M322 127q-12 -95 -78.5 -203t-161.5 -196l-72 28q68 99 105 234q-57 6 -88 46t-23 97q10 67 65.5 114.5t123.5 47.5t104.5 -47t24.5 -121z" />
<glyph unicode="&#x201c;" horiz-adv-x="874" d="M414 1526l71 -27q-68 -100 -102 -233q56 -8 86 -48.5t23 -97.5q-10 -67 -65.5 -114.5t-123.5 -47.5q-69 0 -106 46.5t-25 123.5q13 99 82 205q73 112 160 193zM846 1526l72 -27q-70 -102 -103 -233q56 -8 86 -48.5t23 -97.5q-10 -67 -65.5 -114.5t-123.5 -47.5 q-69 0 -106 46.5t-25 123.5q13 99 82 205q73 112 160 193z" />
<glyph unicode="&#x201d;" horiz-adv-x="874" d="M514 1341q-12 -96 -82 -206q-68 -110 -158 -193l-71 27q65 100 102 233q-57 7 -86.5 47t-21.5 97q7 67 62.5 115t123.5 48t105.5 -47t25.5 -121zM944 1341q-12 -96 -82 -206q-70 -112 -157 -193l-72 27q65 100 102 233q-57 7 -86.5 47t-21.5 97q7 67 62.5 115t123.5 48 t105.5 -47t25.5 -121z" />
<glyph unicode="&#x201e;" horiz-adv-x="878" d="M322 127q-12 -95 -78.5 -203t-161.5 -196l-72 28q68 99 105 234q-57 6 -88 46t-23 97q10 67 65.5 114.5t123.5 47.5t104.5 -47t24.5 -121zM760 127q-12 -95 -78.5 -203t-161.5 -196l-71 28q66 97 104 234q-57 6 -88 46t-23 97q10 67 65.5 114.5t123.5 47.5t104.5 -47 t24.5 -121z" />
<glyph unicode="&#x2022;" horiz-adv-x="727" d="M424 821q108 0 176 -66t68 -171q0 -140 -105 -242q-103 -100 -241 -100q-108 0 -175 65t-67 170q0 140 102 242q105 102 242 102z" />
<glyph unicode="&#x2026;" horiz-adv-x="1427" d="M184 299q60 0 99 -38t39 -95q0 -74 -59.5 -131.5t-135.5 -57.5q-61 0 -100 36t-39 93q0 79 58 136t138 57zM670 299q62 0 100.5 -36.5t38.5 -96.5q0 -78 -61 -133q-59 -56 -136 -56q-60 0 -98.5 36t-38.5 93q0 79 58 136t137 57zM1157 299q62 0 100.5 -36.5t38.5 -96.5 q0 -78 -61 -133q-59 -56 -135 -56q-61 0 -100 36t-39 93q0 79 58.5 136t137.5 57z" />
<glyph unicode="&#x202f;" horiz-adv-x="380" />
<glyph unicode="&#x2039;" horiz-adv-x="581" d="M356 913h277l-371 -413l223 -387h-235l-232 399l7 33z" />
<glyph unicode="&#x203a;" horiz-adv-x="581" d="M90 913h238l231 -399l-6 -33l-334 -368h-274l368 413z" />
<glyph unicode="&#x205f;" horiz-adv-x="475" />
<glyph unicode="&#x20ac;" horiz-adv-x="1269" d="M465 637h287l-33 -197h-252q30 -204 197 -204q94 0 160.5 53t95.5 151h303q-83 -240 -223 -353.5t-363 -113.5q-193 0 -311.5 124t-141.5 343h-170l33 197h137q4 53 23 168h-129l35 196h155q88 214 243 336.5t355 122.5q210 0 330.5 -125t122.5 -340h-303 q12 203 -180 203q-161 0 -269 -197h250l-35 -196h-288q-21 -79 -29 -168z" />
<glyph unicode="&#x2122;" horiz-adv-x="1282" d="M201 1434h442l-29 -160h-135l-73 -414h-173l74 414h-135zM1153 1434h213l-102 -574h-172l49 283l-29 -66l-115 -217h-120l-37 217l-6 66l-50 -283h-172l103 574h196l58 -314l4 -35l12 35z" />
<glyph unicode="&#x25fc;" horiz-adv-x="1034" d="M0 1034h1034v-1034h-1034v1034z" />
</font>
</defs>
</svg>
