<?xml version="1.0" standalone="no"?>
<!DOCTYPE svg PUBLIC "-//W3C//DTD SVG 1.1//EN" "http://www.w3.org/Graphics/SVG/1.1/DTD/svg11.dtd" >
<svg xmlns="http://www.w3.org/2000/svg" xmlns:xlink="http://www.w3.org/1999/xlink" version="1.1">
<metadata></metadata>
<defs>
<font id="larsseitextrabold_italic" horiz-adv-x="1296" >
<font-face units-per-em="2048" ascent="1638" descent="-410" />
<missing-glyph horiz-adv-x="389" />
<glyph unicode="&#xfb01;" horiz-adv-x="1351" d="M74 741l53 303h149l13 72q68 406 481 406q64 0 123 -17l-51 -295q-46 21 -88 21q-106 0 -133 -123l-11 -64h203l-53 -303h-203l-131 -741h-334l131 741h-149zM797 0l184 1044h334l-185 -1044h-333zM1008 1337q16 83 77 133q66 54 146 54t127 -54q48 -54 33 -133 q-15 -80 -80 -133q-66 -54 -146 -54t-127 54q-45 51 -30 133z" />
<glyph horiz-adv-x="0" />
<glyph horiz-adv-x="682" />
<glyph unicode=" "  horiz-adv-x="389" />
<glyph unicode="&#x09;" horiz-adv-x="389" />
<glyph unicode="&#xa0;" horiz-adv-x="389" />
<glyph unicode="!" horiz-adv-x="591" d="M57 131q0 90 70 154q71 65 158 65q72 0 116.5 -42.5t44.5 -110.5q0 -93 -69 -156q-67 -64 -158 -64q-72 0 -117 43t-45 111zM137 457l174 977h334l-174 -977h-334z" />
<glyph unicode="&#x22;" horiz-adv-x="798" d="M160 1044l63 474h297l-147 -474h-213zM580 1044l63 474h297l-147 -474h-213z" />
<glyph unicode="#" horiz-adv-x="1423" d="M-12 260l55 309h207l110 312h-170l56 309h223l86 244h342l-86 -244h209l86 244h342l-86 -244h151l-55 -309h-205l-110 -312h168l-56 -309h-221l-90 -260h-342l90 260h-209l-90 -260h-342l90 260h-153zM592 569h209l110 312h-209z" />
<glyph unicode="$" horiz-adv-x="1181" d="M68 451h356q-15 -168 143 -168q71 0 114.5 36t43.5 93q0 94 -184 155q-353 120 -353 416q0 182 127 315q129 132 332 156l37 211h238l-41 -227q140 -42 215 -151.5t63 -270.5h-356q7 62 -23 97.5t-86 35.5q-59 0 -99 -33.5t-40 -87.5q0 -52 43 -85t156 -73 q178 -61 258 -161.5t80 -247.5q0 -210 -129 -336q-130 -127 -340 -148l-35 -208h-238l39 223q-171 42 -257.5 168t-63.5 291z" />
<glyph unicode="%" horiz-adv-x="1880" d="M131 1042q0 182 129 299q131 119 309 119q141 0 232 -94q92 -95 92 -231q0 -184 -129 -301q-127 -115 -303 -115q-143 0 -238 92q-92 95 -92 231zM322 0l956 1434h342l-954 -1434h-344zM403 1067q0 -43 24 -69.5t65 -26.5q54 0 91.5 42.5t37.5 102.5q0 42 -22.5 67 t-63.5 25q-51 0 -91.5 -43t-40.5 -98zM1049 297q0 182 129 299q131 119 309 119q140 0 231 -94q92 -95 92 -232q0 -184 -129 -301q-127 -115 -303 -115q-141 0 -237 93q-92 95 -92 231zM1321 322q0 -43 23.5 -70t64.5 -27q54 0 91.5 43t37.5 103q0 42 -22.5 67t-63.5 25 q-51 0 -91 -43t-40 -98z" />
<glyph unicode="&#x26;" horiz-adv-x="1460" d="M45 348q0 155 76 246q79 94 244 176l8 4l-21 29q-90 122 -90 241q0 194 139 306q137 110 363 110q183 0 299 -94q119 -94 119 -250q0 -148 -82 -233q-84 -90 -248 -170l-10 -6l129 -166q44 81 65 202h338q-36 -181 -84 -278q-43 -87 -119 -186l215 -279h-417l-51 66 q-175 -93 -375 -93q-233 0 -365.5 103.5t-132.5 271.5zM406 385q0 -115 157 -115q99 0 172 33l-194 254q-73 -37 -104 -74.5t-31 -97.5zM608 1055q0 -43 49 -107l17 -20l4 2q6 4 25.5 13t25.5 11q4 3 22.5 13.5t22.5 13.5q20 16 30.5 27.5t19 30.5t7.5 42q0 37 -26.5 59.5 t-69.5 22.5q-55 0 -91 -29t-36 -79z" />
<glyph unicode="'" horiz-adv-x="378" d="M160 1044l63 474h297l-147 -474h-213z" />
<glyph unicode="(" horiz-adv-x="641" d="M63 463q0 309 127 583t369 488l229 -166q-411 -402 -411 -911q0 -248 133 -523l-242 -141q-205 346 -205 670z" />
<glyph unicode=")" horiz-adv-x="641" d="M-119 -41q412 403 412 911q0 248 -133 523l241 141q205 -346 205 -670q0 -309 -126.5 -583t-368.5 -488z" />
<glyph unicode="*" horiz-adv-x="743" d="M121 1182l100 200l174 -69l23 200h227l-47 -200l201 76l30 -220l-204 -49l96 -162l-191 -122l-84 163l-133 -163l-163 133l147 151z" />
<glyph unicode="+" horiz-adv-x="966" d="M70 569l51 293h274l49 277h293l-49 -277h277l-52 -293h-276l-49 -274h-293l49 274h-274z" />
<glyph unicode="," horiz-adv-x="485" d="M-16 131q0 86 67 150q68 65 156 65q70 0 112.5 -42.5t42.5 -115.5q0 -106 -77 -233q-75 -123 -187 -229l-84 30q61 106 97 236q-57 8 -92 46t-35 93z" />
<glyph unicode="-" horiz-adv-x="747" d="M39 385l51 293h645l-51 -293h-645z" />
<glyph unicode="." horiz-adv-x="485" d="M-23 127q0 93 68 158q71 65 160 65q72 0 117 -42.5t45 -110.5q0 -92 -70 -156t-158 -64q-72 0 -117 42t-45 108z" />
<glyph unicode="/" horiz-adv-x="862" d="M-74 0l746 1434h346l-748 -1434h-344z" />
<glyph unicode="0" horiz-adv-x="1196" d="M74 535q0 252 73.5 456t221.5 334q153 135 360 135q205 0 320.5 -150.5t115.5 -410.5q0 -252 -73.5 -457t-223.5 -336q-154 -133 -360 -133q-205 0 -319.5 150t-114.5 412zM426 508q0 -205 121 -205q72 0 137 103q61 101 95 240.5t34 268.5q0 215 -121 215 q-76 0 -141 -108q-60 -101 -92.5 -241.5t-32.5 -272.5z" />
<glyph unicode="1" horiz-adv-x="854" d="M135 915l53 297q180 0 286 52.5t155 169.5h256l-252 -1434h-354l159 915h-303z" />
<glyph unicode="2" horiz-adv-x="1034" d="M-35 0l43 256l506 479q99 89 150 160q47 65 47 147q0 88 -82 88q-121 0 -142 -149h-354q35 220 172 348q140 131 352 131q196 0 306 -104q113 -104 110 -266q0 -126 -64 -236t-206 -246l-289 -278h420l-60 -330h-909z" />
<glyph unicode="3" horiz-adv-x="1140" d="M80 459h352q-12 -74 23.5 -115t109.5 -41q69 0 115.5 50t46.5 124q0 113 -156 113h-112l53 301h109q68 0 112.5 39.5t44.5 109.5q0 90 -88 90q-55 0 -93 -37.5t-50 -105.5h-352q32 230 171 351.5t359 121.5q194 0 305 -108t111 -275q0 -117 -58 -213t-161 -147 q69 -26 115 -90t46 -162q0 -231 -159 -363q-156 -129 -396 -129q-227 0 -352 131q-124 129 -96 355z" />
<glyph unicode="4" horiz-adv-x="1228" d="M-6 227l51 285l672 922h452l-157 -891h168l-56 -316h-168l-38 -227h-355l39 227h-608zM422 539h242l81 473l-43 -74z" />
<glyph unicode="5" horiz-adv-x="1126" d="M90 438h352q-10 -65 22 -100t99 -35q78 0 126 59.5t48 149.5q0 131 -121 131q-73 0 -141 -41h-315l147 832h877l-60 -330h-522l-33 -186q67 24 170 24q164 0 263.5 -94.5t99.5 -269.5q0 -262 -150 -435q-147 -170 -424 -170q-224 0 -348 127q-124 130 -90 338z" />
<glyph unicode="6" horiz-adv-x="1169" d="M80 510q0 272 90 504q36 97 88.5 175.5t123.5 140t165.5 95.5t204.5 35q203 0 323 -129q118 -127 88 -334h-358q15 133 -107 133q-161 0 -219 -288q104 73 250 73q169 0 268 -108t99 -287q0 -236 -162 -391q-164 -156 -408 -156q-231 0 -342 144q-104 137 -104 393z M420 430q0 -60 34.5 -96.5t94.5 -36.5q73 0 129 59q55 61 55 140q0 58 -34.5 94.5t-90.5 36.5q-81 0 -134 -52t-54 -137v-8z" />
<glyph unicode="7" horiz-adv-x="1073" d="M25 0l645 1104h-498l57 330h916l-49 -285l-668 -1149h-403z" />
<glyph unicode="8" horiz-adv-x="1159" d="M57 373q0 258 234 387q-92 83 -92 229q0 198 161 334q162 137 375 137q184 0 297 -110t113 -273q0 -104 -52 -200.5t-143 -159.5q125 -82 125 -244q0 -218 -174 -358q-177 -142 -403 -142q-189 0 -316 115q-125 113 -125 285zM418 410q0 -111 125 -111q75 0 124.5 46.5 t49.5 123.5q0 53 -33.5 84t-89.5 31q-74 0 -125 -49t-51 -125zM545 977q0 -43 26.5 -69.5t73.5 -26.5q63 0 104.5 43.5t41.5 109.5q0 44 -28.5 72.5t-72.5 28.5q-62 0 -103.5 -45.5t-41.5 -112.5z" />
<glyph unicode="9" horiz-adv-x="1169" d="M109 436h358q-15 -133 106 -133q162 0 220 289q-109 -74 -250 -74q-169 0 -268 108t-99 287q0 235 162 390q165 157 407 157q232 0 342 -143q105 -138 105 -393q0 -273 -92 -506q-34 -95 -86 -173.5t-123.5 -140t-166 -96t-204.5 -35.5q-203 0 -323 129q-118 127 -88 334 zM539 938q0 -58 34.5 -94.5t90.5 -36.5q81 0 134.5 54t53.5 143q0 60 -34.5 96.5t-94.5 36.5q-73 0 -129 -62q-55 -58 -55 -137z" />
<glyph unicode=":" horiz-adv-x="485" d="M-23 131q0 90 70 154q71 65 158 65q72 0 117 -42.5t45 -110.5q0 -92 -70 -156q-67 -64 -158 -64q-72 0 -117 43t-45 111zM104 848q0 89 70 153q72 66 158 66q72 0 117 -43t45 -111q0 -91 -70 -155q-67 -64 -158 -64q-72 0 -117 43t-45 111z" />
<glyph unicode=";" horiz-adv-x="485" d="M-16 131q0 86 67 150q68 65 154 65q70 0 113.5 -42.5t43.5 -115.5q0 -106 -77 -233q-71 -119 -187 -229l-84 30q61 106 97 236q-57 8 -92 46t-35 93zM104 848q0 89 70 153q72 66 158 66q72 0 117 -43t45 -111q0 -91 -70 -155q-67 -64 -158 -64q-72 0 -117 43t-45 111z " />
<glyph unicode="&#x3c;" horiz-adv-x="620" d="M12 516l6 35l318 362h336l-359 -415l213 -385h-288z" />
<glyph unicode="=" horiz-adv-x="966" d="M41 358l49 285h844l-49 -285h-844zM117 788l49 285h844l-49 -285h-844z" />
<glyph unicode="&#x3e;" horiz-adv-x="620" d="M-61 113l358 415l-213 385h289l225 -403l-6 -35l-318 -362h-335z" />
<glyph unicode="?" horiz-adv-x="950" d="M100 1038q29 197 167 309.5t343 112.5q175 0 291 -96q117 -95 117 -250q0 -105 -37 -191.5t-98 -144.5q-32 -30 -107.5 -87t-116 -101t-47.5 -94l-6 -39h-334l9 49q13 85 60.5 157t111.5 121q12 9 49.5 36.5t52 39t44.5 37t43 43.5t30 44t23.5 53.5t6.5 58.5 q0 102 -110 102q-68 0 -117 -43.5t-61 -116.5h-314zM193 127q0 94 67 158q71 65 160 65q72 0 117 -42.5t45 -110.5q0 -92 -70 -156t-158 -64q-72 0 -116.5 42t-44.5 108z" />
<glyph unicode="@" horiz-adv-x="1722" d="M61 385q0 387 265 649t678 262q316 0 495 -182q181 -181 178 -471q0 -141 -45 -260q-44 -128 -142.5 -209.5t-223.5 -81.5q-92 0 -148 29t-102 90q-94 -119 -266 -119q-160 0 -252 103t-92 260q0 194 135 338q136 145 309 145q162 0 223 -119l39 101h227l-94 -533 q-15 -60 -2 -92.5t60 -32.5q90 0 143 109q53 112 53 270q3 219 -131 356q-133 136 -381 136q-316 0 -534 -215q-217 -214 -217 -533q-2 -228 130 -357.5t377 -129.5q170 0 310 61l34 -156q-147 -69 -354 -69q-312 0 -491 182q-178 181 -181 469zM686 479q0 -61 35.5 -98 t91.5 -37q64 0 120.5 47t67.5 121l3 12q12 71 -26.5 117.5t-98.5 46.5q-81 0 -137 -61t-56 -148z" />
<glyph unicode="A" horiz-adv-x="1527" d="M-59 0l790 1434h397l289 -1434h-375l-49 270h-524l-143 -270h-385zM631 571h307l-66 361l-12 84l-41 -84z" />
<glyph unicode="B" horiz-adv-x="1263" d="M47 0l252 1434h469q199 0 326 -103t127 -262q0 -219 -162 -356q131 -70 131 -234q0 -214 -158 -348q-155 -131 -381 -131h-604zM459 330h213q69 0 109 38t40 109q0 90 -108 90h-213zM553 868h145q69 0 110.5 39.5t41.5 106.5q0 90 -109 90h-145z" />
<glyph unicode="C" horiz-adv-x="1523" d="M102 598q0 362 236 610q237 252 604 252q265 0 422 -145t184 -371h-387q-19 96 -79.5 141t-176.5 45q-194 0 -315 -157q-119 -155 -119 -371q0 -137 79 -218t214 -81q239 0 344 205h369q-212 -535 -738 -535q-286 0 -463 177q-174 174 -174 448z" />
<glyph unicode="D" horiz-adv-x="1507" d="M47 0l252 1434h532q300 0 478 -172q178 -169 178 -437q0 -369 -244 -598q-242 -227 -622 -227h-574zM459 330h198q213 0 336 135q125 137 125 356q0 137 -82 210t-241 73h-199z" />
<glyph unicode="E" horiz-adv-x="1075" d="M47 0l252 1434h854l-57 -330h-500l-37 -205h424l-57 -330h-424l-43 -239h499l-57 -330h-854z" />
<glyph unicode="F" horiz-adv-x="1026" d="M47 0l252 1434h846l-58 -330h-491l-41 -223h416l-58 -330h-415l-97 -551h-354z" />
<glyph unicode="G" horiz-adv-x="1581" d="M102 598q0 362 236 610q237 252 604 252q265 0 422 -145t184 -371h-387q-19 96 -79.5 141t-176.5 45q-194 0 -315 -157q-119 -155 -119 -371q0 -137 79 -218t214 -81q119 0 202.5 46.5t114.5 125.5h-266l57 330h654l-27 -148q-58 -328 -249 -506t-511 -178 q-286 0 -463 177q-174 174 -174 448z" />
<glyph unicode="H" horiz-adv-x="1480" d="M47 0l252 1434h354l-92 -527h506l92 527h354l-251 -1434h-355l101 578h-506l-101 -578h-354z" />
<glyph unicode="I" horiz-adv-x="620" d="M47 0l252 1434h354l-252 -1434h-354z" />
<glyph unicode="J" horiz-adv-x="1134" d="M70 504h354q-4 -27 -4 -50q0 -132 117 -132q120 0 147 161l166 951h354l-172 -975q-82 -469 -516 -469q-228 0 -348 147q-101 124 -101 302q0 32 3 65z" />
<glyph unicode="K" horiz-adv-x="1417" d="M47 0l252 1434h354l-110 -635l520 635h446l-546 -664l340 -770h-381l-228 508l-250 -260l-43 -248h-354z" />
<glyph unicode="L" horiz-adv-x="1099" d="M47 0l252 1434h354l-194 -1104h563l-57 -330h-918z" />
<glyph unicode="M" horiz-adv-x="1845" d="M47 0l252 1434h399l199 -826l14 -78l37 78l494 826h436l-252 -1434h-354l139 788l-68 -141l-354 -647h-305l-129 647l-14 141l-140 -788h-354z" />
<glyph unicode="N" horiz-adv-x="1507" d="M47 0l252 1434h313l383 -744l43 -96l148 840h354l-252 -1434h-311l-387 737l-41 94l-148 -831h-354z" />
<glyph unicode="O" horiz-adv-x="1642" d="M102 610q0 377 248 613q249 237 600 237q304 0 488 -184q186 -180 186 -461v-6q0 -145 -44 -277q-46 -134 -126.5 -234.5t-187.5 -174.5t-234 -112t-262 -38q-301 0 -485 181q-183 183 -183 456zM471 623q0 -148 83.5 -234t233.5 -86q195 0 332 146q135 147 135 362 q0 147 -85 233t-236 86q-200 0 -332 -147q-131 -143 -131 -360z" />
<glyph unicode="P" horiz-adv-x="1202" d="M47 0l252 1434h471q215 0 346 -125q129 -120 129 -300v-8q0 -236 -176 -383q-175 -147 -428 -147h-158l-82 -471h-354zM543 801h137q88 0 142.5 50t54.5 136q0 117 -144 117h-137z" />
<glyph unicode="Q" horiz-adv-x="1642" d="M102 610q0 377 248 613q249 237 600 237q304 0 488 -184q186 -180 186 -461q0 -382 -270 -625l241 -403h-428l-137 223q-130 -37 -260 -37q-301 0 -485 181q-183 183 -183 456zM471 623q0 -148 83.5 -234t233.5 -86q4 0 54 4l43 225h297q73 119 73 279q0 147 -85 233 t-236 86q-200 0 -332 -147q-131 -143 -131 -360z" />
<glyph unicode="R" horiz-adv-x="1236" d="M47 0l252 1434h461q216 0 344 -119q131 -119 131 -303q0 -151 -81.5 -268t-223.5 -181l190 -563h-372l-166 504h-93l-88 -504h-354zM545 813h127q86 0 140 48.5t54 131.5q0 111 -143 111h-127z" />
<glyph unicode="S" horiz-adv-x="1157" d="M72 451h356q-1 -15 -2 -28q0 -140 145 -140q71 0 114.5 36t43.5 93q0 94 -184 155q-352 119 -352 416q0 205 153 340q152 137 387 137q197 0 322 -119q110 -102 110 -274q0 -25 -2 -51h-356q1 12 1 23q0 47 -24 75q-30 36 -86 35q-59 0 -99 -33.5t-40 -87.5q0 -52 43 -85 t156 -73q178 -61 258 -161.5t80 -247.5q0 -229 -154 -359q-150 -129 -391 -129t-375 140q-109 114 -109 271q0 33 5 67z" />
<glyph unicode="T" horiz-adv-x="1271" d="M133 1104l57 330h1223l-57 -330h-434l-195 -1104h-354l194 1104h-434z" />
<glyph unicode="U" horiz-adv-x="1427" d="M193 623l143 811h354l-149 -850q-9 -50 -9 -91q0 -190 201 -190q240 0 293 281l150 850h354l-156 -883q-48 -272 -223.5 -425t-454.5 -153q-285 0 -420 181q-97 131 -97 318q0 71 14 151z" />
<glyph unicode="V" horiz-adv-x="1464" d="M182 1434h365l162 -842l12 -103l51 103l457 842h385l-799 -1434h-338z" />
<glyph unicode="W" horiz-adv-x="2074" d="M190 1434h363l82 -818v-104l35 104l358 818h330l72 -818l-5 -104l39 104l369 818h383l-672 -1434h-383l-71 694v101l-35 -101l-314 -694h-383z" />
<glyph unicode="X" horiz-adv-x="1468" d="M-63 0l602 764l-318 670h385l207 -441l338 441h448l-587 -738l325 -696h-389l-209 465l-356 -465h-446z" />
<glyph unicode="Y" horiz-adv-x="1427" d="M178 1434h385l168 -433l29 -96l65 96l322 433h434l-684 -910l-92 -524h-354l92 524z" />
<glyph unicode="Z" horiz-adv-x="1247" d="M4 0l51 289l711 815h-567l57 330h1044l-51 -289l-710 -815h598l-58 -330h-1075z" />
<glyph unicode="[" horiz-adv-x="737" d="M16 -158l287 1624h543l-53 -301h-228l-180 -1022h227l-53 -301h-543z" />
<glyph unicode="\" horiz-adv-x="862" d="M178 1434h314l276 -1434h-313z" />
<glyph unicode="]" horiz-adv-x="737" d="M-74 -158l51 301h228l180 1022h-227l53 301h543l-287 -1624h-541z" />
<glyph unicode="^" horiz-adv-x="1105" d="M96 946l637 617l420 -617h-336l-153 225l-232 -225h-336z" />
<glyph unicode="_" horiz-adv-x="1300" d="M-70 -293l52 293h1198l-52 -293h-1198z" />
<glyph unicode="`" horiz-adv-x="645" d="M164 1499h377l172 -323h-267z" />
<glyph unicode="a" d="M55 436q0 251 166 441t420 190q218 0 285 -166l49 143h282l-184 -1044h-282l-5 119q-118 -142 -337 -142q-174 0 -285 132q-109 133 -109 327zM403 475q0 -81 51 -132.5t126 -51.5q86 0 163 59q82 64 97 166l2 12q4 24 4 46q0 70 -40 118q-54 62 -144 62q-107 0 -183 -82 q-76 -79 -76 -197z" />
<glyph unicode="b" d="M18 0l265 1495h333l-96 -539q111 111 309 111q174 0 283 -133q111 -132 111 -326q0 -250 -166 -440q-167 -191 -420 -191q-218 0 -285 166l-51 -143h-283zM436 516q-4 -24 -4 -46q0 -70 40 -117q54 -62 144 -62q106 0 183 80q75 81 75 198q0 81 -50.5 133t-125.5 52 q-86 0 -166 -62q-79 -61 -94 -164z" />
<glyph unicode="c" horiz-adv-x="1161" d="M55 440q0 263 170 445q173 182 443 182q198 0 323 -113q120 -106 120 -285q0 -13 -1 -26h-317q-15 121 -150 121q-101 0 -172 -92q-68 -89 -68 -205q0 -85 46 -135.5t124 -50.5q62 0 111 34t70 86h321q-74 -220 -209.5 -322t-339.5 -102q-208 0 -340 129 q-131 128 -131 334z" />
<glyph unicode="d" d="M37 436q0 251 166 441t420 190q187 0 266 -129l98 557h334l-264 -1495h-283l-6 119q-118 -142 -338 -142q-174 0 -285 132q-108 132 -108 327zM385 475q0 -81 50.5 -132.5t125.5 -51.5q87 0 164 59q81 63 96 166l2 12q4 24 4 46q-1 70 -41 118q-54 62 -143 62 q-106 0 -182 -82q-76 -79 -76 -197z" />
<glyph unicode="e" horiz-adv-x="1153" d="M55 440q0 263 164 445q167 182 434 182q222 0 346 -145q89 -104 88 -282q0 -68 -12 -146l-10 -62h-676q-2 -6 -2 -26q0 -68 44 -110t122 -42q124 0 168 84h330q-167 -361 -537 -361q-207 0 -334 127q-125 128 -125 336zM426 635h340q2 17 2 33q0 52 -28 88 q-38 46 -111 47q-79 0 -134.5 -45t-68.5 -123z" />
<glyph unicode="f" horiz-adv-x="772" d="M74 741l53 303h149l13 72q71 406 495 406q70 0 129 -17l-51 -295q-47 21 -88 21q-126 0 -153 -123l-11 -64h224l-54 -303h-223l-131 -741h-334l131 741h-149z" />
<glyph unicode="g" horiz-adv-x="1275" d="M-23 -31h322q0 -131 188 -131q97 0 164.5 52.5t79.5 132.5l21 112q-51 -52 -133.5 -84.5t-174.5 -32.5q-196 0 -305 146q-76 104 -76 255q0 58 11 124q40 234 198 379q160 145 357 145q207 0 284 -154l50 131h282l-184 -1046q-38 -220 -201 -340q-165 -121 -405 -121 q-233 0 -361 109q-118 101 -118 292q0 15 1 31zM420 543q-5 -26 -5 -49q0 -62 33 -104q45 -58 127 -58q90 0 163 53.5t91 144.5l2 15q3 20 3 38q0 73 -42 117q-51 54 -143 54q-81 0 -146 -58t-83 -153z" />
<glyph unicode="h" horiz-adv-x="1161" d="M37 0l264 1495h334l-96 -547q113 119 268 119q163 0 231 -101q47 -69 47 -178q0 -50 -10 -108l-121 -680h-333l106 598q5 28 5 50q0 93 -81 93q-66 0 -116 -49t-68 -145l-96 -547h-334z" />
<glyph unicode="i" horiz-adv-x="591" d="M37 0l184 1044h334l-184 -1044h-334zM248 1337q15 82 78 133q66 54 145.5 54t126.5 -54q37 -41 37 -97q0 -17 -4 -36q-15 -80 -80 -133q-66 -54 -145.5 -54t-126.5 54q-35 39 -35 95q0 18 4 38z" />
<glyph unicode="j" horiz-adv-x="591" d="M-285 -440l52 297q52 -19 124 -19q118 0 148 176l182 1030h334l-184 -1040q-41 -233 -159 -350t-304 -117q-119 0 -193 23zM248 1337q15 82 78 133q66 54 145.5 54t126.5 -54q37 -41 37 -97q0 -17 -4 -36q-15 -80 -80 -133q-66 -54 -145.5 -54t-126.5 54q-35 39 -35 95 q0 18 4 38z" />
<glyph unicode="k" horiz-adv-x="1169" d="M37 0l264 1495h334l-146 -825l306 374h393l-359 -442l230 -602h-381l-129 344l-143 -156l-35 -188h-334z" />
<glyph unicode="l" horiz-adv-x="591" d="M37 0l264 1495h334l-264 -1495h-334z" />
<glyph unicode="m" horiz-adv-x="1736" d="M37 0l184 1044h283l2 -131q115 154 297 154q213 0 262 -172q56 78 140 125t179 47q162 0 230 -101q45 -68 46 -174q0 -52 -11 -112l-119 -680h-334l104 598q5 29 5 52q0 91 -76 91q-66 0 -115.5 -49t-66.5 -145v4l-97 -551h-334l105 598q5 28 5 51q0 92 -79 92 q-66 0 -114.5 -49t-65.5 -145l-96 -547h-334z" />
<glyph unicode="n" horiz-adv-x="1161" d="M37 0l184 1044h283l2 -131q115 154 299 154q163 1 232 -101q47 -69 47 -176q0 -51 -11 -110l-119 -680h-333l104 598q5 28 5 51q0 92 -79 92q-67 0 -117 -49.5t-67 -144.5l-96 -547h-334z" />
<glyph unicode="o" horiz-adv-x="1249" d="M55 444q0 283 191 453q194 170 454 170q220 0 357 -131t137 -336q0 -284 -193 -453q-191 -170 -452 -170q-218 0 -356 132t-138 335zM406 467q0 -85 47.5 -135.5t128.5 -50.5q106 0 182 88q80 89 80 209q0 85 -47.5 135.5t-128.5 50.5q-106 0 -185 -88q-77 -89 -77 -209z " />
<glyph unicode="p" d="M-41 -440l262 1484h283l6 -118q117 141 338 141q173 0 282 -133q111 -132 111 -326q0 -250 -166 -440q-167 -191 -420 -191q-185 0 -264 129l-98 -546h-334zM455 516q-4 -24 -4 -46q0 -70 41 -117q53 -62 143 -62q105 0 182 80q76 82 76 198q0 81 -50.5 133t-125.5 52 q-86 0 -166 -62q-79 -61 -94 -164z" />
<glyph unicode="q" d="M55 434q0 250 166 440q167 191 420 191q218 0 285 -166l51 145h283l-263 -1484h-333l94 526q-111 -111 -309 -111q-175 0 -285 131q-109 133 -109 328zM403 473q0 -81 51 -132.5t126 -51.5q86 0 163 59q82 64 97 166l2 12q4 24 4 46q0 70 -40 118q-54 62 -144 62 q-107 0 -183 -82q-76 -79 -76 -197z" />
<glyph unicode="r" horiz-adv-x="800" d="M37 0l184 1044h283l4 -157q94 168 332 168l-60 -336q-118 0 -215 -60q-91 -54 -108 -167l-86 -492h-334z" />
<glyph unicode="s" horiz-adv-x="972" d="M41 315h338q-1 -10 -1 -19q0 -73 85 -73q42 0 69 23t27 63q0 35 -30 56t-111 32q-293 47 -293 291q0 176 137 277q138 102 326 102q183 0 289 -92q87 -74 87 -191q0 -23 -3 -49h-338q3 14 3 26q0 60 -63 60q-37 0 -61.5 -24.5t-24.5 -65.5q0 -36 31 -55.5t115 -32.5 q155 -26 221.5 -94.5t66.5 -188.5q0 -187 -135 -286q-139 -97 -344 -97q-210 -1 -312 89q-84 73 -83 193q0 27 4 56z" />
<glyph unicode="t" horiz-adv-x="821" d="M68 741l53 303h155l46 246h335l-47 -246h217l-53 -303h-219l-61 -319q-4 -24 -4 -44q0 -39 16 -60q24 -31 92 -31q58 0 98 12l-51 -291q-71 -22 -182 -22q-195 0 -274 84q-55 58 -55 163q0 47 11 103l76 405h-153z" />
<glyph unicode="u" horiz-adv-x="1157" d="M123 365l119 679h333l-104 -598q-5 -28 -5 -51q0 -92 79 -92q65 0 113 49.5t65 145.5l96 546h334l-182 -1044h-283l-4 131q-115 -154 -295 -154q-163 -1 -231 101q-46 68 -46 175q0 52 11 112z" />
<glyph unicode="v" horiz-adv-x="1079" d="M96 1044h361l53 -559v-100l39 100l250 559h360l-545 -1044h-342z" />
<glyph unicode="w" horiz-adv-x="1619" d="M100 1044h359l16 -555l-2 -120l43 120l234 555h297l36 -555l2 -120l39 120l213 555h359l-488 -1044h-352l-53 516l-252 -516h-332z" />
<glyph unicode="x" horiz-adv-x="1126" d="M-70 0l396 526l-207 518h385l100 -262l195 262h385l-391 -518l213 -526h-388l-102 276l-201 -276h-385z" />
<glyph unicode="y" horiz-adv-x="1091" d="M55 -440l228 452l-174 1032h360l53 -559l2 -100l37 100l250 559h360l-770 -1484h-346z" />
<glyph unicode="z" horiz-adv-x="1007" d="M-20 0l43 248l499 508h-407l51 288h852l-43 -247l-500 -508h430l-51 -289h-874z" />
<glyph unicode="{" horiz-adv-x="720" d="M37 526l51 289h18q133 0 160 148l15 84q39 224 153 321.5t346 97.5h41l-53 -301h-27q-61 0 -105 -44.5t-56 -116.5l-23 -134q-17 -89 -66 -150t-120 -81q64 -21 92.5 -81.5t11.5 -147.5l-24 -134q-21 -133 110 -133h27l-53 -301h-41q-192 0 -287 121q-94 119 -64 297 l21 119q27 147 -109 147h-18z" />
<glyph unicode="|" horiz-adv-x="534" d="M8 -137l287 1624h309l-287 -1624h-309z" />
<glyph unicode="}" horiz-adv-x="720" d="M-84 -158l53 301h27q61 0 105.5 45t56.5 117l22 133q17 89 66.5 150.5t120.5 81.5q-64 21 -93 82t-12 147l25 133q21 133 -111 133h-26l53 301h41q192 0 286 -120q94 -119 64 -297l-21 -119q-27 -148 109 -148h18l-51 -288h-18q-133 0 -160 -148l-14 -84 q-39 -224 -153.5 -322t-346.5 -98h-41z" />
<glyph unicode="~" horiz-adv-x="1159" d="M45 612q73 175 172 260.5t238 85.5q65 0 122 -28t89 -68q82 -94 163 -94q86 0 148 158l219 -90q-74 -176 -170 -261.5t-233 -85.5q-67 0 -126.5 28t-93.5 67q-80 96 -157 96q-87 0 -152 -158z" />
<glyph unicode="&#xa1;" horiz-adv-x="591" d="M-27 -389l174 977h334l-174 -977h-334zM172 848q0 88 68 153q72 66 159 66q72 0 117 -43t45 -111q0 -92 -69 -155q-70 -64 -158 -64q-72 0 -117 43t-45 111z" />
<glyph unicode="&#xa2;" horiz-adv-x="1161" d="M55 440q0 238 144 414q141 172 374 207l39 215h238l-41 -227q144 -36 225.5 -142.5t75.5 -263.5h-317q-15 121 -150 121q-101 0 -172 -92q-68 -89 -68 -205q0 -85 46 -135.5t124 -50.5q62 0 111 34t70 86h321q-132 -377 -452 -417l-39 -215h-238l41 227 q-153 38 -242.5 157.5t-89.5 286.5z" />
<glyph unicode="&#xa3;" horiz-adv-x="1132" d="M-49 0l12 70l119 120q175 178 184 375h-211l41 238h140q-19 93 -19 158q0 214 145 356q146 143 371 143q197 0 311 -129q114 -126 93 -323h-318q11 66 -17 107.5t-85 41.5q-72 0 -114 -54t-42 -145q0 -58 23 -155h245l-41 -238h-170q-6 -112 -63 -192l-27 -39h160 q61 0 93 31t44 100h301q-24 -226 -153.5 -345.5t-341.5 -119.5h-680z" />
<glyph unicode="&#xa4;" horiz-adv-x="1380" d="M-31 133l287 236q-12 49 -12 104q0 157 80 281l-185 229l242 193l188 -234q90 33 191 33t186 -39l289 238l195 -242l-287 -236q12 -46 12 -96q0 -160 -84 -285l189 -231l-242 -195l-193 240q-91 -31 -186 -31q-99 0 -180 35l-295 -242zM524 492q0 -64 38.5 -104 t103.5 -40q83 0 145 68q63 66 63 164q0 64 -38 103.5t-103 39.5q-82 0 -147 -68q-62 -68 -62 -163z" />
<glyph unicode="&#xa5;" horiz-adv-x="1366" d="M178 1434h385l168 -433l29 -96l65 96l322 433h434l-506 -672h133l-41 -238h-270l-23 -129h271l-43 -237h-271l-26 -158h-354l26 158h-260l43 237h260l23 129h-260l41 238h122z" />
<glyph unicode="&#xa6;" horiz-adv-x="534" d="M8 -137l101 573h309l-101 -573h-309zM193 913l102 574h309l-102 -574h-309z" />
<glyph unicode="&#xa7;" horiz-adv-x="1089" d="M72 233h334q-6 -43 22 -67.5t80 -24.5q51 0 88 24t37 66q0 40 -49.5 63.5t-184.5 43.5q-140 20 -222.5 93.5t-82.5 174.5q0 187 199 295q-62 62 -62 162q0 191 134 301q135 111 344 111q198 0 304.5 -91.5t86.5 -246.5h-334q12 92 -82 92q-46 0 -77.5 -26.5t-31.5 -69.5 q0 -72 156 -93q191 -29 278 -98t87 -184q0 -168 -199 -279q84 -72 84 -200q0 -190 -145 -285q-143 -98 -351 -98q-207 0 -320 92t-93 245zM442 674q0 -43 47 -67.5t162 -37.5q94 46 94 125q0 39 -48 64t-169 43h-4q-82 -46 -82 -127z" />
<glyph unicode="&#xa8;" horiz-adv-x="835" d="M156 1292q0 84 61 142q62 59 143 59q66 0 107 -38.5t41 -100.5q0 -82 -64 -140q-63 -57 -143 -57q-63 0 -104 37.5t-41 97.5zM604 1292q0 83 62 142t143 59q66 0 106.5 -38.5t40.5 -100.5q0 -83 -63 -140t-143 -57q-63 0 -104.5 37.5t-41.5 97.5z" />
<glyph unicode="&#xa9;" horiz-adv-x="1271" d="M125 885q0 278 194 475q196 196 490 196q221 0 350 -141q129 -138 129 -354q0 -283 -192 -475q-190 -193 -482 -193q-223 0 -356 139t-133 353zM303 887q0 -148 88 -237t242 -89q201 0 340 148q141 147 141 352q0 151 -86 239.5t-237 88.5q-200 0 -345 -148 q-143 -146 -143 -354zM416 924q0 145 100 245q101 101 256 101q117 0 175 -63t63 -167h-222q-9 39 -53 39q-46 0 -76 -39t-30 -96q0 -78 71 -78q58 0 82 52h211q-76 -242 -325 -242q-116 0 -184 68.5t-68 179.5z" />
<glyph unicode="&#xaa;" horiz-adv-x="952" d="M158 1040q0 169 114 295q115 127 285 127q151 0 207 -108l35 94h209l-125 -713h-209l-6 74q-82 -88 -211 -88q-133 0 -216 89t-83 230zM416 1065q0 -50 34.5 -81.5t86.5 -31.5q60 0 106.5 36.5t58.5 101.5l3 12q11 63 -24 96t-99 33q-69 0 -117.5 -47.5t-48.5 -118.5z " />
<glyph unicode="&#xab;" horiz-adv-x="1044" d="M20 512l7 35l264 366h325l-301 -421l156 -379h-293zM504 512l6 35l264 366h326l-301 -421l155 -379h-292z" />
<glyph unicode="&#xac;" horiz-adv-x="1310" d="M111 715l43 233h1153l-117 -659h-225l73 426h-927z" />
<glyph unicode="&#xad;" horiz-adv-x="747" d="M39 385l51 293h645l-51 -293h-645z" />
<glyph unicode="&#xae;" horiz-adv-x="1271" d="M125 885q0 278 194 475q196 196 490 196q221 0 350 -141q129 -138 129 -354q0 -283 -192 -475q-190 -193 -482 -193q-223 0 -356 139t-133 353zM303 887q0 -148 88 -237t242 -89q201 0 340 148q141 147 141 352q0 151 -86 239.5t-237 88.5q-200 0 -345 -148 q-143 -146 -143 -354zM420 684l100 573h242q98 0 156.5 -51t58.5 -133q0 -113 -109 -178l62 -211h-207l-35 172h-35l-28 -172h-205zM680 997h31q25 0 44 16.5t19 41.5q0 41 -47 41h-31z" />
<glyph unicode="&#xaf;" horiz-adv-x="638" d="M139 1194l41 238h598l-41 -238h-598z" />
<glyph unicode="&#xb0;" horiz-adv-x="751" d="M162 1112q0 171 112 268q114 99 269 99q128 0 209.5 -79.5t81.5 -203.5q0 -166 -117 -268q-113 -101 -273 -101q-119 0 -202 80q-80 83 -80 205zM371 1126q0 -44 28 -71t72 -27q62 0 107 43.5t45 104.5q0 47 -28.5 74.5t-78.5 27.5q-58 0 -101.5 -45t-43.5 -107z" />
<glyph unicode="&#xb1;" horiz-adv-x="966" d="M-14 111l51 292h844l-52 -292h-843zM98 762l52 293h274l49 276h293l-49 -276h276l-51 -293h-276l-50 -275h-292l49 275h-275z" />
<glyph unicode="&#xb2;" horiz-adv-x="667" d="M113 836l30 178l318 260q80 65 80 117q0 34 -37 34q-55 0 -64 -59h-245q19 132 111.5 209.5t228.5 77.5q120 0 191 -60t71 -155q0 -154 -140 -264l-141 -111h203l-41 -227h-565z" />
<glyph unicode="&#xb3;" horiz-adv-x="735" d="M184 1102h244q-3 -29 13 -43.5t51 -14.5q29 0 48 17t19 43q0 47 -63 47h-80l33 190h75q24 0 41 15.5t17 38.5q0 35 -37 35q-49 0 -58 -50h-243q46 273 331 273q119 0 187.5 -61.5t68.5 -157.5q0 -132 -120 -193q94 -27 94 -143q0 -131 -100 -203q-103 -74 -234 -74 q-143 0 -221.5 76.5t-65.5 204.5z" />
<glyph unicode="&#xb4;" horiz-adv-x="645" d="M125 1176l254 323h434l-399 -323h-289z" />
<glyph unicode="&#xb5;" horiz-adv-x="1169" d="M-39 -440l137 786l4 19l2 16l93 520l24 143h334l-104 -598q-24 -143 84 -143q62 0 106 49t61 146l97 546h334l-183 -1044h-282l-4 131q-115 -154 -295 -154h-2l-72 -417h-334z" />
<glyph unicode="&#xb6;" horiz-adv-x="1298" d="M137 963q0 202 133 335q133 136 346 136h816l-39 -211h-166l-244 -1387h-211l244 1387h-170l-244 -1387h-211l139 789h-26q-168 0 -267.5 93.5t-99.5 244.5z" />
<glyph unicode="&#xb7;" horiz-adv-x="485" d="M57 498q0 89 70 153q72 66 158 66q72 0 118 -43t46 -109q0 -91 -70 -155q-72 -66 -160 -66q-72 0 -117 43t-45 111z" />
<glyph unicode="&#xb8;" horiz-adv-x="466" d="M-113 -412l111 133q30 -43 84 -43q27 0 46 18t19 44q0 43 -57 43q-26 0 -47 -8l-31 8l88 229h140l-41 -108q66 -8 102.5 -45.5t36.5 -98.5q0 -104 -74.5 -167.5t-191.5 -63.5q-120 0 -185 59z" />
<glyph unicode="&#xb9;" horiz-adv-x="583" d="M211 1311l35 192q216 0 274 135h176l-141 -802h-246l84 475h-182z" />
<glyph unicode="&#xba;" horiz-adv-x="919" d="M158 1042q0 180 125 299q127 121 327 121q146 0 246 -92q100 -87 100 -231q0 -183 -127 -301q-126 -117 -325 -117q-149 0 -250 90q-96 90 -96 231zM414 1063q0 -54 32 -87.5t86 -33.5q67 0 116.5 54t49.5 128q0 51 -31.5 83t-82.5 32q-68 0 -119 -51.5t-51 -124.5z" />
<glyph unicode="&#xbb;" horiz-adv-x="1044" d="M-49 113l301 422l-156 378h293l158 -399l-6 -35l-265 -366h-325zM434 113l301 422l-155 378h292l158 -399l-6 -35l-264 -366h-326z" />
<glyph unicode="&#xbc;" horiz-adv-x="1695" d="M166 1106l35 192q215 0 274 136h176l-141 -803h-246l84 475h-182zM180 0l955 1434h350l-953 -1434h-352zM856 109l35 204l379 490h319l-84 -477h94l-36 -217h-95l-20 -109h-246l21 109h-367zM1149 324h115l36 202l-22 -39z" />
<glyph unicode="&#xbd;" horiz-adv-x="1622" d="M131 1106l35 192q215 0 274 136h176l-141 -803h-246l84 475h-182zM133 0l954 1434h351l-953 -1434h-352zM901 0l31 178l317 260q80 65 80 117q0 35 -37 35q-54 0 -63 -60h-246q19 132 111.5 209.5t228.5 77.5q120 0 191 -60t71 -155q0 -155 -139 -264l-141 -111h202 l-41 -227h-565z" />
<glyph unicode="&#xbe;" horiz-adv-x="1826" d="M139 897h244q-3 -29 12.5 -43t50.5 -14q29 0 48.5 16.5t19.5 42.5q0 47 -63 47h-80l32 191h76q24 0 41 15t17 38q0 35 -37 35q-49 0 -58 -49h-243q46 272 331 272q119 0 187.5 -61.5t68.5 -157.5q0 -131 -120 -193q94 -27 94 -143q0 -130 -101 -203q-103 -74 -233 -74 q-143 0 -221.5 76.5t-65.5 204.5zM326 0l954 1434h350l-952 -1434h-352zM1001 109l35 204l379 490h320l-84 -477h94l-37 -217h-94l-21 -109h-245l20 109h-367zM1294 324h115l37 202l-23 -39z" />
<glyph unicode="&#xbf;" horiz-adv-x="950" d="M-49 -70q0 105 37 192.5t96 141.5q30 28 109 88t117.5 103.5t45.5 93.5l6 39h334l-8 -49q-13 -86 -61 -158.5t-113 -120.5q-16 -13 -57 -43.5t-59.5 -45.5t-49 -44.5t-45 -52.5t-26 -56.5t-11.5 -68.5q0 -103 111 -103q68 0 117 43.5t61 116.5h313q-29 -197 -167 -309.5 t-343 -112.5q-172 0 -292 97q-115 95 -115 249zM387 848q0 89 70 153q72 66 157 66q72 0 117 -41.5t45 -107.5q0 -95 -69 -158q-69 -66 -158 -66q-72 0 -117 43t-45 111z" />
<glyph unicode="&#xc0;" horiz-adv-x="1527" d="M-59 0l790 1434h397l289 -1434h-375l-49 270h-524l-143 -270h-385zM537 1767h413l156 -262h-303zM631 571h307l-66 361l-12 84l-41 -84z" />
<glyph unicode="&#xc1;" horiz-adv-x="1527" d="M-59 0l790 1434h397l289 -1434h-375l-49 270h-524l-143 -270h-385zM631 571h307l-66 361l-12 84l-41 -84zM762 1505l221 262h481l-370 -262h-332z" />
<glyph unicode="&#xc2;" horiz-adv-x="1527" d="M-59 0l790 1434h397l289 -1434h-375l-49 270h-524l-143 -270h-385zM512 1503l381 283h176l283 -283h-320l-67 99l-105 -99h-348zM631 571h307l-66 361l-12 84l-41 -84z" />
<glyph unicode="&#xc3;" horiz-adv-x="1527" d="M-59 0l790 1434h397l289 -1434h-375l-49 270h-524l-143 -270h-385zM563 1499q55 316 283 316q54 0 95 -18.5t60 -45.5q45 -61 101 -61q65 0 80 106h184q-55 -315 -281 -315q-49 0 -84 13t-54.5 31.5t-35.5 36.5t-36.5 31t-47.5 13q-64 0 -79 -107h-185zM631 571h307 l-66 361l-12 84l-41 -84z" />
<glyph unicode="&#xc4;" horiz-adv-x="1527" d="M-59 0l790 1434h397l289 -1434h-375l-49 270h-524l-143 -270h-385zM569 1628q0 81 60.5 140t142.5 59q66 0 107 -38.5t41 -100.5q0 -82 -64 -140q-63 -57 -143 -57q-63 0 -103.5 38.5t-40.5 98.5zM631 571h307l-66 361l-12 84l-41 -84zM1018 1628q0 81 60.5 140t142.5 59 q66 0 106.5 -38.5t40.5 -100.5q0 -83 -63 -140t-144 -57q-63 0 -103 38.5t-40 98.5z" />
<glyph unicode="&#xc5;" horiz-adv-x="1527" d="M-59 0l790 1434h397l289 -1434h-375l-49 270h-524l-143 -270h-385zM631 571h307l-66 361l-12 84l-41 -84zM748 1673q0 111 76 182.5t188 71.5q90 0 144 -52.5t54 -137.5q0 -110 -74.5 -182t-187.5 -72q-89 0 -144.5 54.5t-55.5 135.5zM909 1694q0 -25 17 -42.5t43 -17.5 q36 0 58 25t22 63q0 25 -16 40.5t-42 15.5q-35 0 -58.5 -23.5t-23.5 -60.5z" />
<glyph unicode="&#xc6;" horiz-adv-x="2023" d="M-53 0l1145 1434h1009l-57 -330h-500l-37 -205h424l-57 -330h-424l-43 -239h500l-58 -330h-854l47 270h-462l-218 -270h-415zM817 571h279l82 461l-64 -92z" />
<glyph unicode="&#xc7;" horiz-adv-x="1523" d="M102 598q0 362 236 610q237 252 604 252q265 0 422 -145t184 -371h-387q-19 96 -79.5 141t-176.5 45q-194 0 -315 -157q-119 -155 -119 -371q0 -137 79 -218t214 -81q239 0 344 205h369q-206 -514 -699 -535l-26 -69q66 -8 102.5 -45.5t36.5 -98.5q0 -104 -74.5 -167.5 t-191.5 -63.5q-120 0 -185 59l111 133q30 -43 84 -43q27 0 46 18t19 44q0 43 -57 43q-26 0 -47 -8l-31 8l76 197q-249 30 -393 200q-146 172 -146 418z" />
<glyph unicode="&#xc8;" horiz-adv-x="1075" d="M47 0l252 1434h854l-57 -330h-500l-37 -205h424l-57 -330h-424l-43 -239h499l-57 -330h-854zM332 1767h413l156 -262h-303z" />
<glyph unicode="&#xc9;" horiz-adv-x="1075" d="M47 0l252 1434h854l-57 -330h-500l-37 -205h424l-57 -330h-424l-43 -239h499l-57 -330h-854zM557 1505l221 262h482l-371 -262h-332z" />
<glyph unicode="&#xca;" horiz-adv-x="1075" d="M47 0l252 1434h854l-57 -330h-500l-37 -205h424l-57 -330h-424l-43 -239h499l-57 -330h-854zM307 1503l381 283h176l283 -283h-320l-67 99l-105 -99h-348z" />
<glyph unicode="&#xcb;" horiz-adv-x="1075" d="M47 0l252 1434h854l-57 -330h-500l-37 -205h424l-57 -330h-424l-43 -239h499l-57 -330h-854zM365 1628q0 81 60 140t142 59q66 0 107 -38.5t41 -100.5q0 -82 -64 -140q-63 -57 -143 -57q-63 0 -103 38.5t-40 98.5zM813 1628q0 81 60.5 140t142.5 59q66 0 106.5 -38.5 t40.5 -100.5q0 -83 -63 -140t-144 -57q-63 0 -103 38.5t-40 98.5z" />
<glyph unicode="&#xcc;" horiz-adv-x="620" d="M47 0l252 1434h354l-252 -1434h-354zM84 1767h414l155 -262h-303z" />
<glyph unicode="&#xcd;" horiz-adv-x="620" d="M47 0l252 1434h354l-252 -1434h-354zM309 1505l221 262h482l-371 -262h-332z" />
<glyph unicode="&#xce;" horiz-adv-x="620" d="M47 0l252 1434h354l-252 -1434h-354zM59 1503l381 283h176l283 -283h-319l-68 99l-104 -99h-349z" />
<glyph unicode="&#xcf;" horiz-adv-x="620" d="M47 0l252 1434h354l-252 -1434h-354zM117 1628q0 81 60 140t142 59q66 0 107 -38.5t41 -100.5q0 -82 -64 -140q-63 -57 -143 -57q-63 0 -103 38.5t-40 98.5zM565 1628q0 81 60.5 140t142.5 59q66 0 106.5 -38.5t40.5 -100.5q0 -83 -63 -140t-143 -57q-63 0 -103.5 38.5 t-40.5 98.5z" />
<glyph unicode="&#xd0;" horiz-adv-x="1527" d="M49 635l41 237h131l98 562h533q299 0 477 -172q178 -169 178 -437q0 -370 -243 -598q-242 -227 -623 -227h-573l110 635h-129zM479 330h199q213 0 336 135q125 137 125 356q0 137 -82.5 210t-241.5 73h-199l-41 -232h154l-41 -237h-156z" />
<glyph unicode="&#xd1;" horiz-adv-x="1507" d="M47 0l252 1434h313l383 -744l43 -96l148 840h354l-252 -1434h-311l-387 737l-41 94l-148 -831h-354zM537 1499q55 316 282 316q54 0 95.5 -18.5t60.5 -45.5q45 -61 100 -61q65 0 80 106h184q-55 -315 -280 -315q-49 0 -84 13t-54.5 31.5t-35.5 36.5t-36.5 31t-47.5 13 q-65 0 -80 -107h-184z" />
<glyph unicode="&#xd2;" horiz-adv-x="1642" d="M102 610q0 377 248 613q249 237 600 237q304 0 488 -184q186 -180 186 -461q1 -149 -44.5 -282.5t-126 -234.5t-187.5 -175t-234 -112t-262 -38q-301 0 -485 181q-183 183 -183 456zM471 623q0 -148 83.5 -234t233.5 -86q195 0 332 146q135 147 135 362q0 147 -85 233 t-236 86q-200 0 -332 -147q-131 -143 -131 -360zM565 1788h414l156 -262h-304z" />
<glyph unicode="&#xd3;" horiz-adv-x="1642" d="M102 610q0 377 248 613q249 237 600 237q304 0 488 -184q186 -180 186 -461q1 -149 -44.5 -282.5t-126 -234.5t-187.5 -175t-234 -112t-262 -38q-301 0 -485 181q-183 183 -183 456zM471 623q0 -148 83.5 -234t233.5 -86q195 0 332 146q135 147 135 362q0 147 -85 233 t-236 86q-200 0 -332 -147q-131 -143 -131 -360zM791 1526l221 262h481l-371 -262h-331z" />
<glyph unicode="&#xd4;" horiz-adv-x="1642" d="M102 610q0 377 248 613q249 237 600 237q304 0 488 -184q186 -180 186 -461q1 -149 -44.5 -282.5t-126 -234.5t-187.5 -175t-234 -112t-262 -38q-301 0 -485 181q-183 183 -183 456zM471 623q0 -148 83.5 -234t233.5 -86q195 0 332 146q135 147 135 362q0 147 -85 233 t-236 86q-200 0 -332 -147q-131 -143 -131 -360zM541 1524l381 282h176l282 -282h-319l-68 98l-104 -98h-348z" />
<glyph unicode="&#xd5;" horiz-adv-x="1642" d="M102 610q0 377 248 613q249 237 600 237q304 0 488 -184q186 -180 186 -461q1 -149 -44.5 -282.5t-126 -234.5t-187.5 -175t-234 -112t-262 -38q-301 0 -485 181q-183 183 -183 456zM471 623q0 -148 83.5 -234t233.5 -86q195 0 332 146q135 147 135 362q0 147 -85 233 t-236 86q-200 0 -332 -147q-131 -143 -131 -360zM592 1520q55 315 282 315q54 0 95.5 -18t60.5 -45q46 -62 100 -62q65 0 80 107h185q-55 -316 -281 -316q-49 0 -84 13t-54.5 31.5t-35.5 36.5t-36.5 31t-47.5 13q-65 0 -80 -106h-184z" />
<glyph unicode="&#xd6;" horiz-adv-x="1642" d="M102 610q0 377 248 613q249 237 600 237q304 0 488 -184q186 -180 186 -461q1 -149 -44.5 -282.5t-126 -234.5t-187.5 -175t-234 -112t-262 -38q-301 0 -485 181q-183 183 -183 456zM471 623q0 -148 83.5 -234t233.5 -86q195 0 332 146q135 147 135 362q0 147 -85 233 t-236 86q-200 0 -332 -147q-131 -143 -131 -360zM598 1649q0 81 60.5 139.5t142.5 58.5q66 0 106.5 -38.5t40.5 -100.5q0 -82 -63 -139q-64 -58 -144 -58q-63 0 -103 39t-40 99zM1047 1649q0 81 60 139.5t142 58.5q66 0 107 -38.5t41 -100.5q0 -81 -64 -139t-143 -58 q-63 0 -103 39t-40 99z" />
<glyph unicode="&#xd7;" horiz-adv-x="917" d="M25 526l262 213l-176 219l229 183l178 -219l260 213l185 -224l-258 -217l169 -213l-229 -182l-176 213l-258 -213z" />
<glyph unicode="&#xd8;" horiz-adv-x="1642" d="M102 610q0 377 248 613q249 237 600 237q157 0 287 -53l168 213l225 -156l-168 -213q162 -174 162 -436q1 -149 -44.5 -282.5t-126 -234.5t-187.5 -175t-234 -112t-262 -38q-148 0 -281 50l-153 -197l-225 156l151 192q-160 177 -160 436zM471 623q0 -89 27 -150l514 649 q-31 8 -78 8q-200 0 -332 -147q-131 -143 -131 -360zM717 309q35 -6 71 -6q195 0 332 146q135 147 135 362q0 75 -28 145z" />
<glyph unicode="&#xd9;" horiz-adv-x="1427" d="M193 623l143 811h354l-149 -850q-53 -281 192 -281q240 0 293 281l150 850h354l-156 -883q-48 -272 -223.5 -425t-454.5 -153q-285 0 -420 181q-135 182 -83 469zM537 1767h413l156 -262h-303z" />
<glyph unicode="&#xda;" horiz-adv-x="1427" d="M193 623l143 811h354l-149 -850q-53 -281 192 -281q240 0 293 281l150 850h354l-156 -883q-48 -272 -223.5 -425t-454.5 -153q-285 0 -420 181q-135 182 -83 469zM762 1505l221 262h481l-370 -262h-332z" />
<glyph unicode="&#xdb;" horiz-adv-x="1427" d="M193 623l143 811h354l-149 -850q-53 -281 192 -281q240 0 293 281l150 850h354l-156 -883q-48 -272 -223.5 -425t-454.5 -153q-285 0 -420 181q-135 182 -83 469zM512 1503l381 283h176l283 -283h-320l-67 99l-105 -99h-348z" />
<glyph unicode="&#xdc;" horiz-adv-x="1427" d="M193 623l143 811h354l-149 -850q-53 -281 192 -281q240 0 293 281l150 850h354l-156 -883q-48 -272 -223.5 -425t-454.5 -153q-285 0 -420 181q-135 182 -83 469zM569 1628q0 81 60.5 140t142.5 59q66 0 107 -38.5t41 -100.5q0 -82 -64 -140q-63 -57 -143 -57 q-63 0 -103.5 38.5t-40.5 98.5zM1018 1628q0 81 60.5 140t142.5 59q66 0 106.5 -38.5t40.5 -100.5q0 -83 -63 -140t-144 -57q-63 0 -103 38.5t-40 98.5z" />
<glyph unicode="&#xdd;" horiz-adv-x="1427" d="M178 1434h385l168 -433l29 -96l65 96l322 433h434l-684 -910l-92 -524h-354l92 524zM680 1505l221 262h481l-370 -262h-332z" />
<glyph unicode="&#xde;" horiz-adv-x="1249" d="M47 0l252 1434h354l-35 -199h173q205 0 331 -117q129 -114 129 -289q0 -229 -168 -372q-167 -144 -413 -144h-213l-56 -313h-354zM514 643h205q66 0 116 44t50 114q1 51 -34 77.5t-101 26.5h-189z" />
<glyph unicode="&#xdf;" horiz-adv-x="1226" d="M37 0l184 1038q44 251 190.5 367.5t405.5 116.5l-55 -314q-69 0 -119 -42.5t-63 -118.5l-2 -3h659l-35 -229l-241 -356q223 -101 223 -363q0 -244 -160 -395q-161 -152 -418 -152q-96 0 -180 19l59 336q77 -25 133 -25q87 0 143 51.5t56 130.5q0 134 -164 134h-96l51 243 l203 312h-283l-135 -750h-356z" />
<glyph unicode="&#xe0;" d="M55 436q0 251 166 441t420 190q218 0 285 -166l49 143h282l-184 -1044h-282l-5 119q-118 -142 -337 -142q-174 0 -285 132q-109 133 -109 327zM332 1499h377l172 -323h-267zM403 475q0 -81 51 -132.5t126 -51.5q86 0 163 59q82 64 97 166l2 12q17 101 -36.5 163.5 t-143.5 62.5q-107 0 -183 -82q-76 -79 -76 -197z" />
<glyph unicode="&#xe1;" d="M55 436q0 251 166 441t420 190q218 0 285 -166l49 143h282l-184 -1044h-282l-5 119q-118 -142 -337 -142q-174 0 -285 132q-109 133 -109 327zM403 475q0 -81 51 -132.5t126 -51.5q86 0 163 59q82 64 97 166l2 12q17 101 -36.5 163.5t-143.5 62.5q-107 0 -183 -82 q-76 -79 -76 -197zM580 1176l254 323h434l-400 -323h-288z" />
<glyph unicode="&#xe2;" d="M55 436q0 251 166 441t420 190q218 0 285 -166l49 143h282l-184 -1044h-282l-5 119q-118 -142 -337 -142q-174 0 -285 132q-109 133 -109 327zM309 1176l348 323h258l234 -323h-309l-72 139l-121 -139h-338zM403 475q0 -81 51 -132.5t126 -51.5q86 0 163 59q82 64 97 166 l2 12q17 101 -36.5 163.5t-143.5 62.5q-107 0 -183 -82q-76 -79 -76 -197z" />
<glyph unicode="&#xe3;" d="M55 436q0 251 166 441t420 190q218 0 285 -166l49 143h282l-184 -1044h-282l-5 119q-118 -142 -337 -142q-174 0 -285 132q-109 133 -109 327zM362 1184q55 315 285 315q54 0 95.5 -18t60.5 -45q46 -62 100 -62q59 0 80 107h184q-55 -316 -280 -316q-49 0 -84.5 13 t-55 31.5t-35.5 36.5t-37 31t-48 13q-59 0 -80 -106h-185zM403 475q0 -81 51 -132.5t126 -51.5q86 0 163 59q82 64 97 166l2 12q17 101 -36.5 163.5t-143.5 62.5q-107 0 -183 -82q-76 -79 -76 -197z" />
<glyph unicode="&#xe4;" d="M55 436q0 251 166 441t420 190q218 0 285 -166l49 143h282l-184 -1044h-282l-5 119q-118 -142 -337 -142q-174 0 -285 132q-109 133 -109 327zM365 1292q0 84 61 142q62 59 143 59q66 0 107 -38.5t41 -100.5q0 -82 -64 -140q-63 -57 -143 -57q-63 0 -104 37.5t-41 97.5z M403 475q0 -81 51 -132.5t126 -51.5q86 0 163 59q82 64 97 166l2 12q17 101 -36.5 163.5t-143.5 62.5q-107 0 -183 -82q-76 -79 -76 -197zM813 1292q0 84 61 142q62 59 144 59q66 0 106.5 -38.5t40.5 -100.5q0 -83 -63 -140t-144 -57q-63 0 -104 37.5t-41 97.5z" />
<glyph unicode="&#xe5;" d="M55 436q0 251 166 441t420 190q218 0 285 -166l49 143h282l-184 -1044h-282l-5 119q-118 -142 -337 -142q-174 0 -285 132q-109 133 -109 327zM403 475q0 -81 51 -132.5t126 -51.5q86 0 163 59q82 64 97 166l2 12q17 101 -36.5 163.5t-143.5 62.5q-107 0 -183 -82 q-76 -79 -76 -197zM530 1329q0 117 80 191q81 75 197 75q93 0 150 -56t57 -144q0 -113 -78 -191q-76 -76 -197 -76q-91 0 -150 57.5t-59 143.5zM682 1348q0 -31 22 -52.5t54 -21.5q46 0 75 31.5t29 76.5q0 31 -21 50.5t-53 19.5q-43 0 -74.5 -30t-31.5 -74z" />
<glyph unicode="&#xe6;" horiz-adv-x="1740" d="M23 244q0 161 104 247t303 117l240 39l6 23q18 118 -90 118q-50 0 -87.5 -27.5t-43.5 -68.5h-322q48 176 172 275.5t309 99.5q187 0 297 -94q143 94 330 94q222 0 346 -145q123 -144 76 -428l-10 -62h-676q-2 -6 -2 -26q0 -68 44 -110t122 -42q124 0 168 84h329 q-167 -361 -536 -361q-246 0 -373 177q-183 -177 -377 -177q-154 0 -241.5 72t-87.5 195zM367 305q0 -65 79 -65q91 0 150 86q27 42 35 92l4 24l-156 -28q-112 -21 -112 -109zM1014 635h340q11 75 -26.5 121.5t-110.5 46.5q-79 0 -134.5 -45t-68.5 -123z" />
<glyph unicode="&#xe7;" horiz-adv-x="1161" d="M55 440q0 263 170 445q173 182 443 182q198 0 323 -113q128 -113 119 -311h-317q-15 121 -150 121q-101 0 -172 -92q-68 -89 -68 -205q0 -85 46 -135.5t124 -50.5q62 0 111 34t70 86h321q-138 -400 -502 -421l-28 -76q66 -8 102.5 -45.5t36.5 -98.5q0 -104 -74.5 -167.5 t-191.5 -63.5q-120 0 -185 59l111 133q30 -43 84 -43q27 0 46.5 18t19.5 44q0 43 -58 43q-26 0 -47 -8l-31 8l78 203q-172 26 -276.5 150t-104.5 304z" />
<glyph unicode="&#xe8;" horiz-adv-x="1153" d="M55 440q0 263 164 445q167 182 434 182q222 0 346 -145q123 -144 76 -428l-10 -62h-676q-2 -6 -2 -26q0 -68 44 -110t122 -42q124 0 168 84h330q-167 -361 -537 -361q-207 0 -334 127q-125 128 -125 336zM285 1499h377l172 -323h-267zM426 635h340q11 75 -26.5 121.5 t-110.5 46.5q-79 0 -134.5 -45t-68.5 -123z" />
<glyph unicode="&#xe9;" horiz-adv-x="1153" d="M55 440q0 263 164 445q167 182 434 182q222 0 346 -145q123 -144 76 -428l-10 -62h-676q-2 -6 -2 -26q0 -68 44 -110t122 -42q124 0 168 84h330q-167 -361 -537 -361q-207 0 -334 127q-125 128 -125 336zM426 635h340q11 75 -26.5 121.5t-110.5 46.5q-79 0 -134.5 -45 t-68.5 -123zM532 1176l254 323h435l-400 -323h-289z" />
<glyph unicode="&#xea;" horiz-adv-x="1153" d="M55 440q0 263 164 445q167 182 434 182q222 0 346 -145q123 -144 76 -428l-10 -62h-676q-2 -6 -2 -26q0 -68 44 -110t122 -42q124 0 168 84h330q-167 -361 -537 -361q-207 0 -334 127q-125 128 -125 336zM262 1176l348 323h258l234 -323h-309l-72 139l-121 -139h-338z M426 635h340q11 75 -26.5 121.5t-110.5 46.5q-79 0 -134.5 -45t-68.5 -123z" />
<glyph unicode="&#xeb;" horiz-adv-x="1153" d="M55 440q0 263 164 445q167 182 434 182q222 0 346 -145q123 -144 76 -428l-10 -62h-676q-2 -6 -2 -26q0 -68 44 -110t122 -42q124 0 168 84h330q-167 -361 -537 -361q-207 0 -334 127q-125 128 -125 336zM317 1292q0 83 62 142t143 59q66 0 107 -38.5t41 -100.5 q0 -82 -64 -140q-63 -57 -143 -57q-63 0 -104.5 37.5t-41.5 97.5zM426 635h340q11 75 -26.5 121.5t-110.5 46.5q-79 0 -134.5 -45t-68.5 -123zM766 1292q0 84 61 142q62 59 144 59q66 0 106.5 -38.5t40.5 -100.5q0 -83 -63 -140t-144 -57q-63 0 -104 37.5t-41 97.5z" />
<glyph unicode="&#xec;" horiz-adv-x="591" d="M0 1499h377l172 -323h-266zM37 0l184 1044h334l-184 -1044h-334z" />
<glyph unicode="&#xed;" horiz-adv-x="591" d="M37 0l184 1044h334l-184 -1044h-334zM248 1176l254 323h434l-399 -323h-289z" />
<glyph unicode="&#xee;" horiz-adv-x="591" d="M-23 1176l349 323h258l233 -323h-309l-72 139l-121 -139h-338zM37 0l184 1044h334l-184 -1044h-334z" />
<glyph unicode="&#xef;" horiz-adv-x="591" d="M33 1292q0 84 61 142q62 59 144 59q66 0 106.5 -38.5t40.5 -100.5q0 -83 -63 -140t-144 -57q-63 0 -104 37.5t-41 97.5zM37 0l184 1044h334l-184 -1044h-334zM481 1292q0 83 62 142t143 59q66 0 107 -38.5t41 -100.5q0 -82 -64 -140q-63 -57 -143 -57q-63 0 -104.5 37.5 t-41.5 97.5z" />
<glyph unicode="&#xf0;" horiz-adv-x="1193" d="M63 403q0 231 152 392t387 182l-55 100h-320l37 217h166l-108 201h370l107 -201h297l-37 -217h-144l152 -282q59 -115 59 -254q0 -238 -176 -402q-174 -162 -430 -162q-196 0 -327 119q-130 121 -130 307zM401 432q0 -74 42 -118t114 -44q94 0 164 76t70 182 q0 74 -43.5 117t-116.5 43q-98 0 -164 -78t-66 -178z" />
<glyph unicode="&#xf1;" horiz-adv-x="1161" d="M37 0l184 1044h283l2 -131q115 154 299 154q163 0 232 -101.5t36 -285.5l-119 -680h-333l104 598q24 143 -74 143q-67 0 -117 -49.5t-67 -144.5l-96 -547h-334zM332 1184q55 315 284 315q54 0 95.5 -18t60.5 -45q46 -62 100 -62q59 0 80 107h185q-55 -316 -281 -316 q-49 0 -84.5 13t-55 31.5t-35.5 36.5t-37 31t-48 13q-59 0 -80 -106h-184z" />
<glyph unicode="&#xf2;" horiz-adv-x="1249" d="M55 444q0 283 191 453q194 170 454 170q220 0 357 -131t137 -336q0 -284 -193 -453q-191 -170 -452 -170q-218 0 -356 132t-138 335zM324 1499h376l172 -323h-266zM406 467q0 -85 47.5 -135.5t128.5 -50.5q106 0 182 88q80 89 80 209q0 85 -47.5 135.5t-128.5 50.5 q-106 0 -185 -88q-77 -89 -77 -209z" />
<glyph unicode="&#xf3;" horiz-adv-x="1249" d="M55 444q0 283 191 453q194 170 454 170q220 0 357 -131t137 -336q0 -284 -193 -453q-191 -170 -452 -170q-218 0 -356 132t-138 335zM406 467q0 -85 47.5 -135.5t128.5 -50.5q106 0 182 88q80 89 80 209q0 85 -47.5 135.5t-128.5 50.5q-106 0 -185 -88q-77 -89 -77 -209z M571 1176l254 323h435l-400 -323h-289z" />
<glyph unicode="&#xf4;" horiz-adv-x="1249" d="M55 444q0 283 191 453q194 170 454 170q220 0 357 -131t137 -336q0 -284 -193 -453q-191 -170 -452 -170q-218 0 -356 132t-138 335zM301 1176l348 323h258l234 -323h-310l-71 139l-121 -139h-338zM406 467q0 -85 47.5 -135.5t128.5 -50.5q106 0 182 88q80 89 80 209 q0 85 -47.5 135.5t-128.5 50.5q-106 0 -185 -88q-77 -89 -77 -209z" />
<glyph unicode="&#xf5;" horiz-adv-x="1249" d="M55 444q0 283 191 453q194 170 454 170q220 0 357 -131t137 -336q0 -284 -193 -453q-191 -170 -452 -170q-218 0 -356 132t-138 335zM354 1184q55 315 285 315q54 0 95.5 -18t60.5 -45q46 -62 100 -62q59 0 80 107h184q-55 -316 -280 -316q-49 0 -84.5 13t-55.5 31.5 t-36 36.5t-37 31t-48 13q-58 0 -79 -106h-185zM406 467q0 -85 47.5 -135.5t128.5 -50.5q106 0 182 88q80 89 80 209q0 85 -47.5 135.5t-128.5 50.5q-106 0 -185 -88q-77 -89 -77 -209z" />
<glyph unicode="&#xf6;" horiz-adv-x="1249" d="M55 444q0 283 191 453q194 170 454 170q220 0 357 -131t137 -336q0 -284 -193 -453q-191 -170 -452 -170q-218 0 -356 132t-138 335zM356 1292q0 83 62 142t143 59q66 0 107 -38.5t41 -100.5q0 -82 -64 -140q-63 -57 -143 -57q-63 0 -104.5 37.5t-41.5 97.5zM406 467 q0 -85 47.5 -135.5t128.5 -50.5q106 0 182 88q80 89 80 209q0 85 -47.5 135.5t-128.5 50.5q-106 0 -185 -88q-77 -89 -77 -209zM805 1292q0 84 61 142q62 59 144 59q66 0 106.5 -38.5t40.5 -100.5q0 -83 -63 -140t-144 -57q-63 0 -104 37.5t-41 97.5z" />
<glyph unicode="&#xf7;" horiz-adv-x="966" d="M82 569l51 293h844l-51 -293h-844zM252 276q0 90 70 154q72 66 157 66q72 0 118 -43t46 -109q0 -92 -70 -156q-71 -65 -159 -65q-72 0 -117 42.5t-45 110.5zM395 1090q0 89 70 153q72 66 158 66q72 0 117.5 -43t45.5 -109q0 -93 -69 -156q-71 -65 -160 -65q-72 0 -117 43 t-45 111z" />
<glyph unicode="&#xf8;" horiz-adv-x="1249" d="M55 444q0 283 191 453q194 170 454 170q105 0 201 -35l141 199l117 -80l-133 -188q168 -134 168 -363q0 -284 -193 -453q-191 -170 -452 -170q-109 0 -199 33l-135 -188l-117 80l127 178q-170 129 -170 364zM406 467q0 -51 22 -100l281 393q-36 4 -41 4q-106 0 -185 -88 q-77 -89 -77 -209zM543 283q8 -2 39 -2q106 0 182 88q80 89 80 209q0 47 -23 98z" />
<glyph unicode="&#xf9;" horiz-adv-x="1157" d="M123 365l119 679h333l-104 -598q-24 -143 74 -143q65 0 113 49.5t65 145.5l96 546h334l-182 -1044h-283l-4 131q-115 -154 -295 -154q-163 0 -231 101.5t-35 286.5zM311 1499h377l172 -323h-266z" />
<glyph unicode="&#xfa;" horiz-adv-x="1157" d="M123 365l119 679h333l-104 -598q-24 -143 74 -143q65 0 113 49.5t65 145.5l96 546h334l-182 -1044h-283l-4 131q-115 -154 -295 -154q-163 0 -231 101.5t-35 286.5zM559 1176l254 323h434l-399 -323h-289z" />
<glyph unicode="&#xfb;" horiz-adv-x="1157" d="M123 365l119 679h333l-104 -598q-24 -143 74 -143q65 0 113 49.5t65 145.5l96 546h334l-182 -1044h-283l-4 131q-115 -154 -295 -154q-163 0 -231 101.5t-35 286.5zM289 1176l348 323h258l233 -323h-309l-71 139l-121 -139h-338z" />
<glyph unicode="&#xfc;" horiz-adv-x="1157" d="M123 365l119 679h333l-104 -598q-24 -143 74 -143q65 0 113 49.5t65 145.5l96 546h334l-182 -1044h-283l-4 131q-115 -154 -295 -154q-163 0 -231 101.5t-35 286.5zM344 1292q0 83 62 142t143 59q66 0 106.5 -38.5t40.5 -100.5q0 -83 -63 -140t-144 -57q-63 0 -104 37.5 t-41 97.5zM793 1292q0 84 61 142q62 59 143 59q66 0 107 -38.5t41 -100.5q0 -82 -64 -140q-63 -57 -143 -57q-63 0 -104 37.5t-41 97.5z" />
<glyph unicode="&#xfd;" horiz-adv-x="1091" d="M55 -440l228 452l-174 1032h360l53 -559l2 -100l37 100l250 559h360l-770 -1484h-346zM496 1176l254 323h434l-400 -323h-288z" />
<glyph unicode="&#xfe;" horiz-adv-x="1300" d="M-41 -440l342 1935h334l-94 -534q109 106 305 106q173 0 282 -133q111 -132 111 -326q0 -250 -166 -440q-167 -191 -420 -191q-185 0 -264 129l-96 -546h-334zM455 520q-19 -106 33.5 -167.5t144.5 -61.5q105 0 182 80q76 82 76 198q0 81 -50.5 133t-125.5 52 q-92 0 -166 -62t-94 -168v-4z" />
<glyph unicode="&#xff;" horiz-adv-x="1091" d="M55 -440l228 452l-174 1032h360l53 -559l2 -100l37 100l250 559h360l-770 -1484h-346zM281 1292q0 84 61 142q62 59 143 59q66 0 107 -38.5t41 -100.5q0 -82 -64 -140q-63 -57 -143 -57q-63 0 -104 37.5t-41 97.5zM729 1292q0 83 62 142t143 59q66 0 106.5 -38.5 t40.5 -100.5q0 -83 -63 -140t-144 -57q-63 0 -104 37.5t-41 97.5z" />
<glyph unicode="&#x152;" horiz-adv-x="2152" d="M102 610q0 375 250 613q252 237 617 237q238 0 393 -104l14 78h854l-57 -330h-500l-37 -205h424l-57 -330h-424l-43 -239h500l-58 -330h-854l15 86q-189 -113 -404 -113q-278 0 -456 181q-177 183 -177 456zM471 623q0 -148 83.5 -234t233.5 -86q195 0 332 146 q135 147 135 362q0 147 -85 233t-236 86q-200 0 -332 -147q-131 -143 -131 -360z" />
<glyph unicode="&#x153;" horiz-adv-x="1929" d="M55 444q0 283 191 453q194 170 454 170q218 0 355 -131q155 131 379 131q222 0 346 -145q122 -143 75 -428l-10 -62h-674l-4 -20v-6q0 -68 44 -110t122 -42q124 0 168 84h330q-167 -361 -537 -361q-212 0 -338 132q-176 -132 -407 -132q-218 0 -356 132t-138 335z M406 467q0 -85 47.5 -135.5t128.5 -50.5q106 0 182 88q80 89 80 209q0 85 -47.5 135.5t-128.5 50.5q-106 0 -185 -88q-77 -89 -77 -209zM1206 635h340q11 75 -26.5 121.5t-110.5 46.5q-79 0 -134.5 -45t-68.5 -123z" />
<glyph unicode="&#x178;" horiz-adv-x="1427" d="M178 1434h385l168 -433l29 -96l65 96l322 433h434l-684 -910l-92 -524h-354l92 524zM487 1628q0 81 60.5 140t142.5 59q66 0 107 -38.5t41 -100.5q0 -82 -64 -140q-63 -57 -143 -57q-63 0 -103.5 38.5t-40.5 98.5zM936 1628q0 81 60.5 140t142.5 59q66 0 106.5 -38.5 t40.5 -100.5q0 -83 -63 -140t-144 -57q-63 0 -103 38.5t-40 98.5z" />
<glyph unicode="&#x2c6;" horiz-adv-x="880" d="M133 1176l348 323h258l234 -323h-309l-72 139l-121 -139h-338z" />
<glyph unicode="&#x2dc;" horiz-adv-x="792" d="M123 1184q55 315 285 315q54 0 95 -18t60 -45q46 -62 101 -62q58 0 79 107h185q-55 -316 -281 -316q-49 0 -84.5 13t-55 31.5t-35.5 36.5t-37 31t-48 13q-59 0 -80 -106h-184z" />
<glyph unicode="&#x2000;" horiz-adv-x="963" />
<glyph unicode="&#x2001;" horiz-adv-x="1927" />
<glyph unicode="&#x2002;" horiz-adv-x="963" />
<glyph unicode="&#x2003;" horiz-adv-x="1927" />
<glyph unicode="&#x2004;" horiz-adv-x="642" />
<glyph unicode="&#x2005;" horiz-adv-x="481" />
<glyph unicode="&#x2006;" horiz-adv-x="321" />
<glyph unicode="&#x2007;" horiz-adv-x="321" />
<glyph unicode="&#x2008;" horiz-adv-x="240" />
<glyph unicode="&#x2009;" horiz-adv-x="385" />
<glyph unicode="&#x200a;" horiz-adv-x="107" />
<glyph unicode="&#x2010;" horiz-adv-x="747" d="M39 385l51 293h645l-51 -293h-645z" />
<glyph unicode="&#x2011;" horiz-adv-x="747" d="M39 385l51 293h645l-51 -293h-645z" />
<glyph unicode="&#x2012;" horiz-adv-x="747" d="M39 385l51 293h645l-51 -293h-645z" />
<glyph unicode="&#x2013;" horiz-adv-x="1054" d="M37 385l51 293h952l-51 -293h-952z" />
<glyph unicode="&#x2014;" horiz-adv-x="1443" d="M39 385l51 293h1342l-52 -293h-1341z" />
<glyph unicode="&#x2018;" horiz-adv-x="485" d="M162 1130q18 101 89 213t171 205l84 -30q-59 -103 -96 -236q66 -11 100 -58t22 -114q-14 -75 -77.5 -128.5t-141.5 -53.5q-81 0 -124.5 55.5t-26.5 146.5z" />
<glyph unicode="&#x2019;" horiz-adv-x="485" d="M197 1346q14 75 77.5 128.5t141.5 53.5q81 0 124.5 -56t26.5 -147q-18 -101 -89 -213t-171 -205l-84 31q59 103 96 236q-66 11 -100 58t-22 114z" />
<glyph unicode="&#x201a;" horiz-adv-x="485" d="M0 164q14 75 77.5 128.5t141.5 53.5q81 0 125 -56t27 -147q-18 -101 -89 -212.5t-171 -204.5l-84 30q59 103 96 236q-66 11 -100.5 58t-22.5 114z" />
<glyph unicode="&#x201c;" horiz-adv-x="970" d="M174 1130q18 101 89 213t171 205l84 -30q-59 -103 -96 -236q66 -11 100.5 -58t22.5 -114q-14 -75 -77.5 -128.5t-141.5 -53.5q-81 0 -125 56t-27 146zM659 1130q18 101 89.5 213t171.5 205l84 -30q-61 -106 -97 -236q66 -11 100.5 -58t22.5 -114q-14 -75 -77.5 -128.5 t-141.5 -53.5q-81 0 -125 56t-27 146z" />
<glyph unicode="&#x201d;" horiz-adv-x="970" d="M188 1346q14 75 78 128.5t142 53.5q81 0 124.5 -56t26.5 -147q-18 -101 -89 -213t-171 -205l-84 31q59 103 96 236q-66 11 -100.5 58t-22.5 114zM674 1346q14 75 77.5 128.5t141.5 53.5q81 0 124.5 -56t26.5 -147q-18 -101 -89 -213t-171 -205l-84 31q61 106 97 236 q-66 11 -100.5 58t-22.5 114z" />
<glyph unicode="&#x201e;" horiz-adv-x="970" d="M0 164q14 75 77.5 128.5t141.5 53.5q81 0 125 -56t27 -147q-18 -101 -89 -212.5t-171 -204.5l-84 30q59 103 96 236q-66 11 -100.5 58t-22.5 114zM485 164q14 75 78 128.5t142 53.5q81 0 124.5 -56t26.5 -147q-18 -101 -89 -212.5t-171 -204.5l-84 30q59 103 96 236 q-66 11 -100.5 58t-22.5 114z" />
<glyph unicode="&#x2022;" horiz-adv-x="727" d="M80 477q0 140 102 242q105 102 242 102q108 0 176 -66t68 -171q0 -140 -105 -242q-103 -100 -241 -100q-108 0 -175 65t-67 170z" />
<glyph unicode="&#x2026;" horiz-adv-x="1538" d="M-23 127q0 93 68 158q71 65 160 65q72 0 117 -42.5t45 -110.5q0 -92 -70 -156t-158 -64q-72 0 -117 42t-45 108zM504 127q0 94 67 158q71 65 160 65q72 0 117 -42.5t45 -110.5q0 -92 -70 -156t-157 -64q-72 0 -117 42t-45 108zM1030 127q0 93 68 158q71 65 159 65 q72 0 117 -42.5t45 -110.5q0 -93 -69 -156q-70 -64 -158 -64q-72 0 -117 42t-45 108z" />
<glyph unicode="&#x202f;" horiz-adv-x="385" />
<glyph unicode="&#x2039;" horiz-adv-x="620" d="M12 516l6 35l318 362h336l-359 -415l213 -385h-288z" />
<glyph unicode="&#x203a;" horiz-adv-x="620" d="M-61 113l358 415l-213 385h289l225 -403l-6 -35l-318 -362h-335z" />
<glyph unicode="&#x205f;" horiz-adv-x="481" />
<glyph unicode="&#x20ac;" horiz-adv-x="1323" d="M10 422l41 237h125q10 91 17 123h-119l41 238h149q89 207 249 323.5t364 116.5q231 0 360 -141q130 -142 127 -373h-379q15 184 -149 184q-106 0 -185 -110h197l-41 -238h-256q-20 -110 -21 -123h254l-41 -237h-200q37 -119 147 -119q166 0 215 184h379 q-83 -262 -234.5 -388t-394.5 -126q-195 0 -320.5 119.5t-154.5 329.5h-170z" />
<glyph unicode="&#x2122;" d="M164 1243l35 191h444l-35 -191h-121l-67 -383h-205l68 383h-119zM610 860l103 574h237l35 -279l2 -33l10 33l133 279h254l-102 -574h-205l41 236l-31 -74l-71 -162h-139l-15 162l-6 74l-41 -236h-205z" />
<glyph unicode="&#x25fc;" horiz-adv-x="1044" d="M0 0v1044h1044v-1044h-1044z" />
</font>
</defs>
</svg>
