<?xml version="1.0" standalone="no"?>
<!DOCTYPE svg PUBLIC "-//W3C//DTD SVG 1.1//EN" "http://www.w3.org/Graphics/SVG/1.1/DTD/svg11.dtd" >
<svg xmlns="http://www.w3.org/2000/svg" xmlns:xlink="http://www.w3.org/1999/xlink" version="1.1">
<metadata></metadata>
<defs>
<font id="larsseitextrabold" horiz-adv-x="1527" >
<font-face units-per-em="2048" ascent="1638" descent="-410" />
<missing-glyph horiz-adv-x="389" />
<glyph unicode="&#xfb01;" horiz-adv-x="1351" d="M35 741v303h149v72q0 406 424 406q57 0 113 -17v-295q-49 21 -92 21q-108 0 -111 -123v-64h203v-303h-203v-741h-334v741h-149zM864 1337q0 79 56 133t135 54t135 -54q57 -54 57 -133t-57 -133q-56 -54 -135.5 -54t-134.5 54q-56 54 -56 133zM889 0v1044h334v-1044h-334z " />
<glyph horiz-adv-x="0" />
<glyph horiz-adv-x="682" />
<glyph unicode=" "  horiz-adv-x="389" />
<glyph unicode="&#x09;" horiz-adv-x="389" />
<glyph unicode="&#xa0;" horiz-adv-x="389" />
<glyph unicode="!" horiz-adv-x="591" d="M104 164q0 79 56 133t135 54t135 -54q57 -54 57 -133t-57 -133q-56 -54 -135 -54t-135 54t-56 133zM129 457v977h334v-977h-334z" />
<glyph unicode="&#x22;" horiz-adv-x="798" d="M51 1518h297l-63 -474h-213zM471 1518h297l-63 -474h-213z" />
<glyph unicode="#" horiz-adv-x="1423" d="M31 260v309h211l53 312h-170v309h225l43 244h334l-43 -244h221l43 244h334l-43 -244h154v-309h-209l-54 -312h168v-309h-223l-45 -260h-334l45 260h-221l-45 -260h-334l45 260h-155zM575 569h222l53 312h-221z" />
<glyph unicode="$" horiz-adv-x="1181" d="M80 451h356q12 -168 176 -168q63 0 100.5 28.5t37.5 77.5q0 55 -50 93t-168 75q-219 68 -322.5 175t-103.5 280q0 172 97.5 288.5t267.5 147.5v217h238v-215q163 -31 255.5 -140.5t102.5 -293.5h-356q-4 62 -39.5 97.5t-91.5 35.5q-55 0 -86 -27.5t-31 -77.5 q0 -58 45 -88t182 -73q226 -72 321 -180t95 -281q0 -182 -108 -298.5t-289 -141.5v-213h-238v217q-184 35 -285 157t-106 308z" />
<glyph unicode="%" horiz-adv-x="1880" d="M41 1087q0 161 106 267t271 106q160 0 266 -106q109 -109 109 -267t-109 -264q-107 -104 -266 -104q-164 0 -271 104q-106 103 -106 264zM309 1090q0 -49 29 -84q31 -35 78 -35t76 35q31 35 31 84t-31 84q-29 35 -76 35t-78 -35q-29 -35 -29 -84zM416 0l704 1434h342 l-702 -1434h-344zM1087 342q0 159 107 266t270 107q160 0 267 -107q108 -108 108 -266q0 -159 -108 -264t-267 -105q-162 0 -270 105q-107 104 -107 264zM1355 344q0 -49 29 -84q31 -35 78 -35t76 35q31 35 31 84t-31 84q-29 35 -76 35t-78 -35q-29 -35 -29 -84z" />
<glyph unicode="&#x26;" horiz-adv-x="1460" d="M82 399q0 133 61 215.5t189 153.5l-33 35q-117 129 -117 272q0 170 119 277q120 108 324 108t333 -100q134 -101 134 -268q0 -144 -66 -228q-64 -79 -192 -149l151 -160q25 86 25 188h317q0 -162 -35 -278q-32 -98 -71 -162l288 -303h-452l-66 68q-160 -95 -360 -95 q-261 0 -405 116t-144 310zM440 410q0 -70 54.5 -105t148.5 -35q71 0 133 27l-241 254q-95 -56 -95 -141zM528 1073q0 -28 25 -63l61 -62l13 -14l43 24q5 2 20 11.5t19 13.5q3 4 12.5 17.5t12.5 19.5t7 19t4 28q0 41 -31.5 68.5t-78.5 27.5q-45 0 -76 -26t-31 -64z" />
<glyph unicode="'" horiz-adv-x="378" d="M51 1518h297l-63 -474h-213z" />
<glyph unicode="(" horiz-adv-x="641" d="M72 657q0 270 84 476q79 198 241 395l234 -154q-129 -175 -187 -338q-57 -155 -57 -379q0 -222 57 -381q59 -161 187 -335l-234 -154q-161 197 -241 393q-84 209 -84 477z" />
<glyph unicode=")" horiz-adv-x="641" d="M10 -59q128 174 187 335q57 159 57 381q0 224 -57 379q-58 163 -187 338l234 154q162 -197 241 -395q84 -206 84 -476q0 -268 -84 -477q-80 -196 -241 -393z" />
<glyph unicode="*" horiz-adv-x="743" d="M14 1174l70 215l186 -76l-12 200h227l-12 -200l186 76l70 -215l-194 -54l127 -153l-183 -131l-108 163l-109 -163l-180 131l125 153z" />
<glyph unicode="+" horiz-adv-x="966" d="M61 569v293h275v277h293v-277h276v-293h-276v-274h-293v274h-275z" />
<glyph unicode="," horiz-adv-x="485" d="M55 164q0 75 54.5 128.5t132.5 53.5q81 0 134.5 -56t53.5 -147q0 -100 -51 -212t-135 -205l-90 30q43 101 55 236q-68 11 -111 58t-43 114z" />
<glyph unicode="-" horiz-adv-x="747" d="M51 385v293h645v-293h-645z" />
<glyph unicode="." horiz-adv-x="485" d="M50 164q0 79 56 133t136 54t135 -54q57 -54 57 -133t-57 -133q-55 -54 -135 -54t-136 54t-56 133z" />
<glyph unicode="/" horiz-adv-x="862" d="M10 0l512 1434h330l-512 -1434h-330z" />
<glyph unicode="0" horiz-adv-x="1196" d="M70 719q0 352 137.5 546.5t390.5 194.5t390.5 -194.5t137.5 -546.5q0 -353 -138 -549.5t-390 -196.5t-390 196.5t-138 549.5zM426 719q0 -416 172 -416t172 416q0 411 -172 411t-172 -411z" />
<glyph unicode="1" horiz-adv-x="854" d="M68 915v297q180 0 276 52.5t125 169.5h256v-1434h-354v915h-303z" />
<glyph unicode="2" horiz-adv-x="1034" d="M66 981q-6 213 127 346t348 133q216 0 333 -115t117 -315q0 -115 -44 -209t-138 -205l-248 -286h420v-330h-911v256l422 479q80 92 111.5 149.5t31.5 127.5q0 55 -25.5 86.5t-72.5 31.5q-123 0 -117 -149h-354z" />
<glyph unicode="3" horiz-adv-x="1140" d="M70 459h352q1 -75 43.5 -115.5t116.5 -40.5q62 0 97.5 37t35.5 104q0 146 -176 146h-113v301h109q133 0 133 123q0 55 -28.5 85.5t-78.5 30.5q-53 0 -86 -38t-33 -105h-352q0 221 124.5 347t338.5 126q216 0 342 -123q127 -121 127 -307q0 -103 -45.5 -175t-116.5 -107 q211 -70 211 -320q0 -214 -134.5 -334.5t-367.5 -120.5q-234 0 -366.5 129t-132.5 357z" />
<glyph unicode="4" horiz-adv-x="1228" d="M39 227v285l508 922h446v-891h168v-316h-168v-227h-354v227h-600zM395 539h250v481l-31 -74z" />
<glyph unicode="5" horiz-adv-x="1126" d="M68 438h352q1 -65 39.5 -100t105.5 -35q140 0 140 166q0 174 -148 174q-74 0 -133 -41h-315v832h876v-330h-522v-191q79 29 166 29q191 0 309 -106q121 -109 121 -347q0 -243 -133 -379.5t-363 -136.5q-234 0 -364.5 122t-130.5 343z" />
<glyph unicode="6" horiz-adv-x="1169" d="M68 694q0 389 132.5 577.5t407.5 188.5q202 0 334 -129q134 -128 137 -334h-358q-6 133 -129 133q-162 0 -168 -290q84 75 238 75q199 0 317 -124q121 -124 121 -326q0 -228 -139 -361q-137 -131 -357 -131q-245 0 -379 152q-157 189 -157 569zM434 463q0 -72 44 -119 t112 -47q66 0 108.5 47t42.5 119q0 68 -43 116t-108 48q-66 0 -111 -48t-45 -116z" />
<glyph unicode="7" horiz-adv-x="1073" d="M70 1104v330h915v-285l-483 -1149h-385l467 1104h-514z" />
<glyph unicode="8" horiz-adv-x="1159" d="M76 422q0 209 172 311q-135 111 -135 287q0 185 129 311q132 129 338 129t335 -129q132 -126 132 -311q0 -89 -38.5 -164.5t-99.5 -122.5q174 -101 174 -311q0 -195 -145 -322t-358 -127q-214 0 -359 127t-145 322zM432 438q0 -66 39 -102q40 -37 109 -37q66 0 106 37 q41 38 41 102q0 65 -41.5 105.5t-105.5 40.5q-67 0 -107.5 -39.5t-40.5 -106.5zM459 1006q0 -56 33 -90.5t88 -34.5t87.5 34.5t32.5 90.5q0 57 -33 93t-87 36q-55 0 -88 -35.5t-33 -93.5z" />
<glyph unicode="9" horiz-adv-x="1169" d="M70 969q0 227 139 360q137 131 356 131q246 0 379 -151q158 -190 158 -570q0 -389 -133 -577.5t-408 -188.5q-203 0 -336 127q-132 129 -135 336h359q6 -133 129 -133q161 0 167 289q-89 -74 -237 -74q-198 0 -318 123q-120 126 -120 328zM428 971q0 -68 43.5 -116 t108.5 -48t110 48t45 116q0 72 -44 119t-111 47q-66 0 -109 -47t-43 -119z" />
<glyph unicode=":" horiz-adv-x="485" d="M50 164q0 79 56 133t136 54t135 -54q57 -54 57 -133t-57 -133q-55 -54 -135 -54t-136 54t-56 133zM50 881q0 79 56 133q55 54 135.5 54t135.5 -54q57 -54 57 -133t-57 -133q-55 -54 -135.5 -54t-135.5 54q-56 54 -56 133z" />
<glyph unicode=";" horiz-adv-x="485" d="M50 881q0 79 56 133q55 54 135.5 54t135.5 -54q57 -54 57 -133t-57 -133q-55 -54 -135.5 -54t-135.5 54q-56 54 -56 133zM55 164q0 75 54.5 128.5t132.5 53.5q81 0 134.5 -56t53.5 -147q0 -100 -51 -212t-135 -205l-90 30q43 101 55 236q-68 11 -111 58t-43 114z" />
<glyph unicode="&#x3c;" horiz-adv-x="620" d="M20 496v34l271 383h309l-283 -401l283 -399h-309z" />
<glyph unicode="=" horiz-adv-x="966" d="M61 358v285h844v-285h-844zM61 788v285h844v-285h-844z" />
<glyph unicode="&#x3e;" horiz-adv-x="620" d="M20 113l283 399l-283 401h310l270 -383v-34l-270 -383h-310z" />
<glyph unicode="?" horiz-adv-x="950" d="M10 1038q6 195 137 308q132 114 320 114q194 0 321 -106q132 -108 132 -291q0 -98 -29.5 -179t-77.5 -134q-20 -21 -65.5 -64.5t-67 -66.5t-42 -59.5t-20.5 -70.5v-32h-333v49q0 78 31 144t81 112q13 12 55 48t60 54.5t45 51t38 66t11 71.5q0 71 -34.5 108t-98.5 37 q-68 0 -108.5 -43.5t-40.5 -116.5h-314zM260 164q0 79 55 133t135 54t136 -54q57 -54 57 -133t-57 -133q-56 -54 -136 -54t-135 54t-55 133z" />
<glyph unicode="@" horiz-adv-x="1722" d="M66 516q0 352 219 565q221 215 581 215q363 0 576 -219q215 -218 215 -561q0 -214 -105 -319t-247 -105q-162 0 -250 119q-98 -119 -267 -119q-162 0 -274 121q-108 123 -108 301q0 180 106 301q108 123 264 123t238 -119l20 101h228v-533q0 -70 16 -97.5t63 -27.5 q140 0 140 254q0 267 -166 442t-449 175q-287 0 -456 -172q-168 -168 -168 -445q0 -273 170 -446q169 -172 454 -172q151 0 279 61l63 -156q-135 -69 -342 -69q-364 0 -583 219q-217 217 -217 563zM684 516q0 -74 45 -123t109 -49q63 0 111 46.5t48 121.5v4q0 76 -48 124 t-111 48q-64 0 -109 -49t-45 -123z" />
<glyph unicode="A" d="M25 0l540 1434h398l540 -1434h-381l-96 270h-524l-96 -270h-381zM610 571h308l-127 361l-27 84l-27 -84z" />
<glyph unicode="B" horiz-adv-x="1263" d="M133 0v1434h500q227 0 358 -113.5t131 -310.5q0 -173 -104 -271q178 -91 178 -307q0 -193 -135 -313q-134 -119 -361 -119h-567zM487 330h213q127 0 127 116q0 121 -127 121h-213v-237zM487 868h146q60 0 93.5 30t33.5 81q0 125 -127 125h-146v-236z" />
<glyph unicode="C" horiz-adv-x="1523" d="M70 719q0 324 202 532q203 209 521 209q270 0 441.5 -137t233.5 -379h-387q-37 98 -104 142t-184 44q-159 0 -258 -114q-97 -117 -97 -297q0 -184 99 -301q100 -115 260 -115q239 0 309 205h369q-58 -260 -228 -397.5t-450 -137.5q-319 0 -525 209q-202 211 -202 537z " />
<glyph unicode="D" horiz-adv-x="1507" d="M133 0v1434h553q340 0 547 -201q205 -199 205 -516q0 -319 -205 -518t-547 -199h-553zM487 330h199q189 0 286 99t97 288t-97 288t-286 99h-199v-774z" />
<glyph unicode="E" horiz-adv-x="1075" d="M133 0v1434h854v-330h-500v-205h424v-330h-424v-239h500v-330h-854z" />
<glyph unicode="F" horiz-adv-x="1026" d="M133 0v1434h846v-330h-492v-223h416v-330h-416v-551h-354z" />
<glyph unicode="G" horiz-adv-x="1581" d="M70 719q0 324 202 532q203 209 521 209q270 0 441.5 -137t233.5 -379h-387q-37 98 -105.5 142t-189.5 44q-157 0 -251 -116q-97 -117 -97 -295q0 -184 99 -301q103 -115 266 -115q120 0 195.5 46.5t93.5 125.5h-275v330h653v-148q0 -323 -186 -503q-187 -181 -481 -181 q-323 0 -529 209q-204 210 -204 537z" />
<glyph unicode="H" horiz-adv-x="1480" d="M133 0v1434h354v-527h506v527h355v-1434h-355v578h-506v-578h-354z" />
<glyph unicode="I" horiz-adv-x="620" d="M133 0v1434h354v-1434h-354z" />
<glyph unicode="J" horiz-adv-x="1134" d="M47 504h354q6 -182 144 -182q119 0 119 161v951h354v-975q0 -233 -121 -351t-352 -118q-240 0 -366.5 135.5t-131.5 378.5z" />
<glyph unicode="K" horiz-adv-x="1417" d="M133 0v1434h354v-664l420 664h428l-428 -650l490 -784h-420l-313 500l-177 -238v-262h-354z" />
<glyph unicode="L" horiz-adv-x="1099" d="M133 0v1434h354v-1104h564v-330h-918z" />
<glyph unicode="M" horiz-adv-x="1845" d="M133 0v1434h416l348 -826l25 -78l26 78l348 826h416v-1434h-354v788l-41 -141l-242 -647h-305l-242 647l-41 141v-788h-354z" />
<glyph unicode="N" d="M133 0v1434h354l496 -752l57 -102v854h355v-1434h-355l-497 743l-56 101v-844h-354z" />
<glyph unicode="O" horiz-adv-x="1642" d="M70 719q0 324 211 532q212 209 540 209q329 0 541 -209q211 -208 211 -532q0 -326 -211 -537q-212 -209 -541 -209q-328 0 -540 209q-211 211 -211 537zM438 719q0 -183 103 -301q106 -115 280 -115q176 0 279 115q104 116 104 301q0 184 -104 297q-102 114 -279 114 q-175 0 -280 -114q-103 -115 -103 -297z" />
<glyph unicode="P" horiz-adv-x="1202" d="M133 0v1434h492q239 0 385 -134q145 -133 145 -348q0 -207 -145 -346q-144 -135 -385 -135h-138v-471h-354zM487 801h138q80 0 124 39t44 112q0 152 -168 152h-138v-303z" />
<glyph unicode="Q" horiz-adv-x="1624" d="M70 719q0 324 211 532q212 209 540 209q329 0 541 -209q211 -208 211 -532q0 -318 -207 -531l311 -401h-469l-164 215q-116 -29 -223 -29q-328 0 -540 209q-211 211 -211 537zM438 719q0 -183 103 -301q106 -115 280 -115h15v229h333q35 87 35 187q0 184 -104 297 q-102 114 -279 114q-175 0 -280 -114q-103 -115 -103 -297z" />
<glyph unicode="R" horiz-adv-x="1236" d="M133 0v1434h481q242 0 385 -131q146 -134 146 -345q0 -126 -61.5 -226t-172.5 -161l295 -571h-401l-254 504h-64v-504h-354zM487 813h127q168 0 168 145q0 146 -168 146h-127v-291z" />
<glyph unicode="S" horiz-adv-x="1157" d="M68 451h356q12 -168 176 -168q63 0 100 28.5t37 77.5q0 55 -49.5 93t-167.5 75q-219 68 -322.5 175t-103.5 280q0 203 131 325q132 123 353 123q217 0 341 -113t136 -331h-357q-4 62 -39.5 97.5t-91.5 35.5q-55 0 -85.5 -27.5t-30.5 -77.5q0 -58 45 -88t182 -73 q226 -72 321 -180t95 -281q0 -209 -142 -330q-137 -119 -356 -119q-248 0 -385 128.5t-143 349.5z" />
<glyph unicode="T" horiz-adv-x="1271" d="M25 1104v330h1222v-330h-434v-1104h-354v1104h-434z" />
<glyph unicode="U" horiz-adv-x="1427" d="M117 584v850h354v-850q0 -281 244 -281q241 0 241 281v850h355v-850q0 -289 -155 -450t-441 -161t-442 161t-156 450z" />
<glyph unicode="V" horiz-adv-x="1464" d="M16 1434h375l309 -842l31 -103l33 103l309 842h375l-547 -1434h-338z" />
<glyph unicode="W" horiz-adv-x="2074" d="M25 1434h372l226 -818l18 -104l16 104l215 818h330l215 -818l15 -104l20 104l225 818h373l-420 -1434h-383l-192 694l-19 101l-16 -101l-193 -694h-383z" />
<glyph unicode="X" horiz-adv-x="1468" d="M35 0l454 723l-446 711h414l276 -453l279 453h413l-446 -711l455 -723h-414l-287 465l-284 -465h-414z" />
<glyph unicode="Y" horiz-adv-x="1427" d="M12 1434h408l246 -424l47 -97l47 97l248 424h407l-524 -910v-524h-354v524z" />
<glyph unicode="Z" horiz-adv-x="1247" d="M90 0v289l600 815h-600v330h1045v-289l-592 -815h622v-330h-1075z" />
<glyph unicode="[" horiz-adv-x="737" d="M143 -158v1624h543v-301h-227v-1022h227v-301h-543z" />
<glyph unicode="\" horiz-adv-x="862" d="M10 1434h330l512 -1434h-330z" />
<glyph unicode="]" horiz-adv-x="737" d="M51 143h228v1022h-228v301h543v-1624h-543v301z" />
<glyph unicode="^" horiz-adv-x="1105" d="M25 946l528 617l528 -617h-336l-192 225l-193 -225h-335z" />
<glyph unicode="_" horiz-adv-x="1300" d="M51 0h1198v-293h-1198v293z" />
<glyph unicode="`" horiz-adv-x="645" d="M20 1499h396l209 -323h-273z" />
<glyph unicode="a" horiz-adv-x="1089" d="M74 283q0 148 84 220.5t260 100.5l233 39v33q0 52 -28.5 82t-81.5 30q-50 0 -82.5 -28.5t-32.5 -67.5h-322q14 171 131 273t306 102q205 0 324.5 -100t119.5 -287v-680h-280l-23 117q-103 -140 -283 -140q-144 0 -234.5 83.5t-90.5 222.5zM406 322q0 -37 24 -59.5 t68 -22.5q92 0 135 88q18 38 18 94v24l-149 -28q-96 -18 -96 -96z" />
<glyph unicode="b" horiz-adv-x="1296" d="M129 0v1495h334v-545q91 117 287 117q202 0 342 -158q141 -156 141 -387t-141 -387q-140 -158 -342 -158q-206 0 -312 154l-26 -131h-283zM455 520v-14q0 -70 37 -122q42 -58 100 -79q38 -14 79 -14q22 0 44 4q65 11 108 57q64 64 64 170q0 103 -61.5 167.5t-151.5 64.5 q-89 0 -153.5 -59.5t-65.5 -159.5v-15z" />
<glyph unicode="c" horiz-adv-x="1161" d="M63 520q0 240 150 393q151 154 387 154q206 0 337.5 -109.5t154.5 -314.5h-318q-41 121 -168 121q-85 0 -140.5 -68t-55.5 -176q0 -105 57 -172t147 -67q62 0 106 34t56 86h322q-32 -203 -165.5 -313.5t-332.5 -110.5q-236 0 -387 148q-150 150 -150 395z" />
<glyph unicode="d" horiz-adv-x="1296" d="M63 522q0 229 140 387q143 158 344 158q195 0 287 -117v545h333v-1495h-282l-27 131q-106 -154 -311 -154q-201 0 -344 158q-140 158 -140 387zM410 522q0 -106 61 -170q30 -30 70 -46q39 -16 79 -16h2q42 0 82.5 16t71.5 44q32 28 50 72q17 40 16 88v10v15 q-1 100 -65.5 159.5t-153.5 59.5q-88 0 -152 -64q-61 -61 -61 -168z" />
<glyph unicode="e" horiz-adv-x="1153" d="M63 520q0 239 148 393t383 154q227 0 359 -142t132 -411v-82h-675q5 -77 57 -127.5t137 -50.5q131 0 158 84h321q-102 -361 -487 -361q-239 0 -387 148q-146 152 -146 395zM410 635h340q-5 76 -49 122t-117 46q-75 0 -122 -46.5t-52 -121.5z" />
<glyph unicode="f" horiz-adv-x="772" d="M35 741v303h149v72q0 406 424 406q67 0 133 -17v-295q-49 21 -92 21q-128 0 -131 -123v-64h223v-303h-223v-741h-334v741h-149z" />
<glyph unicode="g" horiz-adv-x="1110" d="M68 262q0 142 108 225q-76 88 -76 211q0 163 123 265q125 104 314 104q71 0 151 -23h406v-280h-144q6 -30 6 -66q0 -156 -120 -258q-119 -98 -299 -98q-67 0 -129 12q-19 -28 -19 -61q0 -72 84 -72h223q164 0 257.5 -80.5t93.5 -232.5q0 -178 -129 -274.5t-353 -96.5 q-239 0 -362 81t-123 237q0 113 98 180q-110 91 -110 227zM406 -115q0 -56 43 -86t118 -30q154 0 154 116q0 47 -31.5 74t-87.5 27h-123q-73 -18 -73 -101zM428 698q0 -57 29.5 -93t74.5 -36t75 36.5t30 92.5q0 59 -30 96t-75 37q-47 0 -75.5 -36t-28.5 -97z" />
<glyph unicode="h" horiz-adv-x="1161" d="M129 0v1495h334v-547q94 119 248 119q163 0 249.5 -101t86.5 -286v-680h-334v598q0 143 -111 143q-139 0 -139 -194v-547h-334z" />
<glyph unicode="i" horiz-adv-x="591" d="M104 1337q0 79 56 133q55 54 134.5 54t135.5 -54q57 -54 57 -133t-57 -133q-56 -54 -135.5 -54t-134.5 54q-56 54 -56 133zM129 0v1044h334v-1044h-334z" />
<glyph unicode="j" horiz-adv-x="591" d="M-117 -143q55 -19 127 -19q62 0 90.5 41.5t28.5 134.5v1030h334v-1040q0 -467 -383 -467q-116 0 -197 23v297zM104 1337q0 79 56 133q55 54 134.5 54t135.5 -54q57 -54 57 -133t-57 -133q-56 -54 -135.5 -54t-134.5 54q-56 54 -56 133z" />
<glyph unicode="k" horiz-adv-x="1169" d="M129 0v1495h334v-825l239 374h394l-281 -442l336 -602h-381l-190 344l-117 -156v-188h-334z" />
<glyph unicode="l" horiz-adv-x="591" d="M129 0v1495h334v-1495h-334z" />
<glyph unicode="m" horiz-adv-x="1736" d="M129 0v1044h283l26 -131q86 154 271 154q213 0 292 -174q38 77 115.5 125.5t173.5 48.5q162 0 247 -101t85 -286v-680h-334v598q0 143 -106 143q-140 0 -140 -194v-547h-333v598q0 143 -109 143q-137 0 -137 -194v-547h-334z" />
<glyph unicode="n" horiz-adv-x="1161" d="M129 0v1044h283l26 -131q86 154 273 154q163 0 249.5 -101t86.5 -286v-680h-334v598q0 143 -111 143q-139 0 -139 -194v-547h-334z" />
<glyph unicode="o" horiz-adv-x="1249" d="M63 522q0 242 160 393q161 152 400 152q240 0 401 -152q162 -149 162 -393t-162 -393q-161 -152 -401 -152q-239 0 -400 152q-160 151 -160 393zM410 524q0 -103 59 -174q60 -69 156 -69t153 69q62 71 62 174q0 104 -62 172q-59 68 -153 68t-156 -68q-59 -68 -59 -172z " />
<glyph unicode="p" horiz-adv-x="1296" d="M129 -440v1484h283l26 -131q106 154 312 154q202 0 342 -158q141 -156 141 -387t-141 -387q-140 -158 -342 -158q-196 0 -287 117v-534h-334zM455 510q1 -100 65.5 -159.5t153.5 -59.5q88 0 149 61q64 64 64 170q0 107 -64 168q-43 47 -108 58q-23 5 -45 5q-41 0 -78 -14 q-59 -21 -100 -79q-37 -52 -37 -122v-14v-14z" />
<glyph unicode="q" horiz-adv-x="1296" d="M63 522q0 229 140 387q143 158 344 158q205 0 311 -154l27 131h282v-1484h-333v534q-92 -117 -287 -117q-201 0 -344 158q-140 158 -140 387zM410 522q0 -103 61.5 -167t151.5 -64q89 0 153.5 59.5t65.5 159.5v14v11q0 72 -38 125q-40 58 -98 79q-38 14 -79 14 q-23 0 -46 -5q-66 -11 -110 -58q-61 -61 -61 -168z" />
<glyph unicode="r" horiz-adv-x="800" d="M129 0v1044h283l32 -157q70 168 301 168v-336q-133 0 -204 -51q-72 -48 -78 -152v-516h-334z" />
<glyph unicode="s" horiz-adv-x="972" d="M57 315h326q1 -44 31 -68t80 -24q92 0 92 68q0 40 -36 63.5t-132 36.5q-342 47 -342 320q0 159 108.5 257.5t304.5 98.5q174 0 288.5 -91.5t121.5 -240.5h-326q-3 86 -86 86q-81 0 -81 -71q0 -42 37.5 -64.5t134.5 -34.5q180 -23 260 -101t80 -218q0 -184 -125 -269 q-124 -86 -308 -86q-197 0 -308.5 89.5t-119.5 248.5z" />
<glyph unicode="t" horiz-adv-x="821" d="M39 741v303h156l2 246h335l-4 -246h217v-303h-219l-4 -319q0 -73 29.5 -104t97.5 -31q59 0 96 12v-291q-68 -22 -178 -22q-194 0 -287 84t-92 266l5 405h-154z" />
<glyph unicode="u" horiz-adv-x="1157" d="M117 365v679h334v-598q0 -143 108 -143q62 0 98.5 49t36.5 146v546h334v-1044h-283l-26 131q-86 -154 -268 -154q-163 0 -248.5 101.5t-85.5 286.5z" />
<glyph unicode="v" horiz-adv-x="1079" d="M8 1044h361l151 -559l19 -100l20 100l152 559h360l-360 -1044h-342z" />
<glyph unicode="w" horiz-adv-x="1619" d="M12 1044h359l114 -555l19 -120l22 120l136 555h296l136 -555l22 -120l19 120l114 555h359l-303 -1044h-353l-143 516l-162 -516h-332z" />
<glyph unicode="x" horiz-adv-x="1126" d="M25 0l305 526l-299 518h385l147 -262l148 262h385l-299 -518l305 -526h-387l-152 276l-151 -276h-387z" />
<glyph unicode="y" horiz-adv-x="1091" d="M8 1044h361l151 -559l19 -100l20 100l152 559h360l-510 -1484h-346l147 452z" />
<glyph unicode="z" horiz-adv-x="1007" d="M72 0v248l409 508h-407v288h852v-247l-410 -508h430v-289h-874z" />
<glyph unicode="{" horiz-adv-x="720" d="M51 510v289h19q133 0 133 147v84q0 207 109 321.5t317 114.5h41v-301h-27q-62 0 -97.5 -39t-35.5 -108v-133q0 -88 -38 -150t-107 -82q69 -20 107 -80.5t38 -148.5v-133q0 -69 35.5 -108.5t97.5 -39.5h27v-301h-41q-208 0 -317 115t-109 322v83q0 148 -133 148h-19z" />
<glyph unicode="|" horiz-adv-x="534" d="M113 -137v1624h309v-1624h-309z" />
<glyph unicode="}" horiz-adv-x="720" d="M51 143h27q62 0 97.5 39.5t35.5 108.5v133q0 88 38 148.5t107 80.5q-69 20 -107 82t-38 150v133q0 69 -35.5 108t-97.5 39h-27v301h41q208 0 317 -114.5t109 -321.5v-84q0 -147 133 -147h19v-289h-19q-133 0 -133 -148v-83q0 -207 -109 -322t-317 -115h-41v301z" />
<glyph unicode="~" horiz-adv-x="1159" d="M31 612q82 346 360 346q65 0 124.5 -28t94.5 -68q86 -94 168 -94q94 0 129 158l221 -90q-83 -347 -358 -347q-67 0 -128 28t-97 67q-36 41 -80 68.5t-84 27.5q-94 0 -129 -158z" />
<glyph unicode="&#xa1;" horiz-adv-x="591" d="M104 881q0 79 56 133q57 54 137 54t135 -54q56 -54 56 -133t-56 -133t-135.5 -54t-136.5 54q-56 54 -56 133zM129 -389v977h334v-977h-334z" />
<glyph unicode="&#xa2;" horiz-adv-x="1161" d="M63 520q0 207 115 352q118 148 307 185v219h238v-221q155 -30 253 -136t116 -276h-318q-41 121 -168 121q-85 0 -140.5 -68t-55.5 -176q0 -105 57 -172t147 -67q62 0 106 34t56 86h322q-26 -169 -124.5 -274.5t-250.5 -136.5v-221h-238v219q-194 36 -308 178t-114 354z " />
<glyph unicode="&#xa3;" horiz-adv-x="1132" d="M31 0v70l98 120q123 150 123 326q0 39 -2 49h-213v238h137q-51 125 -51 227q0 190 127 311q125 119 328 119q213 0 335.5 -117.5t126.5 -334.5h-317q0 66 -36 107.5t-93 41.5t-91 -35t-34 -102q0 -90 53 -217h248v-238h-180q4 -50 4 -59q0 -73 -31 -133l-20 -39h168 q61 0 87.5 31t26.5 100h301q0 -227 -112.5 -346t-321.5 -119h-661z" />
<glyph unicode="&#xa4;" horiz-adv-x="1380" d="M39 109l237 237q-36 85 -36 186q0 100 36 185l-237 237l219 220l238 -238q85 39 192 39q78 0 193 -41l241 240l219 -220l-239 -237q39 -87 39 -185.5t-41 -185.5l241 -237l-219 -220l-245 242q-96 -35 -189 -35q-86 0 -186 35l-244 -242zM520 532q0 -80 47.5 -132 t120.5 -52t122.5 53t49.5 131q0 80 -49.5 134.5t-122.5 54.5t-120.5 -54.5t-47.5 -134.5z" />
<glyph unicode="&#xa5;" horiz-adv-x="1366" d="M-18 1434h407l246 -424l47 -97l47 97l248 424h407l-387 -672h127v-238h-264v-129h264v-237h-264v-158h-354v158h-266v237h266v129h-266v238h129z" />
<glyph unicode="&#xa6;" horiz-adv-x="534" d="M113 -137v573h309v-573h-309zM113 913v574h309v-574h-309z" />
<glyph unicode="&#xa7;" horiz-adv-x="1089" d="M55 635q0 159 148 262q-97 79 -97 223q0 184 125 269q127 86 310 86q196 0 309 -89.5t121 -248.5h-334q-3 92 -98 92q-41 0 -67 -21.5t-26 -56.5q0 -45 38 -71.5t134 -39.5q224 -32 320 -107.5t96 -211.5q0 -138 -143 -236q113 -82 113 -235q0 -182 -130 -268t-319 -86 q-203 0 -324 90.5t-129 246.5h334q1 -43 34 -67.5t85 -24.5q109 0 109 78q0 44 -53.5 72t-198.5 47q-170 25 -263.5 102.5t-93.5 194.5zM393 696q0 -54 48 -81t182 -46q73 37 73 105q0 52 -48 78t-189 49h-4q-62 -38 -62 -105z" />
<glyph unicode="&#xa8;" horiz-adv-x="835" d="M20 1325q0 72 50 120t123 48q74 0 124 -48t50 -120t-50 -120t-124 -48q-73 0 -123 48t-50 120zM469 1325q0 72 50 120t122 48q74 0 124 -48t50 -120t-50 -120t-124 -48q-72 0 -122 48t-50 120z" />
<glyph unicode="&#xa9;" horiz-adv-x="1271" d="M61 975q0 253 160 418q159 163 418 163q258 0 414 -163q157 -165 157 -418t-157 -418q-156 -164 -414 -164q-259 0 -418 164q-160 165 -160 418zM240 975q0 -181 110 -297q111 -117 289 -117q179 0 287 117t108 297t-108 297t-287 117q-178 0 -289 -117 q-110 -116 -110 -297zM344 975q0 130 83.5 212.5t217.5 82.5q227 0 279 -230h-222q-17 39 -57 39q-88 0 -88 -104q0 -109 88 -109q57 0 72 52h211q-43 -242 -283 -242q-135 0 -218 82.5t-83 216.5z" />
<glyph unicode="&#xaa;" horiz-adv-x="806" d="M72 930q0 104 58 153.5t183 67.5l158 25v18q0 63 -70 63q-31 0 -52 -16t-21 -37h-238q11 118 94 188t217 70q145 0 230.5 -68.5t85.5 -195.5v-463h-207l-14 74q-73 -88 -197 -88q-101 0 -164 56t-63 153zM317 958q0 -45 56 -45q62 0 90 54q8 24 8 55v4l-96 -16 q-33 -6 -45.5 -17t-12.5 -35z" />
<glyph unicode="&#xab;" horiz-adv-x="1044" d="M20 496v34l209 383h310l-222 -401l222 -399h-310zM506 496v34l209 383h309l-221 -401l221 -399h-309z" />
<glyph unicode="&#xac;" horiz-adv-x="1310" d="M86 715v233h1153v-659h-225v426h-928z" />
<glyph unicode="&#xad;" horiz-adv-x="747" d="M51 385v293h645v-293h-645z" />
<glyph unicode="&#xae;" horiz-adv-x="1271" d="M61 975q0 253 160 418q159 163 418 163q258 0 414 -163q157 -165 157 -418t-157 -418q-156 -164 -414 -164q-259 0 -418 164q-160 165 -160 418zM240 975q0 -181 110 -297q111 -117 289 -117q179 0 287 117t108 297t-108 297t-287 117q-178 0 -289 -117 q-110 -116 -110 -297zM395 684v573h256q108 0 172 -56.5t64 -149.5t-78 -150l102 -217h-237l-56 172h-18v-172h-205zM600 997h31q53 0 53 50q0 49 -53 49h-31v-99z" />
<glyph unicode="&#xaf;" horiz-adv-x="638" d="M20 1194v238h598v-238h-598z" />
<glyph unicode="&#xb0;" horiz-adv-x="751" d="M43 1151q0 147 94 235q96 93 236 93q143 0 239 -93q97 -91 97 -235q0 -142 -97 -233t-239 -91q-139 0 -236 91q-94 88 -94 233zM252 1151q0 -53 35 -88t86 -35q56 0 91.5 34.5t35.5 88.5q0 55 -36 91t-91 36q-51 0 -86 -36t-35 -91z" />
<glyph unicode="&#xb1;" horiz-adv-x="966" d="M61 111v292h844v-292h-844zM61 762v293h275v276h293v-276h276v-293h-276v-275h-293v275h-275z" />
<glyph unicode="&#xb2;" horiz-adv-x="667" d="M41 1366q-3 126 82 205q85 82 221 82q135 0 211 -68t76 -182q0 -125 -113 -229l-123 -111h223v-227h-565v178l246 237q30 26 45 45q41 41 41 84q0 45 -45 45q-53 0 -53 -59h-246z" />
<glyph unicode="&#xb3;" horiz-adv-x="735" d="M59 1102h244q3 -58 74 -58q57 0 57 54q0 57 -74 57h-79v191h75q22 0 36 14t14 33q0 37 -44 37q-49 0 -49 -50h-243q0 130 76.5 201.5t211.5 71.5q133 0 213 -69t80 -179q0 -100 -90 -150q119 -40 119 -170q0 -127 -82 -195.5t-229 -68.5t-228.5 73.5t-81.5 207.5z" />
<glyph unicode="&#xb4;" horiz-adv-x="645" d="M20 1176l209 323h396l-332 -323h-273z" />
<glyph unicode="&#xb5;" horiz-adv-x="1169" d="M129 -440v1484h334v-612q3 -129 108 -129q62 0 99 49t37 146v546h333v-1044h-282l-27 131q-86 -154 -268 -154v-417h-334z" />
<glyph unicode="&#xb6;" horiz-adv-x="1298" d="M51 1026q0 179 117 293q121 115 307 115h795v-211h-166v-1387h-211v1387h-170v-1387h-211v789h-37q-187 0 -305 112q-119 113 -119 289z" />
<glyph unicode="&#xb7;" horiz-adv-x="485" d="M50 530.5q0 79.5 56 133.5q55 54 135.5 54t135.5 -54q57 -54 57 -133.5t-57 -133.5q-55 -54 -135 -54t-136 54t-56 133.5z" />
<glyph unicode="&#xb8;" horiz-adv-x="466" d="M20 -412l91 133q37 -43 90 -43q55 0 55 52q0 53 -66 53q-24 0 -45 -8l-30 8l49 229h133l-23 -106q80 -8 126 -54t46 -120q0 -95 -65 -149t-170 -54q-114 0 -191 59z" />
<glyph unicode="&#xb9;" horiz-adv-x="583" d="M63 1311v192q217 0 252 135h177v-802h-246v475h-183z" />
<glyph unicode="&#xba;" horiz-adv-x="919" d="M63 1090q0 167 113 268q113 104 283 104q169 0 282 -104q115 -103 115 -268q0 -166 -115 -269q-112 -100 -282 -100q-171 0 -283 100q-113 101 -113 269zM319 1092q0 -63 40.5 -106.5t101.5 -43.5q60 0 99.5 43.5t39.5 106.5t-39.5 105t-99.5 42q-61 0 -101.5 -42 t-40.5 -105z" />
<glyph unicode="&#xbb;" horiz-adv-x="1044" d="M20 113l222 399l-222 401h310l209 -383v-34l-209 -383h-310zM506 113l221 399l-221 401h309l209 -383v-34l-209 -383h-309z" />
<glyph unicode="&#xbc;" horiz-adv-x="1695" d="M63 1106v192q217 0 252 136h177v-803h-246v475h-183zM256 0l705 1434h342l-703 -1434h-344zM934 109v196l291 498h315v-477h94v-217h-94v-109h-246v109h-360zM1180 324h118v206l-16 -38z" />
<glyph unicode="&#xbd;" horiz-adv-x="1622" d="M63 1106v192q217 0 252 136h177v-803h-246v475h-183zM256 0l705 1434h342l-703 -1434h-344zM991 530q-3 126 82 205q85 82 221 82q135 0 211 -68t76 -182q0 -125 -113 -229l-122 -111h223v-227h-565v178l245 238q30 26 45 45q41 41 41 84q0 45 -45 45q-53 0 -53 -60h-246 z" />
<glyph unicode="&#xbe;" horiz-adv-x="1826" d="M59 897h244q3 -57 74 -57q57 0 57 53q0 57 -74 57h-79v191h75q22 0 36 13.5t14 33.5q0 37 -44 37q-49 0 -49 -49h-243q0 129 76.5 200.5t211.5 71.5q133 0 213 -69t80 -179q0 -99 -90 -149q119 -40 119 -170q0 -127 -82 -196t-229 -69t-228.5 73.5t-81.5 207.5zM387 0 l705 1434h342l-703 -1434h-344zM1065 109v196l291 498h315v-477h94v-217h-94v-109h-246v109h-360zM1311 324h119v206l-17 -38z" />
<glyph unicode="&#xbf;" horiz-adv-x="950" d="M31 -18q0 98 29.5 179.5t76.5 131.5q23 25 66 66.5t66 65.5t43 60t20 70v33h334v-49q0 -78 -31.5 -144.5t-83.5 -111.5q-15 -13 -46.5 -40.5t-48.5 -43t-42 -43t-37.5 -49.5t-22.5 -52.5t-10 -62.5q0 -71 34.5 -108.5t98.5 -37.5q68 0 109 43.5t41 116.5h313 q-6 -194 -137 -307q-133 -115 -320 -115q-192 0 -323 107q-129 108 -129 291zM306 881q0 79 56 133q57 54 137.5 54t135.5 -54t55 -133t-55 -133t-135.5 -54t-137.5 54q-56 54 -56 133z" />
<glyph unicode="&#xc0;" d="M25 0l540 1434h398l540 -1434h-381l-96 270h-524l-96 -270h-381zM307 1767h441l184 -262h-314zM610 571h308l-127 361l-27 84l-27 -84z" />
<glyph unicode="&#xc1;" d="M25 0l540 1434h398l540 -1434h-381l-96 270h-524l-96 -270h-381zM571 1505l185 262h440l-311 -262h-314zM610 571h308l-127 361l-27 84l-27 -84z" />
<glyph unicode="&#xc2;" d="M25 0l540 1434h398l540 -1434h-381l-96 270h-524l-96 -270h-381zM344 1503l332 283h176l332 -283h-334l-86 99l-86 -99h-334zM610 571h308l-127 361l-27 84l-27 -84z" />
<glyph unicode="&#xc3;" d="M25 0l540 1434h398l540 -1434h-381l-96 270h-524l-96 -270h-381zM389 1499q0 150 60 233t180 83q47 0 83 -13t57 -31.5t38.5 -36.5t39 -31t48.5 -13q61 0 61 106h185q0 -150 -59.5 -232.5t-178.5 -82.5q-48 0 -84.5 13t-57.5 31.5t-38.5 36.5t-39 31t-48.5 13 q-62 0 -62 -107h-184zM610 571h308l-127 361l-27 84l-27 -84z" />
<glyph unicode="&#xc4;" d="M25 0l540 1434h398l540 -1434h-381l-96 270h-524l-96 -270h-381zM367 1659q0 72 50 120t122 48q74 0 124 -48t50 -120t-50 -120t-124 -48q-72 0 -122 48t-50 120zM610 571h308l-127 361l-27 84l-27 -84zM815 1659q0 72 50 120t122 48q74 0 124 -48t50 -120t-50 -120 t-124 -48q-72 0 -122 48t-50 120z" />
<glyph unicode="&#xc5;" d="M25 0l540 1434h398l540 -1434h-381l-96 270h-524l-96 -270h-381zM537 1704q0 98 63.5 160.5t163.5 62.5q102 0 164.5 -62t62.5 -161q0 -95 -64 -158t-163 -63t-163 63t-64 158zM610 571h308l-127 361l-27 84l-27 -84zM694 1704q0 -27 20 -48.5t50 -21.5t50 21.5t20 48.5 q0 31 -20 52.5t-50 21.5t-50 -21.5t-20 -52.5z" />
<glyph unicode="&#xc6;" horiz-adv-x="2002" d="M10 0l895 1434h1010v-330h-500v-205h424v-330h-424v-239h500v-330h-854v270h-463l-170 -270h-418zM782 571h279v461l-47 -92z" />
<glyph unicode="&#xc7;" horiz-adv-x="1523" d="M70 719q0 324 202 532q203 209 521 209q270 0 441.5 -137t233.5 -379h-387q-37 98 -104 142t-184 44q-159 0 -258 -114q-97 -117 -97 -297q0 -184 99 -301q100 -115 260 -115q239 0 309 205h369q-55 -246 -209.5 -383t-407.5 -150l-14 -69q80 -8 126 -54t46 -120 q0 -95 -65.5 -149t-170.5 -54q-113 0 -190 59l90 133q37 -43 90 -43q55 0 55 52q0 53 -65 53q-24 0 -45 -8l-31 8l41 194q-288 21 -473 230q-182 206 -182 512z" />
<glyph unicode="&#xc8;" horiz-adv-x="1075" d="M131 1767h440l185 -262h-314zM133 0v1434h854v-330h-500v-205h424v-330h-424v-239h500v-330h-854z" />
<glyph unicode="&#xc9;" horiz-adv-x="1075" d="M133 0v1434h854v-330h-500v-205h424v-330h-424v-239h500v-330h-854zM395 1505l185 262h440l-311 -262h-314z" />
<glyph unicode="&#xca;" horiz-adv-x="1075" d="M133 0v1434h854v-330h-500v-205h424v-330h-424v-239h500v-330h-854zM147 1503l332 283h176l332 -283h-334l-86 99l-86 -99h-334z" />
<glyph unicode="&#xcb;" horiz-adv-x="1075" d="M133 0v1434h854v-330h-500v-205h424v-330h-424v-239h500v-330h-854zM166 1659q0 72 50 120t122 48q74 0 124 -48t50 -120t-50 -120t-124 -48q-72 0 -122 48t-50 120zM614 1659q0 72 50 120t122 48q74 0 124.5 -48t50.5 -120t-50.5 -120t-124.5 -48q-72 0 -122 48t-50 120 z" />
<glyph unicode="&#xcc;" horiz-adv-x="620" d="M-147 1767h440l184 -262h-313zM133 0v1434h354v-1434h-354z" />
<glyph unicode="&#xcd;" horiz-adv-x="620" d="M117 1505l184 262h440l-311 -262h-313zM133 0v1434h354v-1434h-354z" />
<glyph unicode="&#xce;" horiz-adv-x="620" d="M-111 1503l332 283h176l332 -283h-334l-86 99l-86 -99h-334zM133 0v1434h354v-1434h-354z" />
<glyph unicode="&#xcf;" horiz-adv-x="620" d="M-88 1659q0 72 50 120t122 48q74 0 124 -48t50 -120t-50 -120t-124 -48q-72 0 -122 48t-50 120zM133 0v1434h354v-1434h-354zM360 1659q0 72 50 120t122 48q74 0 124.5 -48t50.5 -120t-50.5 -120t-124.5 -48q-72 0 -122 48t-50 120z" />
<glyph unicode="&#xd0;" d="M20 635v237h134v562h553q339 0 546 -201q205 -199 205 -516q0 -319 -205 -518t-546 -199h-553v635h-134zM508 330h199q189 0 286 99t97 288t-97 288t-286 99h-199v-232h151v-237h-151v-305z" />
<glyph unicode="&#xd1;" d="M133 0v1434h354l496 -752l57 -102v854h355v-1434h-355l-497 743l-56 101v-844h-354zM389 1499q0 150 60 233t180 83q47 0 83 -13t57 -31.5t38.5 -36.5t39 -31t48.5 -13q61 0 61 106h185q0 -150 -59.5 -232.5t-178.5 -82.5q-48 0 -84.5 13t-57.5 31.5t-38.5 36.5t-39 31 t-48.5 13q-62 0 -62 -107h-184z" />
<glyph unicode="&#xd2;" horiz-adv-x="1642" d="M70 719q0 324 211 532q212 209 540 209q329 0 541 -209q211 -208 211 -532q0 -326 -211 -537q-212 -209 -541 -209q-328 0 -540 209q-211 211 -211 537zM367 1788h440l184 -262h-313zM438 719q0 -183 103 -301q106 -115 280 -115q176 0 279 115q104 116 104 301 q0 184 -104 297q-102 114 -279 114q-175 0 -280 -114q-103 -115 -103 -297z" />
<glyph unicode="&#xd3;" horiz-adv-x="1642" d="M70 719q0 324 211 532q212 209 540 209q329 0 541 -209q211 -208 211 -532q0 -326 -211 -537q-212 -209 -541 -209q-328 0 -540 209q-211 211 -211 537zM438 719q0 -183 103 -301q106 -115 280 -115q176 0 279 115q104 116 104 301q0 184 -104 297q-102 114 -279 114 q-175 0 -280 -114q-103 -115 -103 -297zM631 1526l184 262h440l-311 -262h-313z" />
<glyph unicode="&#xd4;" horiz-adv-x="1642" d="M70 719q0 324 211 532q212 209 540 209q329 0 541 -209q211 -208 211 -532q0 -326 -211 -537q-212 -209 -541 -209q-328 0 -540 209q-211 211 -211 537zM403 1524l332 282h176l332 -282h-334l-86 98l-86 -98h-334zM438 719q0 -183 103 -301q106 -115 280 -115 q176 0 279 115q104 116 104 301q0 184 -104 297q-102 114 -279 114q-175 0 -280 -114q-103 -115 -103 -297z" />
<glyph unicode="&#xd5;" horiz-adv-x="1642" d="M70 719q0 324 211 532q212 209 540 209q329 0 541 -209q211 -208 211 -532q0 -326 -211 -537q-212 -209 -541 -209q-328 0 -540 209q-211 211 -211 537zM438 719q0 -183 103 -301q106 -115 280 -115q176 0 279 115q104 116 104 301q0 184 -104 297q-102 114 -279 114 q-175 0 -280 -114q-103 -115 -103 -297zM449 1520q0 150 59.5 232.5t179.5 82.5q47 0 83 -13t57 -31.5t38.5 -36.5t39 -31t48.5 -13q62 0 62 107h184q0 -150 -59 -233t-178 -83q-48 0 -84.5 13t-58 31.5t-39 36.5t-39 31t-48.5 13q-61 0 -61 -106h-184z" />
<glyph unicode="&#xd6;" horiz-adv-x="1642" d="M70 719q0 324 211 532q212 209 540 209q329 0 541 -209q211 -208 211 -532q0 -326 -211 -537q-212 -209 -541 -209q-328 0 -540 209q-211 211 -211 537zM426 1679q0 72 50 120t122 48q74 0 124 -48t50 -120t-50 -120t-124 -48q-72 0 -122 48t-50 120zM438 719 q0 -183 103 -301q106 -115 280 -115q176 0 279 115q104 116 104 301q0 184 -104 297q-102 114 -279 114q-175 0 -280 -114q-103 -115 -103 -297zM874 1679q0 72 50 120t123 48q74 0 124 -48t50 -120t-50 -120t-124 -48q-73 0 -123 48t-50 120z" />
<glyph unicode="&#xd7;" horiz-adv-x="917" d="M41 928l207 207l211 -211l211 211l207 -207l-211 -211l208 -209l-206 -207l-209 209l-209 -209l-207 207l209 209z" />
<glyph unicode="&#xd8;" horiz-adv-x="1642" d="M70 719q0 324 211 532q212 209 540 209q144 0 266 -43l115 189l242 -127l-119 -195q248 -211 248 -565q0 -326 -211 -537q-212 -209 -541 -209q-140 0 -268 41l-115 -188l-241 127l118 197q-245 211 -245 569zM438 719q0 -150 68 -256l401 659q-47 8 -86 8 q-175 0 -280 -114q-103 -115 -103 -297zM733 311q36 -8 88 -8q176 0 279 115q104 116 104 301q0 149 -69 252z" />
<glyph unicode="&#xd9;" horiz-adv-x="1427" d="M117 584v850h354v-850q0 -281 244 -281q241 0 241 281v850h355v-850q0 -289 -155 -450t-441 -161t-442 161t-156 450zM256 1767h440l185 -262h-314z" />
<glyph unicode="&#xda;" horiz-adv-x="1427" d="M117 584v850h354v-850q0 -281 244 -281q241 0 241 281v850h355v-850q0 -289 -155 -450t-441 -161t-442 161t-156 450zM520 1505l185 262h440l-311 -262h-314z" />
<glyph unicode="&#xdb;" horiz-adv-x="1427" d="M117 584v850h354v-850q0 -281 244 -281q241 0 241 281v850h355v-850q0 -289 -155 -450t-441 -161t-442 161t-156 450zM293 1503l332 283h176l332 -283h-334l-86 99l-86 -99h-334z" />
<glyph unicode="&#xdc;" horiz-adv-x="1427" d="M117 584v850h354v-850q0 -281 244 -281q241 0 241 281v850h355v-850q0 -289 -155 -450t-441 -161t-442 161t-156 450zM315 1659q0 72 50 120t122 48q74 0 124.5 -48t50.5 -120t-50.5 -120t-124.5 -48q-72 0 -122 48t-50 120zM764 1659q0 72 50 120t122 48q74 0 124 -48 t50 -120t-50 -120t-124 -48q-72 0 -122 48t-50 120z" />
<glyph unicode="&#xdd;" horiz-adv-x="1427" d="M12 1434h408l246 -424l47 -97l47 97l248 424h407l-524 -910v-524h-354v524zM520 1505l185 262h440l-311 -262h-314z" />
<glyph unicode="&#xde;" horiz-adv-x="1249" d="M133 0v1434h354v-199h193q234 0 375 -129q141 -126 141 -332q0 -201 -143 -332q-141 -129 -373 -129h-193v-313h-354zM487 643h193q73 0 113.5 34t40.5 97t-40.5 97t-113.5 34h-193v-262z" />
<glyph unicode="&#xdf;" horiz-adv-x="1226" d="M109 0v1038q0 250 125 367t384 117v-314q-69 0 -111 -42.5t-42 -118.5v-3h659v-243l-174 -324q137 -42 214 -160t77 -276q0 -233 -126 -362.5t-359 -129.5q-100 0 -183 17v336q77 -23 148 -23q70 0 114 41.5t44 114.5q0 78 -49 119t-140 41h-96v208l168 338h-297v-741 h-356z" />
<glyph unicode="&#xe0;" horiz-adv-x="1089" d="M74 283q0 148 84 220.5t260 100.5l233 39v33q0 52 -28.5 82t-81.5 30q-50 0 -82.5 -28.5t-32.5 -67.5h-322q14 171 131 273t306 102q205 0 324.5 -100t119.5 -287v-680h-280l-23 117q-103 -140 -283 -140q-144 0 -234.5 83.5t-90.5 222.5zM94 1499h395l209 -323h-272z M406 322q0 -37 24 -59.5t68 -22.5q92 0 135 88q18 38 18 94v24l-149 -28q-96 -18 -96 -96z" />
<glyph unicode="&#xe1;" horiz-adv-x="1089" d="M74 283q0 148 84 220.5t260 100.5l233 39v33q0 52 -28.5 82t-81.5 30q-50 0 -82.5 -28.5t-32.5 -67.5h-322q14 171 131 273t306 102q205 0 324.5 -100t119.5 -287v-680h-280l-23 117q-103 -140 -283 -140q-144 0 -234.5 83.5t-90.5 222.5zM395 1176l209 323h395 l-331 -323h-273zM406 322q0 -37 24 -59.5t68 -22.5q92 0 135 88q18 38 18 94v24l-149 -28q-96 -18 -96 -96z" />
<glyph unicode="&#xe2;" horiz-adv-x="1089" d="M74 283q0 148 84 220.5t260 100.5l233 39v33q0 52 -28.5 82t-81.5 30q-50 0 -82.5 -28.5t-32.5 -67.5h-322q14 171 131 273t306 102q205 0 324.5 -100t119.5 -287v-680h-280l-23 117q-103 -140 -283 -140q-144 0 -234.5 83.5t-90.5 222.5zM135 1176l291 323h258l291 -323 h-324l-96 139l-96 -139h-324zM406 322q0 -37 24 -59.5t68 -22.5q92 0 135 88q18 38 18 94v24l-149 -28q-96 -18 -96 -96z" />
<glyph unicode="&#xe3;" horiz-adv-x="1089" d="M74 283q0 148 84 220.5t260 100.5l233 39v33q0 52 -28.5 82t-81.5 30q-50 0 -82.5 -28.5t-32.5 -67.5h-322q14 171 131 273t306 102q205 0 324.5 -100t119.5 -287v-680h-280l-23 117q-103 -140 -283 -140q-144 0 -234.5 83.5t-90.5 222.5zM180 1184q0 150 60 232.5 t180 82.5q47 0 83 -13t57 -31.5t38.5 -36.5t39 -31t48.5 -13q62 0 62 107h184q0 -150 -59.5 -233t-178.5 -83q-48 0 -84.5 13t-57.5 31.5t-38.5 36.5t-39 31t-48.5 13q-61 0 -61 -106h-185zM406 322q0 -37 24 -59.5t68 -22.5q92 0 135 88q18 38 18 94v24l-149 -28 q-96 -18 -96 -96z" />
<glyph unicode="&#xe4;" horiz-adv-x="1089" d="M74 283q0 148 84 220.5t260 100.5l233 39v33q0 52 -28.5 82t-81.5 30q-50 0 -82.5 -28.5t-32.5 -67.5h-322q14 171 131 273t306 102q205 0 324.5 -100t119.5 -287v-680h-280l-23 117q-103 -140 -283 -140q-144 0 -234.5 83.5t-90.5 222.5zM158 1325q0 72 50 120t122 48 q74 0 124 -48t50 -120t-50 -120t-124 -48q-72 0 -122 48t-50 120zM406 322q0 -37 24 -59.5t68 -22.5q92 0 135 88q18 38 18 94v24l-149 -28q-96 -18 -96 -96zM606 1325q0 72 50 120t122 48q74 0 124 -48t50 -120t-50 -120t-124 -48q-72 0 -122 48t-50 120z" />
<glyph unicode="&#xe5;" horiz-adv-x="1089" d="M74 283q0 148 84 220.5t260 100.5l233 39v33q0 52 -28.5 82t-81.5 30q-50 0 -82.5 -28.5t-32.5 -67.5h-322q14 171 131 273t306 102q205 0 324.5 -100t119.5 -287v-680h-280l-23 117q-103 -140 -283 -140q-144 0 -234.5 83.5t-90.5 222.5zM315 1360q0 103 67 169t173 66 t173 -65.5t67 -169.5q0 -99 -67.5 -165.5t-172.5 -66.5q-104 0 -172 66.5t-68 165.5zM406 322q0 -37 24 -59.5t68 -22.5q92 0 135 88q18 38 18 94v24l-149 -28q-96 -18 -96 -96zM467 1362q0 -37 25.5 -62.5t62.5 -25.5q38 0 63 25.5t25 62.5q5 55 -41.5 78t-93 0t-41.5 -78z " />
<glyph unicode="&#xe6;" horiz-adv-x="1740" d="M74 283q0 148 84 220.5t260 100.5l233 39v27q0 118 -110 118q-48 0 -81.5 -27.5t-33.5 -68.5h-322q17 172 133 273.5t304 101.5q202 0 321 -98q137 98 320 98q227 0 359 -142t132 -411v-82h-676q5 -77 57.5 -127.5t137.5 -50.5q131 0 158 84h321q-102 -361 -487 -361 q-258 0 -402 164q-78 -84 -161.5 -124t-202.5 -40q-156 0 -250 82.5t-94 223.5zM406 322q0 -37 24 -59.5t68 -22.5q88 0 135 86q18 38 18 92v28l-151 -28q-94 -18 -94 -96zM997 635h340q-5 76 -49 122t-117 46q-75 0 -122 -46.5t-52 -121.5z" />
<glyph unicode="&#xe7;" horiz-adv-x="1161" d="M63 520q0 240 150 393q151 154 387 154q206 0 337.5 -109.5t154.5 -314.5h-318q-41 121 -168 121q-85 0 -140.5 -68t-55.5 -176q0 -105 57 -172t147 -67q62 0 106 34t56 86h322q-30 -186 -144.5 -293.5t-287.5 -125.5l-17 -76q80 -8 126 -54t46 -120q0 -95 -65 -149 t-170 -54q-114 0 -191 59l90 133q37 -43 90 -43q56 0 56 52q0 53 -66 53q-24 0 -45 -8l-31 8l41 199q-208 21 -337 165q-130 145 -130 373z" />
<glyph unicode="&#xe8;" horiz-adv-x="1153" d="M63 520q0 239 148 393t383 154q227 0 359 -142t132 -411v-82h-675q5 -77 57 -127.5t137 -50.5q131 0 158 84h321q-102 -361 -487 -361q-239 0 -387 148q-146 152 -146 395zM127 1499h395l209 -323h-272zM410 635h340q-5 76 -49 122t-117 46q-75 0 -122 -46.5t-52 -121.5z " />
<glyph unicode="&#xe9;" horiz-adv-x="1153" d="M63 520q0 239 148 393t383 154q227 0 359 -142t132 -411v-82h-675q5 -77 57 -127.5t137 -50.5q131 0 158 84h321q-102 -361 -487 -361q-239 0 -387 148q-146 152 -146 395zM410 635h340q-5 76 -49 122t-117 46q-75 0 -122 -46.5t-52 -121.5zM428 1176l209 323h395 l-332 -323h-272z" />
<glyph unicode="&#xea;" horiz-adv-x="1153" d="M63 520q0 239 148 393t383 154q227 0 359 -142t132 -411v-82h-675q5 -77 57 -127.5t137 -50.5q131 0 158 84h321q-102 -361 -487 -361q-239 0 -387 148q-146 152 -146 395zM168 1176l291 323h258l291 -323h-324l-96 139l-96 -139h-324zM410 635h340q-5 76 -49 122 t-117 46q-75 0 -122 -46.5t-52 -121.5z" />
<glyph unicode="&#xeb;" horiz-adv-x="1153" d="M63 520q0 239 148 393t383 154q227 0 359 -142t132 -411v-82h-675q5 -77 57 -127.5t137 -50.5q131 0 158 84h321q-102 -361 -487 -361q-239 0 -387 148q-146 152 -146 395zM190 1325q0 72 50 120t122 48q74 0 124.5 -48t50.5 -120t-50.5 -120t-124.5 -48q-72 0 -122 48 t-50 120zM410 635h340q-5 76 -49 122t-117 46q-75 0 -122 -46.5t-52 -121.5zM639 1325q0 72 50 120t122 48q74 0 124 -48t50 -120t-50 -120t-124 -48q-72 0 -122 48t-50 120z" />
<glyph unicode="&#xec;" horiz-adv-x="591" d="M-166 1499h395l209 -323h-272zM129 0v1044h334v-1044h-334z" />
<glyph unicode="&#xed;" horiz-adv-x="591" d="M129 0v1044h334v-1044h-334zM135 1176l209 323h395l-331 -323h-273z" />
<glyph unicode="&#xee;" horiz-adv-x="591" d="M-125 1176l291 323h258l291 -323h-324l-96 139l-96 -139h-324zM129 0v1044h334v-1044h-334z" />
<glyph unicode="&#xef;" horiz-adv-x="591" d="M-102 1325q0 72 50 120t122 48q74 0 124 -48t50 -120t-50 -120t-124 -48q-72 0 -122 48t-50 120zM129 0v1044h334v-1044h-334zM346 1325q0 72 50 120t122 48q74 0 124 -48t50 -120t-50 -120t-124 -48q-72 0 -122 48t-50 120z" />
<glyph unicode="&#xf0;" horiz-adv-x="1193" d="M72 479q0 199 116 330q122 134 308 164l-74 104h-299v217h147l-141 201h401l138 -201h286v-217h-137l197 -282q108 -159 108 -316q0 -225 -151 -364q-150 -138 -375 -138t-375 138q-149 137 -149 364zM408 481q0 -94 52 -152.5t136 -58.5q85 0 138.5 59.5t53.5 151.5 q0 78 -38 133l-11 15q-53 59 -143 59q-85 0 -136.5 -57t-51.5 -150z" />
<glyph unicode="&#xf1;" horiz-adv-x="1189" d="M129 0v1044h283l26 -131q86 154 273 154q163 0 249.5 -101t86.5 -286v-680h-334v598q0 143 -111 143q-139 0 -139 -194v-547h-334zM225 1184q0 150 60 232.5t180 82.5q47 0 83 -13t57 -31.5t38.5 -36.5t39 -31t48.5 -13q62 0 62 107h184q0 -150 -59.5 -233t-178.5 -83 q-48 0 -84.5 13t-57.5 31.5t-38.5 36.5t-39 31t-48.5 13q-61 0 -61 -106h-185z" />
<glyph unicode="&#xf2;" horiz-adv-x="1249" d="M63 522q0 242 160 393q161 152 400 152q240 0 401 -152q162 -149 162 -393t-162 -393q-161 -152 -401 -152q-239 0 -400 152q-160 151 -160 393zM164 1499h395l209 -323h-272zM410 524q0 -103 59 -174q60 -69 156 -69t153 69q62 71 62 174q0 104 -62 172q-59 68 -153 68 t-156 -68q-59 -68 -59 -172z" />
<glyph unicode="&#xf3;" horiz-adv-x="1249" d="M63 522q0 242 160 393q161 152 400 152q240 0 401 -152q162 -149 162 -393t-162 -393q-161 -152 -401 -152q-239 0 -400 152q-160 151 -160 393zM410 524q0 -103 59 -174q60 -69 156 -69t153 69q62 71 62 174q0 104 -62 172q-59 68 -153 68t-156 -68q-59 -68 -59 -172z M465 1176l209 323h395l-332 -323h-272z" />
<glyph unicode="&#xf4;" horiz-adv-x="1249" d="M63 522q0 242 160 393q161 152 400 152q240 0 401 -152q162 -149 162 -393t-162 -393q-161 -152 -401 -152q-239 0 -400 152q-160 151 -160 393zM205 1176l291 323h258l290 -323h-323l-96 139l-97 -139h-323zM410 524q0 -103 59 -174q60 -69 156 -69t153 69q62 71 62 174 q0 104 -62 172q-59 68 -153 68t-156 -68q-59 -68 -59 -172z" />
<glyph unicode="&#xf5;" horiz-adv-x="1249" d="M63 522q0 242 160 393q161 152 400 152q240 0 401 -152q162 -149 162 -393t-162 -393q-161 -152 -401 -152q-239 0 -400 152q-160 151 -160 393zM250 1184q0 150 59.5 232.5t179.5 82.5q47 0 83 -13t57 -31.5t39 -36.5t39.5 -31t48.5 -13q61 0 61 107h184 q0 -150 -59 -233t-178 -83q-48 0 -84.5 13t-57.5 31.5t-38.5 36.5t-39 31t-48.5 13q-62 0 -62 -106h-184zM410 524q0 -103 59 -174q60 -69 156 -69t153 69q62 71 62 174q0 104 -62 172q-59 68 -153 68t-156 -68q-59 -68 -59 -172z" />
<glyph unicode="&#xf6;" horiz-adv-x="1249" d="M63 522q0 242 160 393q161 152 400 152q240 0 401 -152q162 -149 162 -393t-162 -393q-161 -152 -401 -152q-239 0 -400 152q-160 151 -160 393zM227 1325q0 72 50 120t122 48q74 0 124 -48t50 -120t-50 -120t-124 -48q-72 0 -122 48t-50 120zM410 524q0 -103 59 -174 q60 -69 156 -69t153 69q62 71 62 174q0 104 -62 172q-59 68 -153 68t-156 -68q-59 -68 -59 -172zM676 1325q0 72 50 120t122 48q74 0 124 -48t50 -120t-50 -120t-124 -48q-72 0 -122 48t-50 120z" />
<glyph unicode="&#xf7;" horiz-adv-x="966" d="M61 569v293h844v-293h-844zM278 309q0 79 56 133t135.5 54t134.5 -54q57 -54 57 -133t-57 -133q-56 -54 -135 -54t-135 54t-56 133zM278 1122q0 79 56 133q55 54 135 54t135 -54q57 -54 57 -133t-57 -133q-56 -54 -135.5 -54t-134.5 54q-56 54 -56 133z" />
<glyph unicode="&#xf8;" horiz-adv-x="1249" d="M63 522q0 242 160 393q161 152 400 152q92 0 190 -29l98 181l142 -68l-97 -180q230 -155 230 -449q0 -244 -162 -393q-161 -152 -401 -152q-91 0 -185 27l-96 -182l-141 67l96 181q-111 69 -172.5 187t-61.5 265zM410 524q0 -92 45 -157l211 393q-36 4 -41 4 q-94 0 -154.5 -68t-60.5 -172zM588 283q8 -2 37 -2q93 0 154 69t61 174q0 86 -43 150z" />
<glyph unicode="&#xf9;" horiz-adv-x="1157" d="M117 365v679h334v-598q0 -143 108 -143q62 0 98.5 49t36.5 146v546h334v-1044h-283l-26 131q-86 -154 -268 -154q-163 0 -248.5 101.5t-85.5 286.5zM121 1499h395l209 -323h-272z" />
<glyph unicode="&#xfa;" horiz-adv-x="1157" d="M117 365v679h334v-598q0 -143 108 -143q62 0 98.5 49t36.5 146v546h334v-1044h-283l-26 131q-86 -154 -268 -154q-163 0 -248.5 101.5t-85.5 286.5zM422 1176l209 323h395l-332 -323h-272z" />
<glyph unicode="&#xfb;" horiz-adv-x="1157" d="M117 365v679h334v-598q0 -143 108 -143q62 0 98.5 49t36.5 146v546h334v-1044h-283l-26 131q-86 -154 -268 -154q-163 0 -248.5 101.5t-85.5 286.5zM152 1176l290 323h258l291 -323h-323l-97 139l-96 -139h-323z" />
<glyph unicode="&#xfc;" horiz-adv-x="1157" d="M117 365v679h334v-598q0 -143 108 -143q62 0 98.5 49t36.5 146v546h334v-1044h-283l-26 131q-86 -154 -268 -154q-163 0 -248.5 101.5t-85.5 286.5zM176 1325q0 72 50 120t122 48q74 0 124 -48t50 -120t-50 -120t-124 -48q-72 0 -122 48t-50 120zM625 1325q0 72 50 120 t122 48q74 0 124 -48t50 -120t-50 -120t-124 -48q-72 0 -122 48t-50 120z" />
<glyph unicode="&#xfd;" horiz-adv-x="1091" d="M8 1044h361l151 -559l19 -100l20 100l152 559h360l-510 -1484h-346l147 452zM379 1176l209 323h395l-332 -323h-272z" />
<glyph unicode="&#xfe;" horiz-adv-x="1300" d="M129 -440v1935h334v-545q91 117 287 117q202 0 342 -158q141 -156 141 -387t-141 -387q-140 -158 -342 -158q-196 0 -287 117v-534h-334zM455 510q0 -100 64 -159.5t155 -59.5q90 0 151.5 64t61.5 167t-61.5 167.5t-151.5 64.5q-89 0 -153.5 -59.5t-65.5 -159.5v-25z" />
<glyph unicode="&#xff;" horiz-adv-x="1091" d="M8 1044h361l151 -559l19 -100l20 100l152 559h360l-510 -1484h-346l147 452zM141 1325q0 72 50 120t122 48q74 0 124 -48t50 -120t-50 -120t-124 -48q-72 0 -122 48t-50 120zM590 1325q0 72 50 120t122 48q74 0 124 -48t50 -120t-50 -120t-124 -48q-72 0 -122 48t-50 120 z" />
<glyph unicode="&#x152;" horiz-adv-x="2183" d="M86 719q0 324 211 532q212 209 541 209q214 0 383 -106v80h854v-330h-500v-205h424v-330h-424v-239h500v-330h-854v78q-169 -105 -383 -105q-329 0 -541 209q-211 211 -211 537zM455 719q0 -184 102 -301q106 -115 281 -115t278 115q105 117 105 301q0 183 -105 297 q-102 114 -278 114t-281 -114q-102 -114 -102 -297z" />
<glyph unicode="&#x153;" horiz-adv-x="1929" d="M63 522q0 242 160 393q161 152 400 152q227 0 383 -135q147 135 364 135q227 0 359.5 -142t132.5 -411v-82h-676q5 -77 57 -127.5t137 -50.5q131 0 158 84h322q-102 -361 -488 -361q-227 0 -371 132q-153 -132 -378 -132q-239 0 -400 152q-160 151 -160 393zM410 524 q0 -103 59 -174q60 -69 156 -69q93 0 154 69t61 174v11q-5 101 -64 165t-151 64q-94 0 -156 -68q-59 -68 -59 -172zM1186 635h340q-5 76 -49 122t-117 46q-75 0 -122 -46.5t-52 -121.5z" />
<glyph unicode="&#x178;" horiz-adv-x="1427" d="M12 1434h408l246 -424l47 -97l47 97l248 424h407l-524 -910v-524h-354v524zM315 1659q0 72 50 120t122 48q74 0 124.5 -48t50.5 -120t-50.5 -120t-124.5 -48q-72 0 -122 48t-50 120zM764 1659q0 72 50 120t122 48q74 0 124 -48t50 -120t-50 -120t-124 -48q-72 0 -122 48 t-50 120z" />
<glyph unicode="&#x2c6;" horiz-adv-x="880" d="M20 1176l291 323h258l291 -323h-323l-97 139l-96 -139h-324z" />
<glyph unicode="&#x2dc;" horiz-adv-x="792" d="M20 1184q0 150 60 232.5t180 82.5q47 0 83 -13t57 -31.5t38.5 -36.5t39 -31t48.5 -13q62 0 62 107h184q0 -150 -59 -233t-178 -83q-48 0 -84.5 13t-58 31.5t-39 36.5t-39 31t-48.5 13q-61 0 -61 -106h-185z" />
<glyph unicode="&#x2000;" horiz-adv-x="963" />
<glyph unicode="&#x2001;" horiz-adv-x="1927" />
<glyph unicode="&#x2002;" horiz-adv-x="963" />
<glyph unicode="&#x2003;" horiz-adv-x="1927" />
<glyph unicode="&#x2004;" horiz-adv-x="642" />
<glyph unicode="&#x2005;" horiz-adv-x="481" />
<glyph unicode="&#x2006;" horiz-adv-x="321" />
<glyph unicode="&#x2007;" horiz-adv-x="321" />
<glyph unicode="&#x2008;" horiz-adv-x="240" />
<glyph unicode="&#x2009;" horiz-adv-x="385" />
<glyph unicode="&#x200a;" horiz-adv-x="107" />
<glyph unicode="&#x2010;" horiz-adv-x="747" d="M51 385v293h645v-293h-645z" />
<glyph unicode="&#x2011;" horiz-adv-x="747" d="M51 385v293h645v-293h-645z" />
<glyph unicode="&#x2012;" horiz-adv-x="747" d="M51 385v293h645v-293h-645z" />
<glyph unicode="&#x2013;" horiz-adv-x="1054" d="M51 385v293h953v-293h-953z" />
<glyph unicode="&#x2014;" horiz-adv-x="1443" d="M51 385v293h1342v-293h-1342z" />
<glyph unicode="&#x2018;" horiz-adv-x="485" d="M55 1130q0 100 51.5 212.5t135.5 205.5l90 -30q-44 -104 -56 -236q68 -11 111 -58t43 -114q0 -75 -54 -128.5t-132 -53.5q-81 0 -135 55.5t-54 146.5z" />
<glyph unicode="&#x2019;" horiz-adv-x="485" d="M55 1346q0 75 54.5 128.5t132.5 53.5q81 0 134.5 -56t53.5 -147q0 -100 -51 -212.5t-135 -205.5l-90 31q43 101 55 236q-68 11 -111 58t-43 114z" />
<glyph unicode="&#x201a;" horiz-adv-x="485" d="M55 164q0 75 54.5 128.5t132.5 53.5q81 0 134.5 -56t53.5 -147q0 -100 -51 -212t-135 -205l-90 30q43 101 55 236q-68 11 -111 58t-43 114z" />
<glyph unicode="&#x201c;" horiz-adv-x="970" d="M55 1130q0 100 51.5 212.5t135.5 205.5l90 -30q-44 -104 -56 -236q68 -11 111 -58t43 -114q0 -75 -54 -128.5t-132 -53.5q-81 0 -135 55.5t-54 146.5zM541 1130q0 100 51 212.5t135 205.5l90 -30q-43 -101 -55 -236q68 -11 110.5 -58t42.5 -114q0 -75 -54 -128.5 t-132 -53.5q-81 0 -134.5 55.5t-53.5 146.5z" />
<glyph unicode="&#x201d;" horiz-adv-x="970" d="M55 1346q0 75 54.5 128.5t132.5 53.5q81 0 134.5 -56t53.5 -147q0 -100 -51 -212.5t-135 -205.5l-90 31q43 101 55 236q-68 11 -111 58t-43 114zM541 1346q0 75 54 128.5t132 53.5q81 0 134.5 -56t53.5 -147q0 -100 -51 -212.5t-135 -205.5l-90 31q43 101 55 236 q-68 11 -110.5 58t-42.5 114z" />
<glyph unicode="&#x201e;" horiz-adv-x="970" d="M55 164q0 75 54.5 128.5t132.5 53.5q81 0 134.5 -56t53.5 -147q0 -100 -51 -212t-135 -205l-90 30q43 101 55 236q-68 11 -111 58t-43 114zM541 164q0 75 54 128.5t132 53.5q81 0 134.5 -56t53.5 -147q0 -100 -51 -212t-135 -205l-90 30q43 101 55 236q-68 11 -110.5 58 t-42.5 114z" />
<glyph unicode="&#x2022;" horiz-adv-x="727" d="M74 530q0 125 82 207q84 84 206 84q123 0 207 -84t84 -207q0 -122 -84 -206q-82 -82 -207 -82q-124 0 -206 82t-82 206z" />
<glyph unicode="&#x2026;" horiz-adv-x="1538" d="M50 164q0 79 56 133t136 54t135 -54q57 -54 57 -133t-57 -133q-55 -54 -135 -54t-136 54t-56 133zM578 164q0 79 55 133t134.5 54t135.5 -54q57 -54 57 -133t-57 -133q-55 -54 -135 -54t-135 54t-55 133zM1104 164q0 79 55 133t135 54t136 -54q57 -54 57 -133t-57 -133 q-56 -54 -136 -54t-135 54t-55 133z" />
<glyph unicode="&#x202f;" horiz-adv-x="385" />
<glyph unicode="&#x2039;" horiz-adv-x="620" d="M20 496v34l271 383h309l-283 -401l283 -399h-309z" />
<glyph unicode="&#x203a;" horiz-adv-x="620" d="M20 113l283 399l-283 401h310l270 -383v-34l-270 -383h-310z" />
<glyph unicode="&#x205f;" horiz-adv-x="481" />
<glyph unicode="&#x20ac;" horiz-adv-x="1323" d="M31 422v237h123v60q0 49 2 63h-125v238h159q60 210 201.5 325t343.5 115q243 0 382 -131.5t175 -382.5h-379q-18 184 -182 184q-106 0 -164 -110h197v-238h-252q-2 -14 -2 -63v-60h254v-237h-201q58 -119 168 -119q79 0 126.5 48t55.5 136h379q-89 -514 -557 -514 q-204 0 -346 117.5t-199 331.5h-159z" />
<glyph unicode="&#x2122;" horiz-adv-x="1296" d="M47 1243v191h445v-191h-121v-383h-205v383h-119zM561 860v574h246l84 -279l6 -33l6 33l84 279h246v-574h-205v232l-18 -70l-43 -162h-140l-43 162l-18 70v-232h-205z" />
<glyph unicode="&#x25fc;" horiz-adv-x="1044" d="M0 0v1044h1044v-1044h-1044z" />
</font>
</defs>
</svg>
