<?xml version="1.0" standalone="no"?>
<!DOCTYPE svg PUBLIC "-//W3C//DTD SVG 1.1//EN" "http://www.w3.org/Graphics/SVG/1.1/DTD/svg11.dtd" >
<svg xmlns="http://www.w3.org/2000/svg" xmlns:xlink="http://www.w3.org/1999/xlink" version="1.1">
<metadata></metadata>
<defs>
<font id="larsseitlight_italic" horiz-adv-x="471" >
<font-face units-per-em="2048" ascent="1638" descent="-410" />
<missing-glyph horiz-adv-x="432" />
<glyph unicode="&#xfb01;" horiz-adv-x="1105" d="M98 909l21 119h209l32 184q25 140 106 218.5t202 78.5q88 0 133 -26l-21 -119q-52 27 -127 27q-130 0 -164 -181l-32 -182h264l-21 -119h-264l-160 -909h-131l162 909h-209zM713 0l182 1028h129l-182 -1028h-129zM913 1346q1 42 39 75t82 33q38 0 62 -25t22 -63 q-1 -44 -37.5 -77.5t-81.5 -33.5q-38 0 -63 26.5t-23 64.5z" />
<glyph horiz-adv-x="0" />
<glyph horiz-adv-x="682" />
<glyph unicode=" "  horiz-adv-x="432" />
<glyph unicode="&#x09;" horiz-adv-x="432" />
<glyph unicode="&#xa0;" horiz-adv-x="432" />
<glyph unicode="!" d="M72 68q0 53 39.5 91t91.5 38q41 0 67.5 -25.5t26.5 -62.5q0 -53 -39.5 -92.5t-91.5 -39.5q-43 0 -68.5 25t-25.5 66zM172 395l184 1039h129l-182 -1039h-131z" />
<glyph unicode="&#x22;" horiz-adv-x="589" d="M195 1061l61 409h133l-104 -409h-90zM483 1061l62 409h133l-105 -409h-90z" />
<glyph unicode="#" horiz-adv-x="1323" d="M23 410l22 120h289l149 428h-270l20 119h293l125 357h133l-125 -357h340l125 357h133l-124 -357h268l-21 -119h-290l-150 -428h272l-22 -120h-293l-143 -410h-133l143 410h-340l-143 -410h-134l144 410h-268zM467 530h340l149 428h-340z" />
<glyph unicode="$" horiz-adv-x="1093" d="M88 414h137q-29 -139 26.5 -221.5t180.5 -94.5l105 584q-154 65 -223.5 146t-69.5 208q0 162 121 289q123 126 309 135l31 174h112l-33 -182q138 -24 206 -124.5t48 -260.5h-137q38 221 -139 262l-98 -559q165 -77 236 -157t71 -199q0 -174 -127 -301 q-126 -123 -320 -138l-30 -174h-113l31 176q-182 17 -267.5 133.5t-56.5 303.5zM381 1044q0 -78 41 -128t137 -99l92 518q-117 -13 -193.5 -95.5t-76.5 -195.5zM547 100q119 21 203 105q81 81 81 198q0 74 -44.5 128t-145.5 104z" />
<glyph unicode="%" horiz-adv-x="1679" d="M180 1051q0 160 115 284q113 125 283 125q124 0 203 -81.5t79 -209.5q0 -165 -112 -286q-114 -123 -281 -123q-129 0 -208 81t-79 210zM238 0l1155 1434h157l-1157 -1434h-155zM295 1055q0 -82 49.5 -133.5t130.5 -51.5q115 0 191 88q79 88 79 209q0 82 -48.5 132.5 t-129.5 50.5q-110 0 -192 -88q-80 -89 -80 -207zM918 264q0 164 114 287t285 123q123 0 202.5 -82t79.5 -209q0 -164 -114 -287t-281 -123q-127 0 -206.5 81.5t-79.5 209.5zM1032 268q0 -83 49 -133.5t133 -50.5q115 0 191 88q80 89 80 209q0 82 -49 132t-131 50 q-109 0 -191 -88t-82 -207z" />
<glyph unicode="&#x26;" horiz-adv-x="1255" d="M61 319q0 145 87 248t270 203l33 18l-25 35q-98 134 -98 269q0 161 106 264q107 104 281 104q129 0 208 -74.5t78 -197.5q0 -157 -114 -260q-50 -45 -109 -86q-72 -44 -137 -80l-8 -6l274 -381q43 94 54 188q21 94 18 182l131 21q6 -99 -23 -229q-28 -159 -102 -273 l191 -264h-160l-113 156q-174 -183 -424 -183q-196 0 -307 93t-111 253zM197 324q0 -232 286 -232q210 0 348 164l-313 436l-29 -16q-56 -33 -102 -62q-44 -28 -90 -69q-100 -87 -100 -221zM461 1094q0 -96 76 -203l28 -41l17 10q69 38 102 60q38 23 84 61q98 78 98 201 q2 74 -40 116.5t-117 42.5q-106 0 -177 -68.5t-71 -178.5z" />
<glyph unicode="'" horiz-adv-x="301" d="M195 1061l61 409h133l-104 -409h-90z" />
<glyph unicode="(" horiz-adv-x="536" d="M100 440q0 589 478 1061l90 -74q-441 -441 -441 -987q0 -301 156 -559l-96 -63q-187 304 -187 622z" />
<glyph unicode=")" horiz-adv-x="536" d="M-98 -111q440 440 440 990q0 292 -156 559l95 61q186 -302 186 -622q0 -590 -477 -1061z" />
<glyph unicode="*" horiz-adv-x="716" d="M137 1223l49 98l236 -84l45 272h108l-49 -268l265 84l22 -104l-272 -82l127 -221l-93 -58l-120 217l-197 -221l-80 68l199 217z" />
<glyph unicode="+" horiz-adv-x="966" d="M84 657l20 119h361l63 363h123l-63 -363h360l-20 -119h-361l-65 -362h-123l63 362h-358z" />
<glyph unicode="," horiz-adv-x="380" d="M-20 -248q74 96 116 232q-35 1 -58.5 24t-23.5 55q0 50 37.5 87.5t85.5 37.5q38 0 63 -25t25 -63q0 -84 -61 -188q-60 -102 -139 -178z" />
<glyph unicode="-" horiz-adv-x="747" d="M49 473l21 117h645l-21 -117h-645z" />
<glyph unicode="." horiz-adv-x="391" d="M8 66q0 54 38.5 92.5t92.5 38.5q41 0 66.5 -26t25.5 -65q0 -53 -39.5 -91t-91.5 -38q-41 0 -66.5 25t-25.5 64z" />
<glyph unicode="/" horiz-adv-x="780" d="M-82 0l879 1434h137l-883 -1434h-133z" />
<glyph unicode="0" horiz-adv-x="1124" d="M100 475q0 353 152 662q75 149 196 236t265 87q171 0 267.5 -134.5t96.5 -367.5q0 -357 -153 -661q-73 -149 -194 -236.5t-265 -87.5q-170 0 -267.5 135t-97.5 367zM236 473q0 -373 241 -373q143 0 256 140q106 135 158.5 324.5t52.5 396.5q0 372 -242 372 q-107 0 -200 -80t-152 -213q-114 -265 -114 -567z" />
<glyph unicode="1" horiz-adv-x="653" d="M178 1155l21 115q171 0 241 30q74 36 113 134h111l-252 -1434h-138l203 1155h-299z" />
<glyph unicode="2" horiz-adv-x="987" d="M35 0l16 100l578 613q117 126 170 223.5t53 210.5q0 186 -205 186q-117 0 -203 -79t-110 -222h-135q35 201 157 311q126 117 301 117q157 0 243.5 -79.5t86.5 -221.5q0 -141 -61.5 -261t-190.5 -255l-483 -516h596l-23 -127h-790z" />
<glyph unicode="3" horiz-adv-x="1073" d="M123 397h137q-28 -147 40 -222t210 -75q139 0 244 97q102 95 102 241q0 117 -87.5 179.5t-252.5 62.5h-29l21 123h27q185 0 289 80.5t104 246.5q0 203 -205 203q-120 0 -205.5 -75.5t-109.5 -217.5h-136q32 199 153.5 309.5t309.5 110.5q151 0 240.5 -90.5t89.5 -232.5 q0 -141 -74 -250.5t-203 -153.5q88 -21 146.5 -102.5t58.5 -194.5q0 -199 -143 -330q-145 -133 -350 -133q-201 0 -302 113.5t-75 310.5z" />
<glyph unicode="4" horiz-adv-x="1071" d="M47 313l23 111l770 1010h143l-174 -996h211l-25 -125h-209l-55 -313h-135l53 313h-602zM229 438h445l135 766l-66 -92z" />
<glyph unicode="5" horiz-adv-x="1081" d="M147 377h136q-24 -138 37.5 -207.5t197.5 -69.5q158 0 260 123q105 123 105 287q0 116 -63.5 180t-184.5 64q-149 0 -275 -72h-118l133 752h737l-22 -127h-603l-86 -484q101 58 263 58q163 0 258.5 -98.5t95.5 -258.5q0 -224 -139 -389q-137 -162 -371 -162 q-193 0 -290 105t-71 299z" />
<glyph unicode="6" horiz-adv-x="1101" d="M121 403q0 266 72 508q73 236 219 394q146 155 340 155q167 0 256 -99t77 -276h-135q18 248 -211 248q-164 0 -284 -176q-121 -177 -170 -457q61 76 158.5 122t205.5 46q168 0 262 -104q97 -105 97 -260q0 -217 -144 -373q-146 -158 -368 -158q-198 0 -301 142 q-74 109 -74 288zM254 362q0 -114 67 -189t185 -75q149 0 258 121q106 118 106 277q0 111 -65.5 179t-177.5 68q-136 0 -256 -108q-117 -108 -117 -273z" />
<glyph unicode="7" horiz-adv-x="974" d="M68 0l819 1307h-668l25 127h833l-16 -107l-836 -1327h-157z" />
<glyph unicode="8" horiz-adv-x="1105" d="M90 328q0 162 90 272q88 111 211 152q-60 29 -97.5 100.5t-37.5 157.5q0 189 133 319q134 131 332 131q153 0 245.5 -93t92.5 -237q0 -153 -80 -256q-74 -99 -172 -141q75 -32 127.5 -109.5t52.5 -181.5q0 -206 -153 -338q-149 -131 -363 -131q-167 0 -274 101t-107 254z M225 332q0 -107 74.5 -170.5t189.5 -63.5q136 0 248 95q113 94 113 247q0 107 -74 172.5t-186 65.5q-139 0 -252 -98q-113 -94 -113 -248zM391 1010q0 -96 60 -151.5t159 -55.5q130 0 221 88q93 90 93 231q0 98 -58.5 155.5t-156.5 57.5q-129 0 -224 -92q-94 -91 -94 -233z " />
<glyph unicode="9" horiz-adv-x="1101" d="M123 348h135q-18 -248 211 -248q166 0 285 174q122 178 168 459q-61 -76 -158.5 -122t-204.5 -46q-167 0 -262 103q-96 107 -96 262q0 218 143 373q145 157 369 157q199 0 301 -141q73 -107 73 -289q0 -273 -73 -508q-70 -235 -219 -393q-144 -156 -338 -156 q-167 0 -256.5 99t-77.5 276zM338 938q0 -111 66 -179.5t178 -68.5q138 0 254 107q118 106 118 274q0 114 -67 189t-185 75q-149 0 -258 -121q-106 -118 -106 -276z" />
<glyph unicode=":" horiz-adv-x="391" d="M8 66q0 53 39.5 92t91.5 39q41 0 66.5 -26t25.5 -65q0 -53 -38.5 -91t-90.5 -38q-41 0 -67.5 25.5t-26.5 63.5zM158 922q0 53 40.5 91t92.5 38q41 0 66.5 -25.5t25.5 -64.5q0 -54 -39.5 -92t-93.5 -38q-41 0 -66.5 26t-25.5 65z" />
<glyph unicode=";" horiz-adv-x="391" d="M-20 -248q74 96 116 232q-35 1 -58.5 24t-23.5 55q0 50 37.5 87.5t85.5 37.5q38 0 63 -25t25 -63q0 -84 -61 -188q-60 -102 -139 -178zM158 920q0 53 40.5 92t92.5 39q41 0 66.5 -26t25.5 -67q0 -53 -39.5 -90t-91.5 -37q-41 0 -67.5 25.5t-26.5 63.5z" />
<glyph unicode="&#x3c;" horiz-adv-x="499" d="M29 504l6 31l364 378h152l-393 -407l243 -393h-129z" />
<glyph unicode="=" horiz-adv-x="966" d="M66 449l18 118h844l-19 -118h-843zM139 868l19 119h843l-18 -119h-844z" />
<glyph unicode="&#x3e;" horiz-adv-x="499" d="M-45 113l393 407l-244 393h129l244 -391l-6 -30l-365 -379h-151z" />
<glyph unicode="?" horiz-adv-x="819" d="M104 1063q35 194 156 299.5t301 105.5q147 0 242 -86q98 -85 98 -233q0 -110 -41 -200.5t-108 -151.5q-33 -30 -92.5 -78t-96 -79t-70 -75t-40.5 -86l-15 -84h-131l19 97q31 142 182 258q109 82 149 123q117 118 117 274q-1 98 -60 152.5t-159 54.5q-130 0 -215.5 -75.5 t-110.5 -215.5h-125zM209 82q6 48 44 81.5t87 33.5q44 0 70.5 -30.5t21.5 -74.5q-8 -47 -46 -81t-85 -34q-44 0 -71 30.5t-21 74.5z" />
<glyph unicode="@" horiz-adv-x="1634" d="M68 348q0 170 66 329t183 279q118 121 284 192t347 71q285 0 451 -172q168 -168 168 -441q3 -134 -39 -259.5t-127 -209t-193 -82.5q-77 0 -125 35t-59 96q-45 -58 -128.5 -96.5t-182.5 -38.5q-150 0 -235 94.5t-83 249.5q0 197 131 346q134 152 332 152 q99 0 166.5 -44.5t89.5 -111.5l27 137h106l-106 -608q-21 -110 80 -110q106 0 170 137q65 139 65 313q0 230 -137 367q-138 141 -379 141q-310 0 -537 -227q-227 -224 -227 -541q-3 -231 133 -373q137 -143 387 -143q157 0 293 59l25 -100q-147 -63 -322 -63 q-289 0 -459 176q-165 174 -165 446zM514 399q-2 -111 55 -174t162 -63q114 0 209 74q97 78 117 206l10 50q26 133 -35.5 212.5t-175.5 79.5q-148 0 -246 -116q-96 -116 -96 -269z" />
<glyph unicode="A" horiz-adv-x="1382" d="M-37 0l838 1434h127l336 -1434h-146l-98 416h-662l-239 -416h-156zM428 545h569l-147 626l-14 76l-39 -76z" />
<glyph unicode="B" horiz-adv-x="1140" d="M76 0l252 1434h358q176 0 280.5 -88.5t104.5 -235.5q0 -236 -225 -362q98 -35 150.5 -110.5t52.5 -178.5q0 -205 -154 -332t-365 -127h-454zM233 127h297q152 0 265 88q116 88 116 242q0 100 -75 157.5t-209 57.5h-297zM350 799h246q134 0 238 84q102 86 102 223 q-1 96 -70 148.5t-192 52.5h-232z" />
<glyph unicode="C" horiz-adv-x="1480" d="M104 590q0 223 109 424t301 323q194 123 420 123q236 0 381.5 -112t183.5 -320h-153q-53 305 -418 305h-12q-129 -1 -252 -61q-129 -64 -222 -166q-92 -103 -148 -239q-52 -127 -52 -255v-18q0 -224 125 -358q127 -136 340 -136q180 0 319 83.5t213 226.5h150 q-206 -437 -687 -437q-272 0 -436 170q-162 171 -162 447z" />
<glyph unicode="D" horiz-adv-x="1488" d="M76 0l252 1434h489q286 0 455 -158q168 -155 168 -428q0 -359 -236 -604q-238 -244 -610 -244h-518zM233 127h371q295 0 496 207q200 206 200 512q0 220 -127.5 340.5t-361.5 120.5h-371z" />
<glyph unicode="E" horiz-adv-x="1034" d="M76 0l252 1434h772l-25 -127h-635l-88 -504h561l-20 -127h-561l-99 -549h635l-20 -127h-772z" />
<glyph unicode="F" horiz-adv-x="972" d="M76 0l252 1434h749l-22 -127h-615l-92 -523h522l-22 -129h-520l-117 -655h-135z" />
<glyph unicode="G" horiz-adv-x="1531" d="M104 590q0 222 107 420q109 201 299 325q192 125 426 125q233 0 380 -114.5t183 -317.5h-153q-24 144 -128.5 224.5t-285.5 80.5q-286 0 -488 -225q-202 -224 -202 -518q0 -223 125 -357q127 -133 329 -133q233 0 391.5 124.5t208.5 361.5h-471l23 129h620l-14 -82 q-58 -313 -254 -486.5t-506 -173.5q-264 0 -428 170q-162 171 -162 447z" />
<glyph unicode="H" horiz-adv-x="1441" d="M76 0l252 1434h135l-111 -629h836l110 629h138l-252 -1434h-137l120 676h-835l-121 -676h-135z" />
<glyph unicode="I" d="M76 0l252 1434h135l-252 -1434h-135z" />
<glyph unicode="J" horiz-adv-x="991" d="M59 414h136q-6 -43 -6 -80q0 -232 221 -232q119 0 195.5 76.5t101.5 222.5l182 1033h135l-184 -1045q-35 -202 -144.5 -308t-285.5 -106q-192 0 -282 118q-73 96 -73 247q0 36 4 74z" />
<glyph unicode="K" horiz-adv-x="1357" d="M76 0l252 1434h135l-150 -846l822 846h182l-612 -633l501 -801h-155l-447 700l-328 -331l-65 -369h-135z" />
<glyph unicode="L" horiz-adv-x="1009" d="M76 0l252 1434h135l-230 -1307h662l-21 -127h-798z" />
<glyph unicode="M" horiz-adv-x="1775" d="M76 0l252 1434h135l338 -1121l26 -98l62 98l735 1121h148l-252 -1434h-138l203 1153l-53 -98l-682 -1055h-105l-311 1055l-20 98l-203 -1153h-135z" />
<glyph unicode="N" horiz-adv-x="1431" d="M76 0l252 1434h125l579 -1119l45 -90l213 1209h135l-251 -1434h-123l-586 1122l-41 84l-213 -1206h-135z" />
<glyph unicode="O" horiz-adv-x="1624" d="M104 594q0 367 252 616q253 250 596 250q283 0 453 -176t170 -446q0 -247 -119 -445q-117 -199 -310.5 -309.5t-416.5 -110.5q-289 0 -457 174t-168 447zM242 596q0 -217 133 -356q134 -140 358 -140q281 0 494 213q211 211 211 525q0 217 -133 356t-355 139 q-286 0 -499 -213q-209 -212 -209 -524z" />
<glyph unicode="P" horiz-adv-x="1071" d="M76 0l252 1434h397q178 0 283.5 -99.5t105.5 -261.5q0 -206 -151 -348q-151 -139 -369 -139h-279l-104 -586h-135zM338 713h262q157 0 266 100q111 99 111 250v8q-1 110 -71 173t-189 63h-277z" />
<glyph unicode="Q" horiz-adv-x="1624" d="M104 594q0 367 252 616q253 250 596 250q283 0 453 -176t170 -446q0 -239 -115 -437q-113 -191 -303 -307l238 -307h-168l-193 246q-160 -60 -305 -60q-289 0 -457 174t-168 447zM242 596q0 -217 133 -356q134 -140 358 -140q113 0 217 37l-209 266h170l166 -208 q165 99 263 269.5t98 373.5q0 217 -133 356t-355 139q-286 0 -499 -213q-209 -212 -209 -524z" />
<glyph unicode="R" horiz-adv-x="1087" d="M100 0l252 1434h350q184 0 292 -100q104 -95 104 -247v-14q0 -163 -101 -285q-102 -120 -260 -163l234 -625h-140l-227 604h-264l-104 -604h-136zM362 729h230q148 0 258 94q113 94 113 251q0 108 -71 170q-72 63 -200 63h-227z" />
<glyph unicode="S" horiz-adv-x="1058" d="M88 414h137q-9 -47 -9 -87q0 -91 48 -149q68 -82 217 -82q145 0 246 88q104 88 104 219q0 89 -60.5 148.5t-209.5 120.5q-169 68 -243 150t-74 214q0 171 129 297q133 127 325 127q179 0 271 -104q74 -84 74 -219q0 -34 -5 -70h-137q7 38 7 71q0 80 -40 130 q-56 70 -176 69q-132 0 -221 -86q-90 -87 -90 -207q0 -89 53.5 -142t192.5 -116q188 -81 266 -163.5t78 -208.5q0 -189 -142 -316q-140 -125 -352 -125q-213 1 -316 119q-80 92 -80 234q0 42 7 88z" />
<glyph unicode="T" horiz-adv-x="1234" d="M150 1307l22 127h1196l-25 -127h-528l-229 -1307h-135l227 1307h-528z" />
<glyph unicode="U" horiz-adv-x="1400" d="M211 573l151 861h136l-154 -873q-13 -74 -13 -137q0 -324 349 -324q204 0 331 117t165 344l155 873h135l-155 -877q-51 -288 -214 -436t-427 -148q-260 -1 -384 157q-89 112 -89 290q0 71 14 153z" />
<glyph unicode="V" horiz-adv-x="1372" d="M176 1434h143l269 -1158l12 -88l41 88l678 1158h154l-840 -1434h-121z" />
<glyph unicode="W" horiz-adv-x="2007" d="M188 1434h138l170 -1110l8 -103l39 103l549 1110h106l154 -1110l6 -103l43 103l563 1110h145l-718 -1434h-123l-154 1087l-8 95l-43 -95l-535 -1087h-125z" />
<glyph unicode="X" horiz-adv-x="1376" d="M-39 0l674 748l-379 686h147l330 -590l535 590h176l-637 -709l399 -725h-151l-348 627l-570 -627h-176z" />
<glyph unicode="Y" horiz-adv-x="1366" d="M178 1434h152l313 -658l39 -96l76 96l549 658h168l-738 -885l-94 -549h-137l96 549z" />
<glyph unicode="Z" horiz-adv-x="1196" d="M-6 0l18 106l1053 1201h-832l23 127h1022l-18 -107l-1055 -1200h864l-20 -127h-1055z" />
<glyph unicode="[" horiz-adv-x="542" d="M31 -158l286 1624h347l-21 -118h-223l-244 -1387h223l-22 -119h-346z" />
<glyph unicode="\" horiz-adv-x="780" d="M186 1434h121l379 -1434h-121z" />
<glyph unicode="]" horiz-adv-x="542" d="M-59 -158l20 119h219l244 1387h-221l22 118h346l-286 -1624h-344z" />
<glyph unicode="^" horiz-adv-x="1103" d="M117 946l616 610l402 -610h-138l-288 438l-439 -438h-153z" />
<glyph unicode="_" horiz-adv-x="1300" d="M-31 -119l21 119h1198l-21 -119h-1198z" />
<glyph unicode="`" horiz-adv-x="456" d="M182 1499h156l201 -323h-127z" />
<glyph unicode="a" horiz-adv-x="1210" d="M63 416q0 250 160 442q159 193 418 193q127 0 217 -58t123 -145l37 180h119l-183 -1028h-118l26 174q-57 -89 -162 -143t-235 -54q-187 0 -295 123q-107 122 -107 316zM197 422q0 -148 77 -236t215 -88q146 0 269 105t157 286l11 62q6 41 6 79q0 118 -62 195 q-83 103 -227 103q-187 0 -317 -154q-129 -153 -129 -352z" />
<glyph unicode="b" horiz-adv-x="1210" d="M68 0l264 1495h129l-113 -631q59 84 162.5 135.5t228.5 51.5q186 0 293 -125q109 -124 109 -314q0 -249 -160 -444q-159 -191 -418 -191q-127 0 -217 58t-123 145l-35 -180h-120zM279 477q-7 -45 -7 -84q0 -118 60 -192q82 -101 229 -101q188 0 318 154q129 153 129 352 q0 148 -77.5 235t-215.5 87q-146 0 -271 -107q-120 -103 -155 -282z" />
<glyph unicode="c" horiz-adv-x="1099" d="M68 418q0 261 170 446q169 187 413 187q165 0 274 -86.5t126 -233.5h-131q-19 93 -92.5 146t-184.5 53q-184 0 -313 -156t-129 -352v-7q1 -143 79 -229q80 -88 216 -88q107 0 201 53.5t145 145.5h133q-68 -156 -196 -238t-292 -82q-194 0 -307 125q-112 124 -112 316z " />
<glyph unicode="d" horiz-adv-x="1210" d="M63 416q0 250 160 442q159 193 418 193q123 0 211.5 -55t126.5 -140l113 639h129l-265 -1495h-120l26 174q-57 -89 -162 -143t-235 -54q-187 0 -295 123q-107 125 -107 316zM197 422q0 -148 77 -236t215 -88q148 0 271 105q121 106 155 286l11 62q6 41 6 79 q0 118 -62 195q-83 103 -227 103q-187 0 -317 -154q-129 -153 -129 -352z" />
<glyph unicode="e" horiz-adv-x="1126" d="M68 412q0 250 159 444q160 195 414 195q212 0 322 -140q78 -100 78 -258q0 -59 -11 -127l-10 -61h-819q-4 -28 -4 -59q0 -142 78 -225t212 -83q245 0 353 193h135q-73 -151 -200 -232.5t-296 -81.5q-186 0 -299 119q-112 118 -112 316zM223 582h686q7 44 7 83 q0 107 -52 173q-72 92 -231 92q-153 0 -263 -94.5t-147 -253.5z" />
<glyph unicode="f" horiz-adv-x="651" d="M98 909l21 119h196l33 184q25 139 110.5 218t209.5 79q96 0 141 -26l-21 -119q-52 27 -120 27q-157 0 -191 -181l-33 -182h269l-21 -119h-268l-160 -909h-129l160 909h-197z" />
<glyph unicode="g" horiz-adv-x="1228" d="M2 -125h135q12 -219 283 -219q162 0 269 93t138 263l31 162q-57 -84 -162.5 -137t-230.5 -53q-192 0 -299 125q-99 115 -99 294q0 15 1 31q6 249 163 432q156 185 408 185q126 0 214.5 -57.5t123.5 -143.5l37 178h121l-181 -1030q-38 -216 -182 -338.5t-360 -122.5 q-183 0 -290.5 84.5t-119.5 253.5zM199 434v-18q0 -137 72 -221q77 -89 216 -89q148 0 271 105q120 103 155 283l11 61q8 45 8 85q0 112 -60 186q-80 102 -231 102q-182 0 -311 -150q-128 -152 -131 -344z" />
<glyph unicode="h" horiz-adv-x="1067" d="M82 0l264 1495h129l-108 -612q37 60 129 114q91 54 192 54q159 1 229 -105q49 -73 49 -181q0 -47 -10 -101l-116 -664h-129l114 651q10 52 10 95q0 180 -173 180q-117 0 -220 -95q-101 -96 -127 -249l-104 -582h-129z" />
<glyph unicode="i" d="M82 0l182 1028h129l-182 -1028h-129zM283 1346q1 42 39 75t81 33q38 0 62 -25q22 -23 22 -57v-6q-1 -44 -37 -77.5t-81 -33.5q-38 1 -63 27q-23 25 -23 58v6z" />
<glyph unicode="j" d="M-266 -449l20 121q50 -16 103 -16q89 0 134.5 49t63.5 150l209 1173h129l-209 -1175q-55 -316 -338 -316q-71 0 -112 14zM283 1346q1 42 38 75t80 33q38 0 63 -25q23 -24 23 -60q0 -46 -37 -81q-36 -33 -81 -33q-38 0 -63 27q-23 24 -23 58v6z" />
<glyph unicode="k" horiz-adv-x="978" d="M82 0l264 1495h129l-172 -977l514 510h168l-426 -430l297 -598h-141l-254 506l-191 -178l-59 -328h-129z" />
<glyph unicode="l" d="M82 0l264 1495h129l-264 -1495h-129z" />
<glyph unicode="m" horiz-adv-x="1683" d="M82 0l182 1028h119l-21 -151q40 67 130 120q91 54 192 54q227 0 268 -203q55 85 151.5 144t203.5 59q159 1 229 -105q48 -72 47 -176q0 -49 -10 -106l-117 -664h-129l115 651q9 52 9 94q0 181 -173 181q-117 0 -217 -95q-97 -97 -123 -249v14l-104 -596h-129l114 651 q9 52 9 94q0 181 -173 181q-117 0 -217 -95q-97 -97 -123 -249l-104 -582h-129z" />
<glyph unicode="n" horiz-adv-x="1067" d="M82 0l182 1028h119l-21 -151q41 66 132 118q92 56 194 56q159 1 229 -105q49 -73 49 -181q0 -47 -10 -101l-116 -664h-129l114 651q10 52 10 95q0 180 -173 180q-119 0 -222 -95q-98 -94 -125 -249l-104 -582h-129z" />
<glyph unicode="o" horiz-adv-x="1171" d="M68 422q0 255 172 442q175 187 434 187q195 0 313 -127q119 -125 119 -320q0 -254 -174 -440q-175 -187 -430 -187q-202 0 -318 125t-116 320zM201 426q0 -148 82.5 -238t222.5 -90q198 0 332 152q135 150 135 350q0 147 -83.5 238.5t-221.5 91.5q-202 0 -336 -152 q-131 -149 -131 -352z" />
<glyph unicode="p" horiz-adv-x="1230" d="M12 -440l260 1468h121l-26 -174q57 89 162 143t235 54q186 0 293 -125q108 -123 108 -314q0 -250 -159 -444q-159 -191 -418 -191q-123 0 -211.5 55t-126.5 138l-107 -610h-131zM303 477q-7 -45 -7 -84q0 -118 60 -192q82 -101 230 -101q187 0 317 154q129 153 129 352 q0 148 -77.5 235t-215.5 87q-145 0 -270 -107q-122 -104 -156 -282z" />
<glyph unicode="q" horiz-adv-x="1230" d="M68 414q0 252 157 444q159 191 420 191q124 0 215.5 -58t124.5 -143l35 180h119l-258 -1468h-129l106 604q-57 -84 -160 -135.5t-229 -51.5q-187 0 -295 123q-106 121 -106 314zM201 422q0 -148 76.5 -236t214.5 -88q147 0 270 105q122 107 156 286l10 62q7 43 7 82 q0 117 -61 192q-83 103 -229 103q-188 0 -317 -156q-127 -154 -127 -350z" />
<glyph unicode="r" horiz-adv-x="663" d="M82 0l182 1028h119l-23 -176q46 81 135 133.5t207 52.5l-20 -127q-136 0 -238 -102q-106 -109 -141 -291l-92 -518h-129z" />
<glyph unicode="s" horiz-adv-x="903" d="M84 301h133q-3 -21 -3 -39q0 -70 42 -112q52 -52 164 -52q115 0 183.5 54.5t68.5 140.5q0 68 -49 109t-172 73q-135 36 -199 97.5t-64 164.5q0 142 109 228t262 86q150 -1 227 -83q63 -68 63 -177q0 -24 -3 -50h-135q5 29 5 53q0 136 -167 136q-100 0 -163.5 -51.5 t-63.5 -137.5q0 -62 38 -91.5t150 -61.5q161 -48 229 -112t68 -173q0 -144 -113 -235q-114 -91 -280 -91q-174 -1 -261 87q-72 72 -72 188q0 23 3 49z" />
<glyph unicode="t" horiz-adv-x="686" d="M84 907l20 121h205l47 262h131l-49 -262h279l-21 -121h-280l-115 -624q-7 -39 -6 -69q-1 -47 15 -71q26 -39 106 -39q76 0 141 21l-18 -117q-58 -22 -148 -22q-227 0 -227 204q0 39 8 86l117 631h-205z" />
<glyph unicode="u" horiz-adv-x="1058" d="M158 365l116 663h129l-114 -651q-10 -53 -10 -96q0 -181 170 -181q115 0 215 95q99 94 129 251l100 582h129l-182 -1028h-119l22 150q-39 -67 -127 -119q-91 -54 -194 -54q-159 1 -228 105q-47 71 -47 175q0 50 11 108z" />
<glyph unicode="v" horiz-adv-x="1011" d="M111 1028h135l166 -797l8 -71l35 71l448 797h141l-587 -1028h-125z" />
<glyph unicode="w" horiz-adv-x="1558" d="M111 1028h133l108 -770l6 -86l37 86l398 770h112l121 -770l6 -86l39 86l379 770h139l-516 -1028h-127l-135 805l-426 -805h-123z" />
<glyph unicode="x" horiz-adv-x="1021" d="M-35 0l467 541l-252 487h146l202 -387l338 387h162l-430 -502l274 -526h-147l-225 430l-373 -430h-162z" />
<glyph unicode="y" horiz-adv-x="1013" d="M68 -440l262 465l-217 1003h133l168 -797l8 -71l35 71l446 797h144l-838 -1468h-141z" />
<glyph unicode="z" horiz-adv-x="919" d="M-14 0l18 100l725 809h-579l24 119h756l-19 -100l-725 -809h623l-25 -119h-798z" />
<glyph unicode="{" horiz-adv-x="555" d="M35 598l20 119h35q133 0 160 147l63 350q23 130 94.5 191t204.5 61h64l-23 -118h-61q-131 0 -158 -152l-61 -352q-27 -150 -146 -197q103 -50 76 -196l-61 -342q-27 -148 108 -148h60l-21 -119h-63q-119 0 -173.5 75.5t-33.5 199.5l59 334q27 147 -106 147h-37z" />
<glyph unicode="|" horiz-adv-x="417" d="M47 -137l287 1624h125l-287 -1624h-125z" />
<glyph unicode="}" horiz-adv-x="555" d="M-63 -158l22 119h61q131 0 158 152l62 352q24 150 145 197q-103 50 -76 196l62 342q27 148 -107 148h-61l20 118h64q119 0 173.5 -75t33.5 -199l-60 -334q-27 -147 109 -147h35l-21 -119h-35q-133 0 -160 -148l-63 -350q-23 -130 -94.5 -191t-204.5 -61h-63z" />
<glyph unicode="~" horiz-adv-x="1169" d="M80 637q133 244 348 244q67 0 125 -28t92 -69q34 -39 85 -66.5t104 -27.5q150 0 239 176l92 -57q-128 -242 -346 -242q-68 0 -125 27.5t-92 67.5q-80 96 -186 96q-156 0 -242 -176z" />
<glyph unicode="&#xa1;" d="M25 -408l182 1039h131l-184 -1039h-129zM213 918q0 53 39.5 92t91.5 39q43 0 68.5 -25t25.5 -66q0 -53 -39.5 -91t-91.5 -38q-41 0 -67.5 26t-26.5 63z" />
<glyph unicode="&#xa2;" horiz-adv-x="1099" d="M68 418q0 246 153 428q156 182 381 203l33 178h113l-33 -180q141 -17 232 -102t104 -214h-131q-17 82 -76.5 133.5t-149.5 61.5l-145 -826q92 12 170.5 64.5t122.5 132.5h133q-65 -145 -181 -225.5t-266 -91.5l-30 -179h-113l31 183q-162 23 -255 141.5t-93 292.5z M201 422q-2 -130 61.5 -215.5t175.5 -104.5l144 822q-166 -27 -273 -176q-108 -147 -108 -326z" />
<glyph unicode="&#xa3;" horiz-adv-x="1011" d="M-4 0l12 70l101 114q176 209 176 434v11h-207l20 112h174l-14 68q-22 102 -22 168q0 206 129 344q133 139 327 139q172 0 258 -100t60 -277h-129q40 254 -195 254q-140 0 -227 -106q-90 -110 -90 -254q0 -22 4 -76q5 -29 18.5 -92t14.5 -68h335l-20 -112h-305v-11 q0 -231 -164 -434l-45 -55h407q103 0 160 49t76 150h127q-52 -328 -375 -328h-606z" />
<glyph unicode="&#xa4;" horiz-adv-x="1259" d="M-4 51l297 254q-37 73 -37 164q0 187 123 319l-197 248l90 74l197 -248q113 76 248 76q132 0 221 -80l297 254l74 -88l-299 -256q39 -74 39 -162q0 -183 -125 -317l202 -250l-88 -74l-200 252q-113 -78 -250 -78t-221 78l-295 -254zM371 473q0 -101 60 -165t161 -64 q145 0 244 108q98 107 98 250q0 101 -60 165t-161 64q-145 0 -244 -108q-98 -107 -98 -250z" />
<glyph unicode="&#xa5;" horiz-adv-x="1355" d="M178 1434h152l313 -658l39 -96l76 96l549 658h168l-691 -828h240l-20 -112h-277l-27 -152h277l-21 -113h-274l-39 -229h-137l39 229h-271l21 113h270l27 152h-270l20 112h231z" />
<glyph unicode="&#xa6;" horiz-adv-x="417" d="M47 -137l100 573h125l-100 -573h-125zM231 913l103 574h125l-103 -574h-125z" />
<glyph unicode="&#xa7;" horiz-adv-x="1024" d="M109 211h133q-17 -98 40 -151.5t179 -53.5q119 0 199.5 59t80.5 154q0 66 -59.5 106.5t-200.5 69.5q-173 36 -256.5 103t-83.5 178q0 179 232 293q-70 64 -70 159q0 155 115 250q120 97 284 97q171 0 260 -88t64 -228h-133q19 98 -33.5 151.5t-163.5 53.5 q-105 0 -184 -61q-78 -63 -78 -162q0 -62 54.5 -100.5t175.5 -63.5q174 -36 254.5 -99.5t80.5 -170.5q0 -171 -225 -291q100 -66 100 -189q0 -154 -124 -241q-128 -90 -295 -90q-182 0 -276.5 87.5t-69.5 227.5zM274 686q0 -72 63 -113.5t218 -72.5q63 -12 113 -31 q198 82 198 227q0 68 -58.5 107.5t-205.5 68.5q-65 12 -137 39q-84 -34 -137.5 -93.5t-53.5 -131.5z" />
<glyph unicode="&#xa8;" horiz-adv-x="591" d="M147 1276q0 42 35 76t78 34q33 0 56.5 -22.5t23.5 -54.5q0 -42 -36 -75.5t-79 -33.5q-35 0 -56.5 21.5t-21.5 54.5zM512 1276q0 42 35 76t78 34q32 0 54.5 -22.5t22.5 -54.5q0 -42 -34.5 -75.5t-77.5 -33.5q-35 0 -56.5 20.5t-21.5 55.5z" />
<glyph unicode="&#xa9;" horiz-adv-x="1183" d="M131 893q0 269 180 446q182 179 447 179q206 0 329 -129q125 -125 125 -324q0 -273 -180 -453q-177 -180 -442 -180q-208 0 -334 129q-125 131 -125 332zM236 893q0 -156 96 -260q100 -103 262 -103q213 0 364 154q150 153 150 381q0 157 -97 255.5t-257 98.5 q-220 0 -369 -149t-149 -377zM387 926q0 139 96 243q95 103 244 103q96 0 158.5 -54.5t70.5 -138.5h-116q-12 95 -123 95q-93 0 -158 -74q-63 -72 -63 -170q0 -70 38.5 -112t106.5 -42q122 0 168 98h113q-76 -196 -291 -196q-108 0 -176 70.5t-68 177.5z" />
<glyph unicode="&#xaa;" horiz-adv-x="913" d="M197 1022q0 172 112 299q114 129 291 129q88 0 148.5 -36t85.5 -95l24 117h100l-122 -701h-101l15 105q-39 -52 -110.5 -85.5t-158.5 -33.5q-129 0 -206.5 84.5t-77.5 216.5zM307 1026q0 -93 52 -149t143 -56q101 0 182.5 69t101.5 181l7 39q20 112 -33.5 175t-153.5 63 q-122 0 -213 -97q-86 -95 -86 -225z" />
<glyph unicode="&#xab;" horiz-adv-x="903" d="M29 504l6 31l356 378h150l-383 -409l235 -391h-129zM438 504l6 31l357 378h149l-381 -409l234 -391h-129z" />
<glyph unicode="&#xac;" horiz-adv-x="1153" d="M135 760l19 104h997l-94 -532h-105l76 428h-893z" />
<glyph unicode="&#xad;" horiz-adv-x="747" d="M49 473l21 117h645l-21 -117h-645z" />
<glyph unicode="&#xae;" horiz-adv-x="1183" d="M131 893q0 269 180 446q182 179 447 179q206 0 329 -129q125 -125 125 -324q0 -273 -180 -453q-177 -180 -442 -180q-208 0 -334 129q-125 131 -125 332zM236 893q0 -156 96 -260q100 -103 262 -103q213 0 364 154q150 153 150 381q0 157 -97 255.5t-257 98.5 q-220 0 -369 -149t-149 -377zM436 688l101 574h184q81 0 129.5 -44.5t48.5 -117.5q0 -65 -36 -112t-99 -68l88 -232h-111l-79 217h-82l-37 -217h-107zM596 991h84q48 0 80.5 29.5t32.5 75.5q0 71 -82 71h-84z" />
<glyph unicode="&#xaf;" horiz-adv-x="559" d="M145 1231l19 110h518l-20 -110h-517z" />
<glyph unicode="&#xb0;" horiz-adv-x="686" d="M160 1139q0 139 100 239q101 101 246 101q112 0 183 -69.5t73 -178.5q0 -145 -100 -242q-104 -96 -250 -96q-111 0 -181.5 69t-70.5 177zM270 1143q0 -67 42 -107.5t110 -40.5q90 0 160 64q69 63 69 164q0 69 -41.5 110t-113.5 41q-90 0 -158 -65t-68 -166z" />
<glyph unicode="&#xb1;" horiz-adv-x="966" d="M18 199l21 118h844l-21 -118h-844zM125 834l20 118h361l63 363h123l-63 -363h360l-20 -118h-361l-65 -363h-123l63 363h-358z" />
<glyph unicode="&#xb2;" horiz-adv-x="655" d="M143 836l15 82l348 331q111 108 108 209q-3 90 -106 90q-61 0 -106.5 -38.5t-57.5 -106.5h-113q19 112 98 181t189 69q99 0 156 -51.5t57 -137.5q0 -137 -139 -270l-262 -252h323l-18 -106h-492z" />
<glyph unicode="&#xb3;" horiz-adv-x="710" d="M209 1067h110q-12 -71 24.5 -107t111.5 -36q72 0 126 45t54 116q0 117 -180 117h-29l14 94h29q89 0 144 40t55 118q0 94 -105 94q-62 0 -108 -36t-58 -101h-110q17 115 92.5 178.5t193.5 63.5q98 0 154.5 -53.5t56.5 -139.5q0 -73 -41.5 -129.5t-113.5 -81.5 q51 -12 86 -58.5t35 -107.5q0 -112 -91 -188q-89 -74 -215 -74q-125 0 -188.5 65.5t-46.5 180.5z" />
<glyph unicode="&#xb4;" horiz-adv-x="456" d="M143 1176l312 323h178l-342 -323h-148z" />
<glyph unicode="&#xb5;" horiz-adv-x="1073" d="M-4 -440l137 770l6 35l117 663h131l-78 -436l-43 -244q-30 -248 168 -248q118 0 213 95q100 96 127 251l103 582h127l-181 -1028h-121l25 147q-40 -69 -132 -119.5t-192 -50.5q-122 0 -192 64l-84 -481h-131z" />
<glyph unicode="&#xb6;" horiz-adv-x="1200" d="M154 977q0 193 139 326q140 131 348 131h690l-18 -99h-183l-266 -1499h-100l264 1499h-266l-264 -1499h-101l142 809h-33q-159 0 -255.5 92.5t-96.5 239.5z" />
<glyph unicode="&#xb7;" horiz-adv-x="391" d="M98 514q0 50 40.5 88.5t92.5 38.5q41 0 67 -25t26 -63q0 -53 -39.5 -92t-91.5 -39q-42 0 -68.5 25.5t-26.5 66.5z" />
<glyph unicode="&#xb8;" horiz-adv-x="434" d="M-76 -393l70 74q42 -60 121 -60q51 0 88 26.5t37 69.5q0 68 -80 68q-20 0 -78 -10l-43 14l94 223h94l-59 -141h16q68 0 110 -39.5t42 -105.5q0 -86 -66 -141.5t-161 -55.5q-116 0 -185 78z" />
<glyph unicode="&#xb9;" horiz-adv-x="479" d="M238 1450l16 88q100 0 149 21.5t74 78.5h88l-141 -802h-115l109 614h-180z" />
<glyph unicode="&#xba;" horiz-adv-x="886" d="M170 1026q0 183 123 303q127 121 305 121q136 0 219.5 -85.5t83.5 -221.5q0 -182 -121 -303q-119 -119 -303 -119q-138 0 -222.5 85t-84.5 220zM281 1028q0 -94 54.5 -150.5t149.5 -56.5q136 0 222 92t86 232q0 93 -54.5 149t-150.5 56q-133 0 -221 -97q-86 -95 -86 -225 z" />
<glyph unicode="&#xbb;" horiz-adv-x="903" d="M-41 113l381 409l-234 391h130l233 -391l-6 -30l-354 -379h-150zM367 113l385 409l-236 391h129l236 -391l-7 -30l-358 -379h-149z" />
<glyph unicode="&#xbc;" horiz-adv-x="1351" d="M72 0l1155 1434h157l-1155 -1434h-157zM215 1245l16 88q100 0 149.5 22t74.5 79h88l-142 -803h-114l108 614h-180zM655 162l17 92l440 549h129l-94 -541h119l-19 -100h-119l-28 -162h-113l29 162h-361zM801 262h233l68 371l-35 -49z" />
<glyph unicode="&#xbd;" horiz-adv-x="1413" d="M25 0l1155 1434h157l-1155 -1434h-157zM201 1245l16 88q100 0 149 22t74 79h88l-141 -803h-115l109 614h-180zM784 0l15 82l348 332q111 108 108 209q-3 90 -106 90q-61 0 -106.5 -39t-57.5 -107h-113q19 112 98 181t189 69q99 0 156 -51t57 -137q0 -138 -139 -271 l-262 -252h323l-18 -106h-492z" />
<glyph unicode="&#xbe;" horiz-adv-x="1529" d="M186 862h111q-12 -71 24 -107t111 -36q72 0 126 45.5t54 116.5q0 116 -180 116h-29l15 95h28q90 0 144.5 39.5t54.5 117.5q0 94 -104 94q-62 0 -108 -36t-58 -101h-111q17 115 93 178.5t194 63.5q98 0 154.5 -53.5t56.5 -139.5q0 -73 -42 -129.5t-114 -81.5 q51 -12 86 -58t35 -107q0 -114 -90 -189q-89 -74 -215 -74q-125 0 -189 65.5t-47 180.5zM258 0l1155 1434h158l-1155 -1434h-158zM850 162l16 92l441 549h129l-95 -541h119l-18 -100h-119l-29 -162h-112l28 162h-360zM995 262h234l67 371l-34 -49z" />
<glyph unicode="&#xbf;" horiz-adv-x="819" d="M-41 -123q0 110 40.5 200.5t106.5 151.5q33 30 93.5 78.5t97.5 79t70.5 74.5t40.5 86l14 84h131l-18 -96q-31 -144 -185 -259q-107 -82 -145 -120q-119 -121 -119 -277q1 -98 60 -152.5t159 -54.5q130 0 215.5 75.5t110.5 215.5h125q-35 -194 -156 -299.5t-301 -105.5 q-144 0 -244 86q-96 87 -96 233zM428 934q8 47 46 81t85 34q44 0 71 -30.5t21 -74.5q-6 -48 -44 -81.5t-87 -33.5q-44 0 -70.5 30.5t-21.5 74.5z" />
<glyph unicode="&#xc0;" horiz-adv-x="1382" d="M-37 0l838 1434h127l336 -1434h-146l-98 416h-662l-239 -416h-156zM428 545h569l-147 626l-14 76l-39 -76zM580 1708h184l194 -211h-151z" />
<glyph unicode="&#xc1;" horiz-adv-x="1382" d="M-37 0l838 1434h127l336 -1434h-146l-98 416h-662l-239 -416h-156zM428 545h569l-147 626l-14 76l-39 -76zM778 1497l260 211h215l-299 -211h-176z" />
<glyph unicode="&#xc2;" horiz-adv-x="1382" d="M-37 0l838 1434h127l336 -1434h-146l-98 416h-662l-239 -416h-156zM428 545h569l-147 626l-14 76l-39 -76zM541 1495l325 215h92l244 -215h-170l-129 117l-170 -117h-192z" />
<glyph unicode="&#xc3;" horiz-adv-x="1382" d="M-37 0l838 1434h127l336 -1434h-146l-98 416h-662l-239 -416h-156zM428 545h569l-147 626l-14 76l-39 -76zM555 1507q43 230 229 230q44 0 77 -14.5t51 -35.5t33.5 -42t35 -35.5t45.5 -14.5q102 0 117 123h100q-40 -229 -227 -229q-45 0 -78 14.5t-51.5 35.5t-34 42.5 t-35 36t-45.5 14.5q-104 0 -119 -125h-98z" />
<glyph unicode="&#xc4;" horiz-adv-x="1382" d="M-37 0l838 1434h127l336 -1434h-146l-98 416h-662l-239 -416h-156zM428 545h569l-147 626l-14 76l-39 -76zM614 1579q0 44 33.5 76.5t77.5 32.5q35 0 57.5 -21.5t22.5 -56.5q0 -42 -35 -74.5t-78 -32.5q-35 0 -56.5 20.5t-21.5 55.5zM979 1579q0 44 33.5 76.5t77.5 32.5 q35 0 56 -21.5t21 -56.5q0 -42 -33.5 -74.5t-76.5 -32.5q-35 0 -56.5 21.5t-21.5 54.5z" />
<glyph unicode="&#xc5;" horiz-adv-x="1382" d="M-37 0l838 1434h127l336 -1434h-146l-98 416h-662l-239 -416h-156zM428 545h569l-147 626l-14 76l-39 -76zM721 1647q0 89 61.5 145.5t153.5 56.5q71 0 115.5 -45.5t44.5 -113.5q0 -87 -63 -145t-154 -58q-68 0 -113 46t-45 114zM815 1653q0 -35 20.5 -55.5t53.5 -20.5 q44 0 77 32.5t33 76.5q0 32 -21.5 53.5t-53.5 21.5q-43 0 -76 -32t-33 -76z" />
<glyph unicode="&#xc6;" horiz-adv-x="1878" d="M-61 0l1208 1434h795l-23 -127h-635l-88 -504h563l-22 -127h-561l-99 -549h635l-22 -127h-770l73 420h-534l-355 -420h-165zM563 543h453l123 686l-56 -74z" />
<glyph unicode="&#xc7;" horiz-adv-x="1480" d="M104 590q0 223 109 424t301 323q194 123 420 123q236 0 381.5 -112t183.5 -320h-153q-53 305 -418 305q-135 3 -264 -60.5t-222 -166.5t-148.5 -239t-51.5 -273q0 -224 125 -358q127 -136 340 -136q180 0 319 83.5t213 226.5h150q-206 -437 -687 -437h-16l-43 -102h16 q68 0 110 -39.5t42 -105.5q0 -86 -66 -141.5t-161 -55.5q-116 0 -185 78l70 74q42 -60 121 -60q51 0 88 26.5t37 69.5q0 68 -80 68q-20 0 -78 -10l-43 14l80 193q-228 34 -358 196q-132 166 -132 412z" />
<glyph unicode="&#xc8;" horiz-adv-x="1034" d="M76 0l252 1434h772l-25 -127h-635l-88 -504h561l-20 -127h-561l-99 -549h635l-20 -127h-772zM430 1708h184l195 -211h-152z" />
<glyph unicode="&#xc9;" horiz-adv-x="1034" d="M76 0l252 1434h772l-25 -127h-635l-88 -504h561l-20 -127h-561l-99 -549h635l-20 -127h-772zM629 1497l260 211h215l-299 -211h-176z" />
<glyph unicode="&#xca;" horiz-adv-x="1034" d="M76 0l252 1434h772l-25 -127h-635l-88 -504h561l-20 -127h-561l-99 -549h635l-20 -127h-772zM391 1495l326 215h92l244 -215h-170l-129 117l-170 -117h-193z" />
<glyph unicode="&#xcb;" horiz-adv-x="1034" d="M76 0l252 1434h772l-25 -127h-635l-88 -504h561l-20 -127h-561l-99 -549h635l-20 -127h-772zM467 1579q0 44 33.5 76.5t77.5 32.5q35 0 57 -21.5t22 -56.5q0 -42 -34.5 -74.5t-77.5 -32.5q-35 0 -56.5 20.5t-21.5 55.5zM831 1579q0 44 33.5 76.5t77.5 32.5 q35 0 56.5 -21.5t21.5 -56.5q0 -42 -34 -74.5t-77 -32.5q-35 0 -56.5 21.5t-21.5 54.5z" />
<glyph unicode="&#xcc;" d="M76 0l252 1434h135l-252 -1434h-135zM113 1708h184l195 -211h-152z" />
<glyph unicode="&#xcd;" d="M76 0l252 1434h135l-252 -1434h-135zM309 1497l260 211h215l-299 -211h-176z" />
<glyph unicode="&#xce;" d="M76 0l252 1434h135l-252 -1434h-135zM76 1495l325 215h93l243 -215h-170l-129 117l-170 -117h-192z" />
<glyph unicode="&#xcf;" d="M76 0l252 1434h135l-252 -1434h-135zM152 1579q0 44 33 76.5t77 32.5q35 0 57.5 -21.5t22.5 -56.5q0 -42 -35 -74.5t-78 -32.5q-35 0 -56 20.5t-21 55.5zM516 1579q0 44 33.5 76.5t77.5 32.5q35 0 56.5 -21.5t21.5 -56.5q0 -42 -34 -74.5t-77 -32.5q-35 0 -56.5 21.5 t-21.5 54.5z" />
<glyph unicode="&#xd0;" horiz-adv-x="1507" d="M74 657l20 113h135l117 664h490q285 0 454 -158q168 -155 168 -428q0 -360 -235 -604q-238 -244 -611 -244h-518l115 657h-135zM252 127h371q294 0 495 207t201 512q0 220 -128 340.5t-362 120.5h-370l-94 -537h356l-19 -113h-358z" />
<glyph unicode="&#xd1;" horiz-adv-x="1431" d="M76 0l252 1434h125l579 -1119l45 -90l213 1209h135l-251 -1434h-123l-586 1122l-41 84l-213 -1206h-135zM571 1507q43 230 230 230q44 0 76.5 -14.5t51 -35.5t33.5 -42t34.5 -35.5t45.5 -14.5q102 0 117 123h101q-40 -229 -228 -229q-45 0 -78 14.5t-51.5 35.5t-34 42.5 t-35 36t-45.5 14.5q-103 0 -118 -125h-99z" />
<glyph unicode="&#xd2;" horiz-adv-x="1624" d="M104 594q0 367 252 616q253 250 596 250q283 0 453 -176t170 -446q0 -247 -119 -445q-117 -199 -310.5 -309.5t-416.5 -110.5q-289 0 -457 174t-168 447zM242 596q0 -217 133 -356q134 -140 358 -140q281 0 494 213q211 211 211 525q0 217 -133 356t-355 139 q-286 0 -499 -213q-209 -212 -209 -524zM670 1729h184l195 -211h-152z" />
<glyph unicode="&#xd3;" horiz-adv-x="1624" d="M104 594q0 367 252 616q253 250 596 250q283 0 453 -176t170 -446q0 -247 -119 -445q-117 -199 -310.5 -309.5t-416.5 -110.5q-289 0 -457 174t-168 447zM242 596q0 -217 133 -356q134 -140 358 -140q281 0 494 213q211 211 211 525q0 217 -133 356t-355 139 q-286 0 -499 -213q-209 -212 -209 -524zM868 1518l260 211h215l-299 -211h-176z" />
<glyph unicode="&#xd4;" horiz-adv-x="1624" d="M104 594q0 367 252 616q253 250 596 250q283 0 453 -176t170 -446q0 -247 -119 -445q-117 -199 -310.5 -309.5t-416.5 -110.5q-289 0 -457 174t-168 447zM242 596q0 -217 133 -356q134 -140 358 -140q281 0 494 213q211 211 211 525q0 217 -133 356t-355 139 q-286 0 -499 -213q-209 -212 -209 -524zM631 1516l325 215h93l243 -215h-170l-129 116l-170 -116h-192z" />
<glyph unicode="&#xd5;" horiz-adv-x="1624" d="M104 594q0 367 252 616q253 250 596 250q283 0 453 -176t170 -446q0 -247 -119 -445q-117 -199 -310.5 -309.5t-416.5 -110.5q-289 0 -457 174t-168 447zM242 596q0 -217 133 -356q134 -140 358 -140q281 0 494 213q211 211 211 525q0 217 -133 356t-355 139 q-286 0 -499 -213q-209 -212 -209 -524zM645 1528q43 229 229 229q44 0 77 -14.5t51 -35.5t33.5 -41.5t35 -35t45.5 -14.5q102 0 117 123h100q-40 -230 -227 -230q-45 0 -78 15t-51.5 36t-34 42t-35 36t-45.5 15q-104 0 -119 -125h-98z" />
<glyph unicode="&#xd6;" horiz-adv-x="1624" d="M104 594q0 367 252 616q253 250 596 250q283 0 453 -176t170 -446q0 -247 -119 -445q-117 -199 -310.5 -309.5t-416.5 -110.5q-289 0 -457 174t-168 447zM242 596q0 -217 133 -356q134 -140 358 -140q281 0 494 213q211 211 211 525q0 217 -133 356t-355 139 q-286 0 -499 -213q-209 -212 -209 -524zM705 1599q0 44 33 76.5t77 32.5q35 0 57.5 -21.5t22.5 -56.5q0 -42 -35 -74t-78 -32q-35 0 -56 20t-21 55zM1069 1599q0 44 33.5 76.5t77.5 32.5q35 0 56 -21.5t21 -56.5q0 -42 -33.5 -74t-76.5 -32q-35 0 -56.5 21t-21.5 54z" />
<glyph unicode="&#xd7;" horiz-adv-x="839" d="M47 446l328 277l-223 272l92 78l223 -272l328 278l77 -92l-327 -280l223 -275l-92 -78l-227 275l-326 -277z" />
<glyph unicode="&#xd8;" horiz-adv-x="1624" d="M104 594q0 367 252 616q253 250 596 250q167 0 301 -67l125 174l105 -66l-125 -174q217 -175 217 -489q0 -247 -119 -445q-117 -199 -310.5 -309.5t-416.5 -110.5q-163 0 -307 66l-123 -170l-100 68l123 167q-218 176 -218 490zM242 596q0 -244 157 -383l777 1073 q-103 47 -226 47q-286 0 -499 -213q-209 -212 -209 -524zM502 147q103 -47 231 -47q281 0 494 213q211 211 211 525q0 239 -160 381z" />
<glyph unicode="&#xd9;" horiz-adv-x="1400" d="M211 573l151 861h136l-154 -873q-80 -461 336 -461q204 0 331 117t165 344l155 873h135l-155 -877q-51 -288 -214 -436t-427 -148q-260 0 -384.5 157.5t-74.5 442.5zM618 1708h185l194 -211h-151z" />
<glyph unicode="&#xda;" horiz-adv-x="1400" d="M211 573l151 861h136l-154 -873q-80 -461 336 -461q204 0 331 117t165 344l155 873h135l-155 -877q-51 -288 -214 -436t-427 -148q-260 0 -384.5 157.5t-74.5 442.5zM817 1497l260 211h215l-299 -211h-176z" />
<glyph unicode="&#xdb;" horiz-adv-x="1400" d="M211 573l151 861h136l-154 -873q-80 -461 336 -461q204 0 331 117t165 344l155 873h135l-155 -877q-51 -288 -214 -436t-427 -148q-260 0 -384.5 157.5t-74.5 442.5zM580 1495l325 215h92l244 -215h-170l-129 117l-170 -117h-192z" />
<glyph unicode="&#xdc;" horiz-adv-x="1400" d="M211 573l151 861h136l-154 -873q-80 -461 336 -461q204 0 331 117t165 344l155 873h135l-155 -877q-51 -288 -214 -436t-427 -148q-260 0 -384.5 157.5t-74.5 442.5zM655 1579q0 44 33.5 76.5t77.5 32.5q35 0 57.5 -21.5t22.5 -56.5q0 -42 -35 -74.5t-78 -32.5 q-35 0 -56.5 20.5t-21.5 55.5zM1020 1579q0 44 33 76.5t77 32.5q35 0 56.5 -21.5t21.5 -56.5q0 -42 -33.5 -74.5t-76.5 -32.5q-35 0 -56.5 21.5t-21.5 54.5z" />
<glyph unicode="&#xdd;" horiz-adv-x="1366" d="M178 1434h152l313 -658l39 -96l76 96l549 658h168l-738 -885l-94 -549h-137l96 549zM725 1497l260 211h215l-299 -211h-176z" />
<glyph unicode="&#xde;" horiz-adv-x="1124" d="M76 0l252 1434h135l-41 -236h283q179 0 285 -91.5t104 -244.5q0 -199 -146 -327q-145 -127 -356 -127h-309l-72 -408h-135zM305 537h297q141 0 250 86q106 87 106 233q-2 100 -70.5 156.5t-191.5 56.5h-295z" />
<glyph unicode="&#xdf;" horiz-adv-x="1105" d="M82 0l197 1112q71 387 448 387l-22 -125q-126 0 -197.5 -63.5t-95.5 -206.5l-17 -76h686l-18 -104l-420 -502q169 -12 263.5 -114.5t94.5 -256.5q0 -227 -155 -364q-156 -138 -400 -138q-87 0 -174 17l33 131q118 -23 144 -23q173 0 292 101q123 99 123 270 q0 128 -83 196t-236 68h-92l14 84l426 514h-518l-160 -907h-133z" />
<glyph unicode="&#xe0;" horiz-adv-x="1210" d="M63 416q0 250 160 442q159 193 418 193q127 0 217 -58t123 -145l37 180h119l-183 -1028h-118l26 174q-57 -89 -162 -143t-235 -54q-187 0 -295 123q-107 122 -107 316zM197 422q0 -148 77 -236t215 -88q146 0 269 105t157 286l11 62q26 172 -56 274q-83 103 -227 103 q-187 0 -317 -154q-129 -153 -129 -352zM395 1499h156l201 -323h-127z" />
<glyph unicode="&#xe1;" horiz-adv-x="1210" d="M63 416q0 250 160 442q159 193 418 193q127 0 217 -58t123 -145l37 180h119l-183 -1028h-118l26 174q-57 -89 -162 -143t-235 -54q-187 0 -295 123q-107 122 -107 316zM197 422q0 -148 77 -236t215 -88q146 0 269 105t157 286l11 62q26 172 -56 274q-83 103 -227 103 q-187 0 -317 -154q-129 -153 -129 -352zM598 1176l311 323h178l-342 -323h-147z" />
<glyph unicode="&#xe2;" horiz-adv-x="1210" d="M63 416q0 250 160 442q159 193 418 193q127 0 217 -58t123 -145l37 180h119l-183 -1028h-118l26 174q-57 -89 -162 -143t-235 -54q-187 0 -295 123q-107 122 -107 316zM197 422q0 -148 77 -236t215 -88q146 0 269 105t157 286l11 62q26 172 -56 274q-83 103 -227 103 q-187 0 -317 -154q-129 -153 -129 -352zM360 1176l336 323h72l217 -323h-137l-127 202l-197 -202h-164z" />
<glyph unicode="&#xe3;" horiz-adv-x="1210" d="M63 416q0 250 160 442q159 193 418 193q127 0 217 -58t123 -145l37 180h119l-183 -1028h-118l26 174q-57 -89 -162 -143t-235 -54q-187 0 -295 123q-107 122 -107 316zM197 422q0 -148 77 -236t215 -88q146 0 269 105t157 286l11 62q26 172 -56 274q-83 103 -227 103 q-187 0 -317 -154q-129 -153 -129 -352zM367 1184q47 246 229 246q44 0 76.5 -16.5t50.5 -39.5t34 -46t35.5 -39.5t45.5 -16.5q94 0 118 139h99q-43 -246 -230 -246q-44 0 -76.5 16.5t-51 40t-33.5 47t-34 40t-44 16.5q-97 0 -121 -141h-98z" />
<glyph unicode="&#xe4;" horiz-adv-x="1210" d="M63 416q0 250 160 442q159 193 418 193q127 0 217 -58t123 -145l37 180h119l-183 -1028h-118l26 174q-57 -89 -162 -143t-235 -54q-187 0 -295 123q-107 122 -107 316zM197 422q0 -148 77 -236t215 -88q146 0 269 105t157 286l11 62q26 172 -56 274q-83 103 -227 103 q-187 0 -317 -154q-129 -153 -129 -352zM422 1276q0 42 35 76t78 34q32 0 55.5 -22.5t23.5 -54.5q0 -42 -35.5 -75.5t-78.5 -33.5q-35 0 -56.5 21.5t-21.5 54.5zM786 1276q0 42 35 76t78 34q32 0 55 -22.5t23 -54.5q0 -42 -35 -75.5t-78 -33.5q-35 0 -56.5 20.5t-21.5 55.5z " />
<glyph unicode="&#xe5;" horiz-adv-x="1210" d="M63 416q0 250 160 442q159 193 418 193q127 0 217 -58t123 -145l37 180h119l-183 -1028h-118l26 174q-57 -89 -162 -143t-235 -54q-187 0 -295 123q-107 122 -107 316zM197 422q0 -148 77 -236t215 -88q146 0 269 105t157 286l11 62q26 172 -56 274q-83 103 -227 103 q-187 0 -317 -154q-129 -153 -129 -352zM498 1319q0 101 71 166q74 65 170 65q81 0 132 -50t51 -126q0 -99 -71.5 -165t-172.5 -66q-81 0 -130.5 50t-49.5 126zM594 1325q0 -39 25.5 -65.5t66.5 -26.5q56 0 95.5 40.5t39.5 96.5q0 39 -24 63.5t-66 24.5q-56 0 -96.5 -39 t-40.5 -94z" />
<glyph unicode="&#xe6;" horiz-adv-x="1748" d="M57 209q0 258 322 328l338 73l14 78q47 246 -164 246q-100 0 -174 -59.5t-92 -163.5h-131q31 153 138.5 246.5t262.5 93.5q235 0 287 -187q166 187 408 187q211 0 321 -140q108 -138 68 -385l-10 -61h-820q-4 -28 -4 -59q0 -142 78.5 -225t212.5 -83q244 0 352 193h135 q-73 -151 -199.5 -232.5t-295.5 -81.5q-135 0 -236 66.5t-145 183.5q-67 -111 -173 -180.5t-231 -69.5t-193.5 63t-68.5 169zM190 219q0 -59 38 -94t108 -35q138 0 244 115q82 82 100 192l16 82q0 17 2 21l-297 -64q-109 -24 -160 -73.5t-51 -143.5zM848 582h686 q26 165 -46 256.5t-231 91.5q-153 0 -262.5 -94.5t-146.5 -253.5z" />
<glyph unicode="&#xe7;" horiz-adv-x="1099" d="M68 418q0 261 170 446q169 187 413 187q165 0 274 -86.5t126 -233.5h-131q-19 93 -92.5 146t-184.5 53q-184 0 -313 -156t-129 -352q-2 -147 78.5 -235.5t216.5 -88.5q107 0 201 53.5t145 145.5h133q-68 -155 -195 -236.5t-291 -83.5l-45 -106h17q68 0 109.5 -39.5 t41.5 -105.5q0 -86 -66 -141.5t-161 -55.5q-115 0 -184 78l69 74q42 -60 121 -60q51 0 88 26.5t37 69.5q0 68 -80 68q-20 0 -78 -10l-43 14l82 197q-153 29 -241 146.5t-88 285.5z" />
<glyph unicode="&#xe8;" horiz-adv-x="1126" d="M68 412q0 250 159 444q160 195 414 195q212 0 322 -140q107 -137 67 -385l-10 -61h-819q-4 -28 -4 -59q0 -142 78 -225t212 -83q245 0 353 193h135q-73 -151 -200 -232.5t-296 -81.5q-186 0 -299 119q-112 118 -112 316zM223 582h686q26 165 -45.5 256.5t-230.5 91.5 q-153 0 -263 -94.5t-147 -253.5zM391 1499h156l201 -323h-127z" />
<glyph unicode="&#xe9;" horiz-adv-x="1126" d="M68 412q0 250 159 444q160 195 414 195q212 0 322 -140q107 -137 67 -385l-10 -61h-819q-4 -28 -4 -59q0 -142 78 -225t212 -83q245 0 353 193h135q-73 -151 -200 -232.5t-296 -81.5q-186 0 -299 119q-112 118 -112 316zM223 582h686q26 165 -45.5 256.5t-230.5 91.5 q-153 0 -263 -94.5t-147 -253.5zM594 1176l311 323h178l-342 -323h-147z" />
<glyph unicode="&#xea;" horiz-adv-x="1126" d="M68 412q0 250 159 444q160 195 414 195q212 0 322 -140q107 -137 67 -385l-10 -61h-819q-4 -28 -4 -59q0 -142 78 -225t212 -83q245 0 353 193h135q-73 -151 -200 -232.5t-296 -81.5q-186 0 -299 119q-112 118 -112 316zM223 582h686q26 165 -45.5 256.5t-230.5 91.5 q-153 0 -263 -94.5t-147 -253.5zM356 1176l336 323h72l217 -323h-137l-127 202l-197 -202h-164z" />
<glyph unicode="&#xeb;" horiz-adv-x="1126" d="M68 412q0 250 159 444q160 195 414 195q212 0 322 -140q107 -137 67 -385l-10 -61h-819q-4 -28 -4 -59q0 -142 78 -225t212 -83q245 0 353 193h135q-73 -151 -200 -232.5t-296 -81.5q-186 0 -299 119q-112 118 -112 316zM223 582h686q26 165 -45.5 256.5t-230.5 91.5 q-153 0 -263 -94.5t-147 -253.5zM418 1276q0 43 34.5 76.5t77.5 33.5q33 0 56.5 -22.5t23.5 -54.5q0 -42 -35.5 -75.5t-78.5 -33.5q-35 0 -56.5 21.5t-21.5 54.5zM782 1276q0 42 35 76t78 34q32 0 55 -22.5t23 -54.5q0 -42 -35 -75.5t-78 -33.5q-35 0 -56.5 20.5t-21.5 55.5 z" />
<glyph unicode="&#xec;" d="M72 1499h155l201 -323h-127zM82 0l182 1028h129l-182 -1028h-129z" />
<glyph unicode="&#xed;" d="M82 0l182 1028h129l-182 -1028h-129zM270 1176l312 323h178l-342 -323h-148z" />
<glyph unicode="&#xee;" d="M37 1176l336 323h71l218 -323h-138l-127 202l-196 -202h-164zM82 0l182 1028h129l-182 -1028h-129z" />
<glyph unicode="&#xef;" d="M82 0l182 1028h129l-182 -1028h-129zM98 1276q0 42 35 76t78 34q33 0 56.5 -22.5t23.5 -54.5q0 -42 -36 -75.5t-79 -33.5q-35 0 -56.5 21.5t-21.5 54.5zM463 1276q0 43 34.5 76.5t77.5 33.5q32 0 55 -22.5t23 -54.5q0 -42 -34.5 -75.5t-77.5 -33.5q-35 0 -56.5 20.5 t-21.5 55.5z" />
<glyph unicode="&#xf0;" horiz-adv-x="1124" d="M74 385q0 245 164 412q163 166 403 166q35 0 96 -9l-137 209h-317l20 109h227l-145 223h152l145 -223h299l-18 -109h-211l219 -334q80 -124 80 -258q0 -235 -160 -415q-159 -179 -406 -179q-188 0 -301 113q-110 113 -110 295zM205 389q0 -132 77 -212.5t210 -80.5 q178 0 303 137q127 139 127 322q0 137 -78.5 213t-208.5 76q-176 0 -303 -133t-127 -322z" />
<glyph unicode="&#xf1;" horiz-adv-x="1067" d="M82 0l182 1028h119l-21 -151q41 66 132 118q92 56 194 56q159 0 229 -105.5t39 -281.5l-116 -664h-129l114 651q50 275 -163 275q-119 0 -222 -95q-98 -94 -125 -249l-104 -582h-129zM373 1184q46 246 229 246q44 0 76.5 -16.5t50.5 -39.5t34 -46t35.5 -39.5t45.5 -16.5 q95 0 119 139h98q-43 -246 -230 -246q-44 0 -76.5 16.5t-51 40t-33.5 47t-34 40t-44 16.5q-97 0 -121 -141h-98z" />
<glyph unicode="&#xf2;" horiz-adv-x="1171" d="M68 422q0 255 172 442q175 187 434 187q195 0 313 -127q119 -125 119 -320q0 -254 -174 -440q-175 -187 -430 -187q-202 0 -318 125t-116 320zM201 426q0 -148 82.5 -238t222.5 -90q198 0 332 152q135 150 135 350q0 147 -83.5 238.5t-221.5 91.5q-202 0 -336 -152 q-131 -149 -131 -352zM408 1499h155l201 -323h-127z" />
<glyph unicode="&#xf3;" horiz-adv-x="1171" d="M68 422q0 255 172 442q175 187 434 187q195 0 313 -127q119 -125 119 -320q0 -254 -174 -440q-175 -187 -430 -187q-202 0 -318 125t-116 320zM201 426q0 -148 82.5 -238t222.5 -90q198 0 332 152q135 150 135 350q0 147 -83.5 238.5t-221.5 91.5q-202 0 -336 -152 q-131 -149 -131 -352zM608 1176l312 323h178l-342 -323h-148z" />
<glyph unicode="&#xf4;" horiz-adv-x="1171" d="M68 422q0 255 172 442q175 187 434 187q195 0 313 -127q119 -125 119 -320q0 -254 -174 -440q-175 -187 -430 -187q-202 0 -318 125t-116 320zM201 426q0 -148 82.5 -238t222.5 -90q198 0 332 152q135 150 135 350q0 147 -83.5 238.5t-221.5 91.5q-202 0 -336 -152 q-131 -149 -131 -352zM373 1176l336 323h71l217 -323h-137l-127 202l-196 -202h-164z" />
<glyph unicode="&#xf5;" horiz-adv-x="1171" d="M68 422q0 255 172 442q175 187 434 187q195 0 313 -127q119 -125 119 -320q0 -254 -174 -440q-175 -187 -430 -187q-202 0 -318 125t-116 320zM201 426q0 -148 82.5 -238t222.5 -90q198 0 332 152q135 150 135 350q0 147 -83.5 238.5t-221.5 91.5q-202 0 -336 -152 q-131 -149 -131 -352zM379 1184q47 246 229 246q44 0 76.5 -16.5t50.5 -39.5t34 -46t35.5 -39.5t45.5 -16.5q95 0 119 139h98q-43 -246 -229 -246q-44 0 -76.5 16.5t-51 40t-33.5 47t-34.5 40t-44.5 16.5q-97 0 -121 -141h-98z" />
<glyph unicode="&#xf6;" horiz-adv-x="1171" d="M68 422q0 255 172 442q175 187 434 187q195 0 313 -127q119 -125 119 -320q0 -254 -174 -440q-175 -187 -430 -187q-202 0 -318 125t-116 320zM201 426q0 -148 82.5 -238t222.5 -90q198 0 332 152q135 150 135 350q0 147 -83.5 238.5t-221.5 91.5q-202 0 -336 -152 q-131 -149 -131 -352zM434 1276q0 42 35 76t78 34q33 0 56.5 -22.5t23.5 -54.5q0 -42 -36 -75.5t-79 -33.5q-35 0 -56.5 21.5t-21.5 54.5zM799 1276q0 43 34.5 76.5t77.5 33.5q32 0 55 -22.5t23 -54.5q0 -42 -34.5 -75.5t-77.5 -33.5q-35 0 -56.5 20.5t-21.5 55.5z" />
<glyph unicode="&#xf7;" horiz-adv-x="966" d="M84 657l20 119h844l-20 -119h-844zM348 346q4 44 39 75.5t78 31.5q41 0 65.5 -27t20.5 -68q-4 -43 -40.5 -73.5t-80.5 -30.5q-41 0 -64.5 26.5t-17.5 65.5zM475 1073q6 44 40.5 75.5t78.5 31.5q41 0 65.5 -27t20.5 -68q-6 -44 -41 -74t-80 -30q-41 0 -64.5 25.5 t-19.5 66.5z" />
<glyph unicode="&#xf8;" horiz-adv-x="1173" d="M68 422q0 255 172 442q175 187 434 187q112 0 203 -45l112 159l84 -53l-115 -160q148 -130 148 -348q0 -254 -174 -440q-175 -187 -430 -187q-115 0 -205 43l-111 -155l-82 53l111 156q-147 123 -147 348zM201 426q0 -156 90 -246l512 721q-66 29 -135 29 q-202 0 -336 -152q-131 -149 -131 -352zM371 125q65 -27 135 -27q198 0 332 152q135 150 135 350q0 148 -90 244z" />
<glyph unicode="&#xf9;" horiz-adv-x="1058" d="M158 365l116 663h129l-114 -651q-50 -277 160 -277q115 0 215 95q99 94 129 251l100 582h129l-182 -1028h-119l22 150q-39 -67 -127 -119q-91 -54 -194 -54q-159 0 -228 104.5t-36 283.5zM375 1499h155l201 -323h-127z" />
<glyph unicode="&#xfa;" horiz-adv-x="1058" d="M158 365l116 663h129l-114 -651q-50 -277 160 -277q115 0 215 95q99 94 129 251l100 582h129l-182 -1028h-119l22 150q-39 -67 -127 -119q-91 -54 -194 -54q-159 0 -228 104.5t-36 283.5zM578 1176l311 323h178l-342 -323h-147z" />
<glyph unicode="&#xfb;" horiz-adv-x="1058" d="M158 365l116 663h129l-114 -651q-50 -277 160 -277q115 0 215 95q99 94 129 251l100 582h129l-182 -1028h-119l22 150q-39 -67 -127 -119q-91 -54 -194 -54q-159 0 -228 104.5t-36 283.5zM340 1176l336 323h72l217 -323h-138l-127 202l-196 -202h-164z" />
<glyph unicode="&#xfc;" horiz-adv-x="1058" d="M158 365l116 663h129l-114 -651q-50 -277 160 -277q115 0 215 95q99 94 129 251l100 582h129l-182 -1028h-119l22 150q-39 -67 -127 -119q-91 -54 -194 -54q-159 0 -228 104.5t-36 283.5zM401 1276q0 42 35 76t78 34q33 0 56.5 -22.5t23.5 -54.5q0 -42 -36 -75.5 t-79 -33.5q-35 0 -56.5 21.5t-21.5 54.5zM766 1276q0 42 35 76t78 34q32 0 54.5 -22.5t22.5 -54.5q0 -42 -34.5 -75.5t-77.5 -33.5q-35 0 -56.5 20.5t-21.5 55.5z" />
<glyph unicode="&#xfd;" horiz-adv-x="1013" d="M68 -440l262 465l-217 1003h133l168 -797l8 -71l35 71l446 797h144l-838 -1468h-141zM502 1176l311 323h178l-342 -323h-147z" />
<glyph unicode="&#xfe;" horiz-adv-x="1230" d="M51 -440l342 1935h129l-114 -647q60 90 163.5 146.5t229.5 56.5q186 0 293 -125q108 -123 108 -314q0 -249 -160 -444q-159 -191 -417 -191q-125 0 -213.5 57t-120.5 146l-111 -620h-129zM340 475q-30 -176 51 -276q82 -101 232 -101q187 0 317 154q129 156 129 352 q0 148 -77.5 236t-215.5 88q-145 0 -270 -107q-122 -104 -156 -284z" />
<glyph unicode="&#xff;" horiz-adv-x="1013" d="M68 -440l262 465l-217 1003h133l168 -797l8 -71l35 71l446 797h144l-838 -1468h-141zM328 1276q0 43 34.5 76.5t77.5 33.5q33 0 56.5 -22.5t23.5 -54.5q0 -42 -35.5 -75.5t-78.5 -33.5q-35 0 -56.5 21.5t-21.5 54.5zM692 1276q0 42 35 76t78 34q32 0 55 -22.5t23 -54.5 q0 -42 -35 -75.5t-78 -33.5q-35 0 -56.5 20.5t-21.5 55.5z" />
<glyph unicode="&#x152;" horiz-adv-x="2267" d="M106 594q0 367 252 616q253 250 598 250q193 0 335.5 -83t215.5 -234l52 291h772l-25 -127h-635l-88 -504h561l-20 -127h-561l-99 -549h635l-20 -127h-772l47 266q-119 -138 -284.5 -215.5t-344.5 -77.5q-283 0 -451 174t-168 447zM244 596q0 -217 133 -356 q134 -140 358 -140q282 0 492 213q211 211 211 525q0 217 -133 356t-355 139q-284 0 -497 -213q-209 -212 -209 -524z" />
<glyph unicode="&#x153;" horiz-adv-x="2017" d="M68 422q0 255 172 442q175 187 434 187q139 0 243 -68t152 -186q169 254 459 254q211 0 321 -140q108 -138 68 -385l-10 -61h-817l-7 -25v-34q0 -142 78.5 -225t212.5 -83q244 0 352 193h136q-73 -151 -200 -232.5t-296 -81.5q-136 0 -236.5 66.5t-144.5 185.5 q-86 -119 -211.5 -185.5t-271.5 -66.5q-202 0 -318 125t-116 320zM201 426q0 -148 82.5 -238t222.5 -90q165 0 289 109q122 105 163 270q2 35 13 90q2 6 2 33q0 147 -83.5 238.5t-221.5 91.5q-202 0 -336 -152q-131 -149 -131 -352zM1110 582h686q26 165 -45.5 256.5 t-230.5 91.5q-153 0 -263 -94.5t-147 -253.5z" />
<glyph unicode="&#x178;" horiz-adv-x="1366" d="M178 1434h152l313 -658l39 -96l76 96l549 658h168l-738 -885l-94 -549h-137l96 549zM563 1579q0 44 33.5 76.5t77.5 32.5q35 0 57.5 -21.5t22.5 -56.5q0 -42 -35 -74.5t-78 -32.5q-35 0 -56.5 20.5t-21.5 55.5zM928 1579q0 44 33 76.5t77 32.5q35 0 56.5 -21.5 t21.5 -56.5q0 -42 -33.5 -74.5t-76.5 -32.5q-35 0 -56.5 21.5t-21.5 54.5z" />
<glyph unicode="&#x2c6;" horiz-adv-x="661" d="M139 1176l336 323h72l217 -323h-137l-127 202l-197 -202h-164z" />
<glyph unicode="&#x2dc;" horiz-adv-x="690" d="M137 1184q47 246 230 246q44 0 76 -16.5t50.5 -39.5t34 -46t35 -39.5t45.5 -16.5q95 0 119 139h98q-44 -246 -229 -246q-44 0 -76.5 16.5t-51 40t-33.5 47t-34.5 40t-44.5 16.5q-96 0 -120 -141h-99z" />
<glyph unicode="&#x2000;" horiz-adv-x="924" />
<glyph unicode="&#x2001;" horiz-adv-x="1849" />
<glyph unicode="&#x2002;" horiz-adv-x="924" />
<glyph unicode="&#x2003;" horiz-adv-x="1849" />
<glyph unicode="&#x2004;" horiz-adv-x="616" />
<glyph unicode="&#x2005;" horiz-adv-x="462" />
<glyph unicode="&#x2006;" horiz-adv-x="308" />
<glyph unicode="&#x2007;" horiz-adv-x="308" />
<glyph unicode="&#x2008;" horiz-adv-x="231" />
<glyph unicode="&#x2009;" horiz-adv-x="369" />
<glyph unicode="&#x200a;" horiz-adv-x="102" />
<glyph unicode="&#x2010;" horiz-adv-x="747" d="M49 473l21 117h645l-21 -117h-645z" />
<glyph unicode="&#x2011;" horiz-adv-x="747" d="M49 473l21 117h645l-21 -117h-645z" />
<glyph unicode="&#x2012;" horiz-adv-x="747" d="M49 473l21 117h645l-21 -117h-645z" />
<glyph unicode="&#x2013;" horiz-adv-x="1054" d="M45 473l18 117h953l-19 -117h-952z" />
<glyph unicode="&#x2014;" horiz-adv-x="1443" d="M45 473l18 117h1342l-19 -117h-1341z" />
<glyph unicode="&#x2018;" horiz-adv-x="346" d="M168 1122q3 86 63 185q64 104 140 174l43 -19q-82 -112 -115 -231q37 -5 59 -29.5t21 -60.5q-1 -47 -39 -82t-86 -35q-41 0 -64.5 27.5t-21.5 70.5z" />
<glyph unicode="&#x2019;" horiz-adv-x="346" d="M174 1032q80 109 117 230q-39 5 -61 28.5t-21 59.5q1 47 38.5 82.5t84.5 35.5q41 0 64.5 -26.5t21.5 -69.5q-3 -85 -64 -186t-137 -174z" />
<glyph unicode="&#x201a;" horiz-adv-x="346" d="M-20 -248q74 96 116 232q-38 5 -60.5 27.5t-21.5 58.5q1 49 38 83.5t85 34.5q41 0 65.5 -26t22.5 -68q-3 -85 -63 -184q-57 -99 -137 -176z" />
<glyph unicode="&#x201c;" horiz-adv-x="677" d="M168 1122q3 86 63 185q64 104 140 174l43 -19q-82 -112 -115 -231q37 -5 59 -29.5t21 -60.5q-1 -47 -39 -82t-86 -35q-41 0 -64.5 27.5t-21.5 70.5zM498 1122q3 86 63 185q65 106 139 174l43 -19q-81 -110 -114 -231q37 -5 59 -29.5t21 -60.5q-1 -47 -39 -82t-86 -35 q-41 0 -64.5 27.5t-21.5 70.5z" />
<glyph unicode="&#x201d;" horiz-adv-x="677" d="M174 1032q80 109 117 230q-39 5 -61 28.5t-21 59.5q1 47 38.5 82.5t84.5 35.5q41 0 64.5 -26.5t21.5 -69.5q-3 -85 -64 -186t-137 -174zM502 1032q78 106 116 230q-39 5 -60.5 28.5t-20.5 59.5q1 47 38 82.5t84 35.5q41 0 64.5 -26.5t21.5 -69.5q-3 -87 -63 -186 q-61 -101 -137 -174z" />
<glyph unicode="&#x201e;" horiz-adv-x="694" d="M-20 -248q74 96 116 232q-38 5 -60.5 27.5t-21.5 58.5q1 49 38 83.5t85 34.5q41 0 65.5 -26t22.5 -68q-3 -85 -63 -184q-57 -99 -137 -176zM326 -248q74 96 116 232q-38 5 -60.5 27.5t-21.5 58.5q1 49 38 83.5t85 34.5q41 0 65.5 -26t22.5 -68q-3 -85 -63 -184 q-57 -99 -137 -176z" />
<glyph unicode="&#x2022;" horiz-adv-x="727" d="M78 477q0 140 102 242q105 102 242 102q108 0 176 -66t68 -171q0 -140 -105 -242q-103 -100 -242 -100q-108 0 -174.5 65t-66.5 170z" />
<glyph unicode="&#x2026;" horiz-adv-x="1204" d="M8 66q0 54 38.5 92.5t92.5 38.5q41 0 66.5 -26t25.5 -65q0 -53 -39.5 -91t-91.5 -38q-41 0 -66.5 25t-25.5 64zM416 66q0 54 38.5 92.5t92.5 38.5q41 0 66.5 -26t25.5 -65q0 -53 -40.5 -91t-92.5 -38q-41 0 -65.5 24t-24.5 65zM821 66q0 53 39.5 92t91.5 39 q41 0 66.5 -26t25.5 -65q0 -53 -39.5 -91t-91.5 -38q-41 0 -66.5 25t-25.5 64z" />
<glyph unicode="&#x202f;" horiz-adv-x="369" />
<glyph unicode="&#x2039;" horiz-adv-x="499" d="M29 504l6 31l364 378h152l-393 -407l243 -393h-129z" />
<glyph unicode="&#x203a;" horiz-adv-x="499" d="M-45 113l393 407l-244 393h129l244 -391l-6 -30l-365 -379h-151z" />
<glyph unicode="&#x205f;" horiz-adv-x="462" />
<glyph unicode="&#x20ac;" horiz-adv-x="1161" d="M23 475l18 115h158q6 121 41 262h-152l18 115h168q82 229 229 361t343 132q173 0 273.5 -95.5t107.5 -268.5h-146q3 237 -243 237q-141 0 -247.5 -97.5t-172.5 -268.5h334l-21 -115h-352q-38 -140 -47 -262h354l-20 -115h-336q9 -375 280 -375q246 0 340 242h148 q-86 -195 -200.5 -282t-295.5 -87q-187 0 -293 133.5t-112 368.5h-174z" />
<glyph unicode="&#x2122;" horiz-adv-x="1251" d="M190 1335l17 99h438l-18 -99h-166l-84 -475h-107l86 475h-166zM616 860l103 574h112l105 -385l6 -35l21 35l237 385h129l-102 -574h-107l68 379l-27 -49l-198 -330h-82l-86 330l-9 49l-65 -379h-105z" />
<glyph unicode="&#x25fc;" horiz-adv-x="1024" d="M0 0v1024h1024v-1024h-1024z" />
</font>
</defs>
</svg>
